<?xml version="1.0" encoding="UTF-8" standalone="no"?>
<!DOCTYPE svg PUBLIC "-//W3C//DTD SVG 1.1//EN"
 "http://www.w3.org/Graphics/SVG/1.1/DTD/svg11.dtd">
<!-- Generated by graphviz version 2.28.0 (20110517.1826)
 -->
<!-- Title: G Pages: 1 -->
<svg width="375pt" height="400pt"
 viewBox="0.00 0.00 375.00 400.00" xmlns="http://www.w3.org/2000/svg" xmlns:xlink="http://www.w3.org/1999/xlink">
<g id="graph1" class="graph" transform="scale(1 1) rotate(0) translate(4 396)">
<script type='text/javascript'>
  <![CDATA[

var windows = new Array()
var info = new Array()

function openWin(target, time) {
  win = window.open(target + "_" + time + ".html", target, "location=no,width=400,height=180,left=0,status=no");
  // hm, an associative array, how strange.
  info[target] = 1
}

function advanceTo(time) {
  arr = gup("wins").split(",");
  for (i=0; i < arr.length; i++) {
    if (arr[i] != "") {
      openWin(arr[i], time);
    }
  }
  str = '';
  // getting 'key_cols'
  for (var i in info) {
    str = str + ',' + i;
  }
  self.window.location.href = 'tm_' + time + '.svg?wins=' + str;
}

// off the netz
function gup(name) {
  name = name.replace(/[[]/,"\[").replace(/[]]/,"\]");
  var regexS = "[\?&]"+name+"=([^&#]*)";
  var regex = new RegExp(regexS);
  var results = regex.exec(window.location.href);
  if (results == null)
    return "";
  else
    return results[1];
}

  ]]>
</script>

<polygon fill="white" stroke="white" points="-4,5 -4,-396 372,-396 372,5 -4,5"/>
<!-- n_S -->
<g id="node1" class="node"><title>n_S</title>
<a xlink:href="javascript:advanceTo(-2)" xlink:title="S ">
<polygon fill="none" stroke="blue" stroke-width="3" points="180,-392 149,-364 180,-336 211,-364 180,-392"/>
<text text-anchor="middle" x="180" y="-359.6" font-family="Times,serif" font-size="18.00">S </text>
</a>
</g>
<!-- n_push -->
<g id="node3" class="node"><title>n_push</title>
<ellipse fill="none" stroke="green" cx="89" cy="-280" rx="38.3379" ry="19.6"/>
<text text-anchor="middle" x="89" y="-275.6" font-family="Times,serif" font-size="18.00">push </text>
</g>
<!-- n_S&#45;&gt;n_push -->
<g id="edge4" class="edge"><title>n_S&#45;&gt;n_push</title>
<path fill="none" stroke="blue" stroke-width="5" d="M164.973,-349.459C153.53,-339.148 137.327,-324.547 122.822,-311.477"/>
<polygon fill="blue" stroke="blue" points="128.226,-304.568 107.511,-297.68 116.512,-317.569 128.226,-304.568"/>
</g>
<!-- n_pop -->
<g id="node4" class="node"><title>n_pop</title>
<ellipse fill="none" stroke="green" cx="180" cy="-280" rx="33.4126" ry="19.6"/>
<text text-anchor="middle" x="180" y="-275.6" font-family="Times,serif" font-size="18.00">pop </text>
</g>
<!-- n_S&#45;&gt;n_pop -->
<g id="edge2" class="edge"><title>n_S&#45;&gt;n_pop</title>
<path fill="none" stroke="blue" stroke-width="5" d="M180,-335.695C180,-330.65 180,-325.293 180,-319.981"/>
<polygon fill="blue" stroke="blue" points="188.75,-319.906 180,-299.906 171.25,-319.906 188.75,-319.906"/>
</g>
<!-- n_peek -->
<g id="node6" class="node"><title>n_peek</title>
<ellipse fill="none" stroke="green" cx="272" cy="-280" rx="39.3965" ry="19.6"/>
<text text-anchor="middle" x="272" y="-275.6" font-family="Times,serif" font-size="18.00">peek </text>
</g>
<!-- n_S&#45;&gt;n_peek -->
<g id="edge6" class="edge"><title>n_S&#45;&gt;n_peek</title>
<path fill="none" stroke="blue" stroke-width="5" d="M195.192,-349.459C206.886,-339.037 223.495,-324.233 238.279,-311.056"/>
<polygon fill="blue" stroke="blue" points="244.177,-317.52 253.285,-297.68 232.533,-304.456 244.177,-317.52"/>
</g>
<!-- n_T -->
<g id="node2" class="node"><title>n_T</title>
<a xlink:href="javascript:advanceTo(0)" xlink:title="T ">
<polygon fill="none" stroke="blue" stroke-width="3" points="180,-56 148,-28 180,-1.42109e-14 212,-28 180,-56"/>
<text text-anchor="middle" x="180" y="-23.6" font-family="Times,serif" font-size="18.00">T </text>
</a>
</g>
<!-- n_?? -->
<g id="node13" class="node"><title>n_??</title>
<polygon fill="none" stroke="red" stroke-width="2" points="180,-224 144,-196 180,-168 216,-196 180,-224"/>
<text text-anchor="middle" x="180" y="-191.6" font-family="Times,serif" font-size="18.00">?? </text>
</g>
<!-- n_push&#45;&gt;n_?? -->
<g id="edge18" class="edge"><title>n_push&#45;&gt;n_??</title>
<path fill="none" stroke="green" stroke-width="5" d="M107.415,-262.406C119.285,-251.71 135.023,-237.529 148.809,-225.106"/>
<polygon fill="green" stroke="green" points="154.747,-231.534 163.747,-211.645 143.032,-218.533 154.747,-231.534"/>
</g>
<!-- n_pop&#45;&gt;n_?? -->
<g id="edge12" class="edge"><title>n_pop&#45;&gt;n_??</title>
<path fill="none" stroke="green" stroke-width="5" d="M180,-259.981C180,-255.262 180,-249.991 180,-244.562"/>
<polygon fill="green" stroke="green" points="188.75,-244.305 180,-224.305 171.25,-244.305 188.75,-244.305"/>
</g>
<!-- n_pop_response -->
<g id="node5" class="node"><title>n_pop_response</title>
<ellipse fill="none" stroke="green" cx="84" cy="-112" rx="84.2802" ry="19.6"/>
<text text-anchor="middle" x="84" y="-107.6" font-family="Times,serif" font-size="18.00">pop_response </text>
</g>
<!-- n_pop_response&#45;&gt;n_T -->
<g id="edge10" class="edge"><title>n_pop_response&#45;&gt;n_T</title>
<path fill="none" stroke="green" stroke-width="5" d="M105.306,-92.8015C118.09,-81.8816 134.579,-67.7974 148.811,-55.6409"/>
<polygon fill="green" stroke="green" points="154.6,-62.2038 164.124,-42.5607 143.233,-48.8972 154.6,-62.2038"/>
</g>
<!-- n_peek&#45;&gt;n_?? -->
<g id="edge14" class="edge"><title>n_peek&#45;&gt;n_??</title>
<path fill="none" stroke="green" stroke-width="5" d="M253.382,-262.406C241.382,-251.71 225.472,-237.529 211.534,-225.106"/>
<polygon fill="green" stroke="green" points="217.183,-218.421 196.431,-211.645 205.539,-231.485 217.183,-218.421"/>
</g>
<!-- n_peek_response -->
<g id="node7" class="node"><title>n_peek_response</title>
<ellipse fill="none" stroke="green" cx="277" cy="-112" rx="90.2645" ry="19.6"/>
<text text-anchor="middle" x="277" y="-107.6" font-family="Times,serif" font-size="18.00">peek_response </text>
</g>
<!-- n_peek_response&#45;&gt;n_T -->
<g id="edge8" class="edge"><title>n_peek_response&#45;&gt;n_T</title>
<path fill="none" stroke="green" stroke-width="5" d="M254.989,-92.3929C242.053,-81.4569 225.489,-67.4546 211.221,-55.3928"/>
<polygon fill="green" stroke="green" points="216.803,-48.654 195.88,-42.4245 205.505,-62.0185 216.803,-48.654"/>
</g>
<!-- n_??&#45;&gt;n_pop_response -->
<g id="edge20" class="edge"><title>n_??&#45;&gt;n_pop_response</title>
<path fill="none" stroke="red" stroke-width="5" d="M163.278,-180.717C151.647,-170.782 135.676,-157.14 121.115,-144.702"/>
<polygon fill="red" stroke="red" points="126.472,-137.771 105.582,-131.434 115.106,-151.077 126.472,-137.771"/>
</g>
<!-- n_??&#45;&gt;n_peek_response -->
<g id="edge16" class="edge"><title>n_??&#45;&gt;n_peek_response</title>
<path fill="none" stroke="red" stroke-width="5" d="M196.896,-180.717C208.648,-170.782 224.786,-157.14 239.498,-144.702"/>
<polygon fill="red" stroke="red" points="245.569,-151.028 255.194,-131.434 234.271,-137.664 245.569,-151.028"/>
</g>
</g>
</svg>
