<?xml version="1.0" encoding="UTF-8" standalone="no"?>
<!DOCTYPE svg PUBLIC "-//W3C//DTD SVG 1.1//EN"
 "http://www.w3.org/Graphics/SVG/1.1/DTD/svg11.dtd">
<!-- Generated by graphviz version 2.28.0 (20110517.1826)
 -->
<!-- Title: G Pages: 1 -->
<svg width="402pt" height="242pt"
 viewBox="0.00 0.00 402.00 242.00" xmlns="http://www.w3.org/2000/svg" xmlns:xlink="http://www.w3.org/1999/xlink">
<g id="graph1" class="graph" transform="scale(1 1) rotate(0) translate(4 238)">
<script type='text/javascript'>
  <![CDATA[

var windows = new Array()
var info = new Array()

function openWin(target, time) {
  win = window.open(target + "_" + time + ".html", target, "location=no,width=400,height=180,left=0,status=no");
  // hm, an associative array, how strange.
  info[target] = 1
}

function advanceTo(time) {
  arr = gup("wins").split(",");
  for (i=0; i < arr.length; i++) {
    if (arr[i] != "") {
      openWin(arr[i], time);
    }
  }
  str = '';
  // getting 'key_cols'
  for (var i in info) {
    str = str + ',' + i;
  }
  self.window.location.href = 'tm_' + time + '.svg?wins=' + str;
}

// off the netz
function gup(name) {
  name = name.replace(/[[]/,"\[").replace(/[]]/,"\]");
  var regexS = "[\?&]"+name+"=([^&#]*)";
  var regex = new RegExp(regexS);
  var results = regex.exec(window.location.href);
  if (results == null)
    return "";
  else
    return results[1];
}

  ]]>
</script>

<polygon fill="white" stroke="white" points="-4,5 -4,-238 399,-238 399,5 -4,5"/>
<!-- n_alarm, countdowns -->
<g id="node1" class="node"><title>n_alarm, countdowns</title>
<a xlink:href="Alarm_viz_expanded.svg" xlink:title="alarm, countdowns">
<polygon fill="none" stroke="red" stroke-width="3" points="342.3,-13.1521 342.3,-30.8479 273.587,-43.3608 176.413,-43.3608 107.7,-30.8479 107.7,-13.1521 176.413,-0.639229 273.587,-0.639229 342.3,-13.1521"/>
<text text-anchor="middle" x="225" y="-17.6" font-family="Times,serif" font-size="18.00">alarm, countdowns</text>
</a>
</g>
<!-- n_stop_alarm -->
<g id="node2" class="node"><title>n_stop_alarm</title>
<ellipse fill="none" stroke="green" cx="71" cy="-120" rx="71.127" ry="19.6"/>
<text text-anchor="middle" x="71" y="-115.6" font-family="Times,serif" font-size="18.00">stop_alarm </text>
</g>
<!-- n_stop_alarm&#45;&gt;n_alarm, countdowns -->
<g id="edge2" class="edge"><title>n_stop_alarm&#45;&gt;n_alarm, countdowns</title>
<a xlink:href="26.html" xlink:title=" +/&#45;">
<path fill="none" stroke="green" stroke-width="5" d="M98.8882,-101.615C116.431,-90.6793 139.811,-76.1047 161.672,-62.477"/>
<polygon fill="green" stroke="green" points="192.243,-43.4202 180.031,-61.6379 184.815,-50.4075 176.328,-55.6976 175.27,-54.0003 174.212,-52.3031 182.698,-47.013 170.509,-46.3628 192.243,-43.4202 192.243,-43.4202"/>
<ellipse fill="none" stroke="green" cx="168.481" cy="-58.2324" rx="8.00001" ry="8.00001"/>
</a>
<a xlink:href="26.html" xlink:title=" +/&#45;">
<text text-anchor="middle" x="174.5" y="-67.6" font-family="Times,serif" font-size="18.00"> +/&#45;</text>
</a>
</g>
<!-- n_set_alarm -->
<g id="node4" class="node"><title>n_set_alarm</title>
<ellipse fill="none" stroke="green" cx="225" cy="-120" rx="64.0209" ry="19.6"/>
<text text-anchor="middle" x="225" y="-115.6" font-family="Times,serif" font-size="18.00">set_alarm </text>
</g>
<!-- n_set_alarm&#45;&gt;n_alarm, countdowns -->
<g id="edge4" class="edge"><title>n_set_alarm&#45;&gt;n_alarm, countdowns</title>
<a xlink:href="25.html">
<path fill="none" stroke="green" stroke-width="5" d="M225,-100.033C225,-89.729 225,-76.565 225,-64.0457"/>
<polygon fill="green" stroke="green" points="233.75,-63.5888 225,-43.5889 216.25,-63.5889 233.75,-63.5888"/>
</a>
</g>
<!-- n_ticker -->
<g id="node6" class="node"><title>n_ticker</title>
<ellipse fill="none" stroke="green" cx="351" cy="-120" rx="43.263" ry="19.6"/>
<text text-anchor="middle" x="351" y="-115.6" font-family="Times,serif" font-size="18.00">ticker </text>
</g>
<!-- n_ticker&#45;&gt;n_alarm, countdowns -->
<g id="edge6" class="edge"><title>n_ticker&#45;&gt;n_alarm, countdowns</title>
<a xlink:href="27.html" xlink:title=" +/&#45;">
<path fill="none" stroke="green" stroke-width="5" d="M329.626,-102.715C316.114,-92.4201 297.978,-78.6024 280.603,-65.3644"/>
<polygon fill="green" stroke="green" points="251.748,-43.3793 273.111,-48.3413 260.914,-47.8489 268.869,-53.9093 267.656,-55.5002 266.444,-57.0911 258.49,-51.0306 262.202,-62.6591 251.748,-43.3793 251.748,-43.3793"/>
<ellipse fill="none" stroke="green" cx="274.02" cy="-60.3486" rx="8.00001" ry="8.00001"/>
</a>
<a xlink:href="27.html" xlink:title=" +/&#45;">
<text text-anchor="middle" x="311.5" y="-67.6" font-family="Times,serif" font-size="18.00"> +/&#45;</text>
</a>
</g>
<!-- n_S -->
<g id="node8" class="node"><title>n_S</title>
<a xlink:href="javascript:advanceTo(-2)" xlink:title="S ">
<polygon fill="none" stroke="blue" stroke-width="3" points="225,-234 194,-206 225,-178 256,-206 225,-234"/>
<text text-anchor="middle" x="225" y="-201.6" font-family="Times,serif" font-size="18.00">S </text>
</a>
</g>
<!-- n_S&#45;&gt;n_stop_alarm -->
<g id="edge12" class="edge"><title>n_S&#45;&gt;n_stop_alarm</title>
<path fill="none" stroke="blue" stroke-width="5" d="M206.117,-194.7C184.734,-183.037 149.057,-163.577 119.732,-147.581"/>
<polygon fill="blue" stroke="blue" points="123.785,-139.825 102.037,-137.929 115.405,-155.188 123.785,-139.825"/>
</g>
<!-- n_S&#45;&gt;n_set_alarm -->
<g id="edge10" class="edge"><title>n_S&#45;&gt;n_set_alarm</title>
<path fill="none" stroke="blue" stroke-width="5" d="M225,-177.959C225,-172.256 225,-166.129 225,-160.083"/>
<polygon fill="blue" stroke="blue" points="233.75,-160.01 225,-140.01 216.25,-160.01 233.75,-160.01"/>
</g>
<!-- n_S&#45;&gt;n_ticker -->
<g id="edge8" class="edge"><title>n_S&#45;&gt;n_ticker</title>
<path fill="none" stroke="blue" stroke-width="5" d="M242.108,-193.406C249.184,-188.622 257.479,-183.031 265,-178 279.761,-168.127 295.987,-157.352 310.329,-147.855"/>
<polygon fill="blue" stroke="blue" points="315.383,-155.003 327.237,-136.672 305.729,-140.407 315.383,-155.003"/>
</g>
<!-- n_T -->
<g id="node9" class="node"><title>n_T</title>
<a xlink:href="javascript:advanceTo(0)" xlink:title="T ">
<polygon fill="none" stroke="blue" stroke-width="3" points="306,-234 274,-206 306,-178 338,-206 306,-234"/>
<text text-anchor="middle" x="306" y="-201.6" font-family="Times,serif" font-size="18.00">T </text>
</a>
</g>
</g>
</svg>
