<?xml version="1.0" encoding="UTF-8" standalone="no"?>
<!DOCTYPE svg PUBLIC "-//W3C//DTD SVG 1.1//EN"
 "http://www.w3.org/Graphics/SVG/1.1/DTD/svg11.dtd">
<!-- Generated by graphviz version 2.28.0 (20110517.1826)
 -->
<!-- Title: G Pages: 1 -->
<svg width="374pt" height="442pt"
 viewBox="0.00 0.00 373.66 442.00" xmlns="http://www.w3.org/2000/svg" xmlns:xlink="http://www.w3.org/1999/xlink">
<g id="graph1" class="graph" transform="scale(1 1) rotate(0) translate(4 438)">
<script type='text/javascript'>
  <![CDATA[

var windows = new Array()
var info = new Array()

function openWin(target, time) {
  win = window.open(target + "_" + time + ".html", target, "location=no,width=400,height=180,left=0,status=no");
  // hm, an associative array, how strange.
  info[target] = 1
}

function advanceTo(time) {
  arr = gup("wins").split(",");
  for (i=0; i < arr.length; i++) {
    if (arr[i] != "") {
      openWin(arr[i], time);
    }
  }
  str = '';
  // getting 'key_cols'
  for (var i in info) {
    str = str + ',' + i;
  }
  self.window.location.href = 'tm_' + time + '.svg?wins=' + str;
}

// off the netz
function gup(name) {
  name = name.replace(/[[]/,"\[").replace(/[]]/,"\]");
  var regexS = "[\?&]"+name+"=([^&#]*)";
  var regex = new RegExp(regexS);
  var results = regex.exec(window.location.href);
  if (results == null)
    return "";
  else
    return results[1];
}

  ]]>
</script>

<polygon fill="white" stroke="white" points="-4,5 -4,-438 370.659,-438 370.659,5 -4,5"/>
<!-- n_countdowns -->
<g id="node1" class="node"><title>n_countdowns</title>
<a xlink:href="countdowns.html" xlink:title="countdowns N">
<polygon fill="none" stroke="yellow" points="292.659,-132 170.659,-132 170.659,-96 292.659,-96 292.659,-132"/>
<text text-anchor="middle" x="231.659" y="-109.6" font-family="Times,serif" font-size="18.00">countdowns N</text>
</a>
</g>
<!-- n_countdowns&#45;&gt;n_countdowns -->
<g id="edge4" class="edge"><title>n_countdowns&#45;&gt;n_countdowns</title>
<a xlink:href="27.html" xlink:title=" +/&#45;">
<path fill="none" stroke="yellow" stroke-width="5" d="M292.938,-122.052C293.101,-122.035 293.264,-122.017 293.426,-121.999"/>
<polygon fill="yellow" stroke="yellow" points="292.938,-105.948 302.542,-125.665 295.241,-115.883 295.545,-125.878 293.546,-125.939 291.547,-126 291.243,-116.004 284.55,-126.213 292.938,-105.948 292.938,-105.948"/>
<ellipse fill="none" stroke="yellow" cx="293.789" cy="-133.935" rx="8" ry="8"/>
</a>
<a xlink:href="27.html" xlink:title=" +/&#45;">
<text text-anchor="middle" x="323.159" y="-109.6" font-family="Times,serif" font-size="18.00"> +/&#45;</text>
</a>
</g>
<!-- n_alarm -->
<g id="node5" class="node"><title>n_alarm</title>
<a xlink:href="alarm.html" xlink:title="alarm N">
<ellipse fill="none" stroke="yellow" cx="231.659" cy="-20" rx="51.99" ry="19.6"/>
<text text-anchor="middle" x="231.659" y="-15.6" font-family="Times,serif" font-size="18.00">alarm N</text>
</a>
</g>
<!-- n_countdowns&#45;&gt;n_alarm -->
<g id="edge8" class="edge"><title>n_countdowns&#45;&gt;n_alarm</title>
<a xlink:href="28.html">
<path fill="none" stroke="yellow" stroke-width="5" d="M230.487,-95.9185C230.148,-90.2225 229.825,-83.8405 229.659,-78 229.49,-72.0996 229.44,-69.1345 229.725,-59.8808"/>
<polygon fill="yellow" stroke="yellow" points="238.472,-60.1156 230.445,-39.8149 220.984,-59.4885 238.472,-60.1156"/>
</a>
</g>
<!-- n_countdown_durations -->
<g id="node2" class="node"><title>n_countdown_durations</title>
<a xlink:href="countdown_durations.html" xlink:title="countdown_durations N">
<polygon fill="none" stroke="yellow" points="233.909,-224 43.4088,-224 43.4088,-188 233.909,-188 233.909,-224"/>
<text text-anchor="middle" x="138.659" y="-201.6" font-family="Times,serif" font-size="18.00">countdown_durations N</text>
</a>
</g>
<!-- n_countdown_durations&#45;&gt;n_countdowns -->
<g id="edge2" class="edge"><title>n_countdown_durations&#45;&gt;n_countdowns</title>
<a xlink:href="32.html" xlink:title=" +/&#45;">
<path fill="none" stroke="yellow" stroke-width="5" d="M156.59,-187.647C165.467,-179.056 176.613,-168.27 187.579,-157.658"/>
<polygon fill="yellow" stroke="yellow" points="213.782,-132.3 205.669,-152.676 207.987,-140.691 200.801,-147.645 199.41,-146.208 198.02,-144.771 205.206,-137.817 193.152,-139.741 213.782,-132.3 213.782,-132.3"/>
<ellipse fill="none" stroke="yellow" cx="193.662" cy="-151.771" rx="8.00001" ry="8.00001"/>
</a>
<a xlink:href="32.html" xlink:title=" +/&#45;">
<text text-anchor="middle" x="206.159" y="-155.6" font-family="Times,serif" font-size="18.00"> +/&#45;</text>
</a>
</g>
<!-- n_alarm&#45;&gt;n_countdowns -->
<g id="edge6" class="edge"><title>n_alarm&#45;&gt;n_countdowns</title>
<a xlink:href="32.html" xlink:title=" +/&#45;">
<path fill="none" stroke="yellow" stroke-width="5" d="M231.659,-39.81C231.659,-45.6995 231.659,-52.5164 231.659,-59.5729"/>
<polygon fill="yellow" stroke="yellow" points="231.659,-95.6955 222.659,-75.6955 229.659,-85.6955 229.659,-75.6955 231.659,-75.6955 233.659,-75.6955 233.659,-85.6955 240.659,-75.6955 231.659,-95.6955 231.659,-95.6955"/>
<ellipse fill="none" stroke="yellow" cx="231.659" cy="-67.6955" rx="8" ry="8"/>
</a>
<a xlink:href="32.html" xlink:title=" +/&#45;">
<text text-anchor="middle" x="244.159" y="-63.6" font-family="Times,serif" font-size="18.00"> +/&#45;</text>
</a>
</g>
<!-- n_stop_alarm -->
<g id="node8" class="node"><title>n_stop_alarm</title>
<ellipse fill="none" stroke="green" cx="75.6588" cy="-320" rx="71.127" ry="19.6"/>
<text text-anchor="middle" x="75.6588" y="-315.6" font-family="Times,serif" font-size="18.00">stop_alarm </text>
</g>
<!-- n_stop_alarm&#45;&gt;n_countdowns -->
<g id="edge14" class="edge"><title>n_stop_alarm&#45;&gt;n_countdowns</title>
<a xlink:href="26.html" xlink:title=" +/&#45;">
<path fill="none" stroke="green" stroke-width="5" d="M54.3146,-301.062C25.7596,-274.869 -18.3273,-225.229 8.65876,-188 37.498,-148.214 88.6701,-129.714 134.726,-121.274"/>
<polygon fill="green" stroke="green" points="170.431,-116.411 151.828,-128.028 160.792,-119.742 150.884,-121.092 150.614,-119.11 150.344,-117.129 160.252,-115.779 149.399,-110.193 170.431,-116.411 170.431,-116.411"/>
<ellipse fill="none" stroke="green" cx="142.687" cy="-120.19" rx="8" ry="8"/>
</a>
<a xlink:href="26.html" xlink:title=" +/&#45;">
<text text-anchor="middle" x="21.1588" y="-201.6" font-family="Times,serif" font-size="18.00"> +/&#45;</text>
</a>
</g>
<!-- n_stop_alarm&#45;&gt;n_countdown_durations -->
<g id="edge10" class="edge"><title>n_stop_alarm&#45;&gt;n_countdown_durations</title>
<a xlink:href="31.html" xlink:title=" +/&#45;">
<path fill="none" stroke="green" stroke-width="5" d="M86.2035,-300.254C93.0423,-288.096 102.293,-271.651 111.121,-255.956"/>
<polygon fill="green" stroke="green" points="128.909,-224.333 126.948,-246.177 125.749,-234.029 120.847,-242.745 119.104,-241.765 117.361,-240.784 122.263,-232.068 111.259,-237.352 128.909,-224.333 128.909,-224.333"/>
<ellipse fill="none" stroke="green" cx="115.182" cy="-248.737" rx="8.00001" ry="8.00001"/>
</a>
<a xlink:href="31.html" xlink:title=" +/&#45;">
<text text-anchor="middle" x="131.159" y="-257.6" font-family="Times,serif" font-size="18.00"> +/&#45;</text>
</a>
</g>
<!-- n_set_alarm -->
<g id="node10" class="node"><title>n_set_alarm</title>
<ellipse fill="none" stroke="green" cx="229.659" cy="-320" rx="64.0209" ry="19.6"/>
<text text-anchor="middle" x="229.659" y="-315.6" font-family="Times,serif" font-size="18.00">set_alarm </text>
</g>
<!-- n_set_alarm&#45;&gt;n_countdowns -->
<g id="edge16" class="edge"><title>n_set_alarm&#45;&gt;n_countdowns</title>
<a xlink:href="25.html">
<path fill="none" stroke="green" stroke-width="5" d="M233.637,-299.934C238.475,-274.455 245.647,-227.884 242.659,-188 241.778,-176.24 240.109,-163.502 238.332,-152.01"/>
<polygon fill="green" stroke="green" points="246.917,-150.294 234.963,-132.028 229.66,-153.205 246.917,-150.294"/>
</a>
</g>
<!-- n_set_alarm&#45;&gt;n_countdown_durations -->
<g id="edge12" class="edge"><title>n_set_alarm&#45;&gt;n_countdown_durations</title>
<a xlink:href="30.html">
<path fill="none" stroke="green" stroke-width="5" d="M214.632,-300.505C201.211,-283.988 181.245,-259.413 165.148,-239.602"/>
<polygon fill="green" stroke="green" points="171.917,-234.057 152.514,-224.052 158.335,-245.092 171.917,-234.057"/>
</a>
</g>
<!-- n_ticker -->
<g id="node14" class="node"><title>n_ticker</title>
<ellipse fill="none" stroke="green" cx="321.659" cy="-262" rx="43.263" ry="19.6"/>
<text text-anchor="middle" x="321.659" y="-257.6" font-family="Times,serif" font-size="18.00">ticker </text>
</g>
<!-- n_ticker&#45;&gt;n_countdowns -->
<g id="edge18" class="edge"><title>n_ticker&#45;&gt;n_countdowns</title>
<a xlink:href="27.html" xlink:title=" +/&#45;">
<path fill="none" stroke="green" stroke-width="5" d="M317.271,-242.204C312.437,-223.805 303.417,-194.92 280.427,-160.858"/>
<polygon fill="green" stroke="green" points="258.512,-132.188 277.808,-142.612 266.174,-138.918 272.247,-146.863 270.658,-148.077 269.069,-149.292 262.996,-141.347 263.508,-153.543 258.512,-132.188 258.512,-132.188"/>
<ellipse fill="none" stroke="green" cx="275.516" cy="-154.433" rx="8.00001" ry="8.00001"/>
</a>
<a xlink:href="27.html" xlink:title=" +/&#45;">
<text text-anchor="middle" x="325.159" y="-201.6" font-family="Times,serif" font-size="18.00"> +/&#45;</text>
</a>
</g>
<!-- n_S -->
<g id="node16" class="node"><title>n_S</title>
<a xlink:href="javascript:advanceTo(-2)" xlink:title="S ">
<polygon fill="none" stroke="blue" stroke-width="3" points="229.659,-434 198.659,-406 229.659,-378 260.659,-406 229.659,-434"/>
<text text-anchor="middle" x="229.659" y="-401.6" font-family="Times,serif" font-size="18.00">S </text>
</a>
</g>
<!-- n_S&#45;&gt;n_stop_alarm -->
<g id="edge24" class="edge"><title>n_S&#45;&gt;n_stop_alarm</title>
<path fill="none" stroke="blue" stroke-width="5" d="M210.775,-394.7C189.393,-383.037 153.716,-363.577 124.391,-347.581"/>
<polygon fill="blue" stroke="blue" points="128.443,-339.825 106.696,-337.929 120.064,-355.188 128.443,-339.825"/>
</g>
<!-- n_S&#45;&gt;n_set_alarm -->
<g id="edge22" class="edge"><title>n_S&#45;&gt;n_set_alarm</title>
<path fill="none" stroke="blue" stroke-width="5" d="M229.659,-377.959C229.659,-372.256 229.659,-366.129 229.659,-360.083"/>
<polygon fill="blue" stroke="blue" points="238.409,-360.01 229.659,-340.01 220.909,-360.01 238.409,-360.01"/>
</g>
<!-- n_S&#45;&gt;n_ticker -->
<g id="edge20" class="edge"><title>n_S&#45;&gt;n_ticker</title>
<path fill="none" stroke="blue" stroke-width="5" d="M247.475,-393.811C264.252,-382.339 288.814,-362.961 302.659,-340 309.582,-328.518 313.988,-314.631 316.789,-301.829"/>
<polygon fill="blue" stroke="blue" points="325.447,-303.103 320.15,-281.925 308.192,-300.189 325.447,-303.103"/>
</g>
<!-- n_T -->
<g id="node17" class="node"><title>n_T</title>
<a xlink:href="javascript:advanceTo(0)" xlink:title="T ">
<polygon fill="none" stroke="blue" stroke-width="3" points="310.659,-434 278.659,-406 310.659,-378 342.659,-406 310.659,-434"/>
<text text-anchor="middle" x="310.659" y="-401.6" font-family="Times,serif" font-size="18.00">T </text>
</a>
</g>
</g>
</svg>
