<?xml version="1.0" encoding="UTF-8" standalone="no"?>
<!DOCTYPE svg PUBLIC "-//W3C//DTD SVG 1.1//EN"
 "http://www.w3.org/Graphics/SVG/1.1/DTD/svg11.dtd">
<!-- Generated by graphviz version 2.28.0 (20110517.1826)
 -->
<!-- Title: G Pages: 1 -->
<svg width="851pt" height="964pt"
 viewBox="0.00 0.00 851.00 964.00" xmlns="http://www.w3.org/2000/svg" xmlns:xlink="http://www.w3.org/1999/xlink">
<g id="graph1" class="graph" transform="scale(1 1) rotate(0) translate(4 960)">
<script type='text/javascript'>
  <![CDATA[

var windows = new Array()
var info = new Array()

function openWin(target, time) {
  win = window.open(target + "_" + time + ".html", target, "location=no,width=400,height=180,left=0,status=no");
  // hm, an associative array, how strange.
  info[target] = 1
}

function advanceTo(time) {
  arr = gup("wins").split(",");
  for (i=0; i < arr.length; i++) {
    if (arr[i] != "") {
      openWin(arr[i], time);
    }
  }
  str = '';
  // getting 'key_cols'
  for (var i in info) {
    str = str + ',' + i;
  }
  self.window.location.href = 'tm_' + time + '.svg?wins=' + str;
}

// off the netz
function gup(name) {
  name = name.replace(/[[]/,"\[").replace(/[]]/,"\]");
  var regexS = "[\?&]"+name+"=([^&#]*)";
  var regex = new RegExp(regexS);
  var results = regex.exec(window.location.href);
  if (results == null)
    return "";
  else
    return results[1];
}

  ]]>
</script>

<polygon fill="white" stroke="white" points="-4,5 -4,-960 848,-960 848,5 -4,5"/>
<!-- n_unacked_count -->
<g id="node1" class="node"><title>n_unacked_count</title>
<a xlink:href="unacked_count.html" xlink:title="unacked_count D">
<polygon fill="none" stroke="red" points="300,-208 156,-208 156,-172 300,-172 300,-208"/>
<text text-anchor="middle" x="228" y="-185.6" font-family="Times,serif" font-size="18.00">unacked_count D</text>
</a>
</g>
<!-- n_unacked_count&#45;&gt;n_unacked_count -->
<g id="edge10" class="edge"><title>n_unacked_count&#45;&gt;n_unacked_count</title>
<a xlink:href="39.html" xlink:title=" +/&#45;">
<path fill="none" stroke="red" stroke-width="5" d="M300.026,-196.123C300.194,-196.108 300.36,-196.093 300.526,-196.078"/>
<polygon fill="red" stroke="red" points="300.026,-183.877 309.838,-203.491 302.434,-193.786 302.843,-203.778 300.845,-203.86 298.847,-203.942 298.437,-193.95 291.853,-204.228 300.026,-183.877 300.026,-183.877"/>
<ellipse fill="none" stroke="red" cx="301.173" cy="-211.853" rx="8" ry="8"/>
</a>
<a xlink:href="39.html" xlink:title=" +/&#45;">
<text text-anchor="middle" x="330.5" y="-185.6" font-family="Times,serif" font-size="18.00"> +/&#45;</text>
</a>
</g>
<!-- n_mcast_done -->
<g id="node26" class="node"><title>n_mcast_done</title>
<a xlink:href="mcast_done.html" xlink:title="mcast_done D">
<ellipse fill="none" stroke="red" cx="306" cy="-114" rx="84.2802" ry="19.6"/>
<text text-anchor="middle" x="306" y="-109.6" font-family="Times,serif" font-size="18.00">mcast_done D</text>
</a>
</g>
<!-- n_unacked_count&#45;&gt;n_mcast_done -->
<g id="edge28" class="edge"><title>n_unacked_count&#45;&gt;n_mcast_done</title>
<a xlink:href="38.html">
<path fill="none" stroke="red" stroke-width="5" d="M246.091,-171.837C253.78,-164.542 263.009,-155.786 271.894,-147.357"/>
<polygon fill="red" stroke="red" points="278.157,-153.476 286.644,-133.363 266.112,-140.781 278.157,-153.476"/>
</a>
</g>
<!-- n_acked_count -->
<g id="node2" class="node"><title>n_acked_count</title>
<a xlink:href="acked_count.html" xlink:title="acked_count D">
<ellipse fill="none" stroke="red" cx="329" cy="-304" rx="89.1432" ry="19.6"/>
<text text-anchor="middle" x="329" y="-299.6" font-family="Times,serif" font-size="18.00">acked_count D</text>
</a>
</g>
<!-- n_acked_count&#45;&gt;n_unacked_count -->
<g id="edge2" class="edge"><title>n_acked_count&#45;&gt;n_unacked_count</title>
<a xlink:href="37.html" xlink:title=" +/&#45;">
<path fill="none" stroke="red" stroke-width="5" d="M312.322,-284.505C300.196,-271.059 283.255,-252.273 267.736,-235.064"/>
<polygon fill="red" stroke="red" points="243.377,-208.052 263.455,-216.878 251.56,-214.139 258.257,-221.566 256.771,-222.905 255.286,-224.244 248.589,-216.818 250.088,-228.932 243.377,-208.052 243.377,-208.052"/>
<ellipse fill="none" stroke="red" cx="262.129" cy="-228.846" rx="8.00001" ry="8.00001"/>
</a>
<a xlink:href="37.html" xlink:title=" +/&#45;">
<text text-anchor="middle" x="306.5" y="-241.6" font-family="Times,serif" font-size="18.00"> +/&#45;</text>
</a>
</g>
<!-- n_pipe_sent -->
<g id="node4" class="node"><title>n_pipe_sent</title>
<a xlink:href="pipe_sent.html" xlink:title="pipe_sent A">
<ellipse fill="none" stroke="yellow" cx="355" cy="-420" rx="72.2493" ry="19.6"/>
<text text-anchor="middle" x="355" y="-415.6" font-family="Times,serif" font-size="18.00">pipe_sent A</text>
</a>
</g>
<!-- n_pipe_sent&#45;&gt;n_acked_count -->
<g id="edge30" class="edge"><title>n_pipe_sent&#45;&gt;n_acked_count</title>
<a xlink:href="36.html">
<path fill="none" stroke="yellow" stroke-width="5" d="M348.279,-399.938C346.408,-394.216 344.484,-387.894 343,-382 341.184,-374.791 339.505,-367.147 337.988,-359.583"/>
<polygon fill="yellow" stroke="yellow" points="331.701,-323.821 344.028,-341.961 335.402,-333.324 337.134,-343.173 335.164,-343.519 333.194,-343.866 331.463,-334.017 326.3,-345.078 331.701,-323.821 331.701,-323.821"/>
<ellipse fill="none" stroke="yellow" cx="336.549" cy="-351.399" rx="8" ry="8"/>
</a>
</g>
<!-- n_ack, bed__pipe_chan, bed__pipe_in, bed__pipe_out, buf, msg_acked -->
<g id="node5" class="node"><title>n_ack, bed__pipe_chan, bed__pipe_in, bed__pipe_out, buf, msg_acked</title>
<a xlink:href="ReliableMulticast_viz_expanded.svg" xlink:title="ack, bed__pipe_chan, bed__pipe_in, bed__pipe_out,\nbuf, msg_acked">
<polygon fill="none" stroke="red" stroke-width="3" points="843.332,-499.684 843.332,-530.316 666.816,-551.977 417.184,-551.977 240.668,-530.316 240.668,-499.684 417.184,-478.023 666.816,-478.023 843.332,-499.684"/>
<text text-anchor="middle" x="542" y="-520.6" font-family="Times,serif" font-size="18.00">ack, bed__pipe_chan, bed__pipe_in, bed__pipe_out,</text>
<text text-anchor="middle" x="542" y="-500.6" font-family="Times,serif" font-size="18.00">buf, msg_acked</text>
</a>
</g>
<!-- n_ack, bed__pipe_chan, bed__pipe_in, bed__pipe_out, buf, msg_acked&#45;&gt;n_pipe_sent -->
<g id="edge4" class="edge"><title>n_ack, bed__pipe_chan, bed__pipe_in, bed__pipe_out, buf, msg_acked&#45;&gt;n_pipe_sent</title>
<a xlink:href="34.html">
<path fill="none" stroke="red" stroke-width="5" d="M469.968,-478.177C448.87,-467.684 426.23,-456.424 406.667,-446.695"/>
<polygon fill="red" stroke="red" points="410.459,-438.809 388.655,-437.737 402.666,-454.478 410.459,-438.809"/>
</a>
</g>
<!-- n_bed__pipe_sent -->
<g id="node17" class="node"><title>n_bed__pipe_sent</title>
<a xlink:href="bed__pipe_sent.html" xlink:title="bed__pipe_sent M">
<ellipse fill="none" stroke="black" cx="450" cy="-362" rx="106.099" ry="19.6"/>
<text text-anchor="middle" x="450" y="-357.6" font-family="Times,serif" font-size="18.00">bed__pipe_sent M</text>
</a>
</g>
<!-- n_ack, bed__pipe_chan, bed__pipe_in, bed__pipe_out, buf, msg_acked&#45;&gt;n_bed__pipe_sent -->
<g id="edge18" class="edge"><title>n_ack, bed__pipe_chan, bed__pipe_in, bed__pipe_out, buf, msg_acked&#45;&gt;n_bed__pipe_sent</title>
<a xlink:href="25.html">
<path fill="none" stroke="red" stroke-width="5" d="M520.197,-478.215C505.69,-454.405 486.695,-423.227 472.122,-399.31"/>
<polygon fill="red" stroke="red" points="479.433,-394.491 461.554,-381.964 464.488,-403.597 479.433,-394.491"/>
</a>
</g>
<!-- n_pipe_out -->
<g id="node24" class="node"><title>n_pipe_out</title>
<a xlink:href="pipe_out.html" xlink:title="pipe_out A">
<ellipse fill="none" stroke="yellow" cx="552" cy="-246" rx="68.3838" ry="19.6"/>
<text text-anchor="middle" x="552" y="-241.6" font-family="Times,serif" font-size="18.00">pipe_out A</text>
</a>
</g>
<!-- n_ack, bed__pipe_chan, bed__pipe_in, bed__pipe_out, buf, msg_acked&#45;&gt;n_pipe_out -->
<g id="edge26" class="edge"><title>n_ack, bed__pipe_chan, bed__pipe_in, bed__pipe_out, buf, msg_acked&#45;&gt;n_pipe_out</title>
<a xlink:href="31.html">
<path fill="none" stroke="red" stroke-width="5" d="M547.173,-478.238C550.735,-451.736 555.148,-414.699 557,-382 558.005,-364.251 557.467,-359.772 557,-342 556.517,-323.632 555.51,-303.288 554.525,-286.154"/>
<polygon fill="red" stroke="red" points="563.242,-285.344 553.289,-265.914 545.774,-286.41 563.242,-285.344"/>
</a>
</g>
<!-- n_pipe_in -->
<g id="node7" class="node"><title>n_pipe_in</title>
<a xlink:href="pipe_in.html" xlink:title="pipe_in M">
<ellipse fill="none" stroke="black" cx="310" cy="-648" rx="63.459" ry="19.6"/>
<text text-anchor="middle" x="310" y="-643.6" font-family="Times,serif" font-size="18.00">pipe_in M</text>
</a>
</g>
<!-- n_pipe_in&#45;&gt;n_ack, bed__pipe_chan, bed__pipe_in, bed__pipe_out, buf, msg_acked -->
<g id="edge6" class="edge"><title>n_pipe_in&#45;&gt;n_ack, bed__pipe_chan, bed__pipe_in, bed__pipe_out, buf, msg_acked</title>
<a xlink:href="28.html">
<path fill="none" stroke="black" stroke-width="5" d="M327.029,-628.697C343.743,-611.609 370.643,-586.354 398,-570 403.557,-566.678 409.354,-563.5 415.295,-560.47"/>
<polygon fill="black" stroke="black" points="419.158,-568.322 433.454,-551.824 411.635,-552.522 419.158,-568.322"/>
</a>
</g>
<!-- n_member -->
<g id="node9" class="node"><title>n_member</title>
<a xlink:href="member.html" xlink:title="member M">
<polygon fill="none" stroke="black" points="217.25,-744 122.75,-744 122.75,-708 217.25,-708 217.25,-744"/>
<text text-anchor="middle" x="170" y="-721.6" font-family="Times,serif" font-size="18.00">member M</text>
</a>
</g>
<!-- n_member&#45;&gt;n_pipe_in -->
<g id="edge8" class="edge"><title>n_member&#45;&gt;n_pipe_in</title>
<a xlink:href="40.html">
<path fill="none" stroke="black" stroke-width="5" d="M201.419,-707.944C219.227,-698.277 241.881,-685.979 261.883,-675.12"/>
<polygon fill="black" stroke="black" points="266.245,-682.709 279.648,-665.477 257.896,-667.329 266.245,-682.709"/>
</a>
</g>
<!-- n_num_members -->
<g id="node14" class="node"><title>n_num_members</title>
<a xlink:href="num_members.html" xlink:title="num_members N">
<ellipse fill="none" stroke="yellow" cx="98" cy="-590" rx="98.4924" ry="19.6"/>
<text text-anchor="middle" x="98" y="-585.6" font-family="Times,serif" font-size="18.00">num_members N</text>
</a>
</g>
<!-- n_member&#45;&gt;n_num_members -->
<g id="edge16" class="edge"><title>n_member&#45;&gt;n_num_members</title>
<a xlink:href="41.html">
<path fill="none" stroke="black" stroke-width="5" d="M160.735,-707.756C151.809,-691.144 137.859,-665.182 125.378,-641.954"/>
<polygon fill="black" stroke="black" points="108.157,-609.904 125.552,-623.262 114.652,-617.766 119.385,-626.575 117.624,-627.522 115.862,-628.468 111.129,-619.659 109.695,-631.781 108.157,-609.904 108.157,-609.904"/>
<ellipse fill="none" stroke="black" cx="121.41" cy="-634.569" rx="8.00001" ry="8.00001"/>
</a>
</g>
<!-- n_clock -->
<g id="node12" class="node"><title>n_clock</title>
<ellipse fill="none" stroke="green" cx="405" cy="-784" rx="42.1401" ry="19.6"/>
<text text-anchor="middle" x="405" y="-779.6" font-family="Times,serif" font-size="18.00">clock </text>
</g>
<!-- n_clock&#45;&gt;n_ack, bed__pipe_chan, bed__pipe_in, bed__pipe_out, buf, msg_acked -->
<g id="edge12" class="edge"><title>n_clock&#45;&gt;n_ack, bed__pipe_chan, bed__pipe_in, bed__pipe_out, buf, msg_acked</title>
<a xlink:href="30.html">
<path fill="none" stroke="green" stroke-width="5" d="M410.171,-764.236C414.812,-748.388 422.231,-725.262 431,-706 452.899,-657.893 483.55,-606.287 507.096,-569.016"/>
<polygon fill="green" stroke="green" points="514.608,-573.512 518.015,-551.949 499.866,-564.081 514.608,-573.512"/>
</a>
</g>
<!-- n_num_members&#45;&gt;n_unacked_count -->
<g id="edge14" class="edge"><title>n_num_members&#45;&gt;n_unacked_count</title>
<a xlink:href="42.html">
<path fill="none" stroke="yellow" stroke-width="5" d="M107.199,-570.277C118.445,-545.62 136,-500.624 136,-460 136,-460 136,-460 136,-303 136,-269.47 160.925,-240.501 184.828,-220.43"/>
<polygon fill="yellow" stroke="yellow" points="190.424,-227.164 200.895,-208.009 179.72,-213.319 190.424,-227.164"/>
</a>
</g>
<!-- n_T -->
<g id="node33" class="node"><title>n_T</title>
<a xlink:href="javascript:advanceTo(0)" xlink:title="T ">
<polygon fill="none" stroke="blue" stroke-width="3" points="450,-56 418,-28 450,-1.42109e-14 482,-28 450,-56"/>
<text text-anchor="middle" x="450" y="-23.6" font-family="Times,serif" font-size="18.00">T </text>
</a>
</g>
<!-- n_bed__pipe_sent&#45;&gt;n_T -->
<g id="edge42" class="edge"><title>n_bed__pipe_sent&#45;&gt;n_T</title>
<path fill="none" stroke="black" stroke-width="5" d="M450,-342.039C450,-319.416 450,-280.448 450,-247 450,-247 450,-247 450,-113 450,-101.151 450,-88.3619 450,-76.423"/>
<polygon fill="black" stroke="black" points="458.75,-76.2378 450,-56.2378 441.25,-76.2379 458.75,-76.2378"/>
</g>
<!-- n_mcast_send -->
<g id="node19" class="node"><title>n_mcast_send</title>
<ellipse fill="none" stroke="green" cx="310" cy="-726" rx="74.3697" ry="19.6"/>
<text text-anchor="middle" x="310" y="-721.6" font-family="Times,serif" font-size="18.00">mcast_send </text>
</g>
<!-- n_mcast_send&#45;&gt;n_unacked_count -->
<g id="edge24" class="edge"><title>n_mcast_send&#45;&gt;n_unacked_count</title>
<a xlink:href="42.html">
<path fill="none" stroke="green" stroke-width="5" d="M265.874,-709.991C239.862,-698.045 212,-678.389 212,-649 212,-649 212,-649 212,-303 212,-277.794 216.021,-249.715 220.031,-227.977"/>
<polygon fill="green" stroke="green" points="228.614,-229.679 223.963,-208.35 211.454,-226.242 228.614,-229.679"/>
</a>
</g>
<!-- n_mcast_send&#45;&gt;n_pipe_in -->
<g id="edge20" class="edge"><title>n_mcast_send&#45;&gt;n_pipe_in</title>
<a xlink:href="40.html">
<path fill="none" stroke="green" stroke-width="5" d="M310,-705.822C310,-700.38 310,-694.25 310,-688.081"/>
<polygon fill="green" stroke="green" points="318.75,-687.909 310,-667.909 301.25,-687.909 318.75,-687.909"/>
</a>
</g>
<!-- n_add_member -->
<g id="node21" class="node"><title>n_add_member</title>
<ellipse fill="none" stroke="green" cx="204" cy="-842" rx="80.9767" ry="19.6"/>
<text text-anchor="middle" x="204" y="-837.6" font-family="Times,serif" font-size="18.00">add_member </text>
</g>
<!-- n_add_member&#45;&gt;n_member -->
<g id="edge22" class="edge"><title>n_add_member&#45;&gt;n_member</title>
<a xlink:href="43.html">
<path fill="none" stroke="green" stroke-width="5" d="M198.386,-822.175C193.648,-806.292 186.728,-783.089 180.907,-763.571"/>
<polygon fill="green" stroke="green" points="189.278,-761.022 175.177,-744.357 172.508,-766.023 189.278,-761.022"/>
</a>
</g>
<!-- n_pipe_out&#45;&gt;n_T -->
<g id="edge46" class="edge"><title>n_pipe_out&#45;&gt;n_T</title>
<path fill="none" stroke="yellow" stroke-width="5" d="M543.127,-226.209C526.327,-190.634 489.596,-112.851 467.617,-66.3073"/>
<polygon fill="yellow" stroke="yellow" points="475.524,-62.5595 459.072,-48.2108 459.7,-70.0321 475.524,-62.5595"/>
</g>
<!-- n_mcast_done&#45;&gt;n_T -->
<g id="edge44" class="edge"><title>n_mcast_done&#45;&gt;n_T</title>
<path fill="none" stroke="red" stroke-width="5" d="M336.187,-95.3908C358.833,-82.1806 389.925,-64.0438 413.889,-50.0645"/>
<polygon fill="red" stroke="red" points="418.416,-57.5538 431.283,-39.9183 409.598,-42.4377 418.416,-57.5538"/>
</g>
<!-- n_local_id -->
<g id="node29" class="node"><title>n_local_id</title>
<a xlink:href="local_id.html" xlink:title="local_id M">
<polygon fill="none" stroke="black" points="534,-744 440,-744 440,-708 534,-708 534,-744"/>
<text text-anchor="middle" x="487" y="-721.6" font-family="Times,serif" font-size="18.00">local_id M</text>
</a>
</g>
<!-- n_my_id -->
<g id="node30" class="node"><title>n_my_id</title>
<ellipse fill="none" stroke="green" cx="473" cy="-842" rx="46.503" ry="19.6"/>
<text text-anchor="middle" x="473" y="-837.6" font-family="Times,serif" font-size="18.00">my_id </text>
</g>
<!-- n_my_id&#45;&gt;n_local_id -->
<g id="edge32" class="edge"><title>n_my_id&#45;&gt;n_local_id</title>
<a xlink:href="44.html">
<path fill="none" stroke="green" stroke-width="5" d="M475.312,-822.175C477.231,-806.545 480.021,-783.828 482.394,-764.508"/>
<polygon fill="green" stroke="green" points="491.115,-765.274 484.868,-744.357 473.746,-763.141 491.115,-765.274"/>
</a>
</g>
<!-- n_S -->
<g id="node32" class="node"><title>n_S</title>
<a xlink:href="javascript:advanceTo(-2)" xlink:title="S ">
<polygon fill="none" stroke="blue" stroke-width="3" points="355,-956 324,-928 355,-900 386,-928 355,-956"/>
<text text-anchor="middle" x="355" y="-923.6" font-family="Times,serif" font-size="18.00">S </text>
</a>
</g>
<!-- n_S&#45;&gt;n_clock -->
<g id="edge34" class="edge"><title>n_S&#45;&gt;n_clock</title>
<path fill="none" stroke="blue" stroke-width="5" d="M362.27,-906.352C369.959,-884.516 382.258,-849.587 391.691,-822.798"/>
<polygon fill="blue" stroke="blue" points="399.971,-825.628 398.36,-803.858 383.464,-819.816 399.971,-825.628"/>
</g>
<!-- n_S&#45;&gt;n_mcast_send -->
<g id="edge38" class="edge"><title>n_S&#45;&gt;n_mcast_send</title>
<path fill="none" stroke="blue" stroke-width="5" d="M349.925,-904.446C342.346,-870.761 327.97,-806.866 318.695,-765.643"/>
<polygon fill="blue" stroke="blue" points="327.184,-763.513 314.257,-745.922 310.111,-767.355 327.184,-763.513"/>
</g>
<!-- n_S&#45;&gt;n_add_member -->
<g id="edge36" class="edge"><title>n_S&#45;&gt;n_add_member</title>
<path fill="none" stroke="blue" stroke-width="5" d="M336.484,-916.7C315.812,-905.2 281.512,-886.119 252.993,-870.254"/>
<polygon fill="blue" stroke="blue" points="257.019,-862.481 235.287,-860.405 248.511,-877.774 257.019,-862.481"/>
</g>
<!-- n_S&#45;&gt;n_my_id -->
<g id="edge40" class="edge"><title>n_S&#45;&gt;n_my_id</title>
<path fill="none" stroke="blue" stroke-width="5" d="M371.907,-914.965C387.938,-903.553 412.62,-885.982 433.583,-871.06"/>
<polygon fill="blue" stroke="blue" points="438.826,-878.068 450.045,-859.341 428.677,-863.811 438.826,-878.068"/>
</g>
</g>
</svg>
