<?xml version="1.0" encoding="UTF-8" standalone="no"?>
<!DOCTYPE svg PUBLIC "-//W3C//DTD SVG 1.1//EN"
 "http://www.w3.org/Graphics/SVG/1.1/DTD/svg11.dtd">
<!-- Generated by graphviz version 2.28.0 (20110517.1826)
 -->
<!-- Title: G Pages: 1 -->
<svg width="594pt" height="494pt"
 viewBox="0.00 0.00 594.00 494.00" xmlns="http://www.w3.org/2000/svg" xmlns:xlink="http://www.w3.org/1999/xlink">
<g id="graph1" class="graph" transform="scale(1 1) rotate(0) translate(4 490)">
<script type='text/javascript'>
  <![CDATA[

var windows = new Array()
var info = new Array()

function openWin(target, time) {
  win = window.open(target + "_" + time + ".html", target, "location=no,width=400,height=180,left=0,status=no");
  // hm, an associative array, how strange.
  info[target] = 1
}

function advanceTo(time) {
  arr = gup("wins").split(",");
  for (i=0; i < arr.length; i++) {
    if (arr[i] != "") {
      openWin(arr[i], time);
    }
  }
  str = '';
  // getting 'key_cols'
  for (var i in info) {
    str = str + ',' + i;
  }
  self.window.location.href = 'tm_' + time + '.svg?wins=' + str;
}

// off the netz
function gup(name) {
  name = name.replace(/[[]/,"\[").replace(/[]]/,"\]");
  var regexS = "[\?&]"+name+"=([^&#]*)";
  var regex = new RegExp(regexS);
  var results = regex.exec(window.location.href);
  if (results == null)
    return "";
  else
    return results[1];
}

  ]]>
</script>

<polygon fill="white" stroke="white" points="-4,5 -4,-490 591,-490 591,5 -4,5"/>
<!-- n_items, lowest, lowest_popr, pop_response, remove_response -->
<g id="node1" class="node"><title>n_items, lowest, lowest_popr, pop_response, remove_response</title>
<a xlink:href="PriorityQueue_viz_expanded.svg" xlink:title="items, lowest, lowest_popr, pop_response,\nremove_response">
<polygon fill="none" stroke="red" stroke-width="3" points="488.376,-265.684 488.376,-296.316 345.224,-317.977 142.776,-317.977 -0.376278,-296.316 -0.376278,-265.684 142.776,-244.023 345.224,-244.023 488.376,-265.684"/>
<text text-anchor="middle" x="244" y="-286.6" font-family="Times,serif" font-size="18.00">items, lowest, lowest_popr, pop_response,</text>
<text text-anchor="middle" x="244" y="-266.6" font-family="Times,serif" font-size="18.00">remove_response</text>
</a>
</g>
<!-- n_lowest_peekr -->
<g id="node4" class="node"><title>n_lowest_peekr</title>
<a xlink:href="lowest_peekr.html" xlink:title="lowest_peekr N">
<ellipse fill="none" stroke="yellow" cx="395" cy="-188" rx="92.4462" ry="19.6"/>
<text text-anchor="middle" x="395" y="-183.6" font-family="Times,serif" font-size="18.00">lowest_peekr N</text>
</a>
</g>
<!-- n_items, lowest, lowest_popr, pop_response, remove_response&#45;&gt;n_lowest_peekr -->
<g id="edge4" class="edge"><title>n_items, lowest, lowest_popr, pop_response, remove_response&#45;&gt;n_lowest_peekr</title>
<a xlink:href="28.html">
<path fill="none" stroke="red" stroke-width="5" d="M303.679,-244.034C318.353,-235.191 333.861,-225.845 347.85,-217.415"/>
<polygon fill="red" stroke="red" points="352.554,-224.796 365.167,-206.979 343.521,-209.808 352.554,-224.796"/>
</a>
</g>
<!-- n_pop -->
<g id="node2" class="node"><title>n_pop</title>
<ellipse fill="none" stroke="green" cx="199" cy="-374" rx="33.4126" ry="19.6"/>
<text text-anchor="middle" x="199" y="-369.6" font-family="Times,serif" font-size="18.00">pop </text>
</g>
<!-- n_pop&#45;&gt;n_items, lowest, lowest_popr, pop_response, remove_response -->
<g id="edge2" class="edge"><title>n_pop&#45;&gt;n_items, lowest, lowest_popr, pop_response, remove_response</title>
<a xlink:href="27.html">
<path fill="none" stroke="green" stroke-width="5" d="M208.106,-354.585C210.822,-349.094 213.947,-342.775 217.196,-336.204"/>
<polygon fill="green" stroke="green" points="225.142,-339.874 226.164,-318.068 209.455,-332.117 225.142,-339.874"/>
</a>
</g>
<!-- n_peek_response -->
<g id="node6" class="node"><title>n_peek_response</title>
<a xlink:href="peek_response.html" xlink:title="peek_response N">
<ellipse fill="none" stroke="yellow" cx="395" cy="-112" rx="98.4924" ry="19.6"/>
<text text-anchor="middle" x="395" y="-107.6" font-family="Times,serif" font-size="18.00">peek_response N</text>
</a>
</g>
<!-- n_lowest_peekr&#45;&gt;n_peek_response -->
<g id="edge6" class="edge"><title>n_lowest_peekr&#45;&gt;n_peek_response</title>
<a xlink:href="30.html">
<path fill="none" stroke="yellow" stroke-width="5" d="M395,-167.943C395,-167.857 395,-167.77 395,-167.684"/>
<polygon fill="yellow" stroke="yellow" points="395,-131.992 404,-151.992 397,-141.992 397,-151.992 395,-151.992 393,-151.992 393,-141.992 386,-151.992 395,-131.992 395,-131.992"/>
<ellipse fill="none" stroke="yellow" cx="395" cy="-159.992" rx="8" ry="8"/>
</a>
</g>
<!-- n_T -->
<g id="node15" class="node"><title>n_T</title>
<a xlink:href="javascript:advanceTo(0)" xlink:title="T ">
<polygon fill="none" stroke="blue" stroke-width="3" points="395,-56 363,-28 395,-1.42109e-14 427,-28 395,-56"/>
<text text-anchor="middle" x="395" y="-23.6" font-family="Times,serif" font-size="18.00">T </text>
</a>
</g>
<!-- n_peek_response&#45;&gt;n_T -->
<g id="edge22" class="edge"><title>n_peek_response&#45;&gt;n_T</title>
<path fill="none" stroke="yellow" stroke-width="5" d="M395,-91.9814C395,-87.2621 395,-81.9911 395,-76.5625"/>
<polygon fill="yellow" stroke="yellow" points="403.75,-76.3048 395,-56.3048 386.25,-76.3049 403.75,-76.3048"/>
</g>
<!-- n_push -->
<g id="node8" class="node"><title>n_push</title>
<ellipse fill="none" stroke="green" cx="290" cy="-374" rx="38.3379" ry="19.6"/>
<text text-anchor="middle" x="290" y="-369.6" font-family="Times,serif" font-size="18.00">push </text>
</g>
<!-- n_push&#45;&gt;n_items, lowest, lowest_popr, pop_response, remove_response -->
<g id="edge8" class="edge"><title>n_push&#45;&gt;n_items, lowest, lowest_popr, pop_response, remove_response</title>
<a xlink:href="25.html">
<path fill="none" stroke="green" stroke-width="5" d="M280.691,-354.585C277.915,-349.094 274.721,-342.775 271.4,-336.204"/>
<polygon fill="green" stroke="green" points="279.064,-331.969 262.232,-318.068 263.446,-339.864 279.064,-331.969"/>
</a>
</g>
<!-- n_peek -->
<g id="node10" class="node"><title>n_peek</title>
<ellipse fill="none" stroke="green" cx="547" cy="-281" rx="39.3965" ry="19.6"/>
<text text-anchor="middle" x="547" y="-276.6" font-family="Times,serif" font-size="18.00">peek </text>
</g>
<!-- n_peek&#45;&gt;n_lowest_peekr -->
<g id="edge10" class="edge"><title>n_peek&#45;&gt;n_lowest_peekr</title>
<a xlink:href="28.html">
<path fill="none" stroke="green" stroke-width="5" d="M526.007,-263.961C517.221,-257.494 506.792,-250.129 497,-244 481.433,-234.256 464,-224.468 448.009,-215.907"/>
<polygon fill="green" stroke="green" points="451.874,-208.053 430.099,-206.495 443.734,-223.545 451.874,-208.053"/>
</a>
</g>
<!-- n_remove -->
<g id="node12" class="node"><title>n_remove</title>
<ellipse fill="none" stroke="green" cx="400" cy="-374" rx="53.0495" ry="19.6"/>
<text text-anchor="middle" x="400" y="-369.6" font-family="Times,serif" font-size="18.00">remove </text>
</g>
<!-- n_remove&#45;&gt;n_items, lowest, lowest_popr, pop_response, remove_response -->
<g id="edge12" class="edge"><title>n_remove&#45;&gt;n_items, lowest, lowest_popr, pop_response, remove_response</title>
<a xlink:href="31.html">
<path fill="none" stroke="green" stroke-width="5" d="M372.469,-356.941C358.489,-348.785 340.718,-338.419 322.886,-328.017"/>
<polygon fill="green" stroke="green" points="327.217,-320.414 305.533,-317.894 318.4,-335.53 327.217,-320.414"/>
</a>
</g>
<!-- n_S -->
<g id="node14" class="node"><title>n_S</title>
<a xlink:href="javascript:advanceTo(-2)" xlink:title="S ">
<polygon fill="none" stroke="blue" stroke-width="3" points="345,-486 314,-458 345,-430 376,-458 345,-486"/>
<text text-anchor="middle" x="345" y="-453.6" font-family="Times,serif" font-size="18.00">S </text>
</a>
</g>
<!-- n_S&#45;&gt;n_pop -->
<g id="edge14" class="edge"><title>n_S&#45;&gt;n_pop</title>
<path fill="none" stroke="blue" stroke-width="5" d="M326.509,-446.615C304.959,-434.511 268.686,-414.139 240.326,-398.21"/>
<polygon fill="blue" stroke="blue" points="244.373,-390.448 222.65,-388.283 235.803,-405.706 244.373,-390.448"/>
</g>
<!-- n_S&#45;&gt;n_push -->
<g id="edge16" class="edge"><title>n_S&#45;&gt;n_push</title>
<path fill="none" stroke="blue" stroke-width="5" d="M333.604,-440.01C327.678,-431.174 320.211,-420.042 313.139,-409.499"/>
<polygon fill="blue" stroke="blue" points="320.36,-404.555 301.952,-392.82 305.826,-414.303 320.36,-404.555"/>
</g>
<!-- n_S&#45;&gt;n_peek -->
<g id="edge20" class="edge"><title>n_S&#45;&gt;n_peek</title>
<path fill="none" stroke="blue" stroke-width="5" d="M366.09,-448.9C390.876,-438.685 432.376,-419.348 462,-394 487.611,-372.086 510.324,-341.226 525.813,-317.447"/>
<polygon fill="blue" stroke="blue" points="533.413,-321.797 536.604,-300.201 518.578,-312.514 533.413,-321.797"/>
</g>
<!-- n_S&#45;&gt;n_remove -->
<g id="edge18" class="edge"><title>n_S&#45;&gt;n_remove</title>
<path fill="none" stroke="blue" stroke-width="5" d="M356.396,-440.01C362.17,-431.401 369.407,-420.611 376.316,-410.31"/>
<polygon fill="blue" stroke="blue" points="383.788,-414.878 387.662,-393.394 369.255,-405.13 383.788,-414.878"/>
</g>
</g>
</svg>
