<?xml version="1.0" encoding="UTF-8" standalone="no"?>
<!DOCTYPE svg PUBLIC "-//W3C//DTD SVG 1.1//EN"
 "http://www.w3.org/Graphics/SVG/1.1/DTD/svg11.dtd">
<!-- Generated by graphviz version 2.28.0 (20110517.1826)
 -->
<!-- Title: G Pages: 1 -->
<svg width="158pt" height="400pt"
 viewBox="0.00 0.00 158.00 400.00" xmlns="http://www.w3.org/2000/svg" xmlns:xlink="http://www.w3.org/1999/xlink">
<g id="graph1" class="graph" transform="scale(1 1) rotate(0) translate(4 396)">
<script type='text/javascript'>
  <![CDATA[

var windows = new Array()
var info = new Array()

function openWin(target, time) {
  win = window.open(target + "_" + time + ".html", target, "location=no,width=400,height=180,left=0,status=no");
  // hm, an associative array, how strange.
  info[target] = 1
}

function advanceTo(time) {
  arr = gup("wins").split(",");
  for (i=0; i < arr.length; i++) {
    if (arr[i] != "") {
      openWin(arr[i], time);
    }
  }
  str = '';
  // getting 'key_cols'
  for (var i in info) {
    str = str + ',' + i;
  }
  self.window.location.href = 'tm_' + time + '.svg?wins=' + str;
}

// off the netz
function gup(name) {
  name = name.replace(/[[]/,"\[").replace(/[]]/,"\]");
  var regexS = "[\?&]"+name+"=([^&#]*)";
  var regex = new RegExp(regexS);
  var results = regex.exec(window.location.href);
  if (results == null)
    return "";
  else
    return results[1];
}

  ]]>
</script>

<polygon fill="white" stroke="white" points="-4,5 -4,-396 155,-396 155,5 -4,5"/>
<!-- n_S -->
<g id="node1" class="node"><title>n_S</title>
<a xlink:href="javascript:advanceTo(-2)" xlink:title="S ">
<polygon fill="none" stroke="blue" stroke-width="3" points="75,-392 44,-364 75,-336 106,-364 75,-392"/>
<text text-anchor="middle" x="75" y="-359.6" font-family="Times,serif" font-size="18.00">S </text>
</a>
</g>
<!-- n_mcast_send -->
<g id="node3" class="node"><title>n_mcast_send</title>
<ellipse fill="none" stroke="green" cx="75" cy="-280" rx="74.3697" ry="19.6"/>
<text text-anchor="middle" x="75" y="-275.6" font-family="Times,serif" font-size="18.00">mcast_send </text>
</g>
<!-- n_S&#45;&gt;n_mcast_send -->
<g id="edge2" class="edge"><title>n_S&#45;&gt;n_mcast_send</title>
<path fill="none" stroke="blue" stroke-width="5" d="M75,-335.695C75,-330.65 75,-325.293 75,-319.981"/>
<polygon fill="blue" stroke="blue" points="83.7501,-319.906 75,-299.906 66.2501,-319.906 83.7501,-319.906"/>
</g>
<!-- n_T -->
<g id="node2" class="node"><title>n_T</title>
<a xlink:href="javascript:advanceTo(0)" xlink:title="T ">
<polygon fill="none" stroke="blue" stroke-width="3" points="75,-56 43,-28 75,-1.42109e-14 107,-28 75,-56"/>
<text text-anchor="middle" x="75" y="-23.6" font-family="Times,serif" font-size="18.00">T </text>
</a>
</g>
<!-- n_?? -->
<g id="node7" class="node"><title>n_??</title>
<polygon fill="none" stroke="red" stroke-width="2" points="75,-224 39,-196 75,-168 111,-196 75,-224"/>
<text text-anchor="middle" x="75" y="-191.6" font-family="Times,serif" font-size="18.00">?? </text>
</g>
<!-- n_mcast_send&#45;&gt;n_?? -->
<g id="edge6" class="edge"><title>n_mcast_send&#45;&gt;n_??</title>
<path fill="none" stroke="green" stroke-width="5" d="M75,-259.981C75,-255.262 75,-249.991 75,-244.562"/>
<polygon fill="green" stroke="green" points="83.7501,-244.305 75,-224.305 66.2501,-244.305 83.7501,-244.305"/>
</g>
<!-- n_mcast_done -->
<g id="node4" class="node"><title>n_mcast_done</title>
<ellipse fill="none" stroke="green" cx="75" cy="-112" rx="75.4903" ry="19.6"/>
<text text-anchor="middle" x="75" y="-107.6" font-family="Times,serif" font-size="18.00">mcast_done </text>
</g>
<!-- n_mcast_done&#45;&gt;n_T -->
<g id="edge4" class="edge"><title>n_mcast_done&#45;&gt;n_T</title>
<path fill="none" stroke="green" stroke-width="5" d="M75,-91.9814C75,-87.2621 75,-81.9911 75,-76.5625"/>
<polygon fill="green" stroke="green" points="83.7501,-76.3048 75,-56.3048 66.2501,-76.3049 83.7501,-76.3048"/>
</g>
<!-- n_??&#45;&gt;n_mcast_done -->
<g id="edge8" class="edge"><title>n_??&#45;&gt;n_mcast_done</title>
<path fill="none" stroke="red" stroke-width="5" d="M75,-167.695C75,-162.65 75,-157.293 75,-151.981"/>
<polygon fill="red" stroke="red" points="83.7501,-151.906 75,-131.906 66.2501,-151.906 83.7501,-151.906"/>
</g>
</g>
</svg>
