<?xml version="1.0" encoding="UTF-8" standalone="no"?>
<!DOCTYPE svg PUBLIC "-//W3C//DTD SVG 1.1//EN"
 "http://www.w3.org/Graphics/SVG/1.1/DTD/svg11.dtd">
<!-- Generated by graphviz version 2.28.0 (20110517.1826)
 -->
<!-- Title: G Pages: 1 -->
<svg width="757pt" height="844pt"
 viewBox="0.00 0.00 757.00 844.00" xmlns="http://www.w3.org/2000/svg" xmlns:xlink="http://www.w3.org/1999/xlink">
<g id="graph1" class="graph" transform="scale(1 1) rotate(0) translate(4 840)">
<script type='text/javascript'>
  <![CDATA[

var windows = new Array()
var info = new Array()

function openWin(target, time) {
  win = window.open(target + "_" + time + ".html", target, "location=no,width=400,height=180,left=0,status=no");
  // hm, an associative array, how strange.
  info[target] = 1
}

function advanceTo(time) {
  arr = gup("wins").split(",");
  for (i=0; i < arr.length; i++) {
    if (arr[i] != "") {
      openWin(arr[i], time);
    }
  }
  str = '';
  // getting 'key_cols'
  for (var i in info) {
    str = str + ',' + i;
  }
  self.window.location.href = 'tm_' + time + '.svg?wins=' + str;
}

// off the netz
function gup(name) {
  name = name.replace(/[[]/,"\[").replace(/[]]/,"\]");
  var regexS = "[\?&]"+name+"=([^&#]*)";
  var regex = new RegExp(regexS);
  var results = regex.exec(window.location.href);
  if (results == null)
    return "";
  else
    return results[1];
}

  ]]>
</script>

<polygon fill="white" stroke="white" points="-4,5 -4,-840 754,-840 754,5 -4,5"/>
<!-- n_votes -->
<g id="node1" class="node"><title>n_votes</title>
<a xlink:href="votes.html" xlink:title="votes N">
<polygon fill="none" stroke="yellow" points="455,-626 383,-626 383,-590 455,-590 455,-626"/>
<text text-anchor="middle" x="419" y="-603.6" font-family="Times,serif" font-size="18.00">votes N</text>
</a>
</g>
<!-- n_votes&#45;&gt;n_votes -->
<g id="edge2" class="edge"><title>n_votes&#45;&gt;n_votes</title>
<a xlink:href="33.html" xlink:title=" +/&#45;">
<path fill="none" stroke="yellow" stroke-width="5" d="M455.087,-618.448C455.246,-618.441 455.403,-618.433 455.561,-618.424"/>
<polygon fill="yellow" stroke="yellow" points="455.087,-597.552 464.538,-617.343 457.314,-607.504 457.54,-617.501 455.541,-617.547 453.541,-617.592 453.315,-607.595 446.543,-617.751 455.087,-597.552 455.087,-597.552"/>
<ellipse fill="none" stroke="yellow" cx="455.722" cy="-625.545" rx="8" ry="8"/>
</a>
<a xlink:href="33.html" xlink:title=" +/&#45;">
<text text-anchor="middle" x="485.5" y="-603.6" font-family="Times,serif" font-size="18.00"> +/&#45;</text>
</a>
</g>
<!-- n_ballot_summary -->
<g id="node4" class="node"><title>n_ballot_summary</title>
<a xlink:href="ballot_summary.html" xlink:title="ballot_summary N">
<ellipse fill="none" stroke="yellow" cx="320" cy="-494" rx="105.039" ry="19.6"/>
<text text-anchor="middle" x="320" y="-489.6" font-family="Times,serif" font-size="18.00">ballot_summary N</text>
</a>
</g>
<!-- n_votes&#45;&gt;n_ballot_summary -->
<g id="edge44" class="edge"><title>n_votes&#45;&gt;n_ballot_summary</title>
<a xlink:href="26.html">
<path fill="none" stroke="yellow" stroke-width="5" d="M403.964,-589.99C392.392,-576.898 375.831,-558.162 360.47,-540.784"/>
<polygon fill="yellow" stroke="yellow" points="336.501,-513.667 356.49,-522.692 344.622,-519.835 351.245,-527.328 349.746,-528.653 348.248,-529.977 341.625,-522.485 343.003,-534.613 336.501,-513.667 336.501,-513.667"/>
<ellipse fill="none" stroke="yellow" cx="355.045" cy="-534.647" rx="8.00001" ry="8.00001"/>
</a>
</g>
<!-- n_grouped_vote_counts -->
<g id="node21" class="node"><title>n_grouped_vote_counts</title>
<a xlink:href="grouped_vote_counts.html" xlink:title="grouped_vote_counts N">
<ellipse fill="none" stroke="yellow" cx="615" cy="-436" rx="134.026" ry="19.6"/>
<text text-anchor="middle" x="615" y="-431.6" font-family="Times,serif" font-size="18.00">grouped_vote_counts N</text>
</a>
</g>
<!-- n_votes&#45;&gt;n_grouped_vote_counts -->
<g id="edge28" class="edge"><title>n_votes&#45;&gt;n_grouped_vote_counts</title>
<a xlink:href="27.html">
<path fill="none" stroke="yellow" stroke-width="5" d="M448.843,-589.946C457.531,-584.561 466.867,-578.35 475,-572 510.18,-544.532 546.357,-509.436 573.121,-481.914"/>
<polygon fill="yellow" stroke="yellow" points="597.976,-455.741 590.73,-476.441 592.54,-464.369 585.654,-471.62 584.204,-470.243 582.753,-468.866 589.639,-461.615 577.677,-464.046 597.976,-455.741 597.976,-455.741"/>
<ellipse fill="none" stroke="yellow" cx="578.695" cy="-476.044" rx="8.00001" ry="8.00001"/>
</a>
</g>
<!-- n_result -->
<g id="node3" class="node"><title>n_result</title>
<a xlink:href="result.html" xlink:title="result N">
<ellipse fill="none" stroke="yellow" cx="403" cy="-378" rx="51.99" ry="19.6"/>
<text text-anchor="middle" x="403" y="-373.6" font-family="Times,serif" font-size="18.00">result N</text>
</a>
</g>
<!-- n_result&#45;&gt;n_votes -->
<g id="edge32" class="edge"><title>n_result&#45;&gt;n_votes</title>
<a xlink:href="33.html" xlink:title=" +/&#45;">
<path fill="none" stroke="yellow" stroke-width="5" d="M411.113,-397.848C418.758,-416.708 429.668,-446.758 434,-474 438.183,-500.301 435.614,-529.709 431.5,-554.172"/>
<polygon fill="yellow" stroke="yellow" points="423.918,-589.716 419.289,-568.278 424.048,-579.519 426.135,-569.739 428.091,-570.156 430.047,-570.573 427.96,-580.353 436.893,-572.034 423.918,-589.716 423.918,-589.716"/>
<ellipse fill="none" stroke="yellow" cx="429.76" cy="-562.332" rx="8" ry="8"/>
</a>
<a xlink:href="33.html" xlink:title=" +/&#45;">
<text text-anchor="middle" x="449.5" y="-489.6" font-family="Times,serif" font-size="18.00"> +/&#45;</text>
</a>
</g>
<!-- n_ongoing_ballots -->
<g id="node7" class="node"><title>n_ongoing_ballots</title>
<a xlink:href="ongoing_ballots.html" xlink:title="ongoing_ballots N">
<polygon fill="none" stroke="yellow" points="477.25,-302 328.75,-302 328.75,-266 477.25,-266 477.25,-302"/>
<text text-anchor="middle" x="403" y="-279.6" font-family="Times,serif" font-size="18.00">ongoing_ballots N</text>
</a>
</g>
<!-- n_result&#45;&gt;n_ongoing_ballots -->
<g id="edge34" class="edge"><title>n_result&#45;&gt;n_ongoing_ballots</title>
<a xlink:href="32.html" xlink:title=" +/&#45;">
<path fill="none" stroke="yellow" stroke-width="5" d="M403,-357.938C403,-352.036 403,-345.222 403,-338.177"/>
<polygon fill="yellow" stroke="yellow" points="403,-302.176 412,-322.176 405,-312.176 405,-322.176 403,-322.176 401,-322.176 401,-312.176 394,-322.176 403,-302.176 403,-302.176"/>
<ellipse fill="none" stroke="yellow" cx="403" cy="-330.176" rx="8" ry="8"/>
</a>
<a xlink:href="32.html" xlink:title=" +/&#45;">
<text text-anchor="middle" x="415.5" y="-325.6" font-family="Times,serif" font-size="18.00"> +/&#45;</text>
</a>
</g>
<!-- n_ballot_summary&#45;&gt;n_result -->
<g id="edge4" class="edge"><title>n_ballot_summary&#45;&gt;n_result</title>
<a xlink:href="31.html">
<path fill="none" stroke="yellow" stroke-width="5" d="M333.706,-474.175C345.611,-457.824 363.164,-433.715 377.624,-413.854"/>
<polygon fill="yellow" stroke="yellow" points="384.851,-418.793 389.549,-397.474 370.704,-408.493 384.851,-418.793"/>
</a>
</g>
<!-- n_completed_ballots -->
<g id="node16" class="node"><title>n_completed_ballots</title>
<a xlink:href="completed_ballots.html" xlink:title="completed_ballots N">
<ellipse fill="none" stroke="yellow" cx="163" cy="-190" rx="116.509" ry="19.6"/>
<text text-anchor="middle" x="163" y="-185.6" font-family="Times,serif" font-size="18.00">completed_ballots N</text>
</a>
</g>
<!-- n_ballot_summary&#45;&gt;n_completed_ballots -->
<g id="edge24" class="edge"><title>n_ballot_summary&#45;&gt;n_completed_ballots</title>
<a xlink:href="28.html">
<path fill="none" stroke="yellow" stroke-width="5" d="M310.179,-474.109C284.627,-424.958 215.727,-292.424 182.051,-227.645"/>
<polygon fill="yellow" stroke="yellow" points="189.806,-223.594 172.817,-209.884 174.279,-231.666 189.806,-223.594"/>
</a>
</g>
<!-- n_required -->
<g id="node6" class="node"><title>n_required</title>
<a xlink:href="required.html" xlink:title="required N">
<polygon fill="none" stroke="yellow" points="527,-36 433,-36 433,-0 527,-0 527,-36"/>
<text text-anchor="middle" x="480" y="-13.6" font-family="Times,serif" font-size="18.00">required N</text>
</a>
</g>
<!-- n_required&#45;&gt;n_required -->
<g id="edge38" class="edge"><title>n_required&#45;&gt;n_required</title>
<a xlink:href="38.html" xlink:title=" +/&#45;">
<path fill="none" stroke="yellow" stroke-width="5" d="M527.035,-24.5683C527.198,-24.5587 527.36,-24.5486 527.521,-24.5382"/>
<polygon fill="yellow" stroke="yellow" points="527.035,-11.4317 536.769,-31.0851 529.404,-21.3509 529.774,-31.344 527.775,-31.418 525.777,-31.492 525.407,-21.4988 518.781,-31.7509 527.035,-11.4317 527.035,-11.4317"/>
<ellipse fill="none" stroke="yellow" cx="528.071" cy="-39.4125" rx="8" ry="8"/>
</a>
<a xlink:href="38.html" xlink:title=" +/&#45;">
<text text-anchor="middle" x="557.5" y="-13.6" font-family="Times,serif" font-size="18.00"> +/&#45;</text>
</a>
</g>
<!-- n_required&#45;&gt;n_ongoing_ballots -->
<g id="edge20" class="edge"><title>n_required&#45;&gt;n_ongoing_ballots</title>
<a xlink:href="36.html">
<path fill="none" stroke="yellow" stroke-width="5" d="M489.851,-36.3419C492.577,-41.8349 495.262,-48.0333 497,-54 504.484,-79.6869 511.223,-125.72 506,-152 496.778,-198.405 493.019,-214.115 460,-248 457.923,-250.131 455.691,-252.186 453.356,-254.16"/>
<polygon fill="yellow" stroke="yellow" points="448.123,-247.145 436.992,-265.924 458.338,-261.354 448.123,-247.145"/>
</a>
</g>
<!-- n_ongoing_ballots&#45;&gt;n_required -->
<g id="edge6" class="edge"><title>n_ongoing_ballots&#45;&gt;n_required</title>
<a xlink:href="38.html" xlink:title=" +/&#45;">
<path fill="none" stroke="yellow" stroke-width="5" d="M421.914,-265.787C435.586,-252.113 453.147,-231.731 462,-210 479.947,-165.946 483.471,-111.598 483.079,-72.1545"/>
<polygon fill="yellow" stroke="yellow" points="481.595,-36.1203 491.41,-55.7328 484.005,-46.0295 484.416,-56.021 482.418,-56.1034 480.42,-56.1857 480.008,-46.1942 473.426,-56.4739 481.595,-36.1203 481.595,-36.1203"/>
<ellipse fill="none" stroke="yellow" cx="482.747" cy="-64.0966" rx="8" ry="8"/>
</a>
<a xlink:href="38.html" xlink:title=" +/&#45;">
<text text-anchor="middle" x="493.5" y="-137.6" font-family="Times,serif" font-size="18.00"> +/&#45;</text>
</a>
</g>
<!-- n_ongoing_ballots&#45;&gt;n_ongoing_ballots -->
<g id="edge46" class="edge"><title>n_ongoing_ballots&#45;&gt;n_ongoing_ballots</title>
<a xlink:href="32.html" xlink:title=" +/&#45;">
<path fill="none" stroke="yellow" stroke-width="5" d="M477.36,-291.74C477.525,-291.721 477.689,-291.701 477.852,-291.68"/>
<polygon fill="yellow" stroke="yellow" points="477.36,-276.26 486.994,-295.963 479.678,-286.191 479.997,-296.186 477.998,-296.25 475.999,-296.314 475.68,-286.319 469.003,-296.537 477.36,-276.26 477.36,-276.26"/>
<ellipse fill="none" stroke="yellow" cx="478.254" cy="-304.246" rx="8" ry="8"/>
</a>
<a xlink:href="32.html" xlink:title=" +/&#45;">
<text text-anchor="middle" x="507.5" y="-279.6" font-family="Times,serif" font-size="18.00"> +/&#45;</text>
</a>
</g>
<!-- n_pre_ballots -->
<g id="node10" class="node"><title>n_pre_ballots</title>
<a xlink:href="pre_ballots.html" xlink:title="pre_ballots N">
<polygon fill="none" stroke="yellow" points="410.25,-208 297.75,-208 297.75,-172 410.25,-172 410.25,-208"/>
<text text-anchor="middle" x="354" y="-185.6" font-family="Times,serif" font-size="18.00">pre_ballots N</text>
</a>
</g>
<!-- n_ongoing_ballots&#45;&gt;n_pre_ballots -->
<g id="edge42" class="edge"><title>n_ongoing_ballots&#45;&gt;n_pre_ballots</title>
<a xlink:href="37.html" xlink:title=" +/&#45;">
<path fill="none" stroke="yellow" stroke-width="5" d="M370.539,-265.739C364.312,-260.866 358.614,-254.956 355,-248 354.356,-246.76 353.78,-245.484 353.266,-244.178"/>
<polygon fill="yellow" stroke="yellow" points="350.461,-208.185 360.988,-227.426 353.232,-218 354.009,-227.969 352.015,-228.125 350.021,-228.28 349.244,-218.31 343.042,-228.824 350.461,-208.185 350.461,-208.185"/>
<ellipse fill="none" stroke="yellow" cx="352.637" cy="-236.101" rx="8" ry="8"/>
</a>
<a xlink:href="37.html" xlink:title=" +/&#45;">
<text text-anchor="middle" x="367.5" y="-233.6" font-family="Times,serif" font-size="18.00"> +/&#45;</text>
</a>
</g>
<!-- n_winning_vote -->
<g id="node13" class="node"><title>n_winning_vote</title>
<a xlink:href="winning_vote.html" xlink:title="winning_vote N">
<ellipse fill="none" stroke="yellow" cx="643" cy="-190" rx="94.1301" ry="19.6"/>
<text text-anchor="middle" x="643" y="-185.6" font-family="Times,serif" font-size="18.00">winning_vote N</text>
</a>
</g>
<!-- n_ongoing_ballots&#45;&gt;n_winning_vote -->
<g id="edge14" class="edge"><title>n_ongoing_ballots&#45;&gt;n_winning_vote</title>
<a xlink:href="29.html">
<path fill="none" stroke="yellow" stroke-width="5" d="M477.568,-267.585C496.407,-262.478 516.303,-256 534,-248 548.602,-241.399 550.038,-235.865 564,-228 570.758,-224.193 577.973,-220.429 585.192,-216.843"/>
<polygon fill="yellow" stroke="yellow" points="589.17,-224.64 603.437,-208.117 581.62,-208.852 589.17,-224.64"/>
</a>
</g>
<!-- n_ongoing_ballots&#45;&gt;n_completed_ballots -->
<g id="edge16" class="edge"><title>n_ongoing_ballots&#45;&gt;n_completed_ballots</title>
<a xlink:href="28.html">
<path fill="none" stroke="yellow" stroke-width="5" d="M359.864,-265.99C331.983,-255.042 294.892,-240.561 262,-228 251.153,-223.858 239.619,-219.502 228.401,-215.293"/>
<polygon fill="yellow" stroke="yellow" points="231.185,-206.992 209.387,-208.181 225.055,-223.383 231.185,-206.992"/>
</a>
</g>
<!-- n_num_required -->
<g id="node9" class="node"><title>n_num_required</title>
<a xlink:href="num_required.html" xlink:title="num_required N">
<ellipse fill="none" stroke="yellow" cx="354" cy="-94" rx="94.1301" ry="19.6"/>
<text text-anchor="middle" x="354" y="-89.6" font-family="Times,serif" font-size="18.00">num_required N</text>
</a>
</g>
<!-- n_num_required&#45;&gt;n_required -->
<g id="edge10" class="edge"><title>n_num_required&#45;&gt;n_required</title>
<a xlink:href="34.html">
<path fill="none" stroke="yellow" stroke-width="5" d="M384.501,-75.0867C399.106,-66.5091 416.92,-56.0468 433.189,-46.4921"/>
<polygon fill="yellow" stroke="yellow" points="437.833,-53.9123 450.647,-36.2388 428.97,-38.8223 437.833,-53.9123"/>
</a>
</g>
<!-- n_pre_ballots&#45;&gt;n_ongoing_ballots -->
<g id="edge26" class="edge"><title>n_pre_ballots&#45;&gt;n_ongoing_ballots</title>
<a xlink:href="36.html">
<path fill="none" stroke="yellow" stroke-width="5" d="M369.991,-208.16C374.963,-214.121 380.145,-221.06 384,-228 387.231,-233.818 390.057,-240.283 392.473,-246.678"/>
<polygon fill="yellow" stroke="yellow" points="384.256,-249.701 398.787,-265.992 400.89,-244.263 384.256,-249.701"/>
</a>
</g>
<!-- n_pre_ballots&#45;&gt;n_num_required -->
<g id="edge8" class="edge"><title>n_pre_ballots&#45;&gt;n_num_required</title>
<a xlink:href="39.html">
<path fill="none" stroke="yellow" stroke-width="5" d="M354,-171.759C354,-161.301 354,-147.504 354,-134.494"/>
<polygon fill="yellow" stroke="yellow" points="362.75,-134.072 354,-114.072 345.25,-134.072 362.75,-134.072"/>
</a>
</g>
<!-- n_pre_ballots&#45;&gt;n_pre_ballots -->
<g id="edge40" class="edge"><title>n_pre_ballots&#45;&gt;n_pre_ballots</title>
<a xlink:href="37.html" xlink:title=" +/&#45;">
<path fill="none" stroke="yellow" stroke-width="5" d="M410.463,-198.506C410.624,-198.489 410.784,-198.472 410.943,-198.454"/>
<polygon fill="yellow" stroke="yellow" points="410.463,-181.494 420.026,-201.231 412.745,-191.434 413.029,-201.43 411.03,-201.486 409.03,-201.543 408.747,-191.547 402.033,-201.741 410.463,-181.494 410.463,-181.494"/>
<ellipse fill="none" stroke="yellow" cx="411.256" cy="-209.483" rx="8" ry="8"/>
</a>
<a xlink:href="37.html" xlink:title=" +/&#45;">
<text text-anchor="middle" x="440.5" y="-185.6" font-family="Times,serif" font-size="18.00"> +/&#45;</text>
</a>
</g>
<!-- n_winning_vote&#45;&gt;n_result -->
<g id="edge12" class="edge"><title>n_winning_vote&#45;&gt;n_result</title>
<a xlink:href="30.html">
<path fill="none" stroke="yellow" stroke-width="5" d="M622.508,-209.671C616.203,-215.492 609.273,-221.967 603,-228 569.477,-260.242 565.711,-273.44 529,-302 509.131,-317.457 485.811,-332.164 464.672,-344.393"/>
<polygon fill="yellow" stroke="yellow" points="433.107,-361.824 446.264,-344.277 440.894,-355.239 449.648,-350.405 450.615,-352.156 451.582,-353.906 442.828,-358.741 454.966,-360.034 433.107,-361.824 433.107,-361.824"/>
<ellipse fill="none" stroke="yellow" cx="457.618" cy="-348.288" rx="8.00001" ry="8.00001"/>
</a>
</g>
<!-- n_completed_ballots&#45;&gt;n_result -->
<g id="edge36" class="edge"><title>n_completed_ballots&#45;&gt;n_result</title>
<a xlink:href="30.html">
<path fill="none" stroke="yellow" stroke-width="5" d="M199.507,-208.994C209.955,-214.638 221.169,-221.186 231,-228 244.187,-237.14 309.894,-294.675 356.159,-335.508"/>
<polygon fill="yellow" stroke="yellow" points="383.305,-359.516 362.361,-353.008 374.489,-354.389 366.999,-347.764 368.324,-346.266 369.648,-344.768 377.139,-351.393 374.286,-339.525 383.305,-359.516 383.305,-359.516"/>
<ellipse fill="none" stroke="yellow" cx="362.331" cy="-340.966" rx="8.00001" ry="8.00001"/>
</a>
</g>
<!-- n_cast_vote -->
<g id="node18" class="node"><title>n_cast_vote</title>
<ellipse fill="none" stroke="green" cx="314" cy="-722" rx="63.459" ry="19.6"/>
<text text-anchor="middle" x="314" y="-717.6" font-family="Times,serif" font-size="18.00">cast_vote </text>
</g>
<!-- n_cast_vote&#45;&gt;n_votes -->
<g id="edge18" class="edge"><title>n_cast_vote&#45;&gt;n_votes</title>
<a xlink:href="25.html">
<path fill="none" stroke="green" stroke-width="5" d="M331.339,-702.505C347.057,-685.739 370.559,-660.671 389.272,-640.71"/>
<polygon fill="green" stroke="green" points="395.718,-646.628 403.014,-626.052 382.951,-634.659 395.718,-646.628"/>
</a>
</g>
<!-- n_grouped_vote_counts&#45;&gt;n_winning_vote -->
<g id="edge22" class="edge"><title>n_grouped_vote_counts&#45;&gt;n_winning_vote</title>
<a xlink:href="29.html">
<path fill="none" stroke="yellow" stroke-width="5" d="M617.197,-415.854C621.777,-375.943 632.424,-283.166 638.513,-230.099"/>
<polygon fill="yellow" stroke="yellow" points="647.226,-230.925 640.813,-210.057 629.84,-228.929 647.226,-230.925"/>
</a>
</g>
<!-- n_begin_vote -->
<g id="node26" class="node"><title>n_begin_vote</title>
<ellipse fill="none" stroke="green" cx="187" cy="-664" rx="71.127" ry="19.6"/>
<text text-anchor="middle" x="187" y="-659.6" font-family="Times,serif" font-size="18.00">begin_vote </text>
</g>
<!-- n_begin_vote&#45;&gt;n_pre_ballots -->
<g id="edge30" class="edge"><title>n_begin_vote&#45;&gt;n_pre_ballots</title>
<a xlink:href="35.html">
<path fill="none" stroke="green" stroke-width="5" d="M186.555,-644.032C186.255,-609.454 187.974,-534.181 206,-474 234.771,-377.947 296.75,-276.375 330.662,-225.016"/>
<polygon fill="green" stroke="green" points="338.077,-229.669 341.964,-208.187 323.549,-219.911 338.077,-229.669"/>
</a>
</g>
<!-- n_ratio -->
<g id="node36" class="node"><title>n_ratio</title>
<ellipse fill="none" stroke="green" cx="38" cy="-552" rx="38.2761" ry="19.6"/>
<text text-anchor="middle" x="38" y="-547.6" font-family="Times,serif" font-size="18.00">ratio </text>
</g>
<!-- n_ratio&#45;&gt;n_num_required -->
<g id="edge48" class="edge"><title>n_ratio&#45;&gt;n_num_required</title>
<a xlink:href="39.html">
<path fill="none" stroke="green" stroke-width="5" d="M32.6404,-532.216C26.7161,-509.763 18,-470.959 18,-437 18,-437 18,-437 18,-189 18,-140.599 148.941,-115.995 247.339,-104.34"/>
<polygon fill="green" stroke="green" points="248.573,-113.006 267.472,-102.079 246.62,-95.6158 248.573,-113.006"/>
</a>
</g>
<!-- n_S -->
<g id="node38" class="node"><title>n_S</title>
<a xlink:href="javascript:advanceTo(-2)" xlink:title="S ">
<polygon fill="none" stroke="blue" stroke-width="3" points="187,-836 156,-808 187,-780 218,-808 187,-836"/>
<text text-anchor="middle" x="187" y="-803.6" font-family="Times,serif" font-size="18.00">S </text>
</a>
</g>
<!-- n_S&#45;&gt;n_cast_vote -->
<g id="edge54" class="edge"><title>n_S&#45;&gt;n_cast_vote</title>
<path fill="none" stroke="blue" stroke-width="5" d="M204.094,-795.386C211.169,-790.599 219.465,-785.011 227,-780 241.114,-770.614 256.574,-760.447 270.496,-751.335"/>
<polygon fill="blue" stroke="blue" points="275.71,-758.38 287.669,-740.117 266.14,-743.729 275.71,-758.38"/>
</g>
<!-- n_S&#45;&gt;n_begin_vote -->
<g id="edge50" class="edge"><title>n_S&#45;&gt;n_begin_vote</title>
<path fill="none" stroke="blue" stroke-width="5" d="M187,-779.957C187,-758.626 187,-728.569 187,-704.539"/>
<polygon fill="blue" stroke="blue" points="195.75,-704.208 187,-684.208 178.25,-704.208 195.75,-704.208"/>
</g>
<!-- n_S&#45;&gt;n_ratio -->
<g id="edge52" class="edge"><title>n_S&#45;&gt;n_ratio</title>
<path fill="none" stroke="blue" stroke-width="5" d="M175.367,-790.199C159.329,-766.799 129.822,-722.886 107,-684 88.6486,-652.731 69.5734,-616.152 56.1427,-589.606"/>
<polygon fill="blue" stroke="blue" points="63.8607,-585.476 47.0779,-571.516 48.215,-593.316 63.8607,-585.476"/>
</g>
<!-- n_T -->
<g id="node39" class="node"><title>n_T</title>
<a xlink:href="javascript:advanceTo(0)" xlink:title="T ">
<polygon fill="none" stroke="blue" stroke-width="3" points="268,-836 236,-808 268,-780 300,-808 268,-836"/>
<text text-anchor="middle" x="268" y="-803.6" font-family="Times,serif" font-size="18.00">T </text>
</a>
</g>
</g>
</svg>
