<?xml version="1.0" encoding="UTF-8" standalone="no"?>
<!DOCTYPE svg PUBLIC "-//W3C//DTD SVG 1.1//EN"
 "http://www.w3.org/Graphics/SVG/1.1/DTD/svg11.dtd">
<!-- Generated by graphviz version 2.28.0 (20110517.1826)
 -->
<!-- Title: G Pages: 1 -->
<svg width="815pt" height="772pt"
 viewBox="0.00 0.00 815.00 772.00" xmlns="http://www.w3.org/2000/svg" xmlns:xlink="http://www.w3.org/1999/xlink">
<g id="graph1" class="graph" transform="scale(1 1) rotate(0) translate(4 768)">
<script type='text/javascript'>
  <![CDATA[

var windows = new Array()
var info = new Array()

function openWin(target, time) {
  win = window.open(target + "_" + time + ".html", target, "location=no,width=400,height=180,left=0,status=no");
  // hm, an associative array, how strange.
  info[target] = 1
}

function advanceTo(time) {
  arr = gup("wins").split(",");
  for (i=0; i < arr.length; i++) {
    if (arr[i] != "") {
      openWin(arr[i], time);
    }
  }
  str = '';
  // getting 'key_cols'
  for (var i in info) {
    str = str + ',' + i;
  }
  self.window.location.href = 'tm_' + time + '.svg?wins=' + str;
}

// off the netz
function gup(name) {
  name = name.replace(/[[]/,"\[").replace(/[]]/,"\]");
  var regexS = "[\?&]"+name+"=([^&#]*)";
  var regex = new RegExp(regexS);
  var results = regex.exec(window.location.href);
  if (results == null)
    return "";
  else
    return results[1];
}

  ]]>
</script>

<polygon fill="white" stroke="white" points="-4,5 -4,-768 812,-768 812,5 -4,5"/>
<!-- n_votes -->
<g id="node1" class="node"><title>n_votes</title>
<a xlink:href="votes.html" xlink:title="votes N">
<polygon fill="none" stroke="yellow" points="431,-592 359,-592 359,-556 431,-556 431,-592"/>
<text text-anchor="middle" x="395" y="-569.6" font-family="Times,serif" font-size="18.00">votes N</text>
</a>
</g>
<!-- n_votes&#45;&gt;n_votes -->
<g id="edge2" class="edge"><title>n_votes&#45;&gt;n_votes</title>
<a xlink:href="33.html" xlink:title=" +/&#45;">
<path fill="none" stroke="black" stroke-width="5" d="M431.087,-580.717C431.246,-580.712 431.403,-580.707 431.561,-580.701"/>
<polygon fill="black" stroke="black" points="431.087,-567.283 440.787,-586.954 433.439,-577.207 433.791,-587.2 431.792,-587.271 429.794,-587.341 429.441,-577.348 422.798,-587.588 431.087,-567.283 431.087,-567.283"/>
<ellipse fill="none" stroke="black" cx="432.074" cy="-595.266" rx="8" ry="8"/>
</a>
<a xlink:href="33.html" xlink:title=" +/&#45;">
<text text-anchor="middle" x="461.5" y="-569.6" font-family="Times,serif" font-size="18.00"> +/&#45;</text>
</a>
</g>
<!-- n_ballot_summary -->
<g id="node4" class="node"><title>n_ballot_summary</title>
<a xlink:href="ballot_summary.html" xlink:title="ballot_summary N">
<ellipse fill="none" stroke="yellow" cx="569" cy="-498" rx="105.039" ry="19.6"/>
<text text-anchor="middle" x="569" y="-493.6" font-family="Times,serif" font-size="18.00">ballot_summary N</text>
</a>
</g>
<!-- n_votes&#45;&gt;n_ballot_summary -->
<g id="edge46" class="edge"><title>n_votes&#45;&gt;n_ballot_summary</title>
<a xlink:href="26.html">
<path fill="none" stroke="black" stroke-width="5" d="M431.053,-557.667C449.495,-549.824 472.652,-539.976 494.698,-530.6"/>
<polygon fill="black" stroke="black" points="528.115,-516.388 513.233,-532.497 519.696,-522.142 510.493,-526.055 509.711,-524.215 508.928,-522.375 518.13,-518.461 506.188,-515.933 528.115,-516.388 528.115,-516.388"/>
<ellipse fill="none" stroke="black" cx="502.349" cy="-527.346" rx="8.00001" ry="8.00001"/>
</a>
</g>
<!-- n_grouped_vote_counts -->
<g id="node24" class="node"><title>n_grouped_vote_counts</title>
<a xlink:href="grouped_vote_counts.html" xlink:title="grouped_vote_counts N">
<ellipse fill="none" stroke="yellow" cx="272" cy="-440" rx="134.026" ry="19.6"/>
<text text-anchor="middle" x="272" y="-435.6" font-family="Times,serif" font-size="18.00">grouped_vote_counts N</text>
</a>
</g>
<!-- n_votes&#45;&gt;n_grouped_vote_counts -->
<g id="edge30" class="edge"><title>n_votes&#45;&gt;n_grouped_vote_counts</title>
<a xlink:href="27.html">
<path fill="none" stroke="black" stroke-width="5" d="M378.92,-555.743C362.621,-538.252 336.707,-510.442 314.473,-486.581"/>
<polygon fill="black" stroke="black" points="289.676,-459.969 309.895,-468.466 297.957,-465.922 304.774,-473.238 303.311,-474.602 301.847,-475.965 295.03,-468.649 296.726,-480.737 289.676,-459.969 289.676,-459.969"/>
<ellipse fill="none" stroke="black" cx="308.764" cy="-480.454" rx="8.00001" ry="8.00001"/>
</a>
</g>
<!-- n_result -->
<g id="node3" class="node"><title>n_result</title>
<a xlink:href="result.html" xlink:title="result N">
<ellipse fill="none" stroke="yellow" cx="441" cy="-382" rx="51.99" ry="19.6"/>
<text text-anchor="middle" x="441" y="-377.6" font-family="Times,serif" font-size="18.00">result N</text>
</a>
</g>
<!-- n_result&#45;&gt;n_votes -->
<g id="edge34" class="edge"><title>n_result&#45;&gt;n_votes</title>
<a xlink:href="33.html" xlink:title=" +/&#45;">
<path fill="none" stroke="black" stroke-width="5" d="M436.406,-401.975C429.757,-429.44 417.201,-481.298 407.653,-520.739"/>
<polygon fill="black" stroke="black" points="399.163,-555.804 395.122,-534.247 399.573,-545.614 401.926,-535.895 403.87,-536.365 405.813,-536.836 403.46,-546.555 412.617,-538.483 399.163,-555.804 399.163,-555.804"/>
<ellipse fill="none" stroke="black" cx="405.752" cy="-528.59" rx="8" ry="8"/>
</a>
<a xlink:href="33.html" xlink:title=" +/&#45;">
<text text-anchor="middle" x="430.5" y="-493.6" font-family="Times,serif" font-size="18.00"> +/&#45;</text>
</a>
</g>
<!-- n_ongoing_ballots -->
<g id="node7" class="node"><title>n_ongoing_ballots</title>
<a xlink:href="ongoing_ballots.html" xlink:title="ongoing_ballots N">
<polygon fill="none" stroke="yellow" points="515.25,-304 366.75,-304 366.75,-268 515.25,-268 515.25,-304"/>
<text text-anchor="middle" x="441" y="-281.6" font-family="Times,serif" font-size="18.00">ongoing_ballots N</text>
</a>
</g>
<!-- n_result&#45;&gt;n_ongoing_ballots -->
<g id="edge36" class="edge"><title>n_result&#45;&gt;n_ongoing_ballots</title>
<a xlink:href="32.html" xlink:title=" +/&#45;">
<path fill="none" stroke="black" stroke-width="5" d="M441,-361.978C441,-355.621 441,-348.19 441,-340.523"/>
<polygon fill="black" stroke="black" points="441,-304.098 450,-324.098 443,-314.098 443,-324.098 441,-324.098 439,-324.098 439,-314.098 432,-324.098 441,-304.098 441,-304.098"/>
<ellipse fill="none" stroke="black" cx="441" cy="-332.098" rx="8" ry="8"/>
</a>
<a xlink:href="32.html" xlink:title=" +/&#45;">
<text text-anchor="middle" x="453.5" y="-329.6" font-family="Times,serif" font-size="18.00"> +/&#45;</text>
</a>
</g>
<!-- n_ballot_summary&#45;&gt;n_result -->
<g id="edge4" class="edge"><title>n_ballot_summary&#45;&gt;n_result</title>
<a xlink:href="31.html">
<path fill="none" stroke="black" stroke-width="5" d="M548.15,-478.43C528.56,-460.983 498.873,-434.543 475.712,-413.915"/>
<polygon fill="black" stroke="black" points="481.336,-407.207 460.581,-400.439 469.697,-420.275 481.336,-407.207"/>
</a>
</g>
<!-- n_completed_ballots -->
<g id="node16" class="node"><title>n_completed_ballots</title>
<a xlink:href="completed_ballots.html" xlink:title="completed_ballots N">
<ellipse fill="none" stroke="yellow" cx="691" cy="-190" rx="116.509" ry="19.6"/>
<text text-anchor="middle" x="691" y="-185.6" font-family="Times,serif" font-size="18.00">completed_ballots N</text>
</a>
</g>
<!-- n_ballot_summary&#45;&gt;n_completed_ballots -->
<g id="edge26" class="edge"><title>n_ballot_summary&#45;&gt;n_completed_ballots</title>
<a xlink:href="28.html">
<path fill="none" stroke="black" stroke-width="5" d="M576.632,-477.858C596.402,-428.271 649.567,-294.923 675.856,-228.983"/>
<polygon fill="black" stroke="black" points="684.092,-231.953 683.371,-210.134 667.836,-225.472 684.092,-231.953"/>
</a>
</g>
<!-- n_required -->
<g id="node6" class="node"><title>n_required</title>
<a xlink:href="required.html" xlink:title="required N">
<polygon fill="none" stroke="yellow" points="553,-36 459,-36 459,-0 553,-0 553,-36"/>
<text text-anchor="middle" x="506" y="-13.6" font-family="Times,serif" font-size="18.00">required N</text>
</a>
</g>
<!-- n_required&#45;&gt;n_required -->
<g id="edge40" class="edge"><title>n_required&#45;&gt;n_required</title>
<a xlink:href="38.html" xlink:title=" +/&#45;">
<path fill="none" stroke="black" stroke-width="5" d="M553.035,-24.5683C553.198,-24.5587 553.36,-24.5486 553.521,-24.5382"/>
<polygon fill="black" stroke="black" points="553.035,-11.4317 562.769,-31.0851 555.404,-21.3509 555.774,-31.344 553.775,-31.418 551.777,-31.492 551.407,-21.4988 544.781,-31.7509 553.035,-11.4317 553.035,-11.4317"/>
<ellipse fill="none" stroke="black" cx="554.071" cy="-39.4125" rx="8" ry="8"/>
</a>
<a xlink:href="38.html" xlink:title=" +/&#45;">
<text text-anchor="middle" x="583.5" y="-13.6" font-family="Times,serif" font-size="18.00"> +/&#45;</text>
</a>
</g>
<!-- n_required&#45;&gt;n_ongoing_ballots -->
<g id="edge22" class="edge"><title>n_required&#45;&gt;n_ongoing_ballots</title>
<a xlink:href="36.html">
<path fill="none" stroke="black" stroke-width="5" d="M515.041,-36.0537C517.66,-41.638 520.276,-47.961 522,-54 528.641,-77.257 537.368,-124.99 532,-152 522.888,-197.855 518.718,-211.91 489,-248 487.213,-250.17 485.276,-252.29 483.24,-254.348"/>
<polygon fill="black" stroke="black" points="477.179,-248.021 467.78,-267.725 488.63,-261.255 477.179,-248.021"/>
</a>
</g>
<!-- n_ongoing_ballots&#45;&gt;n_required -->
<g id="edge6" class="edge"><title>n_ongoing_ballots&#45;&gt;n_required</title>
<a xlink:href="38.html" xlink:title=" +/&#45;">
<path fill="none" stroke="black" stroke-width="5" d="M455.138,-267.717C466.13,-253.24 480.698,-231.538 488,-210 503.194,-165.185 507.067,-111.284 507.506,-72.185"/>
<polygon fill="black" stroke="black" points="506.984,-36.1508 516.273,-56.0184 509.129,-46.1208 509.273,-56.1198 507.274,-56.1487 505.274,-56.1777 505.129,-46.1788 498.275,-56.2791 506.984,-36.1508 506.984,-36.1508"/>
<ellipse fill="none" stroke="black" cx="507.389" cy="-64.1479" rx="8" ry="8"/>
</a>
<a xlink:href="38.html" xlink:title=" +/&#45;">
<text text-anchor="middle" x="516.5" y="-137.6" font-family="Times,serif" font-size="18.00"> +/&#45;</text>
</a>
</g>
<!-- n_ongoing_ballots&#45;&gt;n_ongoing_ballots -->
<g id="edge48" class="edge"><title>n_ongoing_ballots&#45;&gt;n_ongoing_ballots</title>
<a xlink:href="32.html" xlink:title=" +/&#45;">
<path fill="none" stroke="black" stroke-width="5" d="M515.36,-294.077C515.525,-294.056 515.689,-294.035 515.852,-294.014"/>
<polygon fill="black" stroke="black" points="515.36,-277.923 524.968,-297.639 517.665,-287.858 517.971,-297.853 515.972,-297.914 513.973,-297.975 513.667,-287.98 506.976,-298.189 515.36,-277.923 515.36,-277.923"/>
<ellipse fill="none" stroke="black" cx="516.216" cy="-305.91" rx="8" ry="8"/>
</a>
<a xlink:href="32.html" xlink:title=" +/&#45;">
<text text-anchor="middle" x="545.5" y="-281.6" font-family="Times,serif" font-size="18.00"> +/&#45;</text>
</a>
</g>
<!-- n_pre_ballots -->
<g id="node10" class="node"><title>n_pre_ballots</title>
<a xlink:href="pre_ballots.html" xlink:title="pre_ballots N">
<polygon fill="none" stroke="yellow" points="436.25,-208 323.75,-208 323.75,-172 436.25,-172 436.25,-208"/>
<text text-anchor="middle" x="380" y="-185.6" font-family="Times,serif" font-size="18.00">pre_ballots N</text>
</a>
</g>
<!-- n_ongoing_ballots&#45;&gt;n_pre_ballots -->
<g id="edge44" class="edge"><title>n_ongoing_ballots&#45;&gt;n_pre_ballots</title>
<a xlink:href="37.html" xlink:title=" +/&#45;">
<path fill="none" stroke="black" stroke-width="5" d="M409.463,-267.89C402.033,-262.455 394.869,-255.793 390,-248 389.068,-246.509 388.217,-244.955 387.44,-243.355"/>
<polygon fill="black" stroke="black" points="379.708,-208.156 392.79,-225.759 383.807,-217.494 385.953,-227.261 383.999,-227.69 382.046,-228.119 379.9,-218.352 375.209,-229.621 379.708,-208.156 379.708,-208.156"/>
<ellipse fill="none" stroke="black" cx="385.716" cy="-235.504" rx="8" ry="8"/>
</a>
<a xlink:href="37.html" xlink:title=" +/&#45;">
<text text-anchor="middle" x="402.5" y="-233.6" font-family="Times,serif" font-size="18.00"> +/&#45;</text>
</a>
</g>
<!-- n_winning_vote -->
<g id="node13" class="node"><title>n_winning_vote</title>
<a xlink:href="winning_vote.html" xlink:title="winning_vote N">
<ellipse fill="none" stroke="yellow" cx="211" cy="-190" rx="94.1301" ry="19.6"/>
<text text-anchor="middle" x="211" y="-185.6" font-family="Times,serif" font-size="18.00">winning_vote N</text>
</a>
</g>
<!-- n_ongoing_ballots&#45;&gt;n_winning_vote -->
<g id="edge14" class="edge"><title>n_ongoing_ballots&#45;&gt;n_winning_vote</title>
<a xlink:href="29.html">
<path fill="none" stroke="black" stroke-width="5" d="M412.682,-267.931C391.533,-255.678 361.634,-239.386 334,-228 319.286,-221.937 303.216,-216.379 287.691,-211.516"/>
<polygon fill="black" stroke="black" points="290.13,-203.112 268.459,-205.741 285.098,-219.873 290.13,-203.112"/>
</a>
</g>
<!-- n_ongoing_ballots&#45;&gt;n_completed_ballots -->
<g id="edge16" class="edge"><title>n_ongoing_ballots&#45;&gt;n_completed_ballots</title>
<a xlink:href="28.html">
<path fill="none" stroke="black" stroke-width="5" d="M508.286,-267.932C525.254,-262.545 543.145,-255.896 559,-248 572.689,-241.183 573.442,-235.076 587,-228 596.437,-223.075 606.675,-218.545 616.922,-214.47"/>
<polygon fill="black" stroke="black" points="620.127,-222.614 635.812,-207.43 614.015,-206.216 620.127,-222.614"/>
</a>
</g>
<!-- n_num_required -->
<g id="node9" class="node"><title>n_num_required</title>
<a xlink:href="num_required.html" xlink:title="num_required N">
<ellipse fill="none" stroke="yellow" cx="380" cy="-94" rx="94.1301" ry="19.6"/>
<text text-anchor="middle" x="380" y="-89.6" font-family="Times,serif" font-size="18.00">num_required N</text>
</a>
</g>
<!-- n_num_required&#45;&gt;n_required -->
<g id="edge10" class="edge"><title>n_num_required&#45;&gt;n_required</title>
<a xlink:href="34.html">
<path fill="none" stroke="black" stroke-width="5" d="M410.501,-75.0867C425.106,-66.5091 442.92,-56.0468 459.189,-46.4921"/>
<polygon fill="black" stroke="black" points="463.833,-53.9123 476.647,-36.2388 454.97,-38.8223 463.833,-53.9123"/>
</a>
</g>
<!-- n_pre_ballots&#45;&gt;n_ongoing_ballots -->
<g id="edge28" class="edge"><title>n_pre_ballots&#45;&gt;n_ongoing_ballots</title>
<a xlink:href="36.html">
<path fill="none" stroke="black" stroke-width="5" d="M401.628,-208.315C407.842,-214.08 414.223,-220.865 419,-228 423.23,-234.317 426.816,-241.565 429.787,-248.727"/>
<polygon fill="black" stroke="black" points="421.631,-251.909 436.555,-267.842 438.127,-246.068 421.631,-251.909"/>
</a>
</g>
<!-- n_pre_ballots&#45;&gt;n_num_required -->
<g id="edge8" class="edge"><title>n_pre_ballots&#45;&gt;n_num_required</title>
<a xlink:href="39.html">
<path fill="none" stroke="black" stroke-width="5" d="M380,-171.759C380,-161.301 380,-147.504 380,-134.494"/>
<polygon fill="black" stroke="black" points="388.75,-134.072 380,-114.072 371.25,-134.072 388.75,-134.072"/>
</a>
</g>
<!-- n_pre_ballots&#45;&gt;n_pre_ballots -->
<g id="edge42" class="edge"><title>n_pre_ballots&#45;&gt;n_pre_ballots</title>
<a xlink:href="37.html" xlink:title=" +/&#45;">
<path fill="none" stroke="black" stroke-width="5" d="M436.463,-198.506C436.624,-198.489 436.784,-198.472 436.943,-198.454"/>
<polygon fill="black" stroke="black" points="436.463,-181.494 446.026,-201.231 438.745,-191.434 439.029,-201.43 437.03,-201.486 435.03,-201.543 434.747,-191.547 428.033,-201.741 436.463,-181.494 436.463,-181.494"/>
<ellipse fill="none" stroke="black" cx="437.256" cy="-209.483" rx="8" ry="8"/>
</a>
<a xlink:href="37.html" xlink:title=" +/&#45;">
<text text-anchor="middle" x="466.5" y="-185.6" font-family="Times,serif" font-size="18.00"> +/&#45;</text>
</a>
</g>
<!-- n_winning_vote&#45;&gt;n_result -->
<g id="edge12" class="edge"><title>n_winning_vote&#45;&gt;n_result</title>
<a xlink:href="30.html">
<path fill="none" stroke="black" stroke-width="5" d="M233.442,-209.431C240.649,-215.356 248.665,-221.951 256,-228 302.252,-266.14 354.931,-309.721 392.214,-340.589"/>
<polygon fill="black" stroke="black" points="420.208,-363.772 399.064,-357.947 411.23,-358.934 403.529,-352.556 404.804,-351.015 406.08,-349.475 413.782,-355.853 410.545,-344.084 420.208,-363.772 420.208,-363.772"/>
<ellipse fill="none" stroke="black" cx="398.643" cy="-345.913" rx="8.00001" ry="8.00001"/>
</a>
</g>
<!-- n_completed_ballots&#45;&gt;n_result -->
<g id="edge38" class="edge"><title>n_completed_ballots&#45;&gt;n_result</title>
<a xlink:href="30.html">
<path fill="none" stroke="black" stroke-width="5" d="M670.644,-209.815C664.345,-215.642 657.383,-222.084 651,-228 613.633,-262.631 607.783,-275.467 567,-306 546.782,-321.136 523.311,-335.805 502.145,-348.095"/>
<polygon fill="black" stroke="black" points="470.636,-365.683 483.713,-348.076 478.393,-359.063 487.124,-354.189 488.099,-355.935 489.074,-357.681 480.342,-362.555 492.486,-363.794 470.636,-365.683 470.636,-365.683"/>
<ellipse fill="none" stroke="black" cx="495.085" cy="-352.036" rx="8.00001" ry="8.00001"/>
</a>
</g>
<!-- n_cast_vote -->
<g id="node18" class="node"><title>n_cast_vote</title>
<ellipse fill="none" stroke="green" cx="266" cy="-650" rx="63.459" ry="19.6"/>
<text text-anchor="middle" x="266" y="-645.6" font-family="Times,serif" font-size="18.00">cast_vote </text>
</g>
<!-- n_cast_vote&#45;&gt;n_votes -->
<g id="edge18" class="edge"><title>n_cast_vote&#45;&gt;n_votes</title>
<a xlink:href="25.html">
<path fill="none" stroke="black" stroke-width="5" d="M295.272,-632.208C310.72,-623.347 330.057,-612.254 347.582,-602.201"/>
<polygon fill="black" stroke="black" points="351.954,-609.78 364.949,-592.239 343.246,-594.601 351.954,-609.78"/>
</a>
</g>
<!-- n_ratio -->
<g id="node20" class="node"><title>n_ratio</title>
<a xlink:href="ratio.html" xlink:title="ratio M">
<ellipse fill="none" stroke="black" cx="49" cy="-190" rx="49.2462" ry="19.6"/>
<text text-anchor="middle" x="49" y="-185.6" font-family="Times,serif" font-size="18.00">ratio M</text>
</a>
</g>
<!-- n_ratio&#45;&gt;n_num_required -->
<g id="edge50" class="edge"><title>n_ratio&#45;&gt;n_num_required</title>
<a xlink:href="39.html">
<path fill="none" stroke="black" stroke-width="5" d="M85.7342,-176.669C92.774,-174.39 100.1,-172.077 107,-170 172.982,-150.142 248.565,-129.542 303.448,-114.968"/>
<polygon fill="black" stroke="black" points="305.941,-123.359 323.04,-109.788 301.468,-106.441 305.941,-123.359"/>
</a>
</g>
<!-- n_begin_vote -->
<g id="node21" class="node"><title>n_begin_vote</title>
<ellipse fill="none" stroke="green" cx="123" cy="-286" rx="71.127" ry="19.6"/>
<text text-anchor="middle" x="123" y="-281.6" font-family="Times,serif" font-size="18.00">begin_vote </text>
</g>
<!-- n_begin_vote&#45;&gt;n_pre_ballots -->
<g id="edge32" class="edge"><title>n_begin_vote&#45;&gt;n_pre_ballots</title>
<a xlink:href="35.html">
<path fill="none" stroke="black" stroke-width="5" d="M164.577,-269.793C205.067,-254.983 267.231,-232.246 314.394,-214.996"/>
<polygon fill="black" stroke="black" points="317.481,-223.184 333.258,-208.096 311.47,-206.749 317.481,-223.184"/>
</a>
</g>
<!-- n_begin_vote&#45;&gt;n_ratio -->
<g id="edge20" class="edge"><title>n_begin_vote&#45;&gt;n_ratio</title>
<a xlink:href="40.html">
<path fill="none" stroke="black" stroke-width="5" d="M108.38,-266.429C99.0969,-254.637 86.8033,-239.02 75.8109,-225.057"/>
<polygon fill="black" stroke="black" points="82.5843,-219.515 63.3378,-209.213 68.8339,-230.34 82.5843,-219.515"/>
</a>
</g>
<!-- n_grouped_vote_counts&#45;&gt;n_winning_vote -->
<g id="edge24" class="edge"><title>n_grouped_vote_counts&#45;&gt;n_winning_vote</title>
<a xlink:href="29.html">
<path fill="none" stroke="black" stroke-width="5" d="M267.315,-419.952C257.335,-379.379 233.811,-283.742 220.54,-229.787"/>
<polygon fill="black" stroke="black" points="228.975,-227.444 215.701,-210.113 211.982,-231.624 228.975,-227.444"/>
</a>
</g>
<!-- n_S -->
<g id="node39" class="node"><title>n_S</title>
<a xlink:href="javascript:advanceTo(-2)" xlink:title="S ">
<polygon fill="none" stroke="blue" stroke-width="3" points="165,-764 134,-736 165,-708 196,-736 165,-764"/>
<text text-anchor="middle" x="165" y="-731.6" font-family="Times,serif" font-size="18.00">S </text>
</a>
</g>
<!-- n_S&#45;&gt;n_cast_vote -->
<g id="edge54" class="edge"><title>n_S&#45;&gt;n_cast_vote</title>
<path fill="none" stroke="black" stroke-width="5" d="M180.781,-721.875C193.681,-711.147 212.437,-695.547 229.072,-681.712"/>
<polygon fill="black" stroke="black" points="234.922,-688.228 244.704,-668.712 223.732,-674.773 234.922,-688.228"/>
</g>
<!-- n_S&#45;&gt;n_begin_vote -->
<g id="edge52" class="edge"><title>n_S&#45;&gt;n_begin_vote</title>
<path fill="none" stroke="black" stroke-width="5" d="M151.941,-719.727C139.612,-703.707 123,-677.251 123,-651 123,-651 123,-651 123,-381 123,-363.059 123,-343.193 123,-326.363"/>
<polygon fill="black" stroke="black" points="131.75,-326.084 123,-306.084 114.25,-326.084 131.75,-326.084"/>
</g>
<!-- n_T -->
<g id="node40" class="node"><title>n_T</title>
<a xlink:href="javascript:advanceTo(0)" xlink:title="T ">
<polygon fill="none" stroke="blue" stroke-width="3" points="246,-764 214,-736 246,-708 278,-736 246,-764"/>
<text text-anchor="middle" x="246" y="-731.6" font-family="Times,serif" font-size="18.00">T </text>
</a>
</g>
</g>
</svg>
