<?xml version="1.0" encoding="UTF-8" standalone="no"?>
<!DOCTYPE svg PUBLIC "-//W3C//DTD SVG 1.1//EN"
 "http://www.w3.org/Graphics/SVG/1.1/DTD/svg11.dtd">
<!-- Generated by graphviz version 2.28.0 (20110517.1826)
 -->
<!-- Title: G Pages: 1 -->
<svg width="402pt" height="330pt"
 viewBox="0.00 0.00 402.00 330.00" xmlns="http://www.w3.org/2000/svg" xmlns:xlink="http://www.w3.org/1999/xlink">
<g id="graph1" class="graph" transform="scale(1 1) rotate(0) translate(4 326)">
<script type='text/javascript'>
  <![CDATA[

var windows = new Array()
var info = new Array()

function openWin(target, time) {
  win = window.open(target + "_" + time + ".html", target, "location=no,width=400,height=180,left=0,status=no");
  // hm, an associative array, how strange.
  info[target] = 1
}

function advanceTo(time) {
  arr = gup("wins").split(",");
  for (i=0; i < arr.length; i++) {
    if (arr[i] != "") {
      openWin(arr[i], time);
    }
  }
  str = '';
  // getting 'key_cols'
  for (var i in info) {
    str = str + ',' + i;
  }
  self.window.location.href = 'tm_' + time + '.svg?wins=' + str;
}

// off the netz
function gup(name) {
  name = name.replace(/[[]/,"\[").replace(/[]]/,"\]");
  var regexS = "[\?&]"+name+"=([^&#]*)";
  var regex = new RegExp(regexS);
  var results = regex.exec(window.location.href);
  if (results == null)
    return "";
  else
    return results[1];
}

  ]]>
</script>

<polygon fill="white" stroke="white" points="-4,5 -4,-326 399,-326 399,5 -4,5"/>
<!-- n_countdowns -->
<g id="node1" class="node"><title>n_countdowns</title>
<a xlink:href="countdowns.html" xlink:title="countdowns N">
<polygon fill="none" stroke="yellow" points="286,-132 164,-132 164,-96 286,-96 286,-132"/>
<text text-anchor="middle" x="225" y="-109.6" font-family="Times,serif" font-size="18.00">countdowns N</text>
</a>
</g>
<!-- n_countdowns&#45;&gt;n_countdowns -->
<g id="edge2" class="edge"><title>n_countdowns&#45;&gt;n_countdowns</title>
<a xlink:href="27.html" xlink:title=" +/&#45;">
<path fill="none" stroke="yellow" stroke-width="5" d="M286.279,-122.052C286.442,-122.035 286.605,-122.017 286.767,-121.999"/>
<polygon fill="yellow" stroke="yellow" points="286.279,-105.948 295.883,-125.665 288.582,-115.883 288.886,-125.878 286.887,-125.939 284.888,-126 284.584,-116.004 277.891,-126.213 286.279,-105.948 286.279,-105.948"/>
<ellipse fill="none" stroke="yellow" cx="287.13" cy="-133.935" rx="8" ry="8"/>
</a>
<a xlink:href="27.html" xlink:title=" +/&#45;">
<text text-anchor="middle" x="316.5" y="-109.6" font-family="Times,serif" font-size="18.00"> +/&#45;</text>
</a>
</g>
<!-- n_alarm -->
<g id="node3" class="node"><title>n_alarm</title>
<a xlink:href="alarm.html" xlink:title="alarm N">
<ellipse fill="none" stroke="yellow" cx="225" cy="-20" rx="51.99" ry="19.6"/>
<text text-anchor="middle" x="225" y="-15.6" font-family="Times,serif" font-size="18.00">alarm N</text>
</a>
</g>
<!-- n_countdowns&#45;&gt;n_alarm -->
<g id="edge4" class="edge"><title>n_countdowns&#45;&gt;n_alarm</title>
<a xlink:href="28.html">
<path fill="none" stroke="yellow" stroke-width="5" d="M223.828,-95.9185C223.49,-90.2225 223.167,-83.8405 223,-78 222.832,-72.0996 222.781,-69.1345 223.066,-59.8808"/>
<polygon fill="yellow" stroke="yellow" points="231.814,-60.1156 223.786,-39.8149 214.325,-59.4885 231.814,-60.1156"/>
</a>
</g>
<!-- n_alarm&#45;&gt;n_countdowns -->
<g id="edge6" class="edge"><title>n_alarm&#45;&gt;n_countdowns</title>
<a xlink:href="29.html" xlink:title=" +/&#45;">
<path fill="none" stroke="yellow" stroke-width="5" d="M225,-39.81C225,-45.6995 225,-52.5164 225,-59.5729"/>
<polygon fill="yellow" stroke="yellow" points="225,-95.6955 216,-75.6955 223,-85.6955 223,-75.6955 225,-75.6955 227,-75.6955 227,-85.6955 234,-75.6955 225,-95.6955 225,-95.6955"/>
<ellipse fill="none" stroke="yellow" cx="225" cy="-67.6955" rx="8" ry="8"/>
</a>
<a xlink:href="29.html" xlink:title=" +/&#45;">
<text text-anchor="middle" x="237.5" y="-63.6" font-family="Times,serif" font-size="18.00"> +/&#45;</text>
</a>
</g>
<!-- n_stop_alarm -->
<g id="node6" class="node"><title>n_stop_alarm</title>
<ellipse fill="none" stroke="green" cx="71" cy="-208" rx="71.127" ry="19.6"/>
<text text-anchor="middle" x="71" y="-203.6" font-family="Times,serif" font-size="18.00">stop_alarm </text>
</g>
<!-- n_stop_alarm&#45;&gt;n_countdowns -->
<g id="edge8" class="edge"><title>n_stop_alarm&#45;&gt;n_countdowns</title>
<a xlink:href="26.html" xlink:title=" +/&#45;">
<path fill="none" stroke="green" stroke-width="5" d="M99.9662,-189.696C118.415,-178.674 142.99,-163.993 165.468,-150.564"/>
<polygon fill="green" stroke="green" points="196.424,-132.071 183.87,-150.055 188.865,-138.917 180.28,-144.045 179.255,-142.328 178.229,-140.611 186.814,-135.483 174.639,-134.602 196.424,-132.071 196.424,-132.071"/>
<ellipse fill="none" stroke="green" cx="172.387" cy="-146.431" rx="8.00001" ry="8.00001"/>
</a>
<a xlink:href="26.html" xlink:title=" +/&#45;">
<text text-anchor="middle" x="179.5" y="-155.6" font-family="Times,serif" font-size="18.00"> +/&#45;</text>
</a>
</g>
<!-- n_set_alarm -->
<g id="node8" class="node"><title>n_set_alarm</title>
<ellipse fill="none" stroke="green" cx="225" cy="-208" rx="64.0209" ry="19.6"/>
<text text-anchor="middle" x="225" y="-203.6" font-family="Times,serif" font-size="18.00">set_alarm </text>
</g>
<!-- n_set_alarm&#45;&gt;n_countdowns -->
<g id="edge10" class="edge"><title>n_set_alarm&#45;&gt;n_countdowns</title>
<a xlink:href="25.html">
<path fill="none" stroke="green" stroke-width="5" d="M225,-187.938C225,-177.674 225,-164.649 225,-152.454"/>
<polygon fill="green" stroke="green" points="233.75,-152.176 225,-132.176 216.25,-152.176 233.75,-152.176"/>
</a>
</g>
<!-- n_ticker -->
<g id="node10" class="node"><title>n_ticker</title>
<ellipse fill="none" stroke="green" cx="351" cy="-208" rx="43.263" ry="19.6"/>
<text text-anchor="middle" x="351" y="-203.6" font-family="Times,serif" font-size="18.00">ticker </text>
</g>
<!-- n_ticker&#45;&gt;n_countdowns -->
<g id="edge12" class="edge"><title>n_ticker&#45;&gt;n_countdowns</title>
<a xlink:href="27.html" xlink:title=" +/&#45;">
<path fill="none" stroke="green" stroke-width="5" d="M328.764,-190.764C314.546,-180.383 295.473,-166.457 277.559,-153.377"/>
<polygon fill="green" stroke="green" points="248.294,-132.008 269.754,-136.534 257.55,-136.29 265.626,-142.187 264.446,-143.802 263.267,-145.417 255.191,-139.52 259.139,-151.071 248.294,-132.008 248.294,-132.008"/>
<ellipse fill="none" stroke="green" cx="270.907" cy="-148.52" rx="8.00001" ry="8.00001"/>
</a>
<a xlink:href="27.html" xlink:title=" +/&#45;">
<text text-anchor="middle" x="311.5" y="-155.6" font-family="Times,serif" font-size="18.00"> +/&#45;</text>
</a>
</g>
<!-- n_S -->
<g id="node12" class="node"><title>n_S</title>
<a xlink:href="javascript:advanceTo(-2)" xlink:title="S ">
<polygon fill="none" stroke="blue" stroke-width="3" points="225,-322 194,-294 225,-266 256,-294 225,-322"/>
<text text-anchor="middle" x="225" y="-289.6" font-family="Times,serif" font-size="18.00">S </text>
</a>
</g>
<!-- n_S&#45;&gt;n_stop_alarm -->
<g id="edge18" class="edge"><title>n_S&#45;&gt;n_stop_alarm</title>
<path fill="none" stroke="blue" stroke-width="5" d="M206.117,-282.7C184.734,-271.037 149.057,-251.577 119.732,-235.581"/>
<polygon fill="blue" stroke="blue" points="123.785,-227.825 102.037,-225.929 115.405,-243.188 123.785,-227.825"/>
</g>
<!-- n_S&#45;&gt;n_set_alarm -->
<g id="edge16" class="edge"><title>n_S&#45;&gt;n_set_alarm</title>
<path fill="none" stroke="blue" stroke-width="5" d="M225,-265.959C225,-260.256 225,-254.129 225,-248.083"/>
<polygon fill="blue" stroke="blue" points="233.75,-248.01 225,-228.01 216.25,-248.01 233.75,-248.01"/>
</g>
<!-- n_S&#45;&gt;n_ticker -->
<g id="edge14" class="edge"><title>n_S&#45;&gt;n_ticker</title>
<path fill="none" stroke="blue" stroke-width="5" d="M242.108,-281.406C249.184,-276.622 257.479,-271.031 265,-266 279.761,-256.127 295.987,-245.352 310.329,-235.855"/>
<polygon fill="blue" stroke="blue" points="315.383,-243.003 327.237,-224.672 305.729,-228.407 315.383,-243.003"/>
</g>
<!-- n_T -->
<g id="node13" class="node"><title>n_T</title>
<a xlink:href="javascript:advanceTo(0)" xlink:title="T ">
<polygon fill="none" stroke="blue" stroke-width="3" points="306,-322 274,-294 306,-266 338,-294 306,-322"/>
<text text-anchor="middle" x="306" y="-289.6" font-family="Times,serif" font-size="18.00">T </text>
</a>
</g>
</g>
</svg>
