<?xml version="1.0" encoding="UTF-8" standalone="no"?>
<!DOCTYPE svg PUBLIC "-//W3C//DTD SVG 1.1//EN"
 "http://www.w3.org/Graphics/SVG/1.1/DTD/svg11.dtd">
<!-- Generated by graphviz version 2.28.0 (20110517.1826)
 -->
<!-- Title: G Pages: 1 -->
<svg width="887pt" height="646pt"
 viewBox="0.00 0.00 887.00 646.00" xmlns="http://www.w3.org/2000/svg" xmlns:xlink="http://www.w3.org/1999/xlink">
<g id="graph1" class="graph" transform="scale(1 1) rotate(0) translate(4 642)">
<script type='text/javascript'>
  <![CDATA[

var windows = new Array()
var info = new Array()

function openWin(target, time) {
  win = window.open(target + "_" + time + ".html", target, "location=no,width=400,height=180,left=0,status=no");
  // hm, an associative array, how strange.
  info[target] = 1
}

function advanceTo(time) {
  arr = gup("wins").split(",");
  for (i=0; i < arr.length; i++) {
    if (arr[i] != "") {
      openWin(arr[i], time);
    }
  }
  str = '';
  // getting 'key_cols'
  for (var i in info) {
    str = str + ',' + i;
  }
  self.window.location.href = 'tm_' + time + '.svg?wins=' + str;
}

// off the netz
function gup(name) {
  name = name.replace(/[[]/,"\[").replace(/[]]/,"\]");
  var regexS = "[\?&]"+name+"=([^&#]*)";
  var regex = new RegExp(regexS);
  var results = regex.exec(window.location.href);
  if (results == null)
    return "";
  else
    return results[1];
}

  ]]>
</script>

<polygon fill="white" stroke="white" points="-4,5 -4,-642 884,-642 884,5 -4,5"/>
<!-- n_pq__pop -->
<g id="node1" class="node"><title>n_pq__pop</title>
<a xlink:href="pq__pop.html" xlink:title="pq__pop M">
<ellipse fill="none" stroke="black" cx="405" cy="-450" rx="70.5656" ry="19.6"/>
<text text-anchor="middle" x="405" y="-445.6" font-family="Times,serif" font-size="18.00">pq__pop M</text>
</a>
</g>
<!-- n_pq__items, pq__lowest, pq__lowest_popr, pq__pop_response, pq__remove_response -->
<g id="node4" class="node"><title>n_pq__items, pq__lowest, pq__lowest_popr, pq__pop_response, pq__remove_response</title>
<a xlink:href="FIFOQueue_viz_expanded.svg" xlink:title="pq__items, pq__lowest, pq__lowest_popr, pq__pop_response,\npq__remove_response">
<polygon fill="none" stroke="red" stroke-width="3" points="710.195,-341.684 710.195,-372.316 502.127,-393.977 207.873,-393.977 -0.195362,-372.316 -0.195362,-341.684 207.873,-320.023 502.127,-320.023 710.195,-341.684"/>
<text text-anchor="middle" x="355" y="-362.6" font-family="Times,serif" font-size="18.00">pq__items, pq__lowest, pq__lowest_popr, pq__pop_response,</text>
<text text-anchor="middle" x="355" y="-342.6" font-family="Times,serif" font-size="18.00">pq__remove_response</text>
</a>
</g>
<!-- n_pq__pop&#45;&gt;n_pq__items, pq__lowest, pq__lowest_popr, pq__pop_response, pq__remove_response -->
<g id="edge16" class="edge"><title>n_pq__pop&#45;&gt;n_pq__items, pq__lowest, pq__lowest_popr, pq__pop_response, pq__remove_response</title>
<a xlink:href="28.html">
<path fill="none" stroke="black" stroke-width="5" d="M394.64,-430.145C391.57,-424.558 388.046,-418.144 384.393,-411.495"/>
<polygon fill="black" stroke="black" points="391.943,-407.066 374.644,-393.751 376.606,-415.493 391.943,-407.066"/>
</a>
</g>
<!-- n_pop -->
<g id="node2" class="node"><title>n_pop</title>
<ellipse fill="none" stroke="green" cx="467" cy="-526" rx="33.4126" ry="19.6"/>
<text text-anchor="middle" x="467" y="-521.6" font-family="Times,serif" font-size="18.00">pop </text>
</g>
<!-- n_pop&#45;&gt;n_pq__pop -->
<g id="edge2" class="edge"><title>n_pop&#45;&gt;n_pq__pop</title>
<a xlink:href="35.html">
<path fill="none" stroke="black" stroke-width="5" d="M452.62,-507.837C446.885,-500.992 440.073,-492.862 433.421,-484.921"/>
<polygon fill="black" stroke="black" points="439.937,-479.074 420.386,-469.363 426.523,-490.313 439.937,-479.074"/>
</a>
</g>
<!-- n_pq__lowest_peekr -->
<g id="node8" class="node"><title>n_pq__lowest_peekr</title>
<a xlink:href="pq__lowest_peekr.html" xlink:title="pq__lowest_peekr N">
<ellipse fill="none" stroke="yellow" cx="591" cy="-264" rx="118.13" ry="19.6"/>
<text text-anchor="middle" x="591" y="-259.6" font-family="Times,serif" font-size="18.00">pq__lowest_peekr N</text>
</a>
</g>
<!-- n_pq__items, pq__lowest, pq__lowest_popr, pq__pop_response, pq__remove_response&#45;&gt;n_pq__lowest_peekr -->
<g id="edge6" class="edge"><title>n_pq__items, pq__lowest, pq__lowest_popr, pq__pop_response, pq__remove_response&#45;&gt;n_pq__lowest_peekr</title>
<a xlink:href="29.html">
<path fill="none" stroke="black" stroke-width="5" d="M447.935,-320.165C474.368,-309.973 502.56,-299.102 526.868,-289.729"/>
<polygon fill="black" stroke="black" points="530.323,-297.775 545.835,-282.415 524.027,-281.447 530.323,-297.775"/>
</a>
</g>
<!-- n_pop_response -->
<g id="node20" class="node"><title>n_pop_response</title>
<a xlink:href="pop_response.html" xlink:title="pop_response N">
<ellipse fill="none" stroke="yellow" cx="355" cy="-188" rx="94.0678" ry="19.6"/>
<text text-anchor="middle" x="355" y="-183.6" font-family="Times,serif" font-size="18.00">pop_response N</text>
</a>
</g>
<!-- n_pq__items, pq__lowest, pq__lowest_popr, pq__pop_response, pq__remove_response&#45;&gt;n_pop_response -->
<g id="edge20" class="edge"><title>n_pq__items, pq__lowest, pq__lowest_popr, pq__pop_response, pq__remove_response&#45;&gt;n_pop_response</title>
<a xlink:href="37.html">
<path fill="none" stroke="black" stroke-width="5" d="M355,-320.174C355,-293.235 355,-256.339 355,-228.539"/>
<polygon fill="black" stroke="black" points="363.75,-228.151 355,-208.151 346.25,-228.151 363.75,-228.151"/>
</a>
</g>
<!-- n_peek_response -->
<g id="node5" class="node"><title>n_peek_response</title>
<a xlink:href="peek_response.html" xlink:title="peek_response N">
<ellipse fill="none" stroke="yellow" cx="563" cy="-112" rx="98.4924" ry="19.6"/>
<text text-anchor="middle" x="563" y="-107.6" font-family="Times,serif" font-size="18.00">peek_response N</text>
</a>
</g>
<!-- n_T -->
<g id="node25" class="node"><title>n_T</title>
<a xlink:href="javascript:advanceTo(0)" xlink:title="T ">
<polygon fill="none" stroke="blue" stroke-width="3" points="486,-56 454,-28 486,-1.42109e-14 518,-28 486,-56"/>
<text text-anchor="middle" x="486" y="-23.6" font-family="Times,serif" font-size="18.00">T </text>
</a>
</g>
<!-- n_peek_response&#45;&gt;n_T -->
<g id="edge32" class="edge"><title>n_peek_response&#45;&gt;n_T</title>
<path fill="none" stroke="black" stroke-width="5" d="M545.528,-92.3929C536.178,-82.4366 524.443,-69.9389 513.868,-58.6777"/>
<polygon fill="black" stroke="black" points="520.132,-52.566 500.063,-43.976 507.375,-64.5453 520.132,-52.566"/>
</g>
<!-- n_pq__peek_response -->
<g id="node6" class="node"><title>n_pq__peek_response</title>
<a xlink:href="pq__peek_response.html" xlink:title="pq__peek_response N">
<ellipse fill="none" stroke="yellow" cx="591" cy="-188" rx="124.176" ry="19.6"/>
<text text-anchor="middle" x="591" y="-183.6" font-family="Times,serif" font-size="18.00">pq__peek_response N</text>
</a>
</g>
<!-- n_pq__peek_response&#45;&gt;n_peek_response -->
<g id="edge4" class="edge"><title>n_pq__peek_response&#45;&gt;n_peek_response</title>
<a xlink:href="38.html">
<path fill="none" stroke="black" stroke-width="5" d="M583.789,-167.943C581.797,-162.678 579.563,-156.773 577.318,-150.839"/>
<polygon fill="black" stroke="black" points="585.448,-147.601 570.186,-131.992 569.08,-153.795 585.448,-147.601"/>
</a>
</g>
<!-- n_pq__lowest_peekr&#45;&gt;n_pq__peek_response -->
<g id="edge14" class="edge"><title>n_pq__lowest_peekr&#45;&gt;n_pq__peek_response</title>
<a xlink:href="26.html">
<path fill="none" stroke="black" stroke-width="5" d="M591,-243.943C591,-243.857 591,-243.77 591,-243.684"/>
<polygon fill="black" stroke="black" points="591,-207.992 600,-227.992 593,-217.992 593,-227.992 591,-227.992 589,-227.992 589,-217.992 582,-227.992 591,-207.992 591,-207.992"/>
<ellipse fill="none" stroke="black" cx="591" cy="-235.992" rx="8" ry="8"/>
</a>
</g>
<!-- n_pq__remove -->
<g id="node10" class="node"><title>n_pq__remove</title>
<ellipse fill="none" stroke="green" cx="327" cy="-526" rx="78.2333" ry="19.6"/>
<text text-anchor="middle" x="327" y="-521.6" font-family="Times,serif" font-size="18.00">pq__remove </text>
</g>
<!-- n_pq__remove&#45;&gt;n_pq__items, pq__lowest, pq__lowest_popr, pq__pop_response, pq__remove_response -->
<g id="edge8" class="edge"><title>n_pq__remove&#45;&gt;n_pq__items, pq__lowest, pq__lowest_popr, pq__pop_response, pq__remove_response</title>
<a xlink:href="33.html">
<path fill="none" stroke="black" stroke-width="5" d="M324.183,-505.86C321.899,-486.521 319.824,-455.882 325,-430 326.145,-424.274 327.756,-418.433 329.643,-412.68"/>
<polygon fill="black" stroke="black" points="337.913,-415.551 336.847,-393.746 321.557,-409.327 337.913,-415.551"/>
</a>
</g>
<!-- n_pq__push -->
<g id="node12" class="node"><title>n_pq__push</title>
<a xlink:href="pq__push.html" xlink:title="pq__push M">
<ellipse fill="none" stroke="black" cx="569" cy="-450" rx="75.4903" ry="19.6"/>
<text text-anchor="middle" x="569" y="-445.6" font-family="Times,serif" font-size="18.00">pq__push M</text>
</a>
</g>
<!-- n_pq__push&#45;&gt;n_pq__items, pq__lowest, pq__lowest_popr, pq__pop_response, pq__remove_response -->
<g id="edge10" class="edge"><title>n_pq__push&#45;&gt;n_pq__items, pq__lowest, pq__lowest_popr, pq__pop_response, pq__remove_response</title>
<a xlink:href="32.html">
<path fill="none" stroke="black" stroke-width="5" d="M530.741,-432.731C510.132,-423.967 483.624,-412.695 457.476,-401.576"/>
<polygon fill="black" stroke="black" points="460.88,-393.515 439.051,-393.741 454.032,-409.62 460.88,-393.515"/>
</a>
</g>
<!-- n_pq__peek -->
<g id="node14" class="node"><title>n_pq__peek</title>
<a xlink:href="pq__peek.html" xlink:title="pq__peek M">
<ellipse fill="none" stroke="black" cx="804" cy="-357" rx="75.4903" ry="19.6"/>
<text text-anchor="middle" x="804" y="-352.6" font-family="Times,serif" font-size="18.00">pq__peek M</text>
</a>
</g>
<!-- n_pq__peek&#45;&gt;n_pq__lowest_peekr -->
<g id="edge18" class="edge"><title>n_pq__peek&#45;&gt;n_pq__lowest_peekr</title>
<a xlink:href="29.html">
<path fill="none" stroke="black" stroke-width="5" d="M765.92,-339.731C733.997,-326.093 687.852,-306.378 650.972,-290.622"/>
<polygon fill="black" stroke="black" points="654.218,-282.493 632.388,-282.682 647.342,-298.586 654.218,-282.493"/>
</a>
</g>
<!-- n_peek -->
<g id="node15" class="node"><title>n_peek</title>
<ellipse fill="none" stroke="green" cx="753" cy="-450" rx="39.3965" ry="19.6"/>
<text text-anchor="middle" x="753" y="-445.6" font-family="Times,serif" font-size="18.00">peek </text>
</g>
<!-- n_peek&#45;&gt;n_pq__peek -->
<g id="edge12" class="edge"><title>n_peek&#45;&gt;n_pq__peek</title>
<a xlink:href="36.html">
<path fill="none" stroke="black" stroke-width="5" d="M763.321,-430.585C769.158,-420.169 776.663,-406.777 783.635,-394.338"/>
<polygon fill="black" stroke="black" points="791.375,-398.425 793.52,-376.7 776.109,-389.869 791.375,-398.425"/>
</a>
</g>
<!-- n_pop_response&#45;&gt;n_T -->
<g id="edge34" class="edge"><title>n_pop_response&#45;&gt;n_T</title>
<path fill="none" stroke="black" stroke-width="5" d="M370.542,-168.255C392.602,-141.647 433.278,-92.5886 459.983,-60.3788"/>
<polygon fill="black" stroke="black" points="466.81,-65.8542 472.839,-44.8731 453.338,-54.6846 466.81,-65.8542"/>
</g>
<!-- n_push -->
<g id="node22" class="node"><title>n_push</title>
<ellipse fill="none" stroke="green" cx="563" cy="-526" rx="38.3379" ry="19.6"/>
<text text-anchor="middle" x="563" y="-521.6" font-family="Times,serif" font-size="18.00">push </text>
</g>
<!-- n_push&#45;&gt;n_pq__push -->
<g id="edge22" class="edge"><title>n_push&#45;&gt;n_pq__push</title>
<a xlink:href="34.html">
<path fill="none" stroke="black" stroke-width="5" d="M564.545,-505.943C564.944,-501.023 565.388,-495.545 565.837,-490.006"/>
<polygon fill="black" stroke="black" points="574.565,-490.634 567.46,-469.992 557.122,-489.22 574.565,-490.634"/>
</a>
</g>
<!-- n_S -->
<g id="node24" class="node"><title>n_S</title>
<a xlink:href="javascript:advanceTo(-2)" xlink:title="S ">
<polygon fill="none" stroke="blue" stroke-width="3" points="515,-638 484,-610 515,-582 546,-610 515,-638"/>
<text text-anchor="middle" x="515" y="-605.6" font-family="Times,serif" font-size="18.00">S </text>
</a>
</g>
<!-- n_S&#45;&gt;n_pop -->
<g id="edge24" class="edge"><title>n_S&#45;&gt;n_pop</title>
<path fill="none" stroke="black" stroke-width="5" d="M504.585,-591.207C499.65,-582.776 493.572,-572.394 487.754,-562.454"/>
<polygon fill="black" stroke="black" points="495.216,-557.881 477.561,-545.041 480.113,-566.722 495.216,-557.881"/>
</g>
<!-- n_S&#45;&gt;n_pq__remove -->
<g id="edge30" class="edge"><title>n_S&#45;&gt;n_pq__remove</title>
<path fill="none" stroke="black" stroke-width="5" d="M494.523,-600.068C467.962,-588.483 420.579,-567.816 382.967,-551.411"/>
<polygon fill="black" stroke="black" points="386.45,-543.384 364.62,-543.409 379.454,-559.425 386.45,-543.384"/>
</g>
<!-- n_S&#45;&gt;n_peek -->
<g id="edge28" class="edge"><title>n_S&#45;&gt;n_peek</title>
<path fill="none" stroke="black" stroke-width="5" d="M532.512,-597.393C551.576,-584.756 582.959,-563.949 610,-546 645,-522.769 684.806,-496.322 713.517,-477.242"/>
<polygon fill="black" stroke="black" points="718.405,-484.5 730.218,-466.143 708.718,-469.926 718.405,-484.5"/>
</g>
<!-- n_S&#45;&gt;n_push -->
<g id="edge26" class="edge"><title>n_S&#45;&gt;n_push</title>
<path fill="none" stroke="black" stroke-width="5" d="M525.415,-591.207C530.35,-582.776 536.428,-572.394 542.246,-562.454"/>
<polygon fill="black" stroke="black" points="549.887,-566.722 552.439,-545.041 534.784,-557.881 549.887,-566.722"/>
</g>
</g>
</svg>
