<?xml version="1.0" encoding="UTF-8" standalone="no"?>
<!DOCTYPE svg PUBLIC "-//W3C//DTD SVG 1.1//EN"
 "http://www.w3.org/Graphics/SVG/1.1/DTD/svg11.dtd">
<!-- Generated by graphviz version 2.28.0 (20110517.1826)
 -->
<!-- Title: G Pages: 1 -->
<svg width="846pt" height="280pt"
 viewBox="0.00 0.00 846.00 280.00" xmlns="http://www.w3.org/2000/svg" xmlns:xlink="http://www.w3.org/1999/xlink">
<g id="graph1" class="graph" transform="scale(1 1) rotate(0) translate(4 276)">
<script type='text/javascript'>
  <![CDATA[

var windows = new Array()
var info = new Array()

function openWin(target, time) {
  win = window.open(target + "_" + time + ".html", target, "location=no,width=400,height=180,left=0,status=no");
  // hm, an associative array, how strange.
  info[target] = 1
}

function advanceTo(time) {
  arr = gup("wins").split(",");
  for (i=0; i < arr.length; i++) {
    if (arr[i] != "") {
      openWin(arr[i], time);
    }
  }
  str = '';
  // getting 'key_cols'
  for (var i in info) {
    str = str + ',' + i;
  }
  self.window.location.href = 'tm_' + time + '.svg?wins=' + str;
}

// off the netz
function gup(name) {
  name = name.replace(/[[]/,"\[").replace(/[]]/,"\]");
  var regexS = "[\?&]"+name+"=([^&#]*)";
  var regex = new RegExp(regexS);
  var results = regex.exec(window.location.href);
  if (results == null)
    return "";
  else
    return results[1];
}

  ]]>
</script>

<polygon fill="white" stroke="white" points="-4,5 -4,-276 843,-276 843,5 -4,5"/>
<!-- n_ballot_summary, completed_ballots, grouped_vote_counts, num_required, ongoing_ballots, pre_ballots, required, result, votes, winning_vote -->
<g id="node1" class="node"><title>n_ballot_summary, completed_ballots, grouped_vote_counts, num_required, ongoing_ballots, pre_ballots, required, result, votes, winning_vote</title>
<a xlink:href="RatioVoteCounter_viz_expanded.svg" xlink:title="ballot_summary, completed_ballots, grouped_vote_counts, num_required,\nongoing_ballots, pre_ballots, required, result,\nvotes, winning_vote">
<polygon fill="none" stroke="red" stroke-width="3" points="838.132,-30.4236 838.132,-73.5764 592.61,-104.09 245.39,-104.09 -0.131617,-73.5764 -0.131617,-30.4236 245.39,0.0899325 592.61,0.0899325 838.132,-30.4236"/>
<text text-anchor="middle" x="419" y="-67.6" font-family="Times,serif" font-size="18.00">ballot_summary, completed_ballots, grouped_vote_counts, num_required,</text>
<text text-anchor="middle" x="419" y="-47.6" font-family="Times,serif" font-size="18.00">ongoing_ballots, pre_ballots, required, result,</text>
<text text-anchor="middle" x="419" y="-27.6" font-family="Times,serif" font-size="18.00">votes, winning_vote</text>
</a>
</g>
<!-- n_cast_vote -->
<g id="node2" class="node"><title>n_cast_vote</title>
<ellipse fill="none" stroke="green" cx="266" cy="-160" rx="63.459" ry="19.6"/>
<text text-anchor="middle" x="266" y="-155.6" font-family="Times,serif" font-size="18.00">cast_vote </text>
</g>
<!-- n_cast_vote&#45;&gt;n_ballot_summary, completed_ballots, grouped_vote_counts, num_required, ongoing_ballots, pre_ballots, required, result, votes, winning_vote -->
<g id="edge2" class="edge"><title>n_cast_vote&#45;&gt;n_ballot_summary, completed_ballots, grouped_vote_counts, num_required, ongoing_ballots, pre_ballots, required, result, votes, winning_vote</title>
<a xlink:href="25.html">
<path fill="none" stroke="black" stroke-width="5" d="M290.923,-141.733C301.634,-134.312 314.871,-125.142 328.732,-115.539"/>
<polygon fill="black" stroke="black" points="333.718,-122.729 345.175,-104.147 323.752,-108.344 333.718,-122.729"/>
</a>
</g>
<!-- n_begin_vote -->
<g id="node4" class="node"><title>n_begin_vote</title>
<ellipse fill="none" stroke="green" cx="419" cy="-160" rx="71.127" ry="19.6"/>
<text text-anchor="middle" x="419" y="-155.6" font-family="Times,serif" font-size="18.00">begin_vote </text>
</g>
<!-- n_begin_vote&#45;&gt;n_ballot_summary, completed_ballots, grouped_vote_counts, num_required, ongoing_ballots, pre_ballots, required, result, votes, winning_vote -->
<g id="edge4" class="edge"><title>n_begin_vote&#45;&gt;n_ballot_summary, completed_ballots, grouped_vote_counts, num_required, ongoing_ballots, pre_ballots, required, result, votes, winning_vote</title>
<a xlink:href="35.html">
<path fill="none" stroke="black" stroke-width="5" d="M419,-140.049C419,-135.304 419,-129.927 419,-124.23"/>
<polygon fill="black" stroke="black" points="427.75,-124.081 419,-104.081 410.25,-124.081 427.75,-124.081"/>
</a>
</g>
<!-- n_ratio -->
<g id="node6" class="node"><title>n_ratio</title>
<ellipse fill="none" stroke="green" cx="547" cy="-160" rx="38.2761" ry="19.6"/>
<text text-anchor="middle" x="547" y="-155.6" font-family="Times,serif" font-size="18.00">ratio </text>
</g>
<!-- n_ratio&#45;&gt;n_ballot_summary, completed_ballots, grouped_vote_counts, num_required, ongoing_ballots, pre_ballots, required, result, votes, winning_vote -->
<g id="edge6" class="edge"><title>n_ratio&#45;&gt;n_ballot_summary, completed_ballots, grouped_vote_counts, num_required, ongoing_ballots, pre_ballots, required, result, votes, winning_vote</title>
<a xlink:href="39.html">
<path fill="none" stroke="black" stroke-width="5" d="M527.56,-142.901C518.807,-135.652 507.846,-126.576 496.28,-116.998"/>
<polygon fill="black" stroke="black" points="501.846,-110.246 480.862,-104.229 490.685,-123.725 501.846,-110.246"/>
</a>
</g>
<!-- n_S -->
<g id="node8" class="node"><title>n_S</title>
<a xlink:href="javascript:advanceTo(-2)" xlink:title="S ">
<polygon fill="none" stroke="blue" stroke-width="3" points="419,-272 388,-244 419,-216 450,-244 419,-272"/>
<text text-anchor="middle" x="419" y="-239.6" font-family="Times,serif" font-size="18.00">S </text>
</a>
</g>
<!-- n_S&#45;&gt;n_cast_vote -->
<g id="edge12" class="edge"><title>n_S&#45;&gt;n_cast_vote</title>
<path fill="none" stroke="black" stroke-width="5" d="M400.239,-232.945C379.031,-221.579 343.668,-202.626 314.561,-187.026"/>
<polygon fill="black" stroke="black" points="318.31,-179.108 296.548,-177.372 310.043,-194.532 318.31,-179.108"/>
</g>
<!-- n_S&#45;&gt;n_begin_vote -->
<g id="edge8" class="edge"><title>n_S&#45;&gt;n_begin_vote</title>
<path fill="none" stroke="black" stroke-width="5" d="M419,-215.695C419,-210.65 419,-205.293 419,-199.981"/>
<polygon fill="black" stroke="black" points="427.75,-199.906 419,-179.906 410.25,-199.906 427.75,-199.906"/>
</g>
<!-- n_S&#45;&gt;n_ratio -->
<g id="edge10" class="edge"><title>n_S&#45;&gt;n_ratio</title>
<path fill="none" stroke="black" stroke-width="5" d="M436.041,-231.305C443.107,-226.506 451.412,-220.93 459,-216 474.084,-206.2 490.788,-195.678 505.554,-186.488"/>
<polygon fill="black" stroke="black" points="510.555,-193.683 522.952,-175.714 501.342,-178.804 510.555,-193.683"/>
</g>
<!-- n_T -->
<g id="node9" class="node"><title>n_T</title>
<a xlink:href="javascript:advanceTo(0)" xlink:title="T ">
<polygon fill="none" stroke="blue" stroke-width="3" points="500,-272 468,-244 500,-216 532,-244 500,-272"/>
<text text-anchor="middle" x="500" y="-239.6" font-family="Times,serif" font-size="18.00">T </text>
</a>
</g>
</g>
</svg>
