<?xml version="1.0" encoding="UTF-8" standalone="no"?>
<!DOCTYPE svg PUBLIC "-//W3C//DTD SVG 1.1//EN"
 "http://www.w3.org/Graphics/SVG/1.1/DTD/svg11.dtd">
<!-- Generated by graphviz version 2.28.0 (20110517.1826)
 -->
<!-- Title: G Pages: 1 -->
<svg width="783pt" height="1288pt"
 viewBox="0.00 0.00 783.00 1288.00" xmlns="http://www.w3.org/2000/svg" xmlns:xlink="http://www.w3.org/1999/xlink">
<g id="graph1" class="graph" transform="scale(1 1) rotate(0) translate(4 1284)">
<script type='text/javascript'>
  <![CDATA[

var windows = new Array()
var info = new Array()

function openWin(target, time) {
  win = window.open(target + "_" + time + ".html", target, "location=no,width=400,height=180,left=0,status=no");
  // hm, an associative array, how strange.
  info[target] = 1
}

function advanceTo(time) {
  arr = gup("wins").split(",");
  for (i=0; i < arr.length; i++) {
    if (arr[i] != "") {
      openWin(arr[i], time);
    }
  }
  str = '';
  // getting 'key_cols'
  for (var i in info) {
    str = str + ',' + i;
  }
  self.window.location.href = 'tm_' + time + '.svg?wins=' + str;
}

// off the netz
function gup(name) {
  name = name.replace(/[[]/,"\[").replace(/[]]/,"\]");
  var regexS = "[\?&]"+name+"=([^&#]*)";
  var regex = new RegExp(regexS);
  var results = regex.exec(window.location.href);
  if (results == null)
    return "";
  else
    return results[1];
}

  ]]>
</script>

<polygon fill="white" stroke="white" points="-4,5 -4,-1284 780,-1284 780,5 -4,5"/>
<!-- n_unacked_count -->
<g id="node1" class="node"><title>n_unacked_count</title>
<a xlink:href="unacked_count.html" xlink:title="unacked_count D">
<polygon fill="none" stroke="red" points="204,-208 60,-208 60,-172 204,-172 204,-208"/>
<text text-anchor="middle" x="132" y="-185.6" font-family="Times,serif" font-size="18.00">unacked_count D</text>
</a>
</g>
<!-- n_unacked_count&#45;&gt;n_unacked_count -->
<g id="edge16" class="edge"><title>n_unacked_count&#45;&gt;n_unacked_count</title>
<a xlink:href="39.html" xlink:title=" +/&#45;">
<path fill="none" stroke="black" stroke-width="5" d="M204.026,-196.123C204.194,-196.108 204.36,-196.093 204.526,-196.078"/>
<polygon fill="black" stroke="black" points="204.026,-183.877 213.838,-203.491 206.434,-193.786 206.843,-203.778 204.845,-203.86 202.847,-203.942 202.437,-193.95 195.853,-204.228 204.026,-183.877 204.026,-183.877"/>
<ellipse fill="none" stroke="black" cx="205.173" cy="-211.853" rx="8" ry="8"/>
</a>
<a xlink:href="39.html" xlink:title=" +/&#45;">
<text text-anchor="middle" x="234.5" y="-185.6" font-family="Times,serif" font-size="18.00"> +/&#45;</text>
</a>
</g>
<!-- n_mcast_done -->
<g id="node38" class="node"><title>n_mcast_done</title>
<a xlink:href="mcast_done.html" xlink:title="mcast_done D">
<ellipse fill="none" stroke="red" cx="240" cy="-114" rx="84.2802" ry="19.6"/>
<text text-anchor="middle" x="240" y="-109.6" font-family="Times,serif" font-size="18.00">mcast_done D</text>
</a>
</g>
<!-- n_unacked_count&#45;&gt;n_mcast_done -->
<g id="edge42" class="edge"><title>n_unacked_count&#45;&gt;n_mcast_done</title>
<a xlink:href="38.html">
<path fill="none" stroke="black" stroke-width="5" d="M157.049,-171.837C169.054,-163.611 183.769,-153.529 197.455,-144.151"/>
<polygon fill="black" stroke="black" points="202.407,-151.365 213.959,-132.843 192.515,-136.929 202.407,-151.365"/>
</a>
</g>
<!-- n_acked_count -->
<g id="node2" class="node"><title>n_acked_count</title>
<a xlink:href="acked_count.html" xlink:title="acked_count D">
<ellipse fill="none" stroke="red" cx="241" cy="-284" rx="89.1432" ry="19.6"/>
<text text-anchor="middle" x="241" y="-279.6" font-family="Times,serif" font-size="18.00">acked_count D</text>
</a>
</g>
<!-- n_acked_count&#45;&gt;n_unacked_count -->
<g id="edge2" class="edge"><title>n_acked_count&#45;&gt;n_unacked_count</title>
<a xlink:href="37.html" xlink:title=" +/&#45;">
<path fill="none" stroke="black" stroke-width="5" d="M219.204,-264.604C207.926,-255.085 193.683,-243.063 179.996,-231.51"/>
<polygon fill="black" stroke="black" points="152.285,-208.122 173.374,-214.144 161.217,-213.043 168.859,-219.493 167.569,-221.022 166.279,-222.55 158.637,-216.1 161.764,-227.899 152.285,-208.122 152.285,-208.122"/>
<ellipse fill="none" stroke="black" cx="173.683" cy="-226.182" rx="8.00001" ry="8.00001"/>
</a>
<a xlink:href="37.html" xlink:title=" +/&#45;">
<text text-anchor="middle" x="209.5" y="-231.6" font-family="Times,serif" font-size="18.00"> +/&#45;</text>
</a>
</g>
<!-- n_pipe_sent -->
<g id="node4" class="node"><title>n_pipe_sent</title>
<a xlink:href="pipe_sent.html" xlink:title="pipe_sent A">
<ellipse fill="none" stroke="yellow" cx="248" cy="-362" rx="72.2493" ry="19.6"/>
<text text-anchor="middle" x="248" y="-357.6" font-family="Times,serif" font-size="18.00">pipe_sent A</text>
</a>
</g>
<!-- n_pipe_sent&#45;&gt;n_acked_count -->
<g id="edge44" class="edge"><title>n_pipe_sent&#45;&gt;n_acked_count</title>
<a xlink:href="36.html">
<path fill="none" stroke="black" stroke-width="5" d="M246.234,-341.822C246.175,-341.187 246.116,-340.543 246.056,-339.89"/>
<polygon fill="black" stroke="black" points="242.742,-303.909 253.538,-322.999 245.65,-313.683 246.568,-323.641 244.576,-323.824 242.584,-324.008 241.667,-314.05 235.614,-324.65 242.742,-303.909 242.742,-303.909"/>
<ellipse fill="none" stroke="black" cx="245.31" cy="-331.791" rx="8" ry="8"/>
</a>
</g>
<!-- n_msg_acked -->
<g id="node5" class="node"><title>n_msg_acked</title>
<a xlink:href="msg_acked.html" xlink:title="msg_acked A">
<ellipse fill="none" stroke="yellow" cx="335" cy="-458" rx="80.9767" ry="19.6"/>
<text text-anchor="middle" x="335" y="-453.6" font-family="Times,serif" font-size="18.00">msg_acked A</text>
</a>
</g>
<!-- n_msg_acked&#45;&gt;n_pipe_sent -->
<g id="edge4" class="edge"><title>n_msg_acked&#45;&gt;n_pipe_sent</title>
<a xlink:href="34.html">
<path fill="none" stroke="black" stroke-width="5" d="M317.812,-438.429C306.73,-426.455 291.999,-410.539 278.926,-396.414"/>
<polygon fill="black" stroke="black" points="285.159,-390.267 265.153,-381.533 272.316,-402.154 285.159,-390.267"/>
</a>
</g>
<!-- END_COORD_buf -->
<g id="node8" class="node"><title>END_COORD_buf</title>
<a xlink:href="buf.html" xlink:title="buf D">
<polygon fill="none" stroke="red" points="396,-380 340,-380 340,-344 396,-344 396,-380"/>
<text text-anchor="middle" x="368" y="-357.6" font-family="Times,serif" font-size="18.00">buf D</text>
</a>
</g>
<!-- n_msg_acked&#45;&gt;END_COORD_buf -->
<g id="edge26" class="edge"><title>n_msg_acked&#45;&gt;END_COORD_buf</title>
<a xlink:href="35.html" xlink:title=" +/&#45;">
<path fill="none" stroke="black" stroke-width="5" d="M341.678,-437.978C344.142,-430.958 347.066,-422.63 350.054,-414.12"/>
<polygon fill="black" stroke="black" points="361.998,-380.098 363.865,-401.95 360.572,-390.196 357.26,-399.631 355.373,-398.969 353.486,-398.306 356.798,-388.871 346.881,-395.987 361.998,-380.098 361.998,-380.098"/>
<ellipse fill="none" stroke="black" cx="352.723" cy="-406.517" rx="8.00001" ry="8.00001"/>
</a>
<a xlink:href="35.html" xlink:title=" +/&#45;">
<text text-anchor="middle" x="367.5" y="-405.6" font-family="Times,serif" font-size="18.00"> +/&#45;</text>
</a>
</g>
<!-- n_bed__pipe_in -->
<g id="node7" class="node"><title>n_bed__pipe_in</title>
<a xlink:href="bed__pipe_in.html" xlink:title="bed__pipe_in M">
<ellipse fill="none" stroke="black" cx="387" cy="-856" rx="94.1301" ry="19.6"/>
<text text-anchor="middle" x="387" y="-851.6" font-family="Times,serif" font-size="18.00">bed__pipe_in M</text>
</a>
</g>
<!-- COORD_bed__pipe_chan -->
<g id="node16" class="node"><title>COORD_bed__pipe_chan</title>
<a xlink:href="bed__pipe_chan.html" xlink:title="bed__pipe_chan A">
<polygon fill="none" stroke="yellow" points="254.72,-765.446 387,-748.554 519.28,-765.446 519.156,-792.777 254.844,-792.777 254.72,-765.446"/>
<text text-anchor="middle" x="387" y="-768.6" font-family="Times,serif" font-size="18.00">bed__pipe_chan A</text>
</a>
</g>
<!-- n_bed__pipe_in&#45;&gt;COORD_bed__pipe_chan -->
<g id="edge46" class="edge"><title>n_bed__pipe_in&#45;&gt;COORD_bed__pipe_chan</title>
<a xlink:href="27.html">
<path fill="none" stroke="black" stroke-width="5" stroke-dasharray="5,2" d="M387,-835.804C387,-828.895 387,-820.829 387,-812.849"/>
<polygon fill="black" stroke="black" points="395.75,-812.779 387,-792.779 378.25,-812.779 395.75,-812.779"/>
</a>
</g>
<!-- n_bed__pipe_sent -->
<g id="node26" class="node"><title>n_bed__pipe_sent</title>
<a xlink:href="bed__pipe_sent.html" xlink:title="bed__pipe_sent M">
<ellipse fill="none" stroke="black" cx="669" cy="-710" rx="106.099" ry="19.6"/>
<text text-anchor="middle" x="669" y="-705.6" font-family="Times,serif" font-size="18.00">bed__pipe_sent M</text>
</a>
</g>
<!-- n_bed__pipe_in&#45;&gt;n_bed__pipe_sent -->
<g id="edge28" class="edge"><title>n_bed__pipe_in&#45;&gt;n_bed__pipe_sent</title>
<a xlink:href="25.html">
<path fill="none" stroke="black" stroke-width="5" d="M471.897,-847.097C501.7,-841.775 534.565,-832.877 562,-818 594.521,-800.365 623.641,-769.755 643.261,-745.78"/>
<polygon fill="black" stroke="black" points="650.349,-750.919 655.781,-729.776 636.566,-740.137 650.349,-750.919"/>
</a>
</g>
<!-- END_COORD_buf&#45;&gt;n_msg_acked -->
<g id="edge10" class="edge"><title>END_COORD_buf&#45;&gt;n_msg_acked</title>
<a xlink:href="33.html">
<path fill="none" stroke="black" stroke-width="5" d="M358.052,-380.31C354.842,-386.395 351.477,-393.371 349,-400 346.79,-405.914 344.83,-412.303 343.128,-418.592"/>
<polygon fill="black" stroke="black" points="334.583,-416.704 338.466,-438.186 351.608,-420.755 334.583,-416.704"/>
</a>
</g>
<!-- END_COORD_buf&#45;&gt;n_bed__pipe_in -->
<g id="edge6" class="edge"><title>END_COORD_buf&#45;&gt;n_bed__pipe_in</title>
<a xlink:href="30.html">
<path fill="none" stroke="black" stroke-width="5" d="M396.125,-364.996C446.75,-370.281 548,-389.311 548,-457 548,-774 548,-774 548,-774 548,-808.162 518.716,-827.918 485.126,-839.342"/>
<polygon fill="black" stroke="black" points="482.378,-831.028 465.613,-845.011 487.26,-847.833 482.378,-831.028"/>
</a>
</g>
<!-- n_pipe_in -->
<g id="node10" class="node"><title>n_pipe_in</title>
<a xlink:href="pipe_in.html" xlink:title="pipe_in M">
<ellipse fill="none" stroke="black" cx="228" cy="-972" rx="63.459" ry="19.6"/>
<text text-anchor="middle" x="228" y="-967.6" font-family="Times,serif" font-size="18.00">pipe_in M</text>
</a>
</g>
<!-- n_pipe_in&#45;&gt;n_bed__pipe_in -->
<g id="edge20" class="edge"><title>n_pipe_in&#45;&gt;n_bed__pipe_in</title>
<a xlink:href="29.html">
<path fill="none" stroke="black" stroke-width="5" d="M248.034,-953.211C266.782,-936.946 295.89,-912.653 323,-894 327.456,-890.934 332.179,-887.875 336.96,-884.904"/>
<polygon fill="black" stroke="black" points="341.447,-892.416 354.162,-874.67 332.5,-877.376 341.447,-892.416"/>
</a>
</g>
<!-- n_pipe_in&#45;&gt;END_COORD_buf -->
<g id="edge8" class="edge"><title>n_pipe_in&#45;&gt;END_COORD_buf</title>
<a xlink:href="28.html">
<path fill="none" stroke="black" stroke-width="5" d="M227.679,-951.983C227.113,-916.836 226,-839.328 226,-774 226,-774 226,-774 226,-457 226,-445.244 280.814,-411.811 322.33,-388.174"/>
<polygon fill="black" stroke="black" points="326.799,-395.7 339.945,-378.272 318.223,-380.445 326.799,-395.7"/>
</a>
</g>
<!-- n_member -->
<g id="node13" class="node"><title>n_member</title>
<a xlink:href="member.html" xlink:title="member M">
<polygon fill="none" stroke="black" points="275.25,-1068 180.75,-1068 180.75,-1032 275.25,-1032 275.25,-1068"/>
<text text-anchor="middle" x="228" y="-1045.6" font-family="Times,serif" font-size="18.00">member M</text>
</a>
</g>
<!-- n_member&#45;&gt;n_pipe_in -->
<g id="edge12" class="edge"><title>n_member&#45;&gt;n_pipe_in</title>
<a xlink:href="40.html">
<path fill="none" stroke="black" stroke-width="5" d="M228,-1031.75C228,-1025.93 228,-1019.18 228,-1012.36"/>
<polygon fill="black" stroke="black" points="236.75,-1012.04 228,-992.045 219.25,-1012.04 236.75,-1012.04"/>
</a>
</g>
<!-- n_num_members -->
<g id="node22" class="node"><title>n_num_members</title>
<a xlink:href="num_members.html" xlink:title="num_members N">
<ellipse fill="none" stroke="yellow" cx="114" cy="-914" rx="98.4924" ry="19.6"/>
<text text-anchor="middle" x="114" y="-909.6" font-family="Times,serif" font-size="18.00">num_members N</text>
</a>
</g>
<!-- n_member&#45;&gt;n_num_members -->
<g id="edge24" class="edge"><title>n_member&#45;&gt;n_num_members</title>
<a xlink:href="41.html">
<path fill="none" stroke="black" stroke-width="5" d="M200.725,-1031.83C185.917,-1021.56 168.03,-1007.51 155,-992 148.48,-984.237 142.567,-975.269 137.388,-966.257"/>
<polygon fill="black" stroke="black" points="121.333,-933.747 138.259,-947.694 127.554,-941.827 131.982,-950.794 130.189,-951.679 128.396,-952.565 123.968,-943.599 122.12,-955.664 121.333,-933.747 121.333,-933.747"/>
<ellipse fill="none" stroke="black" cx="133.732" cy="-958.852" rx="8.00001" ry="8.00001"/>
</a>
</g>
<!-- n_bed__pipe_out -->
<g id="node15" class="node"><title>n_bed__pipe_out</title>
<a xlink:href="bed__pipe_out.html" xlink:title="bed__pipe_out A">
<ellipse fill="none" stroke="yellow" cx="387" cy="-652" rx="99.5528" ry="19.6"/>
<text text-anchor="middle" x="387" y="-647.6" font-family="Times,serif" font-size="18.00">bed__pipe_out A</text>
</a>
</g>
<!-- n_ack -->
<g id="node30" class="node"><title>n_ack</title>
<a xlink:href="ack.html" xlink:title="ack A">
<ellipse fill="none" stroke="yellow" cx="351" cy="-574" rx="41.5782" ry="19.6"/>
<text text-anchor="middle" x="351" y="-569.6" font-family="Times,serif" font-size="18.00">ack A</text>
</a>
</g>
<!-- n_bed__pipe_out&#45;&gt;n_ack -->
<g id="edge34" class="edge"><title>n_bed__pipe_out&#45;&gt;n_ack</title>
<a xlink:href="32.html">
<path fill="none" stroke="black" stroke-width="5" stroke-dasharray="5,2" d="M378.101,-632.213C375.18,-626.047 371.825,-618.965 368.494,-611.932"/>
<polygon fill="black" stroke="black" points="376.266,-607.899 359.797,-593.57 360.451,-615.391 376.266,-607.899"/>
</a>
</g>
<!-- n_pipe_out -->
<g id="node36" class="node"><title>n_pipe_out</title>
<a xlink:href="pipe_out.html" xlink:title="pipe_out A">
<ellipse fill="none" stroke="yellow" cx="434" cy="-516" rx="68.3838" ry="19.6"/>
<text text-anchor="middle" x="434" y="-511.6" font-family="Times,serif" font-size="18.00">pipe_out A</text>
</a>
</g>
<!-- n_bed__pipe_out&#45;&gt;n_pipe_out -->
<g id="edge40" class="edge"><title>n_bed__pipe_out&#45;&gt;n_pipe_out</title>
<a xlink:href="31.html">
<path fill="none" stroke="black" stroke-width="5" d="M393.634,-632.085C400.632,-612.133 411.848,-580.157 420.683,-554.968"/>
<polygon fill="black" stroke="black" points="429.037,-557.587 427.399,-535.819 412.523,-551.795 429.037,-557.587"/>
</a>
</g>
<!-- COORD_bed__pipe_chan&#45;&gt;n_bed__pipe_out -->
<g id="edge14" class="edge"><title>COORD_bed__pipe_chan&#45;&gt;n_bed__pipe_out</title>
<a xlink:href="26.html">
<path fill="none" stroke="black" stroke-width="5" d="M387,-748.489C387,-732.511 387,-710.986 387,-692.417"/>
<polygon fill="black" stroke="black" points="395.75,-692.146 387,-672.146 378.25,-692.146 395.75,-692.146"/>
</a>
</g>
<!-- n_clock -->
<g id="node19" class="node"><title>n_clock</title>
<ellipse fill="none" stroke="green" cx="337" cy="-1108" rx="42.1401" ry="19.6"/>
<text text-anchor="middle" x="337" y="-1103.6" font-family="Times,serif" font-size="18.00">clock </text>
</g>
<!-- n_clock&#45;&gt;n_bed__pipe_in -->
<g id="edge18" class="edge"><title>n_clock&#45;&gt;n_bed__pipe_in</title>
<a xlink:href="30.html">
<path fill="none" stroke="black" stroke-width="5" d="M340.758,-1088.21C348.902,-1047.49 368.321,-950.393 379.227,-895.864"/>
<polygon fill="black" stroke="black" points="387.856,-897.336 383.198,-876.009 370.696,-893.904 387.856,-897.336"/>
</a>
</g>
<!-- n_num_members&#45;&gt;n_unacked_count -->
<g id="edge22" class="edge"><title>n_num_members&#45;&gt;n_unacked_count</title>
<a xlink:href="42.html">
<path fill="none" stroke="black" stroke-width="5" d="M114,-894.074C114,-874.901 114,-844.389 114,-818 114,-818 114,-818 114,-283 114,-264.555 117.528,-244.409 121.46,-227.685"/>
<polygon fill="black" stroke="black" points="129.986,-229.666 126.599,-208.1 113.06,-225.224 129.986,-229.666"/>
</a>
</g>
<!-- n_T -->
<g id="node46" class="node"><title>n_T</title>
<a xlink:href="javascript:advanceTo(0)" xlink:title="T ">
<polygon fill="none" stroke="blue" stroke-width="3" points="444,-56 412,-28 444,-1.42109e-14 476,-28 444,-56"/>
<text text-anchor="middle" x="444" y="-23.6" font-family="Times,serif" font-size="18.00">T </text>
</a>
</g>
<!-- n_bed__pipe_sent&#45;&gt;n_T -->
<g id="edge58" class="edge"><title>n_bed__pipe_sent&#45;&gt;n_T</title>
<path fill="none" stroke="black" stroke-width="5" d="M655.015,-690.069C642.797,-671.628 627,-642.312 627,-614 627,-614 627,-614 627,-113 627,-54.3635 548.437,-36.5042 494.263,-31.1596"/>
<polygon fill="black" stroke="black" points="494.828,-22.4273 474.219,-29.6266 493.493,-39.8764 494.828,-22.4273"/>
</g>
<!-- n_mcast_send -->
<g id="node28" class="node"><title>n_mcast_send</title>
<ellipse fill="none" stroke="green" cx="88" cy="-1050" rx="74.3697" ry="19.6"/>
<text text-anchor="middle" x="88" y="-1045.6" font-family="Times,serif" font-size="18.00">mcast_send </text>
</g>
<!-- n_mcast_send&#45;&gt;n_unacked_count -->
<g id="edge38" class="edge"><title>n_mcast_send&#45;&gt;n_unacked_count</title>
<a xlink:href="42.html">
<path fill="none" stroke="black" stroke-width="5" d="M48.8894,-1033.06C25.3868,-1020.62 0,-1000.76 0,-973 0,-973 0,-973 0,-283 0,-252.18 24.5187,-230.837 52.4217,-216.527"/>
<polygon fill="black" stroke="black" points="56.409,-224.327 71.023,-208.11 49.1944,-208.384 56.409,-224.327"/>
</a>
</g>
<!-- n_mcast_send&#45;&gt;n_pipe_in -->
<g id="edge30" class="edge"><title>n_mcast_send&#45;&gt;n_pipe_in</title>
<a xlink:href="40.html">
<path fill="none" stroke="black" stroke-width="5" d="M119.419,-1031.94C137.227,-1022.28 159.881,-1009.98 179.883,-999.12"/>
<polygon fill="black" stroke="black" points="184.245,-1006.71 197.648,-989.477 175.896,-991.329 184.245,-1006.71"/>
</a>
</g>
<!-- n_ack&#45;&gt;n_msg_acked -->
<g id="edge32" class="edge"><title>n_ack&#45;&gt;n_msg_acked</title>
<a xlink:href="33.html">
<path fill="none" stroke="black" stroke-width="5" d="M348.358,-554.175C346.216,-538.911 343.124,-516.887 340.455,-497.869"/>
<polygon fill="black" stroke="black" points="349.091,-496.442 337.646,-477.853 331.761,-498.875 349.091,-496.442"/>
</a>
</g>
<!-- n_add_member -->
<g id="node33" class="node"><title>n_add_member</title>
<ellipse fill="none" stroke="green" cx="228" cy="-1166" rx="80.9767" ry="19.6"/>
<text text-anchor="middle" x="228" y="-1161.6" font-family="Times,serif" font-size="18.00">add_member </text>
</g>
<!-- n_add_member&#45;&gt;n_member -->
<g id="edge36" class="edge"><title>n_add_member&#45;&gt;n_member</title>
<a xlink:href="43.html">
<path fill="none" stroke="black" stroke-width="5" d="M228,-1146.18C228,-1130.55 228,-1107.83 228,-1088.51"/>
<polygon fill="black" stroke="black" points="236.75,-1088.36 228,-1068.36 219.25,-1088.36 236.75,-1088.36"/>
</a>
</g>
<!-- n_pipe_out&#45;&gt;n_T -->
<g id="edge62" class="edge"><title>n_pipe_out&#45;&gt;n_T</title>
<path fill="none" stroke="black" stroke-width="5" d="M436.946,-495.885C439.896,-475.063 444,-440.748 444,-411 444,-411 444,-411 444,-113 444,-101.151 444,-88.3619 444,-76.423"/>
<polygon fill="black" stroke="black" points="452.75,-76.2378 444,-56.2378 435.25,-76.2379 452.75,-76.2378"/>
</g>
<!-- n_mcast_done&#45;&gt;n_T -->
<g id="edge60" class="edge"><title>n_mcast_done&#45;&gt;n_T</title>
<path fill="none" stroke="black" stroke-width="5" d="M280.304,-96.4043C316.205,-81.6215 368.44,-60.1128 404.191,-45.3921"/>
<polygon fill="black" stroke="black" points="407.69,-53.4141 422.852,-37.7081 401.027,-37.2322 407.69,-53.4141"/>
</g>
<!-- n_local_id -->
<g id="node42" class="node"><title>n_local_id</title>
<a xlink:href="local_id.html" xlink:title="local_id M">
<polygon fill="none" stroke="black" points="459,-1068 365,-1068 365,-1032 459,-1032 459,-1068"/>
<text text-anchor="middle" x="412" y="-1045.6" font-family="Times,serif" font-size="18.00">local_id M</text>
</a>
</g>
<!-- n_my_id -->
<g id="node43" class="node"><title>n_my_id</title>
<ellipse fill="none" stroke="green" cx="412" cy="-1166" rx="46.503" ry="19.6"/>
<text text-anchor="middle" x="412" y="-1161.6" font-family="Times,serif" font-size="18.00">my_id </text>
</g>
<!-- n_my_id&#45;&gt;n_local_id -->
<g id="edge48" class="edge"><title>n_my_id&#45;&gt;n_local_id</title>
<a xlink:href="44.html">
<path fill="none" stroke="black" stroke-width="5" d="M412,-1146.18C412,-1130.55 412,-1107.83 412,-1088.51"/>
<polygon fill="black" stroke="black" points="420.75,-1088.36 412,-1068.36 403.25,-1088.36 420.75,-1088.36"/>
</a>
</g>
<!-- n_S -->
<g id="node45" class="node"><title>n_S</title>
<a xlink:href="javascript:advanceTo(-2)" xlink:title="S ">
<polygon fill="none" stroke="blue" stroke-width="3" points="303,-1280 272,-1252 303,-1224 334,-1252 303,-1280"/>
<text text-anchor="middle" x="303" y="-1247.6" font-family="Times,serif" font-size="18.00">S </text>
</a>
</g>
<!-- n_S&#45;&gt;n_clock -->
<g id="edge50" class="edge"><title>n_S&#45;&gt;n_clock</title>
<path fill="none" stroke="black" stroke-width="5" d="M308.387,-1228.5C313.595,-1206.75 321.588,-1173.37 327.804,-1147.41"/>
<polygon fill="black" stroke="black" points="336.359,-1149.25 332.506,-1127.77 319.34,-1145.18 336.359,-1149.25"/>
</g>
<!-- n_S&#45;&gt;n_mcast_send -->
<g id="edge54" class="edge"><title>n_S&#45;&gt;n_mcast_send</title>
<path fill="none" stroke="black" stroke-width="5" d="M276.759,-1247.42C240.777,-1241.19 176.244,-1225.04 138,-1186 112.509,-1159.98 99.8371,-1119.83 93.6499,-1090.08"/>
<polygon fill="black" stroke="black" points="102.231,-1088.35 90.1388,-1070.17 84.9968,-1091.39 102.231,-1088.35"/>
</g>
<!-- n_S&#45;&gt;n_add_member -->
<g id="edge52" class="edge"><title>n_S&#45;&gt;n_add_member</title>
<path fill="none" stroke="black" stroke-width="5" d="M289.592,-1235.98C280.803,-1226.14 268.952,-1212.87 257.993,-1200.59"/>
<polygon fill="black" stroke="black" points="264.28,-1194.5 244.433,-1185.4 251.226,-1206.15 264.28,-1194.5"/>
</g>
<!-- n_S&#45;&gt;n_my_id -->
<g id="edge56" class="edge"><title>n_S&#45;&gt;n_my_id</title>
<path fill="none" stroke="black" stroke-width="5" d="M319.555,-1238.24C334.055,-1227.07 355.669,-1210.41 374.352,-1196.01"/>
<polygon fill="black" stroke="black" points="379.897,-1202.79 390.398,-1183.65 369.215,-1188.93 379.897,-1202.79"/>
</g>
</g>
</svg>
