<?xml version="1.0" encoding="UTF-8" standalone="no"?>
<!DOCTYPE svg PUBLIC "-//W3C//DTD SVG 1.1//EN"
 "http://www.w3.org/Graphics/SVG/1.1/DTD/svg11.dtd">
<!-- Generated by graphviz version 2.28.0 (20110517.1826)
 -->
<!-- Title: G Pages: 1 -->
<svg width="816pt" height="602pt"
 viewBox="0.00 0.00 816.00 602.00" xmlns="http://www.w3.org/2000/svg" xmlns:xlink="http://www.w3.org/1999/xlink">
<g id="graph1" class="graph" transform="scale(1 1) rotate(0) translate(4 598)">
<script type='text/javascript'>
  <![CDATA[

var windows = new Array()
var info = new Array()

function openWin(target, time) {
  win = window.open(target + "_" + time + ".html", target, "location=no,width=400,height=180,left=0,status=no");
  // hm, an associative array, how strange.
  info[target] = 1
}

function advanceTo(time) {
  arr = gup("wins").split(",");
  for (i=0; i < arr.length; i++) {
    if (arr[i] != "") {
      openWin(arr[i], time);
    }
  }
  str = '';
  // getting 'key_cols'
  for (var i in info) {
    str = str + ',' + i;
  }
  self.window.location.href = 'tm_' + time + '.svg?wins=' + str;
}

// off the netz
function gup(name) {
  name = name.replace(/[[]/,"\[").replace(/[]]/,"\]");
  var regexS = "[\?&]"+name+"=([^&#]*)";
  var regex = new RegExp(regexS);
  var results = regex.exec(window.location.href);
  if (results == null)
    return "";
  else
    return results[1];
}

  ]]>
</script>

<polygon fill="white" stroke="white" points="-4,5 -4,-598 813,-598 813,5 -4,5"/>
<!-- n_votes -->
<g id="node1" class="node"><title>n_votes</title>
<a xlink:href="votes.html" xlink:title="votes N">
<polygon fill="none" stroke="yellow" points="412,-422 340,-422 340,-386 412,-386 412,-422"/>
<text text-anchor="middle" x="376" y="-399.6" font-family="Times,serif" font-size="18.00">votes N</text>
</a>
</g>
<!-- n_votes&#45;&gt;n_votes -->
<g id="edge2" class="edge"><title>n_votes&#45;&gt;n_votes</title>
<a xlink:href="33.html" xlink:title=" +/&#45;">
<path fill="none" stroke="black" stroke-width="5" d="M412.087,-410.717C412.246,-410.712 412.403,-410.707 412.561,-410.701"/>
<polygon fill="black" stroke="black" points="412.087,-397.283 421.787,-416.954 414.439,-407.207 414.791,-417.2 412.792,-417.271 410.794,-417.341 410.441,-407.348 403.798,-417.588 412.087,-397.283 412.087,-397.283"/>
<ellipse fill="none" stroke="black" cx="413.074" cy="-425.266" rx="8" ry="8"/>
</a>
<a xlink:href="33.html" xlink:title=" +/&#45;">
<text text-anchor="middle" x="442.5" y="-399.6" font-family="Times,serif" font-size="18.00"> +/&#45;</text>
</a>
</g>
<!-- n_ballot_summary -->
<g id="node4" class="node"><title>n_ballot_summary</title>
<a xlink:href="ballot_summary.html" xlink:title="ballot_summary N">
<ellipse fill="none" stroke="yellow" cx="285" cy="-328" rx="105.039" ry="19.6"/>
<text text-anchor="middle" x="285" y="-323.6" font-family="Times,serif" font-size="18.00">ballot_summary N</text>
</a>
</g>
<!-- n_votes&#45;&gt;n_ballot_summary -->
<g id="edge44" class="edge"><title>n_votes&#45;&gt;n_ballot_summary</title>
<a xlink:href="26.html">
<path fill="none" stroke="black" stroke-width="5" d="M354.894,-385.837C349.024,-381.064 342.385,-375.665 335.593,-370.142"/>
<polygon fill="black" stroke="black" points="307.582,-347.363 328.777,-352.999 316.602,-352.121 324.361,-358.43 323.099,-359.982 321.837,-361.533 314.079,-355.224 317.421,-366.964 307.582,-347.363 307.582,-347.363"/>
<ellipse fill="none" stroke="black" cx="329.306" cy="-365.029" rx="8.00001" ry="8.00001"/>
</a>
</g>
<!-- n_grouped_vote_counts -->
<g id="node21" class="node"><title>n_grouped_vote_counts</title>
<a xlink:href="grouped_vote_counts.html" xlink:title="grouped_vote_counts N">
<ellipse fill="none" stroke="yellow" cx="134" cy="-270" rx="134.026" ry="19.6"/>
<text text-anchor="middle" x="134" y="-265.6" font-family="Times,serif" font-size="18.00">grouped_vote_counts N</text>
</a>
</g>
<!-- n_votes&#45;&gt;n_grouped_vote_counts -->
<g id="edge28" class="edge"><title>n_votes&#45;&gt;n_grouped_vote_counts</title>
<a xlink:href="27.html">
<path fill="none" stroke="black" stroke-width="5" d="M339.637,-402.167C295.113,-399.319 219.639,-388.348 171,-348 163.159,-341.496 156.862,-332.939 151.845,-323.899"/>
<polygon fill="black" stroke="black" points="138.28,-289.97 154.062,-305.199 143.849,-298.513 147.562,-307.798 145.705,-308.541 143.848,-309.283 140.135,-299.998 137.348,-311.882 138.28,-289.97 138.28,-289.97"/>
<ellipse fill="none" stroke="black" cx="148.675" cy="-315.969" rx="8.00001" ry="8.00001"/>
</a>
</g>
<!-- n_result -->
<g id="node3" class="node"><title>n_result</title>
<a xlink:href="result.html" xlink:title="result N">
<ellipse fill="none" stroke="yellow" cx="365" cy="-212" rx="51.99" ry="19.6"/>
<text text-anchor="middle" x="365" y="-207.6" font-family="Times,serif" font-size="18.00">result N</text>
</a>
</g>
<!-- n_result&#45;&gt;n_votes -->
<g id="edge32" class="edge"><title>n_result&#45;&gt;n_votes</title>
<a xlink:href="33.html" xlink:title=" +/&#45;">
<path fill="none" stroke="black" stroke-width="5" d="M375.12,-231.651C387.941,-257.577 407.417,-306.056 399,-348 398.731,-349.34 398.429,-350.688 398.097,-352.039"/>
<polygon fill="black" stroke="black" points="385.307,-385.732 383.991,-363.839 386.986,-375.673 390.535,-366.324 392.405,-367.034 394.275,-367.743 390.726,-377.092 400.819,-370.228 385.307,-385.732 385.307,-385.732"/>
<ellipse fill="none" stroke="black" cx="395.244" cy="-359.554" rx="8.00001" ry="8.00001"/>
</a>
<a xlink:href="33.html" xlink:title=" +/&#45;">
<text text-anchor="middle" x="414.5" y="-323.6" font-family="Times,serif" font-size="18.00"> +/&#45;</text>
</a>
</g>
<!-- n_ongoing_ballots -->
<g id="node7" class="node"><title>n_ongoing_ballots</title>
<a xlink:href="ongoing_ballots.html" xlink:title="ongoing_ballots N">
<polygon fill="none" stroke="yellow" points="538.25,-134 389.75,-134 389.75,-98 538.25,-98 538.25,-134"/>
<text text-anchor="middle" x="464" y="-111.6" font-family="Times,serif" font-size="18.00">ongoing_ballots N</text>
</a>
</g>
<!-- n_result&#45;&gt;n_ongoing_ballots -->
<g id="edge34" class="edge"><title>n_result&#45;&gt;n_ongoing_ballots</title>
<a xlink:href="32.html" xlink:title=" +/&#45;">
<path fill="none" stroke="black" stroke-width="5" d="M383.621,-193.319C393.779,-183.674 406.826,-171.286 419.441,-159.309"/>
<polygon fill="black" stroke="black" points="445.797,-134.284 437.49,-154.582 439.922,-142.62 432.67,-149.505 431.293,-148.055 429.916,-146.605 437.168,-139.719 425.096,-141.528 445.797,-134.284 445.797,-134.284"/>
<ellipse fill="none" stroke="black" cx="425.492" cy="-153.563" rx="8.00001" ry="8.00001"/>
</a>
<a xlink:href="32.html" xlink:title=" +/&#45;">
<text text-anchor="middle" x="436.5" y="-159.6" font-family="Times,serif" font-size="18.00"> +/&#45;</text>
</a>
</g>
<!-- n_ballot_summary&#45;&gt;n_result -->
<g id="edge4" class="edge"><title>n_ballot_summary&#45;&gt;n_result</title>
<a xlink:href="31.html">
<path fill="none" stroke="black" stroke-width="5" d="M298.21,-308.175C309.685,-291.824 326.604,-267.715 340.541,-247.854"/>
<polygon fill="black" stroke="black" points="347.709,-252.872 352.035,-231.474 333.385,-242.819 347.709,-252.872"/>
</a>
</g>
<!-- n_completed_ballots -->
<g id="node14" class="node"><title>n_completed_ballots</title>
<a xlink:href="completed_ballots.html" xlink:title="completed_ballots N">
<ellipse fill="none" stroke="yellow" cx="362" cy="-20" rx="116.509" ry="19.6"/>
<text text-anchor="middle" x="362" y="-15.6" font-family="Times,serif" font-size="18.00">completed_ballots N</text>
</a>
</g>
<!-- n_ballot_summary&#45;&gt;n_completed_ballots -->
<g id="edge24" class="edge"><title>n_ballot_summary&#45;&gt;n_completed_ballots</title>
<a xlink:href="28.html">
<path fill="none" stroke="black" stroke-width="5" d="M286.543,-308.01C288.937,-281.691 294.31,-232.757 304,-192 315.139,-145.149 333.794,-92.9516 346.934,-58.6945"/>
<polygon fill="black" stroke="black" points="355.153,-61.7043 354.287,-39.8911 338.854,-55.3313 355.153,-61.7043"/>
</a>
</g>
<!-- n_required -->
<g id="node6" class="node"><title>n_required</title>
<a xlink:href="required.html" xlink:title="required N">
<polygon fill="none" stroke="yellow" points="591,-38 497,-38 497,-2 591,-2 591,-38"/>
<text text-anchor="middle" x="544" y="-15.6" font-family="Times,serif" font-size="18.00">required N</text>
</a>
</g>
<!-- n_required&#45;&gt;n_required -->
<g id="edge38" class="edge"><title>n_required&#45;&gt;n_required</title>
<a xlink:href="38.html" xlink:title=" +/&#45;">
<path fill="none" stroke="black" stroke-width="5" d="M591.035,-28.7578C591.198,-28.7449 591.36,-28.7315 591.521,-28.7176"/>
<polygon fill="black" stroke="black" points="591.035,-11.2422 600.587,-30.9848 593.312,-21.1829 593.59,-31.179 591.591,-31.2345 589.591,-31.2901 589.314,-21.2939 582.594,-31.4843 591.035,-11.2422 591.035,-11.2422"/>
<ellipse fill="none" stroke="black" cx="591.813" cy="-39.2315" rx="8" ry="8"/>
</a>
<a xlink:href="38.html" xlink:title=" +/&#45;">
<text text-anchor="middle" x="621.5" y="-15.6" font-family="Times,serif" font-size="18.00"> +/&#45;</text>
</a>
</g>
<!-- n_required&#45;&gt;n_ongoing_ballots -->
<g id="edge18" class="edge"><title>n_required&#45;&gt;n_ongoing_ballots</title>
<a xlink:href="36.html">
<path fill="none" stroke="black" stroke-width="5" d="M515.544,-38.0534C507.596,-43.7187 499.394,-50.5141 493,-58 487.558,-64.3714 482.804,-71.9399 478.806,-79.446"/>
<polygon fill="black" stroke="black" points="470.78,-75.9526 470.248,-97.7764 486.637,-83.3554 470.78,-75.9526"/>
</a>
</g>
<!-- n_ongoing_ballots&#45;&gt;n_required -->
<g id="edge6" class="edge"><title>n_ongoing_ballots&#45;&gt;n_required</title>
<a xlink:href="38.html" xlink:title=" +/&#45;">
<path fill="none" stroke="black" stroke-width="5" d="M478.673,-97.759C486.342,-88.7486 496.12,-77.2594 505.761,-65.9309"/>
<polygon fill="black" stroke="black" points="529.42,-38.1317 523.311,-59.1956 524.462,-47.0434 517.98,-54.6588 516.457,-53.3625 514.934,-52.0663 521.416,-44.4509 509.604,-47.5295 529.42,-38.1317 529.42,-38.1317"/>
<ellipse fill="none" stroke="black" cx="511.272" cy="-59.4549" rx="8.00001" ry="8.00001"/>
</a>
<a xlink:href="38.html" xlink:title=" +/&#45;">
<text text-anchor="middle" x="524.5" y="-63.6" font-family="Times,serif" font-size="18.00"> +/&#45;</text>
</a>
</g>
<!-- n_ongoing_ballots&#45;&gt;n_ongoing_ballots -->
<g id="edge46" class="edge"><title>n_ongoing_ballots&#45;&gt;n_ongoing_ballots</title>
<a xlink:href="32.html" xlink:title=" +/&#45;">
<path fill="none" stroke="black" stroke-width="5" d="M538.36,-124.077C538.525,-124.056 538.689,-124.035 538.852,-124.014"/>
<polygon fill="black" stroke="black" points="538.36,-107.923 547.968,-127.639 540.665,-117.858 540.971,-127.853 538.972,-127.914 536.973,-127.975 536.667,-117.98 529.976,-128.189 538.36,-107.923 538.36,-107.923"/>
<ellipse fill="none" stroke="black" cx="539.216" cy="-135.91" rx="8" ry="8"/>
</a>
<a xlink:href="32.html" xlink:title=" +/&#45;">
<text text-anchor="middle" x="568.5" y="-111.6" font-family="Times,serif" font-size="18.00"> +/&#45;</text>
</a>
</g>
<!-- n_winning_vote -->
<g id="node11" class="node"><title>n_winning_vote</title>
<a xlink:href="winning_vote.html" xlink:title="winning_vote N">
<ellipse fill="none" stroke="yellow" cx="133" cy="-20" rx="94.1301" ry="19.6"/>
<text text-anchor="middle" x="133" y="-15.6" font-family="Times,serif" font-size="18.00">winning_vote N</text>
</a>
</g>
<!-- n_ongoing_ballots&#45;&gt;n_winning_vote -->
<g id="edge12" class="edge"><title>n_ongoing_ballots&#45;&gt;n_winning_vote</title>
<a xlink:href="29.html">
<path fill="none" stroke="black" stroke-width="5" d="M419.551,-97.9742C386.811,-85.8214 341.035,-69.6341 300,-58 274.173,-50.6776 245.762,-43.9129 219.813,-38.2251"/>
<polygon fill="black" stroke="black" points="221.47,-29.6317 200.081,-33.9996 217.806,-46.7437 221.47,-29.6317"/>
</a>
</g>
<!-- n_ongoing_ballots&#45;&gt;n_completed_ballots -->
<g id="edge14" class="edge"><title>n_ongoing_ballots&#45;&gt;n_completed_ballots</title>
<a xlink:href="28.html">
<path fill="none" stroke="black" stroke-width="5" d="M452.69,-97.8204C444.28,-85.8231 432.045,-69.8907 419,-58 416.274,-55.5151 413.363,-53.0853 410.354,-50.7342"/>
<polygon fill="black" stroke="black" points="415.191,-43.4379 393.807,-39.0446 405.094,-57.731 415.191,-43.4379"/>
</a>
</g>
<!-- n_pre_ballots -->
<g id="node24" class="node"><title>n_pre_ballots</title>
<a xlink:href="pre_ballots.html" xlink:title="pre_ballots N">
<polygon fill="none" stroke="yellow" points="765.25,-38 652.75,-38 652.75,-2 765.25,-2 765.25,-38"/>
<text text-anchor="middle" x="709" y="-15.6" font-family="Times,serif" font-size="18.00">pre_ballots N</text>
</a>
</g>
<!-- n_ongoing_ballots&#45;&gt;n_pre_ballots -->
<g id="edge42" class="edge"><title>n_ongoing_ballots&#45;&gt;n_pre_ballots</title>
<a xlink:href="37.html" xlink:title=" +/&#45;">
<path fill="none" stroke="black" stroke-width="5" d="M500.646,-97.9345C513.49,-91.8102 527.959,-84.748 541,-78 557.256,-69.5882 560.048,-64.9024 577,-58 593.94,-51.1025 603.788,-48.9593 617.386,-45.9777"/>
<polygon fill="black" stroke="black" points="652.489,-37.3248 635.224,-50.8499 643.258,-41.66 633.549,-44.0534 633.07,-42.1115 632.592,-40.1696 642.301,-37.7763 630.916,-33.3731 652.489,-37.3248 652.489,-37.3248"/>
<ellipse fill="none" stroke="black" cx="625.303" cy="-44.0262" rx="8" ry="8"/>
</a>
<a xlink:href="37.html" xlink:title=" +/&#45;">
<text text-anchor="middle" x="589.5" y="-63.6" font-family="Times,serif" font-size="18.00"> +/&#45;</text>
</a>
</g>
<!-- n_num_required -->
<g id="node9" class="node"><title>n_num_required</title>
<a xlink:href="num_required.html" xlink:title="num_required M">
<ellipse fill="none" stroke="black" cx="696" cy="-116" rx="96.3112" ry="19.6"/>
<text text-anchor="middle" x="696" y="-111.6" font-family="Times,serif" font-size="18.00">num_required M</text>
</a>
</g>
<!-- n_num_required&#45;&gt;n_required -->
<g id="edge8" class="edge"><title>n_num_required&#45;&gt;n_required</title>
<a xlink:href="34.html">
<path fill="none" stroke="black" stroke-width="5" d="M667.746,-96.8363C650.075,-85.5427 626.796,-70.7878 606,-58 600.995,-54.9223 595.744,-51.7311 590.505,-48.5713"/>
<polygon fill="black" stroke="black" points="594.769,-40.9257 573.114,-38.1591 585.779,-55.9403 594.769,-40.9257"/>
</a>
</g>
<!-- n_winning_vote&#45;&gt;n_result -->
<g id="edge10" class="edge"><title>n_winning_vote&#45;&gt;n_result</title>
<a xlink:href="30.html">
<path fill="none" stroke="black" stroke-width="5" d="M155.477,-39.4075C192.361,-69.6143 266.567,-130.386 316.026,-170.892"/>
<polygon fill="black" stroke="black" points="344.002,-193.804 322.827,-188.095 334.999,-189.015 327.262,-182.679 328.529,-181.132 329.796,-179.584 337.533,-185.92 334.232,-174.169 344.002,-193.804 344.002,-193.804"/>
<ellipse fill="none" stroke="black" cx="322.34" cy="-176.063" rx="8.00001" ry="8.00001"/>
</a>
</g>
<!-- n_completed_ballots&#45;&gt;n_result -->
<g id="edge36" class="edge"><title>n_completed_ballots&#45;&gt;n_result</title>
<a xlink:href="30.html">
<path fill="none" stroke="black" stroke-width="5" d="M362.297,-39.8361C362.72,-66.6081 363.512,-116.756 364.13,-155.879"/>
<polygon fill="black" stroke="black" points="364.701,-192.087 355.387,-172.232 362.544,-182.12 362.386,-172.122 364.386,-172.09 366.385,-172.058 366.543,-182.057 373.384,-171.948 364.701,-192.087 364.701,-192.087"/>
<ellipse fill="none" stroke="black" cx="364.259" cy="-164.091" rx="8" ry="8"/>
</a>
</g>
<!-- n_cast_vote -->
<g id="node16" class="node"><title>n_cast_vote</title>
<ellipse fill="none" stroke="green" cx="420" cy="-480" rx="63.459" ry="19.6"/>
<text text-anchor="middle" x="420" y="-475.6" font-family="Times,serif" font-size="18.00">cast_vote </text>
</g>
<!-- n_cast_vote&#45;&gt;n_votes -->
<g id="edge16" class="edge"><title>n_cast_vote&#45;&gt;n_votes</title>
<a xlink:href="25.html">
<path fill="none" stroke="black" stroke-width="5" d="M408.897,-460.327C405.164,-454.049 400.871,-446.829 396.645,-439.722"/>
<polygon fill="black" stroke="black" points="404.086,-435.115 386.344,-422.396 389.044,-444.059 404.086,-435.115"/>
</a>
</g>
<!-- n_begin_vote -->
<g id="node19" class="node"><title>n_begin_vote</title>
<ellipse fill="none" stroke="green" cx="696" cy="-212" rx="71.127" ry="19.6"/>
<text text-anchor="middle" x="696" y="-207.6" font-family="Times,serif" font-size="18.00">begin_vote </text>
</g>
<!-- n_begin_vote&#45;&gt;n_num_required -->
<g id="edge20" class="edge"><title>n_begin_vote&#45;&gt;n_num_required</title>
<a xlink:href="39.html">
<path fill="none" stroke="black" stroke-width="5" d="M696,-191.978C696,-181.657 696,-168.508 696,-156.111"/>
<polygon fill="black" stroke="black" points="704.75,-155.994 696,-135.994 687.25,-155.994 704.75,-155.994"/>
</a>
</g>
<!-- n_begin_vote&#45;&gt;n_pre_ballots -->
<g id="edge30" class="edge"><title>n_begin_vote&#45;&gt;n_pre_ballots</title>
<a xlink:href="35.html">
<path fill="none" stroke="black" stroke-width="5" d="M733.869,-195.138C757.873,-182.85 786.957,-163.289 801,-136 809.135,-120.193 808.627,-112.058 801,-96 792.01,-77.0732 775.648,-61.3495 759.188,-49.2704"/>
<polygon fill="black" stroke="black" points="763.8,-41.829 742.305,-38.0204 754.096,-56.3921 763.8,-41.829"/>
</a>
</g>
<!-- n_grouped_vote_counts&#45;&gt;n_winning_vote -->
<g id="edge22" class="edge"><title>n_grouped_vote_counts&#45;&gt;n_winning_vote</title>
<a xlink:href="29.html">
<path fill="none" stroke="black" stroke-width="5" d="M133.923,-249.952C133.76,-209.469 133.376,-114.166 133.158,-60.1478"/>
<polygon fill="black" stroke="black" points="141.908,-60.0778 133.077,-40.1132 124.408,-60.1484 141.908,-60.0778"/>
</a>
</g>
<!-- n_pre_ballots&#45;&gt;n_ongoing_ballots -->
<g id="edge26" class="edge"><title>n_pre_ballots&#45;&gt;n_ongoing_ballots</title>
<a xlink:href="36.html">
<path fill="none" stroke="black" stroke-width="5" d="M682.375,-38.174C662.097,-50.6403 633.139,-67.1549 606,-78 590.779,-84.0824 574.24,-89.4446 558.006,-94.0644"/>
<polygon fill="black" stroke="black" points="555.499,-85.6776 538.465,-99.3298 560.052,-102.575 555.499,-85.6776"/>
</a>
</g>
<!-- n_pre_ballots&#45;&gt;n_pre_ballots -->
<g id="edge40" class="edge"><title>n_pre_ballots&#45;&gt;n_pre_ballots</title>
<a xlink:href="37.html" xlink:title=" +/&#45;">
<path fill="none" stroke="black" stroke-width="5" d="M765.463,-28.5056C765.624,-28.4888 765.784,-28.4715 765.943,-28.4538"/>
<polygon fill="black" stroke="black" points="765.463,-11.4944 775.026,-31.2312 767.745,-21.4337 768.029,-31.4297 766.03,-31.4864 764.03,-31.543 763.747,-21.5471 757.033,-31.7415 765.463,-11.4944 765.463,-11.4944"/>
<ellipse fill="none" stroke="black" cx="766.256" cy="-39.4831" rx="8" ry="8"/>
</a>
<a xlink:href="37.html" xlink:title=" +/&#45;">
<text text-anchor="middle" x="795.5" y="-15.6" font-family="Times,serif" font-size="18.00"> +/&#45;</text>
</a>
</g>
<!-- n_S -->
<g id="node36" class="node"><title>n_S</title>
<a xlink:href="javascript:advanceTo(-2)" xlink:title="S ">
<polygon fill="none" stroke="blue" stroke-width="3" points="493,-594 462,-566 493,-538 524,-566 493,-594"/>
<text text-anchor="middle" x="493" y="-561.6" font-family="Times,serif" font-size="18.00">S </text>
</a>
</g>
<!-- n_S&#45;&gt;n_cast_vote -->
<g id="edge50" class="edge"><title>n_S&#45;&gt;n_cast_vote</title>
<path fill="none" stroke="black" stroke-width="5" d="M479.611,-549.593C471.121,-539.824 459.798,-526.795 449.302,-514.717"/>
<polygon fill="black" stroke="black" points="455.569,-508.59 435.846,-499.233 442.36,-520.069 455.569,-508.59"/>
</g>
<!-- n_S&#45;&gt;n_begin_vote -->
<g id="edge48" class="edge"><title>n_S&#45;&gt;n_begin_vote</title>
<path fill="none" stroke="black" stroke-width="5" d="M504.172,-547.75C513.746,-531.288 526,-505.443 526,-481 526,-481 526,-481 526,-327 526,-277.25 576.842,-247.82 622.918,-231.364"/>
<polygon fill="black" stroke="black" points="625.901,-239.594 642.211,-225.084 620.485,-222.954 625.901,-239.594"/>
</g>
<!-- n_T -->
<g id="node37" class="node"><title>n_T</title>
<a xlink:href="javascript:advanceTo(0)" xlink:title="T ">
<polygon fill="none" stroke="blue" stroke-width="3" points="574,-594 542,-566 574,-538 606,-566 574,-594"/>
<text text-anchor="middle" x="574" y="-561.6" font-family="Times,serif" font-size="18.00">T </text>
</a>
</g>
</g>
</svg>
