<?xml version="1.0" encoding="UTF-8" standalone="no"?>
<!DOCTYPE svg PUBLIC "-//W3C//DTD SVG 1.1//EN"
 "http://www.w3.org/Graphics/SVG/1.1/DTD/svg11.dtd">
<!-- Generated by graphviz version 2.28.0 (20110517.1826)
 -->
<!-- Title: G Pages: 1 -->
<svg width="374pt" height="354pt"
 viewBox="0.00 0.00 373.51 354.00" xmlns="http://www.w3.org/2000/svg" xmlns:xlink="http://www.w3.org/1999/xlink">
<g id="graph1" class="graph" transform="scale(1 1) rotate(0) translate(4 350)">
<script type='text/javascript'>
  <![CDATA[

var windows = new Array()
var info = new Array()

function openWin(target, time) {
  win = window.open(target + "_" + time + ".html", target, "location=no,width=400,height=180,left=0,status=no");
  // hm, an associative array, how strange.
  info[target] = 1
}

function advanceTo(time) {
  arr = gup("wins").split(",");
  for (i=0; i < arr.length; i++) {
    if (arr[i] != "") {
      openWin(arr[i], time);
    }
  }
  str = '';
  // getting 'key_cols'
  for (var i in info) {
    str = str + ',' + i;
  }
  self.window.location.href = 'tm_' + time + '.svg?wins=' + str;
}

// off the netz
function gup(name) {
  name = name.replace(/[[]/,"\[").replace(/[]]/,"\]");
  var regexS = "[\?&]"+name+"=([^&#]*)";
  var regex = new RegExp(regexS);
  var results = regex.exec(window.location.href);
  if (results == null)
    return "";
  else
    return results[1];
}

  ]]>
</script>

<polygon fill="white" stroke="white" points="-4,5 -4,-350 370.514,-350 370.514,5 -4,5"/>
<!-- n_alarm, countdowns -->
<g id="node1" class="node"><title>n_alarm, countdowns</title>
<a xlink:href="RecurringAlarm_viz_expanded.svg" xlink:title="alarm, countdowns">
<polygon fill="none" stroke="red" stroke-width="3" points="348.815,-13.1521 348.815,-30.8479 280.102,-43.3608 182.927,-43.3608 114.214,-30.8479 114.214,-13.1521 182.927,-0.639229 280.102,-0.639229 348.815,-13.1521"/>
<text text-anchor="middle" x="231.514" y="-17.6" font-family="Times,serif" font-size="18.00">alarm, countdowns</text>
</a>
</g>
<!-- n_countdown_durations -->
<g id="node2" class="node"><title>n_countdown_durations</title>
<a xlink:href="countdown_durations.html" xlink:title="countdown_durations N">
<polygon fill="none" stroke="yellow" points="233.764,-136 43.2642,-136 43.2642,-100 233.764,-100 233.764,-136"/>
<text text-anchor="middle" x="138.514" y="-113.6" font-family="Times,serif" font-size="18.00">countdown_durations N</text>
</a>
</g>
<!-- n_countdown_durations&#45;&gt;n_alarm, countdowns -->
<g id="edge2" class="edge"><title>n_countdown_durations&#45;&gt;n_alarm, countdowns</title>
<a xlink:href="32.html" xlink:title=" +/&#45;">
<path fill="none" stroke="yellow" stroke-width="5" d="M155.572,-99.759C164.175,-91.0633 175.062,-80.059 185.886,-69.1183"/>
<polygon fill="yellow" stroke="yellow" points="211.327,-43.4038 203.659,-63.9513 205.716,-51.9193 198.683,-59.028 197.261,-57.6214 195.839,-56.2148 202.872,-49.106 190.863,-51.2916 211.327,-43.4038 211.327,-43.4038"/>
<ellipse fill="none" stroke="yellow" cx="191.635" cy="-63.3084" rx="8.00001" ry="8.00001"/>
</a>
<a xlink:href="32.html" xlink:title=" +/&#45;">
<text text-anchor="middle" x="204.014" y="-67.6" font-family="Times,serif" font-size="18.00"> +/&#45;</text>
</a>
</g>
<!-- n_stop_alarm -->
<g id="node4" class="node"><title>n_stop_alarm</title>
<ellipse fill="none" stroke="green" cx="75.5142" cy="-232" rx="71.127" ry="19.6"/>
<text text-anchor="middle" x="75.5142" y="-227.6" font-family="Times,serif" font-size="18.00">stop_alarm </text>
</g>
<!-- n_stop_alarm&#45;&gt;n_alarm, countdowns -->
<g id="edge8" class="edge"><title>n_stop_alarm&#45;&gt;n_alarm, countdowns</title>
<a xlink:href="26.html" xlink:title=" +/&#45;">
<path fill="none" stroke="green" stroke-width="5" d="M53.7738,-212.681C25.3073,-186.447 -18.0228,-137.237 8.51418,-100 28.2922,-72.247 58.771,-54.4004 90.9053,-42.9524"/>
<polygon fill="green" stroke="green" points="125.648,-32.9547 108.917,-47.1346 116.591,-37.6421 106.981,-40.4076 106.428,-38.4856 105.875,-36.5636 115.485,-33.7981 103.939,-29.8366 125.648,-32.9547 125.648,-32.9547"/>
<ellipse fill="none" stroke="green" cx="98.7397" cy="-40.698" rx="8.00001" ry="8.00001"/>
</a>
<a xlink:href="26.html" xlink:title=" +/&#45;">
<text text-anchor="middle" x="21.0142" y="-113.6" font-family="Times,serif" font-size="18.00"> +/&#45;</text>
</a>
</g>
<!-- n_stop_alarm&#45;&gt;n_countdown_durations -->
<g id="edge4" class="edge"><title>n_stop_alarm&#45;&gt;n_countdown_durations</title>
<a xlink:href="31.html" xlink:title=" +/&#45;">
<path fill="none" stroke="green" stroke-width="5" d="M86.059,-212.254C92.8977,-200.096 102.148,-183.651 110.977,-167.956"/>
<polygon fill="green" stroke="green" points="128.764,-136.333 126.803,-158.177 125.605,-146.029 120.702,-154.745 118.959,-153.765 117.216,-152.784 122.119,-144.068 111.115,-149.352 128.764,-136.333 128.764,-136.333"/>
<ellipse fill="none" stroke="green" cx="115.037" cy="-160.737" rx="8.00001" ry="8.00001"/>
</a>
<a xlink:href="31.html" xlink:title=" +/&#45;">
<text text-anchor="middle" x="131.014" y="-169.6" font-family="Times,serif" font-size="18.00"> +/&#45;</text>
</a>
</g>
<!-- n_set_alarm -->
<g id="node6" class="node"><title>n_set_alarm</title>
<ellipse fill="none" stroke="green" cx="229.514" cy="-232" rx="64.0209" ry="19.6"/>
<text text-anchor="middle" x="229.514" y="-227.6" font-family="Times,serif" font-size="18.00">set_alarm </text>
</g>
<!-- n_set_alarm&#45;&gt;n_alarm, countdowns -->
<g id="edge10" class="edge"><title>n_set_alarm&#45;&gt;n_alarm, countdowns</title>
<a xlink:href="25.html">
<path fill="none" stroke="green" stroke-width="5" d="M233.447,-211.937C238.233,-186.463 245.349,-139.895 242.514,-100 241.669,-88.1118 240.1,-75.2687 238.405,-63.5421"/>
<polygon fill="green" stroke="green" points="247.005,-61.901 235.252,-43.5045 229.717,-64.6217 247.005,-61.901"/>
</a>
</g>
<!-- n_set_alarm&#45;&gt;n_countdown_durations -->
<g id="edge6" class="edge"><title>n_set_alarm&#45;&gt;n_countdown_durations</title>
<a xlink:href="30.html">
<path fill="none" stroke="green" stroke-width="5" d="M214.487,-212.505C201.067,-195.988 181.1,-171.413 165.003,-151.602"/>
<polygon fill="green" stroke="green" points="171.772,-146.057 152.369,-136.052 158.19,-157.092 171.772,-146.057"/>
</a>
</g>
<!-- n_ticker -->
<g id="node10" class="node"><title>n_ticker</title>
<ellipse fill="none" stroke="green" cx="321.514" cy="-174" rx="43.263" ry="19.6"/>
<text text-anchor="middle" x="321.514" y="-169.6" font-family="Times,serif" font-size="18.00">ticker </text>
</g>
<!-- n_ticker&#45;&gt;n_alarm, countdowns -->
<g id="edge12" class="edge"><title>n_ticker&#45;&gt;n_alarm, countdowns</title>
<a xlink:href="27.html" xlink:title=" +/&#45;">
<path fill="none" stroke="green" stroke-width="5" d="M316.768,-153.98C311.713,-135.726 302.534,-107.262 280.456,-72.881"/>
<polygon fill="green" stroke="green" points="259.254,-43.4162 278.241,-54.3938 266.718,-50.3652 272.559,-58.4823 270.935,-59.6504 269.312,-60.8185 263.471,-52.7014 263.63,-64.907 259.254,-43.4162 259.254,-43.4162"/>
<ellipse fill="none" stroke="green" cx="275.608" cy="-66.1441" rx="8.00001" ry="8.00001"/>
</a>
<a xlink:href="27.html" xlink:title=" +/&#45;">
<text text-anchor="middle" x="324.014" y="-113.6" font-family="Times,serif" font-size="18.00"> +/&#45;</text>
</a>
</g>
<!-- n_S -->
<g id="node12" class="node"><title>n_S</title>
<a xlink:href="javascript:advanceTo(-2)" xlink:title="S ">
<polygon fill="none" stroke="blue" stroke-width="3" points="229.514,-346 198.514,-318 229.514,-290 260.514,-318 229.514,-346"/>
<text text-anchor="middle" x="229.514" y="-313.6" font-family="Times,serif" font-size="18.00">S </text>
</a>
</g>
<!-- n_S&#45;&gt;n_stop_alarm -->
<g id="edge18" class="edge"><title>n_S&#45;&gt;n_stop_alarm</title>
<path fill="none" stroke="blue" stroke-width="5" d="M210.631,-306.7C189.248,-295.037 153.572,-275.577 124.246,-259.581"/>
<polygon fill="blue" stroke="blue" points="128.299,-251.825 106.551,-249.929 119.919,-267.188 128.299,-251.825"/>
</g>
<!-- n_S&#45;&gt;n_set_alarm -->
<g id="edge16" class="edge"><title>n_S&#45;&gt;n_set_alarm</title>
<path fill="none" stroke="blue" stroke-width="5" d="M229.514,-289.959C229.514,-284.256 229.514,-278.129 229.514,-272.083"/>
<polygon fill="blue" stroke="blue" points="238.264,-272.01 229.514,-252.01 220.764,-272.01 238.264,-272.01"/>
</g>
<!-- n_S&#45;&gt;n_ticker -->
<g id="edge14" class="edge"><title>n_S&#45;&gt;n_ticker</title>
<path fill="none" stroke="blue" stroke-width="5" d="M247.33,-305.811C264.107,-294.339 288.669,-274.961 302.514,-252 309.438,-240.518 313.843,-226.631 316.644,-213.829"/>
<polygon fill="blue" stroke="blue" points="325.303,-215.103 320.006,-193.925 308.047,-212.189 325.303,-215.103"/>
</g>
<!-- n_T -->
<g id="node13" class="node"><title>n_T</title>
<a xlink:href="javascript:advanceTo(0)" xlink:title="T ">
<polygon fill="none" stroke="blue" stroke-width="3" points="310.514,-346 278.514,-318 310.514,-290 342.514,-318 310.514,-346"/>
<text text-anchor="middle" x="310.514" y="-313.6" font-family="Times,serif" font-size="18.00">T </text>
</a>
</g>
</g>
</svg>
