<?xml version="1.0" encoding="UTF-8" standalone="no"?>
<!DOCTYPE svg PUBLIC "-//W3C//DTD SVG 1.1//EN"
 "http://www.w3.org/Graphics/SVG/1.1/DTD/svg11.dtd">
<!-- Generated by graphviz version 2.28.0 (20110517.1826)
 -->
<!-- Title: G Pages: 1 -->
<svg width="549pt" height="814pt"
 viewBox="0.00 0.00 549.00 814.00" xmlns="http://www.w3.org/2000/svg" xmlns:xlink="http://www.w3.org/1999/xlink">
<g id="graph1" class="graph" transform="scale(1 1) rotate(0) translate(4 810)">
<script type='text/javascript'>
  <![CDATA[

var windows = new Array()
var info = new Array()

function openWin(target, time) {
  win = window.open(target + "_" + time + ".html", target, "location=no,width=400,height=180,left=0,status=no");
  // hm, an associative array, how strange.
  info[target] = 1
}

function advanceTo(time) {
  arr = gup("wins").split(",");
  for (i=0; i < arr.length; i++) {
    if (arr[i] != "") {
      openWin(arr[i], time);
    }
  }
  str = '';
  // getting 'key_cols'
  for (var i in info) {
    str = str + ',' + i;
  }
  self.window.location.href = 'tm_' + time + '.svg?wins=' + str;
}

// off the netz
function gup(name) {
  name = name.replace(/[[]/,"\[").replace(/[]]/,"\]");
  var regexS = "[\?&]"+name+"=([^&#]*)";
  var regex = new RegExp(regexS);
  var results = regex.exec(window.location.href);
  if (results == null)
    return "";
  else
    return results[1];
}

  ]]>
</script>

<polygon fill="white" stroke="white" points="-4,5 -4,-810 546,-810 546,5 -4,5"/>
<!-- n_unacked_count -->
<g id="node1" class="node"><title>n_unacked_count</title>
<a xlink:href="unacked_count.html" xlink:title="unacked_count N">
<polygon fill="none" stroke="yellow" points="351,-208 207,-208 207,-172 351,-172 351,-208"/>
<text text-anchor="middle" x="279" y="-185.6" font-family="Times,serif" font-size="18.00">unacked_count N</text>
</a>
</g>
<!-- n_unacked_count&#45;&gt;n_unacked_count -->
<g id="edge16" class="edge"><title>n_unacked_count&#45;&gt;n_unacked_count</title>
<a xlink:href="31.html" xlink:title=" +/&#45;">
<path fill="none" stroke="black" stroke-width="5" d="M351.026,-196.123C351.194,-196.108 351.36,-196.093 351.526,-196.078"/>
<polygon fill="black" stroke="black" points="351.026,-183.877 360.838,-203.491 353.434,-193.786 353.843,-203.778 351.845,-203.86 349.847,-203.942 349.437,-193.95 342.853,-204.228 351.026,-183.877 351.026,-183.877"/>
<ellipse fill="none" stroke="black" cx="352.173" cy="-211.853" rx="8" ry="8"/>
</a>
<a xlink:href="31.html" xlink:title=" +/&#45;">
<text text-anchor="middle" x="381.5" y="-185.6" font-family="Times,serif" font-size="18.00"> +/&#45;</text>
</a>
</g>
<!-- n_mcast_done -->
<g id="node9" class="node"><title>n_mcast_done</title>
<a xlink:href="mcast_done.html" xlink:title="mcast_done N">
<ellipse fill="none" stroke="yellow" cx="216" cy="-114" rx="84.2802" ry="19.6"/>
<text text-anchor="middle" x="216" y="-109.6" font-family="Times,serif" font-size="18.00">mcast_done N</text>
</a>
</g>
<!-- n_unacked_count&#45;&gt;n_mcast_done -->
<g id="edge8" class="edge"><title>n_unacked_count&#45;&gt;n_mcast_done</title>
<a xlink:href="30.html">
<path fill="none" stroke="black" stroke-width="5" d="M264.388,-171.837C258.604,-165.043 251.741,-156.982 245.029,-149.098"/>
<polygon fill="black" stroke="black" points="251.484,-143.182 231.857,-133.626 238.159,-154.526 251.484,-143.182"/>
</a>
</g>
<!-- n_mcast_send -->
<g id="node2" class="node"><title>n_mcast_send</title>
<ellipse fill="none" stroke="green" cx="355" cy="-614" rx="74.3697" ry="19.6"/>
<text text-anchor="middle" x="355" y="-609.6" font-family="Times,serif" font-size="18.00">mcast_send </text>
</g>
<!-- n_mcast_send&#45;&gt;n_unacked_count -->
<g id="edge2" class="edge"><title>n_mcast_send&#45;&gt;n_unacked_count</title>
<a xlink:href="34.html">
<path fill="none" stroke="black" stroke-width="5" d="M366.066,-594.334C373.893,-579.362 383,-557.53 383,-537 383,-537 383,-537 383,-303 383,-267.789 355.056,-238.988 328.138,-219.412"/>
<polygon fill="black" stroke="black" points="332.825,-212.021 311.336,-208.174 323.095,-226.567 332.825,-212.021"/>
</a>
</g>
<!-- n_pipe_in -->
<g id="node7" class="node"><title>n_pipe_in</title>
<a xlink:href="pipe_in.html" xlink:title="pipe_in M">
<ellipse fill="none" stroke="black" cx="166" cy="-536" rx="63.459" ry="19.6"/>
<text text-anchor="middle" x="166" y="-531.6" font-family="Times,serif" font-size="18.00">pipe_in M</text>
</a>
</g>
<!-- n_mcast_send&#45;&gt;n_pipe_in -->
<g id="edge24" class="edge"><title>n_mcast_send&#45;&gt;n_pipe_in</title>
<a xlink:href="32.html">
<path fill="none" stroke="black" stroke-width="5" d="M315.379,-597.068C288.297,-586.178 252.013,-571.587 221.986,-559.513"/>
<polygon fill="black" stroke="black" points="225.139,-551.35 203.318,-552.006 218.61,-567.586 225.139,-551.35"/>
</a>
</g>
<!-- n_acked_count -->
<g id="node4" class="node"><title>n_acked_count</title>
<a xlink:href="acked_count.html" xlink:title="acked_count N">
<ellipse fill="none" stroke="yellow" cx="192" cy="-304" rx="89.1432" ry="19.6"/>
<text text-anchor="middle" x="192" y="-299.6" font-family="Times,serif" font-size="18.00">acked_count N</text>
</a>
</g>
<!-- n_acked_count&#45;&gt;n_unacked_count -->
<g id="edge4" class="edge"><title>n_acked_count&#45;&gt;n_unacked_count</title>
<a xlink:href="29.html" xlink:title=" +/&#45;">
<path fill="none" stroke="black" stroke-width="5" d="M206.562,-284.254C216.648,-271.269 230.534,-253.393 243.451,-236.765"/>
<polygon fill="black" stroke="black" points="265.536,-208.333 260.374,-229.649 260.981,-217.457 254.846,-225.355 253.267,-224.128 251.687,-222.901 257.822,-215.003 246.159,-218.607 265.536,-208.333 265.536,-208.333"/>
<ellipse fill="none" stroke="black" cx="248.359" cy="-230.446" rx="8.00001" ry="8.00001"/>
</a>
<a xlink:href="29.html" xlink:title=" +/&#45;">
<text text-anchor="middle" x="263.5" y="-241.6" font-family="Times,serif" font-size="18.00"> +/&#45;</text>
</a>
</g>
<!-- n_pipe_sent -->
<g id="node6" class="node"><title>n_pipe_sent</title>
<a xlink:href="pipe_sent.html" xlink:title="pipe_sent M">
<ellipse fill="none" stroke="black" cx="182" cy="-420" rx="74.4303" ry="19.6"/>
<text text-anchor="middle" x="182" y="-415.6" font-family="Times,serif" font-size="18.00">pipe_sent M</text>
</a>
</g>
<!-- n_pipe_sent&#45;&gt;n_acked_count -->
<g id="edge18" class="edge"><title>n_pipe_sent&#45;&gt;n_acked_count</title>
<a xlink:href="28.html">
<path fill="none" stroke="black" stroke-width="5" d="M183.651,-400.175C184.628,-389.036 185.921,-374.298 187.197,-359.755"/>
<polygon fill="black" stroke="black" points="190.346,-323.853 197.564,-344.563 191.465,-333.989 190.591,-343.951 188.599,-343.776 186.606,-343.601 187.48,-333.64 179.633,-342.99 190.346,-323.853 190.346,-323.853"/>
<ellipse fill="none" stroke="black" cx="187.899" cy="-351.746" rx="8" ry="8"/>
</a>
</g>
<!-- n_pipe_in&#45;&gt;n_pipe_sent -->
<g id="edge6" class="edge"><title>n_pipe_in&#45;&gt;n_pipe_sent</title>
<a xlink:href="27.html">
<path fill="none" stroke="black" stroke-width="5" d="M165.177,-516.152C164.922,-503.396 165.14,-485.906 169.99,-459.586"/>
<polygon fill="black" stroke="black" points="178.575,-461.278 174.138,-439.903 161.452,-457.669 178.575,-461.278"/>
</a>
</g>
<!-- n_pipe_chan -->
<g id="node15" class="node"><title>n_pipe_chan</title>
<a xlink:href="pipe_chan.html" xlink:title="pipe_chan A">
<ellipse fill="none" stroke="yellow" cx="76" cy="-362" rx="76.0518" ry="19.6"/>
<text text-anchor="middle" x="76" y="-357.6" font-family="Times,serif" font-size="18.00">pipe_chan A</text>
</a>
</g>
<!-- n_pipe_in&#45;&gt;n_pipe_chan -->
<g id="edge26" class="edge"><title>n_pipe_in&#45;&gt;n_pipe_chan</title>
<a xlink:href="25.html">
<path fill="none" stroke="black" stroke-width="5" stroke-dasharray="5,2" d="M149.86,-516.581C134.57,-498.283 111.933,-468.86 98,-440 92.1916,-427.969 87.644,-414.121 84.229,-401.515"/>
<polygon fill="black" stroke="black" points="92.7213,-399.405 79.5286,-382.012 75.7085,-403.506 92.7213,-399.405"/>
</a>
</g>
<!-- n_T -->
<g id="node29" class="node"><title>n_T</title>
<a xlink:href="javascript:advanceTo(0)" xlink:title="T ">
<polygon fill="none" stroke="blue" stroke-width="3" points="136,-56 104,-28 136,-1.42109e-14 168,-28 136,-56"/>
<text text-anchor="middle" x="136" y="-23.6" font-family="Times,serif" font-size="18.00">T </text>
</a>
</g>
<!-- n_mcast_done&#45;&gt;n_T -->
<g id="edge36" class="edge"><title>n_mcast_done&#45;&gt;n_T</title>
<path fill="none" stroke="black" stroke-width="5" d="M198.245,-94.3577C188.308,-83.9235 175.685,-70.6693 164.408,-58.828"/>
<polygon fill="black" stroke="black" points="170.371,-52.4023 150.242,-43.954 157.699,-64.4713 170.371,-52.4023"/>
</g>
<!-- n_local_id -->
<g id="node11" class="node"><title>n_local_id</title>
<a xlink:href="local_id.html" xlink:title="local_id M">
<polygon fill="none" stroke="black" points="541,-632 447,-632 447,-596 541,-596 541,-632"/>
<text text-anchor="middle" x="494" y="-609.6" font-family="Times,serif" font-size="18.00">local_id M</text>
</a>
</g>
<!-- n_my_id -->
<g id="node12" class="node"><title>n_my_id</title>
<ellipse fill="none" stroke="green" cx="462" cy="-692" rx="46.503" ry="19.6"/>
<text text-anchor="middle" x="462" y="-687.6" font-family="Times,serif" font-size="18.00">my_id </text>
</g>
<!-- n_my_id&#45;&gt;n_local_id -->
<g id="edge10" class="edge"><title>n_my_id&#45;&gt;n_local_id</title>
<a xlink:href="36.html">
<path fill="none" stroke="black" stroke-width="5" d="M469.91,-672.213C472.663,-665.675 475.85,-658.106 478.986,-650.658"/>
<polygon fill="black" stroke="black" points="487.139,-653.843 486.836,-632.014 471.01,-647.052 487.139,-653.843"/>
</a>
</g>
<!-- n_pipe_out -->
<g id="node14" class="node"><title>n_pipe_out</title>
<a xlink:href="pipe_out.html" xlink:title="pipe_out A">
<ellipse fill="none" stroke="yellow" cx="102" cy="-246" rx="68.3838" ry="19.6"/>
<text text-anchor="middle" x="102" y="-241.6" font-family="Times,serif" font-size="18.00">pipe_out A</text>
</a>
</g>
<!-- n_pipe_out&#45;&gt;n_T -->
<g id="edge38" class="edge"><title>n_pipe_out&#45;&gt;n_T</title>
<path fill="none" stroke="black" stroke-width="5" d="M104.036,-225.856C107.204,-197.116 113.812,-141.158 122,-94 123.292,-86.5585 124.838,-78.6748 126.424,-71.0611"/>
<polygon fill="black" stroke="black" points="134.983,-72.8788 130.693,-51.4742 117.885,-69.1521 134.983,-72.8788"/>
</g>
<!-- n_pipe_chan&#45;&gt;n_pipe_out -->
<g id="edge12" class="edge"><title>n_pipe_chan&#45;&gt;n_pipe_out</title>
<a xlink:href="26.html">
<path fill="none" stroke="black" stroke-width="5" d="M80.2934,-342.175C83.7935,-326.828 88.852,-304.649 93.2054,-285.561"/>
<polygon fill="black" stroke="black" points="101.784,-287.298 97.7003,-265.853 84.722,-283.406 101.784,-287.298"/>
</a>
</g>
<!-- n_member -->
<g id="node17" class="node"><title>n_member</title>
<a xlink:href="member.html" xlink:title="member M">
<polygon fill="none" stroke="black" points="262.25,-632 167.75,-632 167.75,-596 262.25,-596 262.25,-632"/>
<text text-anchor="middle" x="215" y="-609.6" font-family="Times,serif" font-size="18.00">member M</text>
</a>
</g>
<!-- n_member&#45;&gt;n_pipe_in -->
<g id="edge14" class="edge"><title>n_member&#45;&gt;n_pipe_in</title>
<a xlink:href="32.html">
<path fill="none" stroke="black" stroke-width="5" d="M203.881,-595.754C199.408,-588.817 194.077,-580.548 188.847,-572.436"/>
<polygon fill="black" stroke="black" points="196.123,-567.573 177.931,-555.505 181.414,-577.056 196.123,-567.573"/>
</a>
</g>
<!-- n_num_members -->
<g id="node21" class="node"><title>n_num_members</title>
<a xlink:href="num_members.html" xlink:title="num_members N">
<ellipse fill="none" stroke="yellow" cx="269" cy="-478" rx="98.4924" ry="19.6"/>
<text text-anchor="middle" x="269" y="-473.6" font-family="Times,serif" font-size="18.00">num_members N</text>
</a>
</g>
<!-- n_member&#45;&gt;n_num_members -->
<g id="edge22" class="edge"><title>n_member&#45;&gt;n_num_members</title>
<a xlink:href="33.html">
<path fill="none" stroke="black" stroke-width="5" d="M221.948,-595.791C226.513,-584.482 232.615,-569.361 238,-556 241.177,-548.118 244.535,-539.782 247.822,-531.619"/>
<polygon fill="black" stroke="black" points="261.36,-497.988 262.241,-519.902 259.481,-508.011 255.747,-517.288 253.892,-516.541 252.036,-515.794 255.771,-506.518 245.543,-513.18 261.36,-497.988 261.36,-497.988"/>
<ellipse fill="none" stroke="black" cx="250.904" cy="-523.962" rx="8.00001" ry="8.00001"/>
</a>
</g>
<!-- n_num_members&#45;&gt;n_unacked_count -->
<g id="edge20" class="edge"><title>n_num_members&#45;&gt;n_unacked_count</title>
<a xlink:href="34.html">
<path fill="none" stroke="black" stroke-width="5" d="M273.163,-458.15C280.304,-423.672 293.777,-348.096 290,-284 288.909,-265.492 286.608,-245.02 284.39,-228.006"/>
<polygon fill="black" stroke="black" points="293.043,-226.698 281.633,-208.087 275.708,-229.098 293.043,-226.698"/>
</a>
</g>
<!-- n_add_member -->
<g id="node26" class="node"><title>n_add_member</title>
<ellipse fill="none" stroke="green" cx="238" cy="-692" rx="80.9767" ry="19.6"/>
<text text-anchor="middle" x="238" y="-687.6" font-family="Times,serif" font-size="18.00">add_member </text>
</g>
<!-- n_add_member&#45;&gt;n_member -->
<g id="edge28" class="edge"><title>n_add_member&#45;&gt;n_member</title>
<a xlink:href="35.html">
<path fill="none" stroke="black" stroke-width="5" d="M232.315,-672.213C230.394,-665.867 228.18,-658.551 225.99,-651.316"/>
<polygon fill="black" stroke="black" points="234.317,-648.623 220.149,-632.014 217.567,-653.692 234.317,-648.623"/>
</a>
</g>
<!-- n_S -->
<g id="node28" class="node"><title>n_S</title>
<a xlink:href="javascript:advanceTo(-2)" xlink:title="S ">
<polygon fill="none" stroke="blue" stroke-width="3" points="355,-806 324,-778 355,-750 386,-778 355,-806"/>
<text text-anchor="middle" x="355" y="-773.6" font-family="Times,serif" font-size="18.00">S </text>
</a>
</g>
<!-- n_S&#45;&gt;n_mcast_send -->
<g id="edge32" class="edge"><title>n_S&#45;&gt;n_mcast_send</title>
<path fill="none" stroke="black" stroke-width="5" d="M355,-749.885C355,-723.758 355,-683.942 355,-654.334"/>
<polygon fill="black" stroke="black" points="363.75,-654.077 355,-634.077 346.25,-654.077 363.75,-654.077"/>
</g>
<!-- n_S&#45;&gt;n_my_id -->
<g id="edge34" class="edge"><title>n_S&#45;&gt;n_my_id</title>
<path fill="none" stroke="black" stroke-width="5" d="M371.251,-764.242C385.485,-753.068 406.702,-736.411 425.043,-722.013"/>
<polygon fill="black" stroke="black" points="430.466,-728.88 440.794,-709.647 419.66,-715.115 430.466,-728.88"/>
</g>
<!-- n_S&#45;&gt;n_add_member -->
<g id="edge30" class="edge"><title>n_S&#45;&gt;n_add_member</title>
<path fill="none" stroke="black" stroke-width="5" d="M338.237,-764.965C322.912,-753.962 299.614,-737.236 279.335,-722.677"/>
<polygon fill="black" stroke="black" points="284.261,-715.441 262.911,-710.885 274.055,-729.657 284.261,-715.441"/>
</g>
</g>
</svg>
