<?xml version="1.0" encoding="UTF-8" standalone="no"?>
<!DOCTYPE svg PUBLIC "-//W3C//DTD SVG 1.1//EN"
 "http://www.w3.org/Graphics/SVG/1.1/DTD/svg11.dtd">
<!-- Generated by graphviz version 2.28.0 (20110517.1826)
 -->
<!-- Title: G Pages: 1 -->
<svg width="601pt" height="400pt"
 viewBox="0.00 0.00 601.00 400.00" xmlns="http://www.w3.org/2000/svg" xmlns:xlink="http://www.w3.org/1999/xlink">
<g id="graph1" class="graph" transform="scale(1 1) rotate(0) translate(4 396)">
<script type='text/javascript'>
  <![CDATA[

var windows = new Array()
var info = new Array()

function openWin(target, time) {
  win = window.open(target + "_" + time + ".html", target, "location=no,width=400,height=180,left=0,status=no");
  // hm, an associative array, how strange.
  info[target] = 1
}

function advanceTo(time) {
  arr = gup("wins").split(",");
  for (i=0; i < arr.length; i++) {
    if (arr[i] != "") {
      openWin(arr[i], time);
    }
  }
  str = '';
  // getting 'key_cols'
  for (var i in info) {
    str = str + ',' + i;
  }
  self.window.location.href = 'tm_' + time + '.svg?wins=' + str;
}

// off the netz
function gup(name) {
  name = name.replace(/[[]/,"\[").replace(/[]]/,"\]");
  var regexS = "[\?&]"+name+"=([^&#]*)";
  var regex = new RegExp(regexS);
  var results = regex.exec(window.location.href);
  if (results == null)
    return "";
  else
    return results[1];
}

  ]]>
</script>

<polygon fill="white" stroke="white" points="-4,5 -4,-396 598,-396 598,5 -4,5"/>
<!-- n_S -->
<g id="node1" class="node"><title>n_S</title>
<a xlink:href="javascript:advanceTo(-2)" xlink:title="S ">
<polygon fill="none" stroke="blue" stroke-width="3" points="291,-392 260,-364 291,-336 322,-364 291,-392"/>
<text text-anchor="middle" x="291" y="-359.6" font-family="Times,serif" font-size="18.00">S </text>
</a>
</g>
<!-- n_push -->
<g id="node3" class="node"><title>n_push</title>
<ellipse fill="none" stroke="green" cx="148" cy="-280" rx="38.3379" ry="19.6"/>
<text text-anchor="middle" x="148" y="-275.6" font-family="Times,serif" font-size="18.00">push </text>
</g>
<!-- n_S&#45;&gt;n_push -->
<g id="edge4" class="edge"><title>n_S&#45;&gt;n_push</title>
<path fill="none" stroke="blue" stroke-width="5" d="M272.598,-352.448C251.943,-340.604 217.745,-320.994 190.397,-305.312"/>
<polygon fill="blue" stroke="blue" points="194.511,-297.584 172.809,-295.226 185.806,-312.765 194.511,-297.584"/>
</g>
<!-- n_pop -->
<g id="node4" class="node"><title>n_pop</title>
<ellipse fill="none" stroke="green" cx="239" cy="-280" rx="33.4126" ry="19.6"/>
<text text-anchor="middle" x="239" y="-275.6" font-family="Times,serif" font-size="18.00">pop </text>
</g>
<!-- n_S&#45;&gt;n_pop -->
<g id="edge2" class="edge"><title>n_S&#45;&gt;n_pop</title>
<path fill="none" stroke="blue" stroke-width="5" d="M279.972,-345.61C274.531,-337.03 267.764,-326.358 261.306,-316.175"/>
<polygon fill="blue" stroke="blue" points="268.472,-311.136 250.371,-298.932 253.693,-320.508 268.472,-311.136"/>
</g>
<!-- n_remove -->
<g id="node6" class="node"><title>n_remove</title>
<ellipse fill="none" stroke="green" cx="344" cy="-280" rx="53.0495" ry="19.6"/>
<text text-anchor="middle" x="344" y="-275.6" font-family="Times,serif" font-size="18.00">remove </text>
</g>
<!-- n_S&#45;&gt;n_remove -->
<g id="edge6" class="edge"><title>n_S&#45;&gt;n_remove</title>
<path fill="none" stroke="blue" stroke-width="5" d="M302.24,-345.61C307.709,-337.148 314.495,-326.65 320.994,-316.594"/>
<polygon fill="blue" stroke="blue" points="328.532,-321.051 332.04,-299.505 313.834,-311.552 328.532,-321.051"/>
</g>
<!-- n_peek -->
<g id="node7" class="node"><title>n_peek</title>
<ellipse fill="none" stroke="green" cx="455" cy="-280" rx="39.3965" ry="19.6"/>
<text text-anchor="middle" x="455" y="-275.6" font-family="Times,serif" font-size="18.00">peek </text>
</g>
<!-- n_S&#45;&gt;n_peek -->
<g id="edge8" class="edge"><title>n_S&#45;&gt;n_peek</title>
<path fill="none" stroke="blue" stroke-width="5" d="M310.457,-353.272C334.742,-341.129 377.046,-319.977 409.633,-303.683"/>
<polygon fill="blue" stroke="blue" points="413.978,-311.294 427.953,-294.523 406.152,-295.641 413.978,-311.294"/>
</g>
<!-- n_T -->
<g id="node2" class="node"><title>n_T</title>
<a xlink:href="javascript:advanceTo(0)" xlink:title="T ">
<polygon fill="none" stroke="blue" stroke-width="3" points="291,-56 259,-28 291,-1.42109e-14 323,-28 291,-56"/>
<text text-anchor="middle" x="291" y="-23.6" font-family="Times,serif" font-size="18.00">T </text>
</a>
</g>
<!-- n_?? -->
<g id="node17" class="node"><title>n_??</title>
<polygon fill="none" stroke="red" stroke-width="2" points="291,-224 255,-196 291,-168 327,-196 291,-224"/>
<text text-anchor="middle" x="291" y="-191.6" font-family="Times,serif" font-size="18.00">?? </text>
</g>
<!-- n_push&#45;&gt;n_?? -->
<g id="edge26" class="edge"><title>n_push&#45;&gt;n_??</title>
<path fill="none" stroke="green" stroke-width="5" d="M172.909,-264.717C195.099,-251.992 227.895,-233.186 253.298,-218.619"/>
<polygon fill="green" stroke="green" points="257.987,-226.017 270.985,-208.477 249.282,-210.836 257.987,-226.017"/>
</g>
<!-- n_pop&#45;&gt;n_?? -->
<g id="edge16" class="edge"><title>n_pop&#45;&gt;n_??</title>
<path fill="none" stroke="green" stroke-width="5" d="M250.283,-261.207C255.66,-252.729 262.289,-242.276 268.624,-232.285"/>
<polygon fill="green" stroke="green" points="276.057,-236.902 279.379,-215.326 261.278,-227.53 276.057,-236.902"/>
</g>
<!-- n_pop_response -->
<g id="node5" class="node"><title>n_pop_response</title>
<ellipse fill="none" stroke="green" cx="84" cy="-112" rx="84.2802" ry="19.6"/>
<text text-anchor="middle" x="84" y="-107.6" font-family="Times,serif" font-size="18.00">pop_response </text>
</g>
<!-- n_pop_response&#45;&gt;n_T -->
<g id="edge12" class="edge"><title>n_pop_response&#45;&gt;n_T</title>
<path fill="none" stroke="green" stroke-width="5" d="M125.392,-94.6032C161.956,-80.119 214.929,-59.1343 251.052,-44.8247"/>
<polygon fill="green" stroke="green" points="254.277,-52.9588 269.649,-37.4579 247.832,-36.6888 254.277,-52.9588"/>
</g>
<!-- n_remove&#45;&gt;n_?? -->
<g id="edge20" class="edge"><title>n_remove&#45;&gt;n_??</title>
<path fill="none" stroke="green" stroke-width="5" d="M331.973,-260.393C326.545,-251.994 319.947,-241.786 313.646,-232.038"/>
<polygon fill="green" stroke="green" points="320.82,-227.017 302.615,-214.97 306.123,-236.517 320.82,-227.017"/>
</g>
<!-- n_peek&#45;&gt;n_?? -->
<g id="edge18" class="edge"><title>n_peek&#45;&gt;n_??</title>
<path fill="none" stroke="green" stroke-width="5" d="M427.919,-265.459C401.35,-252.175 360.547,-231.773 330.39,-216.695"/>
<polygon fill="green" stroke="green" points="334.168,-208.801 312.367,-207.683 326.342,-224.454 334.168,-208.801"/>
</g>
<!-- n_remove_response -->
<g id="node8" class="node"><title>n_remove_response</title>
<ellipse fill="none" stroke="green" cx="291" cy="-112" rx="103.417" ry="19.6"/>
<text text-anchor="middle" x="291" y="-107.6" font-family="Times,serif" font-size="18.00">remove_response </text>
</g>
<!-- n_remove_response&#45;&gt;n_T -->
<g id="edge14" class="edge"><title>n_remove_response&#45;&gt;n_T</title>
<path fill="none" stroke="green" stroke-width="5" d="M291,-91.9814C291,-87.2621 291,-81.9911 291,-76.5625"/>
<polygon fill="green" stroke="green" points="299.75,-76.3048 291,-56.3048 282.25,-76.3049 299.75,-76.3048"/>
</g>
<!-- n_peek_response -->
<g id="node9" class="node"><title>n_peek_response</title>
<ellipse fill="none" stroke="green" cx="503" cy="-112" rx="90.2645" ry="19.6"/>
<text text-anchor="middle" x="503" y="-107.6" font-family="Times,serif" font-size="18.00">peek_response </text>
</g>
<!-- n_peek_response&#45;&gt;n_T -->
<g id="edge10" class="edge"><title>n_peek_response&#45;&gt;n_T</title>
<path fill="none" stroke="green" stroke-width="5" d="M460.354,-94.5047C422.693,-79.9381 368.181,-58.853 331.257,-44.5709"/>
<polygon fill="green" stroke="green" points="334.34,-36.382 312.53,-37.3278 328.027,-52.7036 334.34,-36.382"/>
</g>
<!-- n_??&#45;&gt;n_pop_response -->
<g id="edge28" class="edge"><title>n_??&#45;&gt;n_pop_response</title>
<path fill="none" stroke="red" stroke-width="5" d="M267.657,-185.753C237.9,-173.965 185.367,-153.155 144.087,-136.803"/>
<polygon fill="red" stroke="red" points="147.273,-128.653 125.456,-129.422 140.828,-144.923 147.273,-128.653"/>
</g>
<!-- n_??&#45;&gt;n_remove_response -->
<g id="edge22" class="edge"><title>n_??&#45;&gt;n_remove_response</title>
<path fill="none" stroke="red" stroke-width="5" d="M291,-167.695C291,-162.65 291,-157.293 291,-151.981"/>
<polygon fill="red" stroke="red" points="299.75,-151.906 291,-131.906 282.25,-151.906 299.75,-151.906"/>
</g>
<!-- n_??&#45;&gt;n_peek_response -->
<g id="edge24" class="edge"><title>n_??&#45;&gt;n_peek_response</title>
<path fill="none" stroke="red" stroke-width="5" d="M314.498,-185.911C344.906,-174.149 399.021,-153.218 441.493,-136.791"/>
<polygon fill="red" stroke="red" points="444.861,-144.87 460.358,-129.494 438.548,-128.548 444.861,-144.87"/>
</g>
</g>
</svg>
