<?xml version="1.0" encoding="UTF-8" standalone="no"?>
<!DOCTYPE svg PUBLIC "-//W3C//DTD SVG 1.1//EN"
 "http://www.w3.org/Graphics/SVG/1.1/DTD/svg11.dtd">
<!-- Generated by graphviz version 2.28.0 (20110517.1826)
 -->
<!-- Title: G Pages: 1 -->
<svg width="520pt" height="400pt"
 viewBox="0.00 0.00 520.00 400.00" xmlns="http://www.w3.org/2000/svg" xmlns:xlink="http://www.w3.org/1999/xlink">
<g id="graph1" class="graph" transform="scale(1 1) rotate(0) translate(4 396)">
<script type='text/javascript'>
  <![CDATA[

var windows = new Array()
var info = new Array()

function openWin(target, time) {
  win = window.open(target + "_" + time + ".html", target, "location=no,width=400,height=180,left=0,status=no");
  // hm, an associative array, how strange.
  info[target] = 1
}

function advanceTo(time) {
  arr = gup("wins").split(",");
  for (i=0; i < arr.length; i++) {
    if (arr[i] != "") {
      openWin(arr[i], time);
    }
  }
  str = '';
  // getting 'key_cols'
  for (var i in info) {
    str = str + ',' + i;
  }
  self.window.location.href = 'tm_' + time + '.svg?wins=' + str;
}

// off the netz
function gup(name) {
  name = name.replace(/[[]/,"\[").replace(/[]]/,"\]");
  var regexS = "[\?&]"+name+"=([^&#]*)";
  var regex = new RegExp(regexS);
  var results = regex.exec(window.location.href);
  if (results == null)
    return "";
  else
    return results[1];
}

  ]]>
</script>

<polygon fill="white" stroke="white" points="-4,5 -4,-396 517,-396 517,5 -4,5"/>
<!-- n_S -->
<g id="node1" class="node"><title>n_S</title>
<a xlink:href="javascript:advanceTo(-2)" xlink:title="S ">
<polygon fill="none" stroke="blue" stroke-width="3" points="286,-392 255,-364 286,-336 317,-364 286,-392"/>
<text text-anchor="middle" x="286" y="-359.6" font-family="Times,serif" font-size="18.00">S </text>
</a>
</g>
<!-- n_increment_count -->
<g id="node3" class="node"><title>n_increment_count</title>
<ellipse fill="none" stroke="green" cx="101" cy="-280" rx="101.174" ry="19.6"/>
<text text-anchor="middle" x="101" y="-275.6" font-family="Times,serif" font-size="18.00">increment_count </text>
</g>
<!-- n_S&#45;&gt;n_increment_count -->
<g id="edge6" class="edge"><title>n_S&#45;&gt;n_increment_count</title>
<path fill="none" stroke="black" stroke-width="5" d="M265.85,-354.068C240.309,-342.748 195.205,-322.756 158.625,-306.542"/>
<polygon fill="black" stroke="black" points="161.987,-298.461 140.157,-298.356 154.896,-314.46 161.987,-298.461"/>
</g>
<!-- n_get_count -->
<g id="node5" class="node"><title>n_get_count</title>
<ellipse fill="none" stroke="green" cx="286" cy="-280" rx="65.1436" ry="19.6"/>
<text text-anchor="middle" x="286" y="-275.6" font-family="Times,serif" font-size="18.00">get_count </text>
</g>
<!-- n_S&#45;&gt;n_get_count -->
<g id="edge4" class="edge"><title>n_S&#45;&gt;n_get_count</title>
<path fill="none" stroke="black" stroke-width="5" d="M286,-335.695C286,-330.65 286,-325.293 286,-319.981"/>
<polygon fill="black" stroke="black" points="294.75,-319.906 286,-299.906 277.25,-319.906 294.75,-319.906"/>
</g>
<!-- n_clear_ident -->
<g id="node6" class="node"><title>n_clear_ident</title>
<ellipse fill="none" stroke="green" cx="441" cy="-280" rx="71.127" ry="19.6"/>
<text text-anchor="middle" x="441" y="-275.6" font-family="Times,serif" font-size="18.00">clear_ident </text>
</g>
<!-- n_S&#45;&gt;n_clear_ident -->
<g id="edge2" class="edge"><title>n_S&#45;&gt;n_clear_ident</title>
<path fill="none" stroke="black" stroke-width="5" d="M305.006,-352.945C326.394,-341.63 361.992,-322.798 391.402,-307.239"/>
<polygon fill="black" stroke="black" points="395.591,-314.922 409.177,-297.835 387.407,-299.453 395.591,-314.922"/>
</g>
<!-- n_T -->
<g id="node2" class="node"><title>n_T</title>
<a xlink:href="javascript:advanceTo(0)" xlink:title="T ">
<polygon fill="none" stroke="blue" stroke-width="3" points="286,-56 254,-28 286,-1.42109e-14 318,-28 286,-56"/>
<text text-anchor="middle" x="286" y="-23.6" font-family="Times,serif" font-size="18.00">T </text>
</a>
</g>
<!-- n_?? -->
<g id="node11" class="node"><title>n_??</title>
<polygon fill="none" stroke="red" stroke-width="2" points="286,-224 250,-196 286,-168 322,-196 286,-224"/>
<text text-anchor="middle" x="286" y="-191.6" font-family="Times,serif" font-size="18.00">?? </text>
</g>
<!-- n_increment_count&#45;&gt;n_?? -->
<g id="edge12" class="edge"><title>n_increment_count&#45;&gt;n_??</title>
<path fill="none" stroke="black" stroke-width="5" d="M140.234,-261.61C171.034,-247.958 213.786,-229.008 245.026,-215.162"/>
<polygon fill="black" stroke="black" points="248.911,-223.01 263.65,-206.906 241.82,-207.011 248.911,-223.01"/>
</g>
<!-- n_return_count -->
<g id="node4" class="node"><title>n_return_count</title>
<ellipse fill="none" stroke="green" cx="286" cy="-112" rx="80.415" ry="19.6"/>
<text text-anchor="middle" x="286" y="-107.6" font-family="Times,serif" font-size="18.00">return_count </text>
</g>
<!-- n_return_count&#45;&gt;n_T -->
<g id="edge8" class="edge"><title>n_return_count&#45;&gt;n_T</title>
<path fill="none" stroke="black" stroke-width="5" d="M286,-91.9814C286,-87.2621 286,-81.9911 286,-76.5625"/>
<polygon fill="black" stroke="black" points="294.75,-76.3048 286,-56.3048 277.25,-76.3049 294.75,-76.3048"/>
</g>
<!-- n_get_count&#45;&gt;n_?? -->
<g id="edge14" class="edge"><title>n_get_count&#45;&gt;n_??</title>
<path fill="none" stroke="black" stroke-width="5" d="M286,-259.981C286,-255.262 286,-249.991 286,-244.562"/>
<polygon fill="black" stroke="black" points="294.75,-244.305 286,-224.305 277.25,-244.305 294.75,-244.305"/>
</g>
<!-- n_clear_ident&#45;&gt;n_?? -->
<g id="edge10" class="edge"><title>n_clear_ident&#45;&gt;n_??</title>
<path fill="none" stroke="black" stroke-width="5" d="M409.259,-262.208C384.72,-249.226 350.643,-231.198 324.538,-217.388"/>
<polygon fill="black" stroke="black" points="328.575,-209.625 306.805,-208.006 320.391,-225.093 328.575,-209.625"/>
</g>
<!-- n_??&#45;&gt;n_return_count -->
<g id="edge16" class="edge"><title>n_??&#45;&gt;n_return_count</title>
<path fill="none" stroke="black" stroke-width="5" d="M286,-167.695C286,-162.65 286,-157.293 286,-151.981"/>
<polygon fill="black" stroke="black" points="294.75,-151.906 286,-131.906 277.25,-151.906 294.75,-151.906"/>
</g>
</g>
</svg>
