<?xml version="1.0" encoding="UTF-8" standalone="no"?>
<!DOCTYPE svg PUBLIC "-//W3C//DTD SVG 1.1//EN"
 "http://www.w3.org/Graphics/SVG/1.1/DTD/svg11.dtd">
<!-- Generated by graphviz version 2.28.0 (20110517.1826)
 -->
<!-- Title: G Pages: 1 -->
<svg width="297pt" height="400pt"
 viewBox="0.00 0.00 297.00 400.00" xmlns="http://www.w3.org/2000/svg" xmlns:xlink="http://www.w3.org/1999/xlink">
<g id="graph1" class="graph" transform="scale(1 1) rotate(0) translate(4 396)">
<script type='text/javascript'>
  <![CDATA[

var windows = new Array()
var info = new Array()

function openWin(target, time) {
  win = window.open(target + "_" + time + ".html", target, "location=no,width=400,height=180,left=0,status=no");
  // hm, an associative array, how strange.
  info[target] = 1
}

function advanceTo(time) {
  arr = gup("wins").split(",");
  for (i=0; i < arr.length; i++) {
    if (arr[i] != "") {
      openWin(arr[i], time);
    }
  }
  str = '';
  // getting 'key_cols'
  for (var i in info) {
    str = str + ',' + i;
  }
  self.window.location.href = 'tm_' + time + '.svg?wins=' + str;
}

// off the netz
function gup(name) {
  name = name.replace(/[[]/,"\[").replace(/[]]/,"\]");
  var regexS = "[\?&]"+name+"=([^&#]*)";
  var regex = new RegExp(regexS);
  var results = regex.exec(window.location.href);
  if (results == null)
    return "";
  else
    return results[1];
}

  ]]>
</script>

<polygon fill="white" stroke="white" points="-4,5 -4,-396 294,-396 294,5 -4,5"/>
<!-- n_S -->
<g id="node1" class="node"><title>n_S</title>
<a xlink:href="javascript:advanceTo(-2)" xlink:title="S ">
<polygon fill="none" stroke="blue" stroke-width="3" points="141,-392 110,-364 141,-336 172,-364 141,-392"/>
<text text-anchor="middle" x="141" y="-359.6" font-family="Times,serif" font-size="18.00">S </text>
</a>
</g>
<!-- n_set_alarm -->
<g id="node3" class="node"><title>n_set_alarm</title>
<ellipse fill="none" stroke="green" cx="64" cy="-280" rx="64.0209" ry="19.6"/>
<text text-anchor="middle" x="64" y="-275.6" font-family="Times,serif" font-size="18.00">set_alarm </text>
</g>
<!-- n_S&#45;&gt;n_set_alarm -->
<g id="edge2" class="edge"><title>n_S&#45;&gt;n_set_alarm</title>
<path fill="none" stroke="blue" stroke-width="5" d="M127.234,-348.34C118.271,-338.795 106.206,-325.947 95.0181,-314.032"/>
<polygon fill="blue" stroke="blue" points="101.219,-307.854 81.1501,-299.264 88.4621,-319.833 101.219,-307.854"/>
</g>
<!-- n_stop_alarm -->
<g id="node4" class="node"><title>n_stop_alarm</title>
<ellipse fill="none" stroke="green" cx="218" cy="-280" rx="71.127" ry="19.6"/>
<text text-anchor="middle" x="218" y="-275.6" font-family="Times,serif" font-size="18.00">stop_alarm </text>
</g>
<!-- n_S&#45;&gt;n_stop_alarm -->
<g id="edge4" class="edge"><title>n_S&#45;&gt;n_stop_alarm</title>
<path fill="none" stroke="blue" stroke-width="5" d="M154.766,-348.34C163.729,-338.795 175.794,-325.947 186.982,-314.032"/>
<polygon fill="blue" stroke="blue" points="193.538,-319.833 200.85,-299.264 180.781,-307.854 193.538,-319.833"/>
</g>
<!-- n_T -->
<g id="node2" class="node"><title>n_T</title>
<a xlink:href="javascript:advanceTo(0)" xlink:title="T ">
<polygon fill="none" stroke="blue" stroke-width="3" points="141,-56 109,-28 141,-1.42109e-14 173,-28 141,-56"/>
<text text-anchor="middle" x="141" y="-23.6" font-family="Times,serif" font-size="18.00">T </text>
</a>
</g>
<!-- n_?? -->
<g id="node9" class="node"><title>n_??</title>
<polygon fill="none" stroke="red" stroke-width="2" points="141,-224 105,-196 141,-168 177,-196 141,-224"/>
<text text-anchor="middle" x="141" y="-191.6" font-family="Times,serif" font-size="18.00">?? </text>
</g>
<!-- n_set_alarm&#45;&gt;n_?? -->
<g id="edge10" class="edge"><title>n_set_alarm&#45;&gt;n_??</title>
<path fill="none" stroke="green" stroke-width="5" d="M81.0888,-260.802C90.3038,-250.988 101.918,-238.619 112.462,-227.391"/>
<polygon fill="green" stroke="green" points="118.981,-233.231 126.293,-212.662 106.224,-221.252 118.981,-233.231"/>
</g>
<!-- n_stop_alarm&#45;&gt;n_?? -->
<g id="edge12" class="edge"><title>n_stop_alarm&#45;&gt;n_??</title>
<path fill="none" stroke="green" stroke-width="5" d="M200.528,-260.393C191.465,-250.742 180.159,-238.702 169.843,-227.716"/>
<polygon fill="green" stroke="green" points="175.881,-221.364 155.812,-212.774 163.124,-233.343 175.881,-221.364"/>
</g>
<!-- n_alarm -->
<g id="node5" class="node"><title>n_alarm</title>
<ellipse fill="none" stroke="green" cx="141" cy="-112" rx="43.263" ry="19.6"/>
<text text-anchor="middle" x="141" y="-107.6" font-family="Times,serif" font-size="18.00">alarm </text>
</g>
<!-- n_alarm&#45;&gt;n_T -->
<g id="edge6" class="edge"><title>n_alarm&#45;&gt;n_T</title>
<path fill="none" stroke="green" stroke-width="5" d="M141,-91.9814C141,-87.2621 141,-81.9911 141,-76.5625"/>
<polygon fill="green" stroke="green" points="149.75,-76.3048 141,-56.3048 132.25,-76.3049 149.75,-76.3048"/>
</g>
<!-- n_??&#45;&gt;n_alarm -->
<g id="edge8" class="edge"><title>n_??&#45;&gt;n_alarm</title>
<path fill="none" stroke="red" stroke-width="5" d="M141,-167.695C141,-162.65 141,-157.293 141,-151.981"/>
<polygon fill="red" stroke="red" points="149.75,-151.906 141,-131.906 132.25,-151.906 149.75,-151.906"/>
</g>
</g>
</svg>
