<?xml version="1.0" encoding="UTF-8" standalone="no"?>
<!DOCTYPE svg PUBLIC "-//W3C//DTD SVG 1.1//EN"
 "http://www.w3.org/Graphics/SVG/1.1/DTD/svg11.dtd">
<!-- Generated by graphviz version 2.28.0 (20110517.1826)
 -->
<!-- Title: G Pages: 1 -->
<svg width="868pt" height="280pt"
 viewBox="0.00 0.00 868.00 280.00" xmlns="http://www.w3.org/2000/svg" xmlns:xlink="http://www.w3.org/1999/xlink">
<g id="graph1" class="graph" transform="scale(1 1) rotate(0) translate(4 276)">
<script type='text/javascript'>
  <![CDATA[

var windows = new Array()
var info = new Array()

function openWin(target, time) {
  win = window.open(target + "_" + time + ".html", target, "location=no,width=400,height=180,left=0,status=no");
  // hm, an associative array, how strange.
  info[target] = 1
}

function advanceTo(time) {
  arr = gup("wins").split(",");
  for (i=0; i < arr.length; i++) {
    if (arr[i] != "") {
      openWin(arr[i], time);
    }
  }
  str = '';
  // getting 'key_cols'
  for (var i in info) {
    str = str + ',' + i;
  }
  self.window.location.href = 'tm_' + time + '.svg?wins=' + str;
}

// off the netz
function gup(name) {
  name = name.replace(/[[]/,"\[").replace(/[]]/,"\]");
  var regexS = "[\?&]"+name+"=([^&#]*)";
  var regex = new RegExp(regexS);
  var results = regex.exec(window.location.href);
  if (results == null)
    return "";
  else
    return results[1];
}

  ]]>
</script>

<polygon fill="white" stroke="white" points="-4,5 -4,-276 865,-276 865,5 -4,5"/>
<!-- n_ballot_summary, completed_ballots, grouped_vote_counts, ongoing_ballots, pre_ballots, required, result, votes, winning_vote -->
<g id="node1" class="node"><title>n_ballot_summary, completed_ballots, grouped_vote_counts, ongoing_ballots, pre_ballots, required, result, votes, winning_vote</title>
<a xlink:href="CountVoteCounter_viz_expanded.svg" xlink:title="ballot_summary, completed_ballots, grouped_vote_counts, ongoing_ballots,\npre_ballots, required, result, votes,\nwinning_vote">
<polygon fill="none" stroke="red" stroke-width="3" points="860.352,-30.4236 860.352,-73.5764 608.258,-104.09 251.742,-104.09 -0.352443,-73.5764 -0.352443,-30.4236 251.742,0.0899325 608.258,0.0899325 860.352,-30.4236"/>
<text text-anchor="middle" x="430" y="-67.6" font-family="Times,serif" font-size="18.00">ballot_summary, completed_ballots, grouped_vote_counts, ongoing_ballots,</text>
<text text-anchor="middle" x="430" y="-47.6" font-family="Times,serif" font-size="18.00">pre_ballots, required, result, votes,</text>
<text text-anchor="middle" x="430" y="-27.6" font-family="Times,serif" font-size="18.00">winning_vote</text>
</a>
</g>
<!-- n_num_required -->
<g id="node2" class="node"><title>n_num_required</title>
<ellipse fill="none" stroke="green" cx="262" cy="-160" rx="85.9015" ry="19.6"/>
<text text-anchor="middle" x="262" y="-155.6" font-family="Times,serif" font-size="18.00">num_required </text>
</g>
<!-- n_num_required&#45;&gt;n_ballot_summary, completed_ballots, grouped_vote_counts, ongoing_ballots, pre_ballots, required, result, votes, winning_vote -->
<g id="edge2" class="edge"><title>n_num_required&#45;&gt;n_ballot_summary, completed_ballots, grouped_vote_counts, ongoing_ballots, pre_ballots, required, result, votes, winning_vote</title>
<a xlink:href="34.html">
<path fill="none" stroke="green" stroke-width="5" d="M290.119,-141.258C301.928,-133.807 316.434,-124.655 331.584,-115.096"/>
<polygon fill="green" stroke="green" points="336.609,-122.271 348.855,-104.199 327.271,-107.471 336.609,-122.271"/>
</a>
</g>
<!-- n_cast_vote -->
<g id="node4" class="node"><title>n_cast_vote</title>
<ellipse fill="none" stroke="green" cx="430" cy="-160" rx="63.459" ry="19.6"/>
<text text-anchor="middle" x="430" y="-155.6" font-family="Times,serif" font-size="18.00">cast_vote </text>
</g>
<!-- n_cast_vote&#45;&gt;n_ballot_summary, completed_ballots, grouped_vote_counts, ongoing_ballots, pre_ballots, required, result, votes, winning_vote -->
<g id="edge4" class="edge"><title>n_cast_vote&#45;&gt;n_ballot_summary, completed_ballots, grouped_vote_counts, ongoing_ballots, pre_ballots, required, result, votes, winning_vote</title>
<a xlink:href="25.html">
<path fill="none" stroke="green" stroke-width="5" d="M430,-140.049C430,-135.304 430,-129.927 430,-124.23"/>
<polygon fill="green" stroke="green" points="438.75,-124.081 430,-104.081 421.25,-124.081 438.75,-124.081"/>
</a>
</g>
<!-- n_begin_vote -->
<g id="node6" class="node"><title>n_begin_vote</title>
<ellipse fill="none" stroke="green" cx="583" cy="-160" rx="71.127" ry="19.6"/>
<text text-anchor="middle" x="583" y="-155.6" font-family="Times,serif" font-size="18.00">begin_vote </text>
</g>
<!-- n_begin_vote&#45;&gt;n_ballot_summary, completed_ballots, grouped_vote_counts, ongoing_ballots, pre_ballots, required, result, votes, winning_vote -->
<g id="edge6" class="edge"><title>n_begin_vote&#45;&gt;n_ballot_summary, completed_ballots, grouped_vote_counts, ongoing_ballots, pre_ballots, required, result, votes, winning_vote</title>
<a xlink:href="35.html">
<path fill="none" stroke="green" stroke-width="5" d="M557.391,-141.258C546.868,-133.967 533.993,-125.048 520.518,-115.712"/>
<polygon fill="green" stroke="green" points="525.323,-108.396 503.9,-104.199 515.357,-122.781 525.323,-108.396"/>
</a>
</g>
<!-- n_S -->
<g id="node8" class="node"><title>n_S</title>
<a xlink:href="javascript:advanceTo(-2)" xlink:title="S ">
<polygon fill="none" stroke="blue" stroke-width="3" points="430,-272 399,-244 430,-216 461,-244 430,-272"/>
<text text-anchor="middle" x="430" y="-239.6" font-family="Times,serif" font-size="18.00">S </text>
</a>
</g>
<!-- n_S&#45;&gt;n_num_required -->
<g id="edge10" class="edge"><title>n_S&#45;&gt;n_num_required</title>
<path fill="none" stroke="blue" stroke-width="5" d="M410.399,-233.433C387.246,-222.132 347.778,-202.868 315.363,-187.046"/>
<polygon fill="blue" stroke="blue" points="319.081,-179.124 297.269,-178.215 311.405,-194.851 319.081,-179.124"/>
</g>
<!-- n_S&#45;&gt;n_cast_vote -->
<g id="edge12" class="edge"><title>n_S&#45;&gt;n_cast_vote</title>
<path fill="none" stroke="blue" stroke-width="5" d="M430,-215.695C430,-210.65 430,-205.293 430,-199.981"/>
<polygon fill="blue" stroke="blue" points="438.75,-199.906 430,-179.906 421.25,-199.906 438.75,-199.906"/>
</g>
<!-- n_S&#45;&gt;n_begin_vote -->
<g id="edge8" class="edge"><title>n_S&#45;&gt;n_begin_vote</title>
<path fill="none" stroke="blue" stroke-width="5" d="M446.791,-230.896C453.819,-226.035 462.163,-220.522 470,-216 488.611,-205.261 509.627,-194.644 528.442,-185.646"/>
<polygon fill="blue" stroke="blue" points="532.314,-193.495 546.705,-177.08 524.883,-177.651 532.314,-193.495"/>
</g>
<!-- n_T -->
<g id="node9" class="node"><title>n_T</title>
<a xlink:href="javascript:advanceTo(0)" xlink:title="T ">
<polygon fill="none" stroke="blue" stroke-width="3" points="511,-272 479,-244 511,-216 543,-244 511,-272"/>
<text text-anchor="middle" x="511" y="-239.6" font-family="Times,serif" font-size="18.00">T </text>
</a>
</g>
</g>
</svg>
