<?xml version="1.0" encoding="UTF-8" standalone="no"?>
<!DOCTYPE svg PUBLIC "-//W3C//DTD SVG 1.1//EN"
 "http://www.w3.org/Graphics/SVG/1.1/DTD/svg11.dtd">
<!-- Generated by graphviz version 2.28.0 (20110517.1826)
 -->
<!-- Title: G Pages: 1 -->
<svg width="459pt" height="716pt"
 viewBox="0.00 0.00 459.00 716.00" xmlns="http://www.w3.org/2000/svg" xmlns:xlink="http://www.w3.org/1999/xlink">
<g id="graph1" class="graph" transform="scale(1 1) rotate(0) translate(4 712)">
<script type='text/javascript'>
  <![CDATA[

var windows = new Array()
var info = new Array()

function openWin(target, time) {
  win = window.open(target + "_" + time + ".html", target, "location=no,width=400,height=180,left=0,status=no");
  // hm, an associative array, how strange.
  info[target] = 1
}

function advanceTo(time) {
  arr = gup("wins").split(",");
  for (i=0; i < arr.length; i++) {
    if (arr[i] != "") {
      openWin(arr[i], time);
    }
  }
  str = '';
  // getting 'key_cols'
  for (var i in info) {
    str = str + ',' + i;
  }
  self.window.location.href = 'tm_' + time + '.svg?wins=' + str;
}

// off the netz
function gup(name) {
  name = name.replace(/[[]/,"\[").replace(/[]]/,"\]");
  var regexS = "[\?&]"+name+"=([^&#]*)";
  var regex = new RegExp(regexS);
  var results = regex.exec(window.location.href);
  if (results == null)
    return "";
  else
    return results[1];
}

  ]]>
</script>

<polygon fill="white" stroke="white" points="-4,5 -4,-712 456,-712 456,5 -4,5"/>
<!-- n_remove_response -->
<g id="node1" class="node"><title>n_remove_response</title>
<a xlink:href="remove_response.html" xlink:title="remove_response N">
<ellipse fill="none" stroke="yellow" cx="262" cy="-478" rx="113.206" ry="19.6"/>
<text text-anchor="middle" x="262" y="-473.6" font-family="Times,serif" font-size="18.00">remove_response N</text>
</a>
</g>
<!-- n_items -->
<g id="node2" class="node"><title>n_items</title>
<a xlink:href="items.html" xlink:title="items N">
<polygon fill="none" stroke="yellow" points="265,-382 193,-382 193,-346 265,-346 265,-382"/>
<text text-anchor="middle" x="229" y="-359.6" font-family="Times,serif" font-size="18.00">items N</text>
</a>
</g>
<!-- n_remove_response&#45;&gt;n_items -->
<g id="edge16" class="edge"><title>n_remove_response&#45;&gt;n_items</title>
<a xlink:href="32.html" xlink:title=" +/&#45;">
<path fill="none" stroke="yellow" stroke-width="5" d="M256.714,-457.973C253.878,-447.852 250.178,-434.768 244.805,-416.555"/>
<polygon fill="yellow" stroke="yellow" points="234.461,-382.062 248.827,-398.634 239.249,-391.066 242.122,-400.645 240.206,-401.219 238.29,-401.794 235.418,-392.215 231.585,-403.805 234.461,-382.062 234.461,-382.062"/>
<ellipse fill="none" stroke="yellow" cx="242.504" cy="-408.882" rx="8.00001" ry="8.00001"/>
</a>
<a xlink:href="32.html" xlink:title=" +/&#45;">
<text text-anchor="middle" x="264.5" y="-415.6" font-family="Times,serif" font-size="18.00"> +/&#45;</text>
</a>
</g>
<!-- n_items&#45;&gt;n_remove_response -->
<g id="edge2" class="edge"><title>n_items&#45;&gt;n_remove_response</title>
<a xlink:href="31.html">
<path fill="none" stroke="yellow" stroke-width="5" d="M230.753,-382.039C232.329,-394.704 235.12,-412.605 244.156,-439.364"/>
<polygon fill="yellow" stroke="yellow" points="235.974,-442.468 251.046,-458.261 252.416,-436.473 235.974,-442.468"/>
</a>
</g>
<!-- n_lowest -->
<g id="node10" class="node"><title>n_lowest</title>
<a xlink:href="lowest.html" xlink:title="lowest N">
<ellipse fill="none" stroke="yellow" cx="289" cy="-288" rx="57.4743" ry="19.6"/>
<text text-anchor="middle" x="289" y="-283.6" font-family="Times,serif" font-size="18.00">lowest N</text>
</a>
</g>
<!-- n_items&#45;&gt;n_lowest -->
<g id="edge20" class="edge"><title>n_items&#45;&gt;n_lowest</title>
<a xlink:href="26.html">
<path fill="none" stroke="yellow" stroke-width="5" d="M242.916,-345.837C245.545,-342.595 248.408,-339.064 251.377,-335.402"/>
<polygon fill="yellow" stroke="yellow" points="274.111,-307.363 268.505,-328.567 269.366,-316.391 263.068,-324.158 261.515,-322.899 259.961,-321.639 266.259,-313.871 254.524,-317.23 274.111,-307.363 274.111,-307.363"/>
<ellipse fill="none" stroke="yellow" cx="256.476" cy="-329.113" rx="8.00001" ry="8.00001"/>
</a>
</g>
<!-- n_pop_response -->
<g id="node4" class="node"><title>n_pop_response</title>
<a xlink:href="pop_response.html" xlink:title="pop_response N">
<ellipse fill="none" stroke="yellow" cx="128" cy="-114" rx="94.0678" ry="19.6"/>
<text text-anchor="middle" x="128" y="-109.6" font-family="Times,serif" font-size="18.00">pop_response N</text>
</a>
</g>
<!-- n_pop_response&#45;&gt;n_items -->
<g id="edge4" class="edge"><title>n_pop_response&#45;&gt;n_items</title>
<a xlink:href="33.html" xlink:title=" +/&#45;">
<path fill="none" stroke="yellow" stroke-width="5" d="M150.797,-133.414C162.059,-143.658 174.928,-157.293 183,-172 195.915,-195.532 210.339,-262.335 219.533,-310.301"/>
<polygon fill="yellow" stroke="yellow" points="226.043,-345.732 213.577,-327.688 222.269,-336.258 220.462,-326.423 222.429,-326.062 224.396,-325.7 226.203,-335.536 231.281,-324.435 226.043,-345.732 226.043,-345.732"/>
<ellipse fill="none" stroke="yellow" cx="220.983" cy="-318.193" rx="8" ry="8"/>
</a>
<a xlink:href="33.html" xlink:title=" +/&#45;">
<text text-anchor="middle" x="219.5" y="-235.6" font-family="Times,serif" font-size="18.00"> +/&#45;</text>
</a>
</g>
<!-- n_lowest_popr -->
<g id="node6" class="node"><title>n_lowest_popr</title>
<a xlink:href="lowest_popr.html" xlink:title="lowest_popr N">
<ellipse fill="none" stroke="yellow" cx="87" cy="-192" rx="87.5215" ry="19.6"/>
<text text-anchor="middle" x="87" y="-187.6" font-family="Times,serif" font-size="18.00">lowest_popr N</text>
</a>
</g>
<!-- n_lowest_popr&#45;&gt;n_pop_response -->
<g id="edge22" class="edge"><title>n_lowest_popr&#45;&gt;n_pop_response</title>
<a xlink:href="29.html">
<path fill="none" stroke="yellow" stroke-width="5" d="M97.1348,-172.213C98.2683,-170.112 99.4591,-167.905 100.687,-165.63"/>
<polygon fill="yellow" stroke="yellow" points="117.84,-133.834 116.265,-155.709 114.852,-143.584 110.104,-152.385 108.344,-151.436 106.584,-150.486 111.332,-141.685 100.423,-147.163 117.84,-133.834 117.84,-133.834"/>
<ellipse fill="none" stroke="yellow" cx="104.545" cy="-158.477" rx="8.00001" ry="8.00001"/>
</a>
</g>
<!-- n_pop -->
<g id="node7" class="node"><title>n_pop</title>
<ellipse fill="none" stroke="green" cx="84" cy="-536" rx="33.4126" ry="19.6"/>
<text text-anchor="middle" x="84" y="-531.6" font-family="Times,serif" font-size="18.00">pop </text>
</g>
<!-- n_pop&#45;&gt;n_lowest_popr -->
<g id="edge6" class="edge"><title>n_pop&#45;&gt;n_lowest_popr</title>
<a xlink:href="27.html">
<path fill="none" stroke="green" stroke-width="5" d="M83.732,-516.04C83.4358,-493.417 83,-454.449 83,-421 83,-421 83,-421 83,-287 83,-268.942 83.746,-248.95 84.5937,-232.062"/>
<polygon fill="green" stroke="green" points="93.331,-232.531 85.7124,-212.073 75.8583,-231.553 93.331,-232.531"/>
</a>
</g>
<!-- n_lowest_peekr -->
<g id="node9" class="node"><title>n_lowest_peekr</title>
<a xlink:href="lowest_peekr.html" xlink:title="lowest_peekr N">
<ellipse fill="none" stroke="yellow" cx="353" cy="-192" rx="92.4462" ry="19.6"/>
<text text-anchor="middle" x="353" y="-187.6" font-family="Times,serif" font-size="18.00">lowest_peekr N</text>
</a>
</g>
<!-- n_peek_response -->
<g id="node12" class="node"><title>n_peek_response</title>
<a xlink:href="peek_response.html" xlink:title="peek_response N">
<ellipse fill="none" stroke="yellow" cx="353" cy="-114" rx="98.4924" ry="19.6"/>
<text text-anchor="middle" x="353" y="-109.6" font-family="Times,serif" font-size="18.00">peek_response N</text>
</a>
</g>
<!-- n_lowest_peekr&#45;&gt;n_peek_response -->
<g id="edge10" class="edge"><title>n_lowest_peekr&#45;&gt;n_peek_response</title>
<a xlink:href="30.html">
<path fill="none" stroke="yellow" stroke-width="5" d="M353,-171.822C353,-171.278 353,-170.727 353,-170.169"/>
<polygon fill="yellow" stroke="yellow" points="353,-133.909 362,-153.909 355,-143.909 355,-153.909 353,-153.909 351,-153.909 351,-143.909 344,-153.909 353,-133.909 353,-133.909"/>
<ellipse fill="none" stroke="yellow" cx="353" cy="-161.909" rx="8" ry="8"/>
</a>
</g>
<!-- n_lowest&#45;&gt;n_lowest_popr -->
<g id="edge12" class="edge"><title>n_lowest&#45;&gt;n_lowest_popr</title>
<a xlink:href="27.html">
<path fill="none" stroke="yellow" stroke-width="5" d="M275.208,-268.738C264.698,-256.064 249.148,-239.764 232,-230 215.582,-220.651 196.791,-213.629 178.3,-208.364"/>
<polygon fill="yellow" stroke="yellow" points="180.41,-199.872 158.867,-203.403 176.082,-216.829 180.41,-199.872"/>
</a>
</g>
<!-- n_lowest&#45;&gt;n_lowest_peekr -->
<g id="edge8" class="edge"><title>n_lowest&#45;&gt;n_lowest_peekr</title>
<a xlink:href="28.html">
<path fill="none" stroke="yellow" stroke-width="5" d="M301.644,-268.429C309.395,-257.045 319.573,-242.096 328.822,-228.512"/>
<polygon fill="yellow" stroke="yellow" points="336.14,-233.311 340.163,-211.855 321.674,-223.462 336.14,-233.311"/>
</a>
</g>
<!-- n_T -->
<g id="node25" class="node"><title>n_T</title>
<a xlink:href="javascript:advanceTo(0)" xlink:title="T ">
<polygon fill="none" stroke="blue" stroke-width="3" points="353,-56 321,-28 353,-1.42109e-14 385,-28 353,-56"/>
<text text-anchor="middle" x="353" y="-23.6" font-family="Times,serif" font-size="18.00">T </text>
</a>
</g>
<!-- n_peek_response&#45;&gt;n_T -->
<g id="edge34" class="edge"><title>n_peek_response&#45;&gt;n_T</title>
<path fill="none" stroke="yellow" stroke-width="5" d="M353,-93.9391C353,-88.6334 353,-82.6232 353,-76.4533"/>
<polygon fill="yellow" stroke="yellow" points="361.75,-76.2669 353,-56.267 344.25,-76.267 361.75,-76.2669"/>
</g>
<!-- n_push -->
<g id="node15" class="node"><title>n_push</title>
<ellipse fill="none" stroke="green" cx="167" cy="-536" rx="38.3379" ry="19.6"/>
<text text-anchor="middle" x="167" y="-531.6" font-family="Times,serif" font-size="18.00">push </text>
</g>
<!-- n_push&#45;&gt;n_items -->
<g id="edge14" class="edge"><title>n_push&#45;&gt;n_items</title>
<a xlink:href="25.html">
<path fill="none" stroke="green" stroke-width="5" d="M151.031,-517.84C146.573,-511.983 142.317,-505.107 140,-498 134.489,-481.098 133.378,-474.498 140,-458 149.916,-433.297 169.871,-411.449 188.377,-395.147"/>
<polygon fill="green" stroke="green" points="194.089,-401.778 203.978,-382.316 182.973,-388.262 194.089,-401.778"/>
</a>
</g>
<!-- n_peek -->
<g id="node18" class="node"><title>n_peek</title>
<ellipse fill="none" stroke="green" cx="399" cy="-420" rx="39.3965" ry="19.6"/>
<text text-anchor="middle" x="399" y="-415.6" font-family="Times,serif" font-size="18.00">peek </text>
</g>
<!-- n_peek&#45;&gt;n_lowest_peekr -->
<g id="edge18" class="edge"><title>n_peek&#45;&gt;n_lowest_peekr</title>
<a xlink:href="28.html">
<path fill="none" stroke="green" stroke-width="5" d="M395.157,-400.12C387.648,-363.229 370.893,-280.907 360.914,-231.883"/>
<polygon fill="green" stroke="green" points="369.428,-229.838 356.864,-211.985 352.279,-233.329 369.428,-229.838"/>
</a>
</g>
<!-- n_remove -->
<g id="node22" class="node"><title>n_remove</title>
<ellipse fill="none" stroke="green" cx="250" cy="-594" rx="53.0495" ry="19.6"/>
<text text-anchor="middle" x="250" y="-589.6" font-family="Times,serif" font-size="18.00">remove </text>
</g>
<!-- n_remove&#45;&gt;n_remove_response -->
<g id="edge24" class="edge"><title>n_remove&#45;&gt;n_remove_response</title>
<a xlink:href="31.html">
<path fill="none" stroke="green" stroke-width="5" d="M251.982,-574.175C253.588,-558.911 255.907,-536.887 257.909,-517.869"/>
<polygon fill="green" stroke="green" points="266.624,-518.659 260.016,-497.853 249.22,-516.827 266.624,-518.659"/>
</a>
</g>
<!-- n_S -->
<g id="node24" class="node"><title>n_S</title>
<a xlink:href="javascript:advanceTo(-2)" xlink:title="S ">
<polygon fill="none" stroke="blue" stroke-width="3" points="195,-708 164,-680 195,-652 226,-680 195,-708"/>
<text text-anchor="middle" x="195" y="-675.6" font-family="Times,serif" font-size="18.00">S </text>
</a>
</g>
<!-- n_S&#45;&gt;n_pop -->
<g id="edge26" class="edge"><title>n_S&#45;&gt;n_pop</title>
<path fill="none" stroke="blue" stroke-width="5" d="M182.483,-662.987C165.028,-640.658 132.959,-599.632 110.161,-570.467"/>
<polygon fill="blue" stroke="blue" points="116.894,-564.873 97.6829,-554.504 103.106,-575.65 116.894,-564.873"/>
</g>
<!-- n_S&#45;&gt;n_push -->
<g id="edge28" class="edge"><title>n_S&#45;&gt;n_push</title>
<path fill="none" stroke="blue" stroke-width="5" d="M190.439,-655.869C186.175,-634.243 179.724,-601.526 174.668,-575.888"/>
<polygon fill="blue" stroke="blue" points="183.205,-573.955 170.751,-556.025 166.036,-577.34 183.205,-573.955"/>
</g>
<!-- n_S&#45;&gt;n_peek -->
<g id="edge32" class="edge"><title>n_S&#45;&gt;n_peek</title>
<path fill="none" stroke="blue" stroke-width="5" d="M216.503,-670.967C241.686,-660.739 283.568,-641.088 312,-614 355.932,-572.144 361.834,-554.486 384,-498 388.722,-485.966 392.005,-472.269 394.266,-459.798"/>
<polygon fill="blue" stroke="blue" points="402.939,-460.967 397.253,-439.891 385.632,-458.371 402.939,-460.967"/>
</g>
<!-- n_S&#45;&gt;n_remove -->
<g id="edge30" class="edge"><title>n_S&#45;&gt;n_remove</title>
<path fill="none" stroke="blue" stroke-width="5" d="M206.13,-662.001C212.114,-652.862 219.724,-641.24 226.919,-630.25"/>
<polygon fill="blue" stroke="blue" points="234.297,-634.956 237.932,-613.431 219.656,-625.37 234.297,-634.956"/>
</g>
</g>
</svg>
