<?xml version="1.0" encoding="UTF-8" standalone="no"?>
<!DOCTYPE svg PUBLIC "-//W3C//DTD SVG 1.1//EN"
 "http://www.w3.org/Graphics/SVG/1.1/DTD/svg11.dtd">
<!-- Generated by graphviz version 2.28.0 (20110517.1826)
 -->
<!-- Title: G Pages: 1 -->
<svg width="697pt" height="1026pt"
 viewBox="0.00 0.00 697.25 1026.00" xmlns="http://www.w3.org/2000/svg" xmlns:xlink="http://www.w3.org/1999/xlink">
<g id="graph1" class="graph" transform="scale(1 1) rotate(0) translate(4 1022)">
<script type='text/javascript'>
  <![CDATA[

var windows = new Array()
var info = new Array()

function openWin(target, time) {
  win = window.open(target + "_" + time + ".html", target, "location=no,width=400,height=180,left=0,status=no");
  // hm, an associative array, how strange.
  info[target] = 1
}

function advanceTo(time) {
  arr = gup("wins").split(",");
  for (i=0; i < arr.length; i++) {
    if (arr[i] != "") {
      openWin(arr[i], time);
    }
  }
  str = '';
  // getting 'key_cols'
  for (var i in info) {
    str = str + ',' + i;
  }
  self.window.location.href = 'tm_' + time + '.svg?wins=' + str;
}

// off the netz
function gup(name) {
  name = name.replace(/[[]/,"\[").replace(/[]]/,"\]");
  var regexS = "[\?&]"+name+"=([^&#]*)";
  var regex = new RegExp(regexS);
  var results = regex.exec(window.location.href);
  if (results == null)
    return "";
  else
    return results[1];
}

  ]]>
</script>

<polygon fill="white" stroke="white" points="-4,5 -4,-1022 694.254,-1022 694.254,5 -4,5"/>
<!-- n_pq__pop -->
<g id="node1" class="node"><title>n_pq__pop</title>
<a xlink:href="pq__pop.html" xlink:title="pq__pop M">
<ellipse fill="none" stroke="black" cx="250.254" cy="-788" rx="70.5656" ry="19.6"/>
<text text-anchor="middle" x="250.254" y="-783.6" font-family="Times,serif" font-size="18.00">pq__pop M</text>
</a>
</g>
<!-- n_pq__lowest_popr -->
<g id="node22" class="node"><title>n_pq__lowest_popr</title>
<a xlink:href="pq__lowest_popr.html" xlink:title="pq__lowest_popr N">
<ellipse fill="none" stroke="yellow" cx="216.254" cy="-672" rx="113.206" ry="19.6"/>
<text text-anchor="middle" x="216.254" y="-667.6" font-family="Times,serif" font-size="18.00">pq__lowest_popr N</text>
</a>
</g>
<!-- n_pq__pop&#45;&gt;n_pq__lowest_popr -->
<g id="edge20" class="edge"><title>n_pq__pop&#45;&gt;n_pq__lowest_popr</title>
<a xlink:href="28.html">
<path fill="none" stroke="black" stroke-width="5" d="M244.64,-768.175C240.038,-752.746 233.377,-730.41 227.663,-711.253"/>
<polygon fill="black" stroke="black" points="235.978,-708.518 221.877,-691.853 219.208,-713.519 235.978,-708.518"/>
</a>
</g>
<!-- n_pop -->
<g id="node2" class="node"><title>n_pop</title>
<ellipse fill="none" stroke="green" cx="281.254" cy="-904" rx="33.4126" ry="19.6"/>
<text text-anchor="middle" x="281.254" y="-899.6" font-family="Times,serif" font-size="18.00">pop </text>
</g>
<!-- n_pop&#45;&gt;n_pq__pop -->
<g id="edge2" class="edge"><title>n_pop&#45;&gt;n_pq__pop</title>
<a xlink:href="35.html">
<path fill="none" stroke="black" stroke-width="5" d="M276.135,-884.175C271.94,-868.746 265.866,-846.41 260.657,-827.253"/>
<polygon fill="black" stroke="black" points="269.073,-824.856 255.381,-807.853 252.186,-829.448 269.073,-824.856"/>
</a>
</g>
<!-- n_pq__items -->
<g id="node4" class="node"><title>n_pq__items</title>
<a xlink:href="pq__items.html" xlink:title="pq__items N">
<polygon fill="none" stroke="yellow" points="372.254,-480 264.254,-480 264.254,-444 372.254,-444 372.254,-480"/>
<text text-anchor="middle" x="318.254" y="-457.6" font-family="Times,serif" font-size="18.00">pq__items N</text>
</a>
</g>
<!-- n_pq__lowest -->
<g id="node11" class="node"><title>n_pq__lowest</title>
<a xlink:href="pq__lowest.html" xlink:title="pq__lowest N">
<ellipse fill="none" stroke="yellow" cx="111.254" cy="-348" rx="83.1581" ry="19.6"/>
<text text-anchor="middle" x="111.254" y="-343.6" font-family="Times,serif" font-size="18.00">pq__lowest N</text>
</a>
</g>
<!-- n_pq__items&#45;&gt;n_pq__lowest -->
<g id="edge22" class="edge"><title>n_pq__items&#45;&gt;n_pq__lowest</title>
<a xlink:href="27.html">
<path fill="none" stroke="black" stroke-width="5" d="M313.031,-443.932C306.838,-426.641 294.814,-400.444 275.254,-386 272.041,-383.627 241.586,-376.518 207.776,-369.157"/>
<polygon fill="black" stroke="black" points="172.328,-361.582 193.767,-356.96 182.525,-361.716 192.305,-363.806 191.887,-365.762 191.469,-367.718 181.69,-365.628 190.006,-374.563 172.328,-361.582 172.328,-361.582"/>
<ellipse fill="none" stroke="black" cx="199.71" cy="-367.433" rx="8" ry="8"/>
</a>
</g>
<!-- n_pq__remove_response -->
<g id="node13" class="node"><title>n_pq__remove_response</title>
<a xlink:href="pq__remove_response.html" xlink:title="pq__remove_response N">
<ellipse fill="none" stroke="yellow" cx="351.254" cy="-348" rx="138.389" ry="19.6"/>
<text text-anchor="middle" x="351.254" y="-343.6" font-family="Times,serif" font-size="18.00">pq__remove_response N</text>
</a>
</g>
<!-- n_pq__items&#45;&gt;n_pq__remove_response -->
<g id="edge24" class="edge"><title>n_pq__items&#45;&gt;n_pq__remove_response</title>
<a xlink:href="33.html">
<path fill="none" stroke="black" stroke-width="5" d="M320.008,-443.961C321.584,-431.296 324.374,-413.395 333.41,-386.636"/>
<polygon fill="black" stroke="black" points="341.67,-389.527 340.301,-367.739 325.229,-383.532 341.67,-389.527"/>
</a>
</g>
<!-- n_pq__pop_response -->
<g id="node5" class="node"><title>n_pq__pop_response</title>
<a xlink:href="pq__pop_response.html" xlink:title="pq__pop_response N">
<ellipse fill="none" stroke="yellow" cx="216.254" cy="-556" rx="119.252" ry="19.6"/>
<text text-anchor="middle" x="216.254" y="-551.6" font-family="Times,serif" font-size="18.00">pq__pop_response N</text>
</a>
</g>
<!-- n_pq__pop_response&#45;&gt;n_pq__items -->
<g id="edge4" class="edge"><title>n_pq__pop_response&#45;&gt;n_pq__items</title>
<a xlink:href="31.html" xlink:title=" +/&#45;">
<path fill="none" stroke="black" stroke-width="5" d="M236.896,-536.382C247.177,-527.109 260.047,-515.5 272.496,-504.272"/>
<polygon fill="black" stroke="black" points="299.364,-480.038 290.54,-500.117 293.278,-488.221 285.852,-494.919 284.513,-493.434 283.173,-491.949 290.599,-485.251 278.485,-486.751 299.364,-480.038 299.364,-480.038"/>
<ellipse fill="none" stroke="black" cx="278.572" cy="-498.792" rx="8.00001" ry="8.00001"/>
</a>
<a xlink:href="31.html" xlink:title=" +/&#45;">
<text text-anchor="middle" x="292.754" y="-503.6" font-family="Times,serif" font-size="18.00"> +/&#45;</text>
</a>
</g>
<!-- n_pop_response -->
<g id="node29" class="node"><title>n_pop_response</title>
<a xlink:href="pop_response.html" xlink:title="pop_response N">
<ellipse fill="none" stroke="yellow" cx="179.254" cy="-406" rx="94.0678" ry="19.6"/>
<text text-anchor="middle" x="179.254" y="-401.6" font-family="Times,serif" font-size="18.00">pop_response N</text>
</a>
</g>
<!-- n_pq__pop_response&#45;&gt;n_pop_response -->
<g id="edge30" class="edge"><title>n_pq__pop_response&#45;&gt;n_pop_response</title>
<a xlink:href="37.html">
<path fill="none" stroke="black" stroke-width="5" d="M211.493,-535.955C205.804,-513.198 196.144,-474.557 188.878,-445.493"/>
<polygon fill="black" stroke="black" points="197.337,-443.253 183.998,-425.972 180.36,-447.497 197.337,-443.253"/>
</a>
</g>
<!-- n_peek_response -->
<g id="node7" class="node"><title>n_peek_response</title>
<a xlink:href="peek_response.html" xlink:title="peek_response N">
<ellipse fill="none" stroke="yellow" cx="133.254" cy="-114" rx="98.4924" ry="19.6"/>
<text text-anchor="middle" x="133.254" y="-109.6" font-family="Times,serif" font-size="18.00">peek_response N</text>
</a>
</g>
<!-- n_T -->
<g id="node35" class="node"><title>n_T</title>
<a xlink:href="javascript:advanceTo(0)" xlink:title="T ">
<polygon fill="none" stroke="blue" stroke-width="3" points="39.2545,-56 7.25447,-28 39.2545,-1.42109e-14 71.2545,-28 39.2545,-56"/>
<text text-anchor="middle" x="39.2545" y="-23.6" font-family="Times,serif" font-size="18.00">T </text>
</a>
</g>
<!-- n_peek_response&#45;&gt;n_T -->
<g id="edge44" class="edge"><title>n_peek_response&#45;&gt;n_T</title>
<path fill="none" stroke="black" stroke-width="5" d="M112.393,-94.3577C99.8748,-83.1713 83.7295,-68.7437 69.794,-56.2906"/>
<polygon fill="black" stroke="black" points="75.5433,-49.6936 54.7997,-42.8915 63.8825,-62.7427 75.5433,-49.6936"/>
</g>
<!-- n_pq__peek_response -->
<g id="node8" class="node"><title>n_pq__peek_response</title>
<a xlink:href="pq__peek_response.html" xlink:title="pq__peek_response N">
<ellipse fill="none" stroke="yellow" cx="152.254" cy="-192" rx="124.176" ry="19.6"/>
<text text-anchor="middle" x="152.254" y="-187.6" font-family="Times,serif" font-size="18.00">pq__peek_response N</text>
</a>
</g>
<!-- n_pq__peek_response&#45;&gt;n_peek_response -->
<g id="edge6" class="edge"><title>n_pq__peek_response&#45;&gt;n_peek_response</title>
<a xlink:href="38.html">
<path fill="none" stroke="black" stroke-width="5" d="M147.558,-172.213C146.119,-166.459 144.481,-159.906 142.839,-153.34"/>
<polygon fill="black" stroke="black" points="151.302,-151.114 137.963,-133.834 134.325,-155.359 151.302,-151.114"/>
</a>
</g>
<!-- n_pq__lowest_peekr -->
<g id="node10" class="node"><title>n_pq__lowest_peekr</title>
<a xlink:href="pq__lowest_peekr.html" xlink:title="pq__lowest_peekr N">
<ellipse fill="none" stroke="yellow" cx="152.254" cy="-270" rx="118.13" ry="19.6"/>
<text text-anchor="middle" x="152.254" y="-265.6" font-family="Times,serif" font-size="18.00">pq__lowest_peekr N</text>
</a>
</g>
<!-- n_pq__lowest_peekr&#45;&gt;n_pq__peek_response -->
<g id="edge16" class="edge"><title>n_pq__lowest_peekr&#45;&gt;n_pq__peek_response</title>
<a xlink:href="26.html">
<path fill="none" stroke="black" stroke-width="5" d="M152.254,-249.822C152.254,-249.278 152.254,-248.727 152.254,-248.169"/>
<polygon fill="black" stroke="black" points="152.254,-211.909 161.255,-231.909 154.255,-221.909 154.255,-231.909 152.255,-231.909 150.255,-231.909 150.255,-221.909 143.255,-231.909 152.254,-211.909 152.254,-211.909"/>
<ellipse fill="none" stroke="black" cx="152.255" cy="-239.909" rx="8" ry="8"/>
</a>
</g>
<!-- n_pq__lowest&#45;&gt;n_pq__lowest_peekr -->
<g id="edge8" class="edge"><title>n_pq__lowest&#45;&gt;n_pq__lowest_peekr</title>
<a xlink:href="29.html">
<path fill="none" stroke="black" stroke-width="5" d="M121.389,-328.213C124.79,-321.911 128.706,-314.651 132.583,-307.464"/>
<polygon fill="black" stroke="black" points="140.299,-311.59 142.094,-289.834 124.897,-303.281 140.299,-311.59"/>
</a>
</g>
<!-- n_pq__lowest&#45;&gt;n_pq__lowest_popr -->
<g id="edge18" class="edge"><title>n_pq__lowest&#45;&gt;n_pq__lowest_popr</title>
<a xlink:href="28.html">
<path fill="none" stroke="black" stroke-width="5" d="M92.9038,-367.501C88.569,-373.013 84.5448,-379.365 82.2545,-386 54.6907,-465.85 47.8962,-501.256 87.2545,-576 102.627,-605.194 131.452,-627.73 157.961,-643.511"/>
<polygon fill="black" stroke="black" points="154.014,-651.327 175.75,-653.355 162.488,-636.015 154.014,-651.327"/>
</a>
</g>
<!-- n_pq__remove_response&#45;&gt;n_pq__items -->
<g id="edge26" class="edge"><title>n_pq__remove_response&#45;&gt;n_pq__items</title>
<a xlink:href="30.html" xlink:title=" +/&#45;">
<path fill="none" stroke="black" stroke-width="5" d="M345.968,-368.027C343.133,-378.148 339.432,-391.232 334.059,-409.445"/>
<polygon fill="black" stroke="black" points="323.715,-443.938 320.84,-422.195 324.672,-433.785 327.545,-424.206 329.46,-424.781 331.376,-425.355 328.504,-434.934 338.081,-427.366 323.715,-443.938 323.715,-443.938"/>
<ellipse fill="none" stroke="black" cx="331.758" cy="-417.118" rx="8.00001" ry="8.00001"/>
</a>
<a xlink:href="30.html" xlink:title=" +/&#45;">
<text text-anchor="middle" x="353.754" y="-401.6" font-family="Times,serif" font-size="18.00"> +/&#45;</text>
</a>
</g>
<!-- n_pq__remove -->
<g id="node14" class="node"><title>n_pq__remove</title>
<ellipse fill="none" stroke="green" cx="611.254" cy="-614" rx="78.2333" ry="19.6"/>
<text text-anchor="middle" x="611.254" y="-609.6" font-family="Times,serif" font-size="18.00">pq__remove </text>
</g>
<!-- n_pq__remove&#45;&gt;n_pq__remove_response -->
<g id="edge10" class="edge"><title>n_pq__remove&#45;&gt;n_pq__remove_response</title>
<a xlink:href="33.html">
<path fill="none" stroke="black" stroke-width="5" d="M600.656,-594.314C586.694,-570.548 560.572,-528.889 532.254,-498 490.038,-451.949 433.377,-407.556 394.769,-379.388"/>
<polygon fill="black" stroke="black" points="399.766,-372.203 378.418,-367.639 389.555,-386.415 399.766,-372.203"/>
</a>
</g>
<!-- n_pq__push -->
<g id="node16" class="node"><title>n_pq__push</title>
<a xlink:href="pq__push.html" xlink:title="pq__push M">
<ellipse fill="none" stroke="black" cx="363.254" cy="-730" rx="75.4903" ry="19.6"/>
<text text-anchor="middle" x="363.254" y="-725.6" font-family="Times,serif" font-size="18.00">pq__push M</text>
</a>
</g>
<!-- n_pq__push&#45;&gt;n_pq__items -->
<g id="edge12" class="edge"><title>n_pq__push&#45;&gt;n_pq__items</title>
<a xlink:href="32.html">
<path fill="none" stroke="black" stroke-width="5" d="M362.918,-710.128C361.962,-675.303 358.297,-598.756 344.254,-536 341.5,-523.692 337.276,-510.608 333.029,-498.968"/>
<polygon fill="black" stroke="black" points="341.076,-495.52 325.669,-480.053 324.767,-501.865 341.076,-495.52"/>
</a>
</g>
<!-- n_pq__peek -->
<g id="node18" class="node"><title>n_pq__peek</title>
<a xlink:href="pq__peek.html" xlink:title="pq__peek M">
<ellipse fill="none" stroke="black" cx="519.254" cy="-730" rx="75.4903" ry="19.6"/>
<text text-anchor="middle" x="519.254" y="-725.6" font-family="Times,serif" font-size="18.00">pq__peek M</text>
</a>
</g>
<!-- n_pq__peek&#45;&gt;n_pq__lowest_peekr -->
<g id="edge28" class="edge"><title>n_pq__peek&#45;&gt;n_pq__lowest_peekr</title>
<a xlink:href="29.html">
<path fill="none" stroke="black" stroke-width="5" d="M518.986,-710.04C518.69,-687.417 518.254,-648.449 518.254,-615 518.254,-615 518.254,-615 518.254,-347 518.254,-298.391 392.926,-280.647 288.947,-274.29"/>
<polygon fill="black" stroke="black" points="289.265,-265.544 268.814,-273.181 288.302,-283.018 289.265,-265.544"/>
</a>
</g>
<!-- n_peek -->
<g id="node19" class="node"><title>n_peek</title>
<ellipse fill="none" stroke="green" cx="460.254" cy="-846" rx="39.3965" ry="19.6"/>
<text text-anchor="middle" x="460.254" y="-841.6" font-family="Times,serif" font-size="18.00">peek </text>
</g>
<!-- n_peek&#45;&gt;n_pq__peek -->
<g id="edge14" class="edge"><title>n_peek&#45;&gt;n_pq__peek</title>
<a xlink:href="36.html">
<path fill="none" stroke="black" stroke-width="5" d="M469.734,-826.684C477.943,-810.823 490.067,-787.396 500.264,-767.693"/>
<polygon fill="black" stroke="black" points="508.181,-771.433 509.603,-749.649 492.639,-763.39 508.181,-771.433"/>
</a>
</g>
<!-- n_pq__lowest_popr&#45;&gt;n_pq__pop_response -->
<g id="edge34" class="edge"><title>n_pq__lowest_popr&#45;&gt;n_pq__pop_response</title>
<a xlink:href="25.html">
<path fill="none" stroke="black" stroke-width="5" d="M216.254,-652.175C216.254,-641.119 216.254,-626.516 216.254,-612.078"/>
<polygon fill="black" stroke="black" points="216.254,-575.853 225.255,-595.853 218.255,-585.853 218.255,-595.853 216.255,-595.853 214.255,-595.853 214.255,-585.853 207.255,-595.853 216.254,-575.853 216.254,-575.853"/>
<ellipse fill="none" stroke="black" cx="216.255" cy="-603.853" rx="8" ry="8"/>
</a>
</g>
<!-- n_pop_response&#45;&gt;n_T -->
<g id="edge46" class="edge"><title>n_pop_response&#45;&gt;n_T</title>
<path fill="none" stroke="black" stroke-width="5" d="M102.453,-394.542C67.8238,-388.395 31.8785,-379.544 19.2545,-368 -0.763425,-349.695 0.254475,-337.126 0.254475,-310 0.254475,-310 0.254475,-310 0.254475,-113 0.254475,-95.2245 7.5279,-77.136 15.7926,-62.3199"/>
<polygon fill="black" stroke="black" points="23.4297,-66.6135 26.7,-45.0295 8.62858,-57.2765 23.4297,-66.6135"/>
</g>
<!-- n_push -->
<g id="node31" class="node"><title>n_push</title>
<ellipse fill="none" stroke="green" cx="381.254" cy="-904" rx="38.3379" ry="19.6"/>
<text text-anchor="middle" x="381.254" y="-899.6" font-family="Times,serif" font-size="18.00">push </text>
</g>
<!-- n_push&#45;&gt;n_pq__push -->
<g id="edge32" class="edge"><title>n_push&#45;&gt;n_pq__push</title>
<a xlink:href="34.html">
<path fill="none" stroke="black" stroke-width="5" d="M379.259,-883.936C376.393,-856.549 371.047,-805.46 367.326,-769.903"/>
<polygon fill="black" stroke="black" points="376.015,-768.868 365.231,-749.887 358.61,-770.69 376.015,-768.868"/>
</a>
</g>
<!-- n_S -->
<g id="node34" class="node"><title>n_S</title>
<a xlink:href="javascript:advanceTo(-2)" xlink:title="S ">
<polygon fill="none" stroke="blue" stroke-width="3" points="428.254,-1018 397.254,-990 428.254,-962 459.254,-990 428.254,-1018"/>
<text text-anchor="middle" x="428.254" y="-985.6" font-family="Times,serif" font-size="18.00">S </text>
</a>
</g>
<!-- n_S&#45;&gt;n_pop -->
<g id="edge36" class="edge"><title>n_S&#45;&gt;n_pop</title>
<path fill="none" stroke="black" stroke-width="5" d="M409.934,-978.531C388.089,-966.048 350.92,-944.809 322.129,-928.357"/>
<polygon fill="black" stroke="black" points="326.371,-920.703 304.665,-918.378 317.689,-935.897 326.371,-920.703"/>
</g>
<!-- n_S&#45;&gt;n_pq__remove -->
<g id="edge42" class="edge"><title>n_S&#45;&gt;n_pq__remove</title>
<path fill="none" stroke="black" stroke-width="5" d="M457.496,-988.359C508.943,-985.513 610.254,-971.468 610.254,-905 610.254,-905 610.254,-905 610.254,-729 610.254,-704.044 610.497,-676.016 610.743,-653.996"/>
<polygon fill="black" stroke="black" points="619.493,-654.065 610.986,-633.96 601.994,-653.853 619.493,-654.065"/>
</g>
<!-- n_S&#45;&gt;n_peek -->
<g id="edge40" class="edge"><title>n_S&#45;&gt;n_peek</title>
<path fill="none" stroke="black" stroke-width="5" d="M433.325,-966.5C438.226,-944.749 445.749,-911.367 451.599,-885.408"/>
<polygon fill="black" stroke="black" points="460.164,-887.202 456.025,-865.767 443.092,-883.354 460.164,-887.202"/>
</g>
<!-- n_S&#45;&gt;n_push -->
<g id="edge38" class="edge"><title>n_S&#45;&gt;n_push</title>
<path fill="none" stroke="black" stroke-width="5" d="M418.056,-970.773C413.129,-961.967 407.039,-951.082 401.24,-940.719"/>
<polygon fill="black" stroke="black" points="408.835,-936.372 391.433,-923.191 393.563,-944.917 408.835,-936.372"/>
</g>
</g>
</svg>
