<?xml version="1.0" encoding="UTF-8" standalone="no"?>
<!DOCTYPE svg PUBLIC "-//W3C//DTD SVG 1.1//EN"
 "http://www.w3.org/Graphics/SVG/1.1/DTD/svg11.dtd">
<!-- Generated by graphviz version 2.28.0 (20110517.1826)
 -->
<!-- Title: G Pages: 1 -->
<svg width="868pt" height="356pt"
 viewBox="0.00 0.00 868.00 356.00" xmlns="http://www.w3.org/2000/svg" xmlns:xlink="http://www.w3.org/1999/xlink">
<g id="graph1" class="graph" transform="scale(1 1) rotate(0) translate(4 352)">
<script type='text/javascript'>
  <![CDATA[

var windows = new Array()
var info = new Array()

function openWin(target, time) {
  win = window.open(target + "_" + time + ".html", target, "location=no,width=400,height=180,left=0,status=no");
  // hm, an associative array, how strange.
  info[target] = 1
}

function advanceTo(time) {
  arr = gup("wins").split(",");
  for (i=0; i < arr.length; i++) {
    if (arr[i] != "") {
      openWin(arr[i], time);
    }
  }
  str = '';
  // getting 'key_cols'
  for (var i in info) {
    str = str + ',' + i;
  }
  self.window.location.href = 'tm_' + time + '.svg?wins=' + str;
}

// off the netz
function gup(name) {
  name = name.replace(/[[]/,"\[").replace(/[]]/,"\]");
  var regexS = "[\?&]"+name+"=([^&#]*)";
  var regex = new RegExp(regexS);
  var results = regex.exec(window.location.href);
  if (results == null)
    return "";
  else
    return results[1];
}

  ]]>
</script>

<polygon fill="white" stroke="white" points="-4,5 -4,-352 865,-352 865,5 -4,5"/>
<!-- n_ballot_summary, completed_ballots, grouped_vote_counts, ongoing_ballots, pre_ballots, required, result, votes, winning_vote -->
<g id="node1" class="node"><title>n_ballot_summary, completed_ballots, grouped_vote_counts, ongoing_ballots, pre_ballots, required, result, votes, winning_vote</title>
<a xlink:href="MajorityVoteCounter_viz_expanded.svg" xlink:title="ballot_summary, completed_ballots, grouped_vote_counts, ongoing_ballots,\npre_ballots, required, result, votes,\nwinning_vote">
<polygon fill="none" stroke="red" stroke-width="3" points="860.352,-30.4236 860.352,-73.5764 608.258,-104.09 251.742,-104.09 -0.352443,-73.5764 -0.352443,-30.4236 251.742,0.0899325 608.258,0.0899325 860.352,-30.4236"/>
<text text-anchor="middle" x="430" y="-67.6" font-family="Times,serif" font-size="18.00">ballot_summary, completed_ballots, grouped_vote_counts, ongoing_ballots,</text>
<text text-anchor="middle" x="430" y="-47.6" font-family="Times,serif" font-size="18.00">pre_ballots, required, result, votes,</text>
<text text-anchor="middle" x="430" y="-27.6" font-family="Times,serif" font-size="18.00">winning_vote</text>
</a>
</g>
<!-- n_num_required -->
<g id="node2" class="node"><title>n_num_required</title>
<a xlink:href="num_required.html" xlink:title="num_required M">
<ellipse fill="none" stroke="black" cx="555" cy="-160" rx="96.3112" ry="19.6"/>
<text text-anchor="middle" x="555" y="-155.6" font-family="Times,serif" font-size="18.00">num_required M</text>
</a>
</g>
<!-- n_num_required&#45;&gt;n_ballot_summary, completed_ballots, grouped_vote_counts, ongoing_ballots, pre_ballots, required, result, votes, winning_vote -->
<g id="edge2" class="edge"><title>n_num_required&#45;&gt;n_ballot_summary, completed_ballots, grouped_vote_counts, ongoing_ballots, pre_ballots, required, result, votes, winning_vote</title>
<a xlink:href="34.html">
<path fill="none" stroke="black" stroke-width="5" d="M533.227,-140.536C525.284,-133.801 515.786,-125.747 505.815,-117.291"/>
<polygon fill="black" stroke="black" points="511.371,-110.53 490.458,-104.268 500.052,-123.877 511.371,-110.53"/>
</a>
</g>
<!-- n_cast_vote -->
<g id="node4" class="node"><title>n_cast_vote</title>
<ellipse fill="none" stroke="green" cx="338" cy="-160" rx="63.459" ry="19.6"/>
<text text-anchor="middle" x="338" y="-155.6" font-family="Times,serif" font-size="18.00">cast_vote </text>
</g>
<!-- n_cast_vote&#45;&gt;n_ballot_summary, completed_ballots, grouped_vote_counts, ongoing_ballots, pre_ballots, required, result, votes, winning_vote -->
<g id="edge4" class="edge"><title>n_cast_vote&#45;&gt;n_ballot_summary, completed_ballots, grouped_vote_counts, ongoing_ballots, pre_ballots, required, result, votes, winning_vote</title>
<a xlink:href="25.html">
<path fill="none" stroke="black" stroke-width="5" d="M354.025,-140.536C359.29,-134.47 365.483,-127.335 372.022,-119.8"/>
<polygon fill="black" stroke="black" points="378.804,-125.336 385.305,-104.496 365.588,-113.865 378.804,-125.336"/>
</a>
</g>
<!-- n_begin_vote -->
<g id="node6" class="node"><title>n_begin_vote</title>
<ellipse fill="none" stroke="green" cx="437" cy="-236" rx="71.127" ry="19.6"/>
<text text-anchor="middle" x="437" y="-231.6" font-family="Times,serif" font-size="18.00">begin_vote </text>
</g>
<!-- n_begin_vote&#45;&gt;n_ballot_summary, completed_ballots, grouped_vote_counts, ongoing_ballots, pre_ballots, required, result, votes, winning_vote -->
<g id="edge8" class="edge"><title>n_begin_vote&#45;&gt;n_ballot_summary, completed_ballots, grouped_vote_counts, ongoing_ballots, pre_ballots, required, result, votes, winning_vote</title>
<a xlink:href="35.html">
<path fill="none" stroke="black" stroke-width="5" d="M436.264,-215.867C435.427,-194.1 434.01,-157.272 432.736,-124.137"/>
<polygon fill="black" stroke="black" points="441.48,-123.8 431.967,-104.151 423.993,-124.473 441.48,-123.8"/>
</a>
</g>
<!-- n_begin_vote&#45;&gt;n_num_required -->
<g id="edge6" class="edge"><title>n_begin_vote&#45;&gt;n_num_required</title>
<a xlink:href="39.html">
<path fill="none" stroke="black" stroke-width="5" d="M464.666,-217.65C477.838,-209.389 493.947,-199.288 508.894,-189.914"/>
<polygon fill="black" stroke="black" points="513.98,-197.052 526.275,-179.014 504.683,-182.227 513.98,-197.052"/>
</a>
</g>
<!-- n_S -->
<g id="node9" class="node"><title>n_S</title>
<a xlink:href="javascript:advanceTo(-2)" xlink:title="S ">
<polygon fill="none" stroke="blue" stroke-width="3" points="387,-348 356,-320 387,-292 418,-320 387,-348"/>
<text text-anchor="middle" x="387" y="-315.6" font-family="Times,serif" font-size="18.00">S </text>
</a>
</g>
<!-- n_S&#45;&gt;n_cast_vote -->
<g id="edge12" class="edge"><title>n_S&#45;&gt;n_cast_vote</title>
<path fill="none" stroke="black" stroke-width="5" d="M376.973,-301.026C370.459,-288.685 362.235,-271.749 357,-256 350.994,-237.932 346.585,-217.267 343.534,-199.834"/>
<polygon fill="black" stroke="black" points="352.151,-198.306 340.379,-179.921 334.867,-201.044 352.151,-198.306"/>
</g>
<!-- n_S&#45;&gt;n_begin_vote -->
<g id="edge10" class="edge"><title>n_S&#45;&gt;n_begin_vote</title>
<path fill="none" stroke="black" stroke-width="5" d="M397.849,-301.207C402.919,-292.893 409.147,-282.68 415.131,-272.865"/>
<polygon fill="black" stroke="black" points="422.71,-277.243 425.651,-255.612 407.768,-268.132 422.71,-277.243"/>
</g>
<!-- n_T -->
<g id="node10" class="node"><title>n_T</title>
<a xlink:href="javascript:advanceTo(0)" xlink:title="T ">
<polygon fill="none" stroke="blue" stroke-width="3" points="468,-348 436,-320 468,-292 500,-320 468,-348"/>
<text text-anchor="middle" x="468" y="-315.6" font-family="Times,serif" font-size="18.00">T </text>
</a>
</g>
</g>
</svg>
