<?xml version="1.0" encoding="UTF-8" standalone="no"?>
<!DOCTYPE svg PUBLIC "-//W3C//DTD SVG 1.1//EN"
 "http://www.w3.org/Graphics/SVG/1.1/DTD/svg11.dtd">
<!-- Generated by graphviz version 2.28.0 (20110517.1826)
 -->
<!-- Title: G Pages: 1 -->
<svg width="295pt" height="400pt"
 viewBox="0.00 0.00 295.00 400.00" xmlns="http://www.w3.org/2000/svg" xmlns:xlink="http://www.w3.org/1999/xlink">
<g id="graph1" class="graph" transform="scale(1 1) rotate(0) translate(4 396)">
<script type='text/javascript'>
  <![CDATA[

var windows = new Array()
var info = new Array()

function openWin(target, time) {
  win = window.open(target + "_" + time + ".html", target, "location=no,width=400,height=180,left=0,status=no");
  // hm, an associative array, how strange.
  info[target] = 1
}

function advanceTo(time) {
  arr = gup("wins").split(",");
  for (i=0; i < arr.length; i++) {
    if (arr[i] != "") {
      openWin(arr[i], time);
    }
  }
  str = '';
  // getting 'key_cols'
  for (var i in info) {
    str = str + ',' + i;
  }
  self.window.location.href = 'tm_' + time + '.svg?wins=' + str;
}

// off the netz
function gup(name) {
  name = name.replace(/[[]/,"\[").replace(/[]]/,"\]");
  var regexS = "[\?&]"+name+"=([^&#]*)";
  var regex = new RegExp(regexS);
  var results = regex.exec(window.location.href);
  if (results == null)
    return "";
  else
    return results[1];
}

  ]]>
</script>

<polygon fill="white" stroke="white" points="-4,5 -4,-396 292,-396 292,5 -4,5"/>
<!-- n_S -->
<g id="node1" class="node"><title>n_S</title>
<a xlink:href="javascript:advanceTo(-2)" xlink:title="S ">
<polygon fill="none" stroke="blue" stroke-width="3" points="147,-392 116,-364 147,-336 178,-364 147,-392"/>
<text text-anchor="middle" x="147" y="-359.6" font-family="Times,serif" font-size="18.00">S </text>
</a>
</g>
<!-- n_begin_vote -->
<g id="node3" class="node"><title>n_begin_vote</title>
<ellipse fill="none" stroke="green" cx="71" cy="-280" rx="71.127" ry="19.6"/>
<text text-anchor="middle" x="71" y="-275.6" font-family="Times,serif" font-size="18.00">begin_vote </text>
</g>
<!-- n_S&#45;&gt;n_begin_vote -->
<g id="edge2" class="edge"><title>n_S&#45;&gt;n_begin_vote</title>
<path fill="none" stroke="black" stroke-width="5" d="M133.06,-347.96C124.34,-338.551 112.748,-326.043 101.944,-314.387"/>
<polygon fill="black" stroke="black" points="108.057,-308.11 88.044,-299.39 95.2218,-320.006 108.057,-308.11"/>
</g>
<!-- n_cast_vote -->
<g id="node5" class="node"><title>n_cast_vote</title>
<ellipse fill="none" stroke="green" cx="224" cy="-280" rx="63.459" ry="19.6"/>
<text text-anchor="middle" x="224" y="-275.6" font-family="Times,serif" font-size="18.00">cast_vote </text>
</g>
<!-- n_S&#45;&gt;n_cast_vote -->
<g id="edge4" class="edge"><title>n_S&#45;&gt;n_cast_vote</title>
<path fill="none" stroke="black" stroke-width="5" d="M160.766,-348.34C169.729,-338.795 181.794,-325.947 192.982,-314.032"/>
<polygon fill="black" stroke="black" points="199.538,-319.833 206.85,-299.264 186.781,-307.854 199.538,-319.833"/>
</g>
<!-- n_T -->
<g id="node2" class="node"><title>n_T</title>
<a xlink:href="javascript:advanceTo(0)" xlink:title="T ">
<polygon fill="none" stroke="blue" stroke-width="3" points="147,-56 115,-28 147,-1.42109e-14 179,-28 147,-56"/>
<text text-anchor="middle" x="147" y="-23.6" font-family="Times,serif" font-size="18.00">T </text>
</a>
</g>
<!-- n_?? -->
<g id="node9" class="node"><title>n_??</title>
<polygon fill="none" stroke="red" stroke-width="2" points="147,-224 111,-196 147,-168 183,-196 147,-224"/>
<text text-anchor="middle" x="147" y="-191.6" font-family="Times,serif" font-size="18.00">?? </text>
</g>
<!-- n_begin_vote&#45;&gt;n_?? -->
<g id="edge8" class="edge"><title>n_begin_vote&#45;&gt;n_??</title>
<path fill="none" stroke="black" stroke-width="5" d="M88.2456,-260.393C97.1908,-250.742 108.349,-238.702 118.532,-227.716"/>
<polygon fill="black" stroke="black" points="125.202,-233.391 132.38,-212.774 112.367,-221.495 125.202,-233.391"/>
</g>
<!-- n_result -->
<g id="node4" class="node"><title>n_result</title>
<ellipse fill="none" stroke="green" cx="147" cy="-112" rx="43.2005" ry="19.6"/>
<text text-anchor="middle" x="147" y="-107.6" font-family="Times,serif" font-size="18.00">result </text>
</g>
<!-- n_result&#45;&gt;n_T -->
<g id="edge6" class="edge"><title>n_result&#45;&gt;n_T</title>
<path fill="none" stroke="black" stroke-width="5" d="M147,-91.9814C147,-87.2621 147,-81.9911 147,-76.5625"/>
<polygon fill="black" stroke="black" points="155.75,-76.3048 147,-56.3048 138.25,-76.3049 155.75,-76.3048"/>
</g>
<!-- n_cast_vote&#45;&gt;n_?? -->
<g id="edge10" class="edge"><title>n_cast_vote&#45;&gt;n_??</title>
<path fill="none" stroke="black" stroke-width="5" d="M206.911,-260.802C197.696,-250.988 186.082,-238.619 175.538,-227.391"/>
<polygon fill="black" stroke="black" points="181.776,-221.252 161.707,-212.662 169.019,-233.231 181.776,-221.252"/>
</g>
<!-- n_??&#45;&gt;n_result -->
<g id="edge12" class="edge"><title>n_??&#45;&gt;n_result</title>
<path fill="none" stroke="black" stroke-width="5" d="M147,-167.695C147,-162.65 147,-157.293 147,-151.981"/>
<polygon fill="black" stroke="black" points="155.75,-151.906 147,-131.906 138.25,-151.906 155.75,-151.906"/>
</g>
</g>
</svg>
