<?xml version="1.0" encoding="UTF-8" standalone="no"?>
<!DOCTYPE svg PUBLIC "-//W3C//DTD SVG 1.1//EN"
 "http://www.w3.org/Graphics/SVG/1.1/DTD/svg11.dtd">
<!-- Generated by graphviz version 2.28.0 (20110517.1826)
 -->
<!-- Title: G Pages: 1 -->
<svg width="722pt" height="1278pt"
 viewBox="0.00 0.00 722.00 1278.00" xmlns="http://www.w3.org/2000/svg" xmlns:xlink="http://www.w3.org/1999/xlink">
<g id="graph1" class="graph" transform="scale(1 1) rotate(0) translate(4 1274)">
<script type='text/javascript'>
  <![CDATA[

var windows = new Array()
var info = new Array()

function openWin(target, time) {
  win = window.open(target + "_" + time + ".html", target, "location=no,width=400,height=180,left=0,status=no");
  // hm, an associative array, how strange.
  info[target] = 1
}

function advanceTo(time) {
  arr = gup("wins").split(",");
  for (i=0; i < arr.length; i++) {
    if (arr[i] != "") {
      openWin(arr[i], time);
    }
  }
  str = '';
  // getting 'key_cols'
  for (var i in info) {
    str = str + ',' + i;
  }
  self.window.location.href = 'tm_' + time + '.svg?wins=' + str;
}

// off the netz
function gup(name) {
  name = name.replace(/[[]/,"\[").replace(/[]]/,"\]");
  var regexS = "[\?&]"+name+"=([^&#]*)";
  var regex = new RegExp(regexS);
  var results = regex.exec(window.location.href);
  if (results == null)
    return "";
  else
    return results[1];
}

  ]]>
</script>

<polygon fill="white" stroke="white" points="-4,5 -4,-1274 719,-1274 719,5 -4,5"/>
<!-- n_unacked_count -->
<g id="node1" class="node"><title>n_unacked_count</title>
<a xlink:href="unacked_count.html" xlink:title="unacked_count D">
<polygon fill="none" stroke="red" points="206,-208 62,-208 62,-172 206,-172 206,-208"/>
<text text-anchor="middle" x="134" y="-185.6" font-family="Times,serif" font-size="18.00">unacked_count D</text>
</a>
</g>
<!-- n_unacked_count&#45;&gt;n_unacked_count -->
<g id="edge16" class="edge"><title>n_unacked_count&#45;&gt;n_unacked_count</title>
<a xlink:href="39.html" xlink:title=" +/&#45;">
<path fill="none" stroke="red" stroke-width="5" d="M206.026,-196.123C206.194,-196.108 206.36,-196.093 206.526,-196.078"/>
<polygon fill="red" stroke="red" points="206.026,-183.877 215.838,-203.491 208.434,-193.786 208.843,-203.778 206.845,-203.86 204.847,-203.942 204.437,-193.95 197.853,-204.228 206.026,-183.877 206.026,-183.877"/>
<ellipse fill="none" stroke="red" cx="207.173" cy="-211.853" rx="8" ry="8"/>
</a>
<a xlink:href="39.html" xlink:title=" +/&#45;">
<text text-anchor="middle" x="236.5" y="-185.6" font-family="Times,serif" font-size="18.00"> +/&#45;</text>
</a>
</g>
<!-- n_mcast_done -->
<g id="node38" class="node"><title>n_mcast_done</title>
<a xlink:href="mcast_done.html" xlink:title="mcast_done D">
<ellipse fill="none" stroke="red" cx="242" cy="-114" rx="84.2802" ry="19.6"/>
<text text-anchor="middle" x="242" y="-109.6" font-family="Times,serif" font-size="18.00">mcast_done D</text>
</a>
</g>
<!-- n_unacked_count&#45;&gt;n_mcast_done -->
<g id="edge42" class="edge"><title>n_unacked_count&#45;&gt;n_mcast_done</title>
<a xlink:href="38.html">
<path fill="none" stroke="red" stroke-width="5" d="M159.049,-171.837C171.054,-163.611 185.769,-153.529 199.455,-144.151"/>
<polygon fill="red" stroke="red" points="204.407,-151.365 215.959,-132.843 194.515,-136.929 204.407,-151.365"/>
</a>
</g>
<!-- n_acked_count -->
<g id="node2" class="node"><title>n_acked_count</title>
<a xlink:href="acked_count.html" xlink:title="acked_count D">
<ellipse fill="none" stroke="red" cx="237" cy="-284" rx="89.1432" ry="19.6"/>
<text text-anchor="middle" x="237" y="-279.6" font-family="Times,serif" font-size="18.00">acked_count D</text>
</a>
</g>
<!-- n_acked_count&#45;&gt;n_unacked_count -->
<g id="edge2" class="edge"><title>n_acked_count&#45;&gt;n_unacked_count</title>
<a xlink:href="37.html" xlink:title=" +/&#45;">
<path fill="none" stroke="red" stroke-width="5" d="M216.156,-264.382C205.702,-255.044 192.597,-243.339 179.945,-232.038"/>
<polygon fill="red" stroke="red" points="153.076,-208.038 173.987,-214.649 161.866,-213.208 169.324,-219.87 167.992,-221.362 166.66,-222.853 159.201,-216.192 161.996,-228.074 153.076,-208.038 153.076,-208.038"/>
<ellipse fill="none" stroke="red" cx="173.958" cy="-226.691" rx="8.00001" ry="8.00001"/>
</a>
<a xlink:href="37.html" xlink:title=" +/&#45;">
<text text-anchor="middle" x="207.5" y="-231.6" font-family="Times,serif" font-size="18.00"> +/&#45;</text>
</a>
</g>
<!-- n_pipe_sent -->
<g id="node4" class="node"><title>n_pipe_sent</title>
<a xlink:href="pipe_sent.html" xlink:title="pipe_sent A">
<ellipse fill="none" stroke="yellow" cx="240" cy="-362" rx="72.2493" ry="19.6"/>
<text text-anchor="middle" x="240" y="-357.6" font-family="Times,serif" font-size="18.00">pipe_sent A</text>
</a>
</g>
<!-- n_pipe_sent&#45;&gt;n_acked_count -->
<g id="edge44" class="edge"><title>n_pipe_sent&#45;&gt;n_acked_count</title>
<a xlink:href="36.html">
<path fill="none" stroke="yellow" stroke-width="5" d="M239.243,-341.822C239.218,-341.187 239.192,-340.543 239.167,-339.89"/>
<polygon fill="yellow" stroke="yellow" points="237.746,-303.909 247.528,-323.538 240.139,-313.822 240.534,-323.814 238.535,-323.893 236.537,-323.972 236.142,-313.98 229.542,-324.248 237.746,-303.909 237.746,-303.909"/>
<ellipse fill="none" stroke="yellow" cx="238.851" cy="-331.887" rx="8" ry="8"/>
</a>
</g>
<!-- n_msg_acked -->
<g id="node5" class="node"><title>n_msg_acked</title>
<a xlink:href="msg_acked.html" xlink:title="msg_acked A">
<ellipse fill="none" stroke="yellow" cx="326" cy="-458" rx="80.9767" ry="19.6"/>
<text text-anchor="middle" x="326" y="-453.6" font-family="Times,serif" font-size="18.00">msg_acked A</text>
</a>
</g>
<!-- n_msg_acked&#45;&gt;n_pipe_sent -->
<g id="edge4" class="edge"><title>n_msg_acked&#45;&gt;n_pipe_sent</title>
<a xlink:href="34.html">
<path fill="none" stroke="yellow" stroke-width="5" d="M309.009,-438.429C298.055,-426.455 283.493,-410.539 270.57,-396.414"/>
<polygon fill="yellow" stroke="yellow" points="276.912,-390.383 256.956,-381.533 264,-402.195 276.912,-390.383"/>
</a>
</g>
<!-- END_COORD_buf -->
<g id="node8" class="node"><title>END_COORD_buf</title>
<a xlink:href="buf.html" xlink:title="buf D">
<polygon fill="none" stroke="red" points="387,-380 331,-380 331,-344 387,-344 387,-380"/>
<text text-anchor="middle" x="359" y="-357.6" font-family="Times,serif" font-size="18.00">buf D</text>
</a>
</g>
<!-- n_msg_acked&#45;&gt;END_COORD_buf -->
<g id="edge26" class="edge"><title>n_msg_acked&#45;&gt;END_COORD_buf</title>
<a xlink:href="35.html" xlink:title=" +/&#45;">
<path fill="none" stroke="yellow" stroke-width="5" d="M332.678,-437.978C335.142,-430.958 338.066,-422.63 341.054,-414.12"/>
<polygon fill="yellow" stroke="yellow" points="352.998,-380.098 354.865,-401.95 351.572,-390.196 348.26,-399.631 346.373,-398.969 344.486,-398.306 347.798,-388.871 337.881,-395.987 352.998,-380.098 352.998,-380.098"/>
<ellipse fill="none" stroke="yellow" cx="343.723" cy="-406.517" rx="8.00001" ry="8.00001"/>
</a>
<a xlink:href="35.html" xlink:title=" +/&#45;">
<text text-anchor="middle" x="358.5" y="-405.6" font-family="Times,serif" font-size="18.00"> +/&#45;</text>
</a>
</g>
<!-- n_bed__pipe_in -->
<g id="node7" class="node"><title>n_bed__pipe_in</title>
<a xlink:href="bed__pipe_in.html" xlink:title="bed__pipe_in M">
<ellipse fill="none" stroke="black" cx="352" cy="-846" rx="94.1301" ry="19.6"/>
<text text-anchor="middle" x="352" y="-841.6" font-family="Times,serif" font-size="18.00">bed__pipe_in M</text>
</a>
</g>
<!-- COORD_bed__pipe_chan -->
<g id="node16" class="node"><title>COORD_bed__pipe_chan</title>
<a xlink:href="bed__pipe_chan.html" xlink:title="bed__pipe_chan A">
<ellipse fill="none" stroke="yellow" cx="352" cy="-768" rx="107.22" ry="19.6"/>
<text text-anchor="middle" x="352" y="-763.6" font-family="Times,serif" font-size="18.00">bed__pipe_chan A</text>
</a>
</g>
<!-- n_bed__pipe_in&#45;&gt;COORD_bed__pipe_chan -->
<g id="edge46" class="edge"><title>n_bed__pipe_in&#45;&gt;COORD_bed__pipe_chan</title>
<a xlink:href="27.html">
<path fill="none" stroke="black" stroke-width="5" stroke-dasharray="5,2" d="M352,-825.822C352,-820.38 352,-814.25 352,-808.081"/>
<polygon fill="black" stroke="black" points="360.75,-807.909 352,-787.909 343.25,-807.909 360.75,-807.909"/>
</a>
</g>
<!-- n_bed__pipe_sent -->
<g id="node26" class="node"><title>n_bed__pipe_sent</title>
<a xlink:href="bed__pipe_sent.html" xlink:title="bed__pipe_sent M">
<ellipse fill="none" stroke="black" cx="608" cy="-710" rx="106.099" ry="19.6"/>
<text text-anchor="middle" x="608" y="-705.6" font-family="Times,serif" font-size="18.00">bed__pipe_sent M</text>
</a>
</g>
<!-- n_bed__pipe_in&#45;&gt;n_bed__pipe_sent -->
<g id="edge28" class="edge"><title>n_bed__pipe_in&#45;&gt;n_bed__pipe_sent</title>
<a xlink:href="25.html">
<path fill="none" stroke="black" stroke-width="5" d="M427.016,-833.903C451.547,-828.339 478.305,-820.103 501,-808 530.971,-792.017 559.185,-765.787 579.109,-744.631"/>
<polygon fill="black" stroke="black" points="585.692,-750.397 592.621,-729.695 572.715,-738.657 585.692,-750.397"/>
</a>
</g>
<!-- END_COORD_buf&#45;&gt;n_msg_acked -->
<g id="edge10" class="edge"><title>END_COORD_buf&#45;&gt;n_msg_acked</title>
<a xlink:href="33.html">
<path fill="none" stroke="red" stroke-width="5" d="M349.052,-380.31C345.842,-386.395 342.477,-393.371 340,-400 337.79,-405.914 335.83,-412.303 334.128,-418.592"/>
<polygon fill="red" stroke="red" points="325.583,-416.704 329.466,-438.186 342.608,-420.755 325.583,-416.704"/>
</a>
</g>
<!-- END_COORD_buf&#45;&gt;n_bed__pipe_in -->
<g id="edge6" class="edge"><title>END_COORD_buf&#45;&gt;n_bed__pipe_in</title>
<a xlink:href="30.html">
<path fill="none" stroke="red" stroke-width="5" d="M387.09,-370.098C424.769,-381.502 487,-407.786 487,-457 487,-769 487,-769 487,-769 487,-796.403 465.618,-814.031 439.872,-825.326"/>
<polygon fill="red" stroke="red" points="436.768,-817.145 421.082,-832.327 442.878,-833.543 436.768,-817.145"/>
</a>
</g>
<!-- n_pipe_in -->
<g id="node10" class="node"><title>n_pipe_in</title>
<a xlink:href="pipe_in.html" xlink:title="pipe_in M">
<ellipse fill="none" stroke="black" cx="228" cy="-962" rx="63.459" ry="19.6"/>
<text text-anchor="middle" x="228" y="-957.6" font-family="Times,serif" font-size="18.00">pipe_in M</text>
</a>
</g>
<!-- n_pipe_in&#45;&gt;n_bed__pipe_in -->
<g id="edge20" class="edge"><title>n_pipe_in&#45;&gt;n_bed__pipe_in</title>
<a xlink:href="29.html">
<path fill="none" stroke="black" stroke-width="5" d="M247.648,-942.936C266.312,-925.777 294.785,-899.601 317.276,-878.924"/>
<polygon fill="black" stroke="black" points="323.232,-885.334 332.033,-865.357 311.388,-872.451 323.232,-885.334"/>
</a>
</g>
<!-- n_pipe_in&#45;&gt;END_COORD_buf -->
<g id="edge8" class="edge"><title>n_pipe_in&#45;&gt;END_COORD_buf</title>
<a xlink:href="28.html">
<path fill="none" stroke="black" stroke-width="5" d="M226.607,-942.196C223.647,-900.565 217,-797.455 217,-711 217,-711 217,-711 217,-457 217,-445.244 271.814,-411.811 313.33,-388.174"/>
<polygon fill="black" stroke="black" points="317.799,-395.7 330.945,-378.272 309.223,-380.445 317.799,-395.7"/>
</a>
</g>
<!-- n_member -->
<g id="node13" class="node"><title>n_member</title>
<a xlink:href="member.html" xlink:title="member M">
<polygon fill="none" stroke="black" points="275.25,-1058 180.75,-1058 180.75,-1022 275.25,-1022 275.25,-1058"/>
<text text-anchor="middle" x="228" y="-1035.6" font-family="Times,serif" font-size="18.00">member M</text>
</a>
</g>
<!-- n_member&#45;&gt;n_pipe_in -->
<g id="edge12" class="edge"><title>n_member&#45;&gt;n_pipe_in</title>
<a xlink:href="40.html">
<path fill="none" stroke="black" stroke-width="5" d="M228,-1021.75C228,-1015.93 228,-1009.18 228,-1002.36"/>
<polygon fill="black" stroke="black" points="236.75,-1002.04 228,-982.045 219.25,-1002.04 236.75,-1002.04"/>
</a>
</g>
<!-- n_num_members -->
<g id="node22" class="node"><title>n_num_members</title>
<a xlink:href="num_members.html" xlink:title="num_members N">
<ellipse fill="none" stroke="yellow" cx="114" cy="-904" rx="98.4924" ry="19.6"/>
<text text-anchor="middle" x="114" y="-899.6" font-family="Times,serif" font-size="18.00">num_members N</text>
</a>
</g>
<!-- n_member&#45;&gt;n_num_members -->
<g id="edge24" class="edge"><title>n_member&#45;&gt;n_num_members</title>
<a xlink:href="41.html">
<path fill="none" stroke="black" stroke-width="5" d="M200.725,-1021.83C185.917,-1011.56 168.03,-997.514 155,-982 148.48,-974.237 142.567,-965.269 137.388,-956.257"/>
<polygon fill="black" stroke="black" points="121.333,-923.747 138.259,-937.694 127.554,-931.827 131.982,-940.794 130.189,-941.679 128.396,-942.565 123.968,-933.599 122.12,-945.664 121.333,-923.747 121.333,-923.747"/>
<ellipse fill="none" stroke="black" cx="133.732" cy="-948.852" rx="8.00001" ry="8.00001"/>
</a>
</g>
<!-- n_bed__pipe_out -->
<g id="node15" class="node"><title>n_bed__pipe_out</title>
<a xlink:href="bed__pipe_out.html" xlink:title="bed__pipe_out A">
<ellipse fill="none" stroke="yellow" cx="352" cy="-652" rx="99.5528" ry="19.6"/>
<text text-anchor="middle" x="352" y="-647.6" font-family="Times,serif" font-size="18.00">bed__pipe_out A</text>
</a>
</g>
<!-- n_ack -->
<g id="node30" class="node"><title>n_ack</title>
<a xlink:href="ack.html" xlink:title="ack A">
<ellipse fill="none" stroke="yellow" cx="326" cy="-574" rx="41.5782" ry="19.6"/>
<text text-anchor="middle" x="326" y="-569.6" font-family="Times,serif" font-size="18.00">ack A</text>
</a>
</g>
<!-- n_bed__pipe_out&#45;&gt;n_ack -->
<g id="edge34" class="edge"><title>n_bed__pipe_out&#45;&gt;n_ack</title>
<a xlink:href="32.html">
<path fill="none" stroke="yellow" stroke-width="5" stroke-dasharray="5,2" d="M345.573,-632.213C343.526,-626.231 341.185,-619.387 338.85,-612.561"/>
<polygon fill="yellow" stroke="yellow" points="347.106,-609.661 332.353,-593.57 330.548,-615.326 347.106,-609.661"/>
</a>
</g>
<!-- n_pipe_out -->
<g id="node36" class="node"><title>n_pipe_out</title>
<a xlink:href="pipe_out.html" xlink:title="pipe_out A">
<ellipse fill="none" stroke="yellow" cx="403" cy="-516" rx="68.3838" ry="19.6"/>
<text text-anchor="middle" x="403" y="-511.6" font-family="Times,serif" font-size="18.00">pipe_out A</text>
</a>
</g>
<!-- n_bed__pipe_out&#45;&gt;n_pipe_out -->
<g id="edge40" class="edge"><title>n_bed__pipe_out&#45;&gt;n_pipe_out</title>
<a xlink:href="31.html">
<path fill="none" stroke="yellow" stroke-width="5" d="M360.293,-632.118C365.057,-621.074 371.057,-606.824 376,-594 380.863,-581.383 385.853,-567.469 390.2,-554.981"/>
<polygon fill="yellow" stroke="yellow" points="398.571,-557.544 396.771,-535.788 382.014,-551.876 398.571,-557.544"/>
</a>
</g>
<!-- COORD_bed__pipe_chan&#45;&gt;n_bed__pipe_out -->
<g id="edge14" class="edge"><title>COORD_bed__pipe_chan&#45;&gt;n_bed__pipe_out</title>
<a xlink:href="26.html">
<path fill="none" stroke="yellow" stroke-width="5" d="M352,-748.175C352,-732.911 352,-710.887 352,-691.869"/>
<polygon fill="yellow" stroke="yellow" points="360.75,-691.853 352,-671.853 343.25,-691.853 360.75,-691.853"/>
</a>
</g>
<!-- n_clock -->
<g id="node19" class="node"><title>n_clock</title>
<ellipse fill="none" stroke="green" cx="337" cy="-1098" rx="42.1401" ry="19.6"/>
<text text-anchor="middle" x="337" y="-1093.6" font-family="Times,serif" font-size="18.00">clock </text>
</g>
<!-- n_clock&#45;&gt;n_bed__pipe_in -->
<g id="edge18" class="edge"><title>n_clock&#45;&gt;n_bed__pipe_in</title>
<a xlink:href="30.html">
<path fill="none" stroke="green" stroke-width="5" d="M338.152,-1077.8C340.607,-1036.89 346.393,-940.445 349.656,-886.063"/>
<polygon fill="green" stroke="green" points="358.401,-886.413 350.864,-865.925 340.932,-885.365 358.401,-886.413"/>
</a>
</g>
<!-- n_num_members&#45;&gt;n_unacked_count -->
<g id="edge22" class="edge"><title>n_num_members&#45;&gt;n_unacked_count</title>
<a xlink:href="42.html">
<path fill="none" stroke="yellow" stroke-width="5" d="M114.633,-884.077C115.219,-864.905 116,-834.395 116,-808 116,-808 116,-808 116,-283 116,-264.555 119.528,-244.409 123.46,-227.685"/>
<polygon fill="yellow" stroke="yellow" points="131.986,-229.666 128.599,-208.1 115.06,-225.224 131.986,-229.666"/>
</a>
</g>
<!-- n_T -->
<g id="node46" class="node"><title>n_T</title>
<a xlink:href="javascript:advanceTo(0)" xlink:title="T ">
<polygon fill="none" stroke="blue" stroke-width="3" points="435,-56 403,-28 435,-1.42109e-14 467,-28 435,-56"/>
<text text-anchor="middle" x="435" y="-23.6" font-family="Times,serif" font-size="18.00">T </text>
</a>
</g>
<!-- n_bed__pipe_sent&#45;&gt;n_T -->
<g id="edge58" class="edge"><title>n_bed__pipe_sent&#45;&gt;n_T</title>
<path fill="none" stroke="black" stroke-width="5" d="M594.015,-690.069C581.797,-671.628 566,-642.312 566,-614 566,-614 566,-614 566,-113 566,-71.284 518.344,-49.3317 480.519,-38.4779"/>
<polygon fill="black" stroke="black" points="482.412,-29.9317 460.881,-33.5349 478.14,-46.9023 482.412,-29.9317"/>
</g>
<!-- n_mcast_send -->
<g id="node28" class="node"><title>n_mcast_send</title>
<ellipse fill="none" stroke="green" cx="88" cy="-1040" rx="74.3697" ry="19.6"/>
<text text-anchor="middle" x="88" y="-1035.6" font-family="Times,serif" font-size="18.00">mcast_send </text>
</g>
<!-- n_mcast_send&#45;&gt;n_unacked_count -->
<g id="edge38" class="edge"><title>n_mcast_send&#45;&gt;n_unacked_count</title>
<a xlink:href="42.html">
<path fill="none" stroke="green" stroke-width="5" d="M48.8894,-1023.06C25.3868,-1010.62 0,-990.757 0,-963 0,-963 0,-963 0,-283 0,-251.833 24.9413,-230.435 53.3032,-216.177"/>
<polygon fill="green" stroke="green" points="56.9803,-224.119 71.7075,-208.004 49.8775,-208.125 56.9803,-224.119"/>
</a>
</g>
<!-- n_mcast_send&#45;&gt;n_pipe_in -->
<g id="edge30" class="edge"><title>n_mcast_send&#45;&gt;n_pipe_in</title>
<a xlink:href="40.html">
<path fill="none" stroke="green" stroke-width="5" d="M119.419,-1021.94C137.227,-1012.28 159.881,-999.979 179.883,-989.12"/>
<polygon fill="green" stroke="green" points="184.245,-996.709 197.648,-979.477 175.896,-981.329 184.245,-996.709"/>
</a>
</g>
<!-- n_ack&#45;&gt;n_msg_acked -->
<g id="edge32" class="edge"><title>n_ack&#45;&gt;n_msg_acked</title>
<a xlink:href="33.html">
<path fill="none" stroke="yellow" stroke-width="5" d="M326,-554.175C326,-538.911 326,-516.887 326,-497.869"/>
<polygon fill="yellow" stroke="yellow" points="334.75,-497.853 326,-477.853 317.25,-497.853 334.75,-497.853"/>
</a>
</g>
<!-- n_add_member -->
<g id="node33" class="node"><title>n_add_member</title>
<ellipse fill="none" stroke="green" cx="228" cy="-1156" rx="80.9767" ry="19.6"/>
<text text-anchor="middle" x="228" y="-1151.6" font-family="Times,serif" font-size="18.00">add_member </text>
</g>
<!-- n_add_member&#45;&gt;n_member -->
<g id="edge36" class="edge"><title>n_add_member&#45;&gt;n_member</title>
<a xlink:href="43.html">
<path fill="none" stroke="green" stroke-width="5" d="M228,-1136.18C228,-1120.55 228,-1097.83 228,-1078.51"/>
<polygon fill="green" stroke="green" points="236.75,-1078.36 228,-1058.36 219.25,-1078.36 236.75,-1078.36"/>
</a>
</g>
<!-- n_pipe_out&#45;&gt;n_T -->
<g id="edge62" class="edge"><title>n_pipe_out&#45;&gt;n_T</title>
<path fill="none" stroke="yellow" stroke-width="5" d="M412.428,-496.363C421.867,-475.949 435,-441.981 435,-411 435,-411 435,-411 435,-113 435,-101.151 435,-88.3619 435,-76.423"/>
<polygon fill="yellow" stroke="yellow" points="443.75,-76.2378 435,-56.2378 426.25,-76.2379 443.75,-76.2378"/>
</g>
<!-- n_mcast_done&#45;&gt;n_T -->
<g id="edge60" class="edge"><title>n_mcast_done&#45;&gt;n_T</title>
<path fill="none" stroke="red" stroke-width="5" d="M280.593,-96.2032C313.934,-81.6918 361.911,-60.8106 395.512,-46.1866"/>
<polygon fill="red" stroke="red" points="399.469,-54.0071 414.316,-38.0025 392.485,-37.961 399.469,-54.0071"/>
</g>
<!-- n_local_id -->
<g id="node42" class="node"><title>n_local_id</title>
<a xlink:href="local_id.html" xlink:title="local_id M">
<polygon fill="none" stroke="black" points="459,-1058 365,-1058 365,-1022 459,-1022 459,-1058"/>
<text text-anchor="middle" x="412" y="-1035.6" font-family="Times,serif" font-size="18.00">local_id M</text>
</a>
</g>
<!-- n_my_id -->
<g id="node43" class="node"><title>n_my_id</title>
<ellipse fill="none" stroke="green" cx="412" cy="-1156" rx="46.503" ry="19.6"/>
<text text-anchor="middle" x="412" y="-1151.6" font-family="Times,serif" font-size="18.00">my_id </text>
</g>
<!-- n_my_id&#45;&gt;n_local_id -->
<g id="edge48" class="edge"><title>n_my_id&#45;&gt;n_local_id</title>
<a xlink:href="44.html">
<path fill="none" stroke="green" stroke-width="5" d="M412,-1136.18C412,-1120.55 412,-1097.83 412,-1078.51"/>
<polygon fill="green" stroke="green" points="420.75,-1078.36 412,-1058.36 403.25,-1078.36 420.75,-1078.36"/>
</a>
</g>
<!-- n_S -->
<g id="node45" class="node"><title>n_S</title>
<a xlink:href="javascript:advanceTo(-2)" xlink:title="S ">
<polygon fill="none" stroke="blue" stroke-width="3" points="303,-1270 272,-1242 303,-1214 334,-1242 303,-1270"/>
<text text-anchor="middle" x="303" y="-1237.6" font-family="Times,serif" font-size="18.00">S </text>
</a>
</g>
<!-- n_S&#45;&gt;n_clock -->
<g id="edge50" class="edge"><title>n_S&#45;&gt;n_clock</title>
<path fill="none" stroke="blue" stroke-width="5" d="M308.387,-1218.5C313.595,-1196.75 321.588,-1163.37 327.804,-1137.41"/>
<polygon fill="blue" stroke="blue" points="336.359,-1139.25 332.506,-1117.77 319.34,-1135.18 336.359,-1139.25"/>
</g>
<!-- n_S&#45;&gt;n_mcast_send -->
<g id="edge54" class="edge"><title>n_S&#45;&gt;n_mcast_send</title>
<path fill="none" stroke="blue" stroke-width="5" d="M276.759,-1237.42C240.777,-1231.19 176.244,-1215.04 138,-1176 112.509,-1149.98 99.8371,-1109.83 93.6499,-1080.08"/>
<polygon fill="blue" stroke="blue" points="102.231,-1078.35 90.1388,-1060.17 84.9968,-1081.39 102.231,-1078.35"/>
</g>
<!-- n_S&#45;&gt;n_add_member -->
<g id="edge52" class="edge"><title>n_S&#45;&gt;n_add_member</title>
<path fill="none" stroke="blue" stroke-width="5" d="M289.592,-1225.98C280.803,-1216.14 268.952,-1202.87 257.993,-1190.59"/>
<polygon fill="blue" stroke="blue" points="264.28,-1184.5 244.433,-1175.4 251.226,-1196.15 264.28,-1184.5"/>
</g>
<!-- n_S&#45;&gt;n_my_id -->
<g id="edge56" class="edge"><title>n_S&#45;&gt;n_my_id</title>
<path fill="none" stroke="blue" stroke-width="5" d="M319.555,-1228.24C334.055,-1217.07 355.669,-1200.41 374.352,-1186.01"/>
<polygon fill="blue" stroke="blue" points="379.897,-1192.79 390.398,-1173.65 369.215,-1178.93 379.897,-1192.79"/>
</g>
</g>
</svg>
