<?xml version="1.0" encoding="UTF-8" standalone="no"?>
<!DOCTYPE svg PUBLIC "-//W3C//DTD SVG 1.1//EN"
 "http://www.w3.org/Graphics/SVG/1.1/DTD/svg11.dtd">
<!-- Generated by graphviz version 2.28.0 (20110517.1826)
 -->
<!-- Title: G Pages: 1 -->
<svg width="543pt" height="848pt"
 viewBox="0.00 0.00 543.00 848.00" xmlns="http://www.w3.org/2000/svg" xmlns:xlink="http://www.w3.org/1999/xlink">
<g id="graph1" class="graph" transform="scale(1 1) rotate(0) translate(4 844)">
<script type='text/javascript'>
  <![CDATA[

var windows = new Array()
var info = new Array()

function openWin(target, time) {
  win = window.open(target + "_" + time + ".html", target, "location=no,width=400,height=180,left=0,status=no");
  // hm, an associative array, how strange.
  info[target] = 1
}

function advanceTo(time) {
  arr = gup("wins").split(",");
  for (i=0; i < arr.length; i++) {
    if (arr[i] != "") {
      openWin(arr[i], time);
    }
  }
  str = '';
  // getting 'key_cols'
  for (var i in info) {
    str = str + ',' + i;
  }
  self.window.location.href = 'tm_' + time + '.svg?wins=' + str;
}

// off the netz
function gup(name) {
  name = name.replace(/[[]/,"\[").replace(/[]]/,"\]");
  var regexS = "[\?&]"+name+"=([^&#]*)";
  var regex = new RegExp(regexS);
  var results = regex.exec(window.location.href);
  if (results == null)
    return "";
  else
    return results[1];
}

  ]]>
</script>

<polygon fill="white" stroke="white" points="-4,5 -4,-844 540,-844 540,5 -4,5"/>
<!-- n_pipe_in -->
<g id="node1" class="node"><title>n_pipe_in</title>
<a xlink:href="pipe_in.html" xlink:title="pipe_in M">
<ellipse fill="none" stroke="black" cx="354" cy="-610" rx="63.459" ry="19.6"/>
<text text-anchor="middle" x="354" y="-605.6" font-family="Times,serif" font-size="18.00">pipe_in M</text>
</a>
</g>
<!-- n_?? -->
<g id="node29" class="node"><title>n_??</title>
<polygon fill="none" stroke="red" stroke-width="2" points="280,-514 244,-486 280,-458 316,-486 280,-514"/>
<text text-anchor="middle" x="280" y="-481.6" font-family="Times,serif" font-size="18.00">?? </text>
</g>
<!-- n_pipe_in&#45;&gt;n_?? -->
<g id="edge32" class="edge"><title>n_pipe_in&#45;&gt;n_??</title>
<path fill="none" stroke="black" stroke-width="5" d="M342.761,-590.471C331.949,-572.646 315.311,-545.216 301.882,-523.076"/>
<polygon fill="black" stroke="black" points="309.198,-518.266 291.345,-505.704 294.236,-527.342 309.198,-518.266"/>
</g>
<!-- n_member -->
<g id="node2" class="node"><title>n_member</title>
<polygon fill="none" stroke="green" points="457,-744 377,-744 377,-708 457,-708 457,-744"/>
<text text-anchor="middle" x="417" y="-721.6" font-family="Times,serif" font-size="18.00">member </text>
</g>
<!-- n_member&#45;&gt;n_pipe_in -->
<g id="edge2" class="edge"><title>n_member&#45;&gt;n_pipe_in</title>
<a xlink:href="29.html">
<path fill="none" stroke="green" stroke-width="5" d="M407.432,-707.686C398.615,-691.732 385.247,-667.542 374.088,-647.35"/>
<polygon fill="green" stroke="green" points="381.62,-642.888 364.288,-629.616 366.303,-651.353 381.62,-642.888"/>
</a>
</g>
<!-- n_num_members -->
<g id="node15" class="node"><title>n_num_members</title>
<a xlink:href="num_members.html" xlink:title="num_members ">
<ellipse fill="none" stroke="green" cx="446" cy="-552" rx="89.2052" ry="19.6"/>
<text text-anchor="middle" x="446" y="-547.6" font-family="Times,serif" font-size="18.00">num_members </text>
</a>
</g>
<!-- n_member&#45;&gt;n_num_members -->
<g id="edge16" class="edge"><title>n_member&#45;&gt;n_num_members</title>
<a xlink:href="30.html">
<path fill="none" stroke="green" stroke-width="5" d="M419.887,-707.879C423.799,-684.673 430.967,-642.158 436.805,-607.535"/>
<polygon fill="green" stroke="green" points="442.818,-571.871 448.368,-593.089 443.128,-582.064 441.465,-591.925 439.493,-591.592 437.521,-591.26 439.184,-581.399 430.618,-590.096 442.818,-571.871 442.818,-571.871"/>
<ellipse fill="none" stroke="green" cx="438.163" cy="-599.481" rx="8" ry="8"/>
</a>
</g>
<!-- n_unacked_count -->
<g id="node4" class="node"><title>n_unacked_count</title>
<a xlink:href="unacked_count.html" xlink:title="unacked_count M">
<polygon fill="none" stroke="black" points="330.25,-208 183.75,-208 183.75,-172 330.25,-172 330.25,-208"/>
<text text-anchor="middle" x="257" y="-185.6" font-family="Times,serif" font-size="18.00">unacked_count M</text>
</a>
</g>
<!-- n_unacked_count&#45;&gt;n_unacked_count -->
<g id="edge4" class="edge"><title>n_unacked_count&#45;&gt;n_unacked_count</title>
<a xlink:href="28.html" xlink:title=" +/&#45;">
<path fill="none" stroke="black" stroke-width="5" d="M330.552,-196.057C330.715,-196.042 330.877,-196.027 331.039,-196.011"/>
<polygon fill="black" stroke="black" points="330.552,-183.943 340.351,-203.563 332.953,-193.854 333.357,-203.846 331.358,-203.926 329.36,-204.007 328.957,-194.015 322.366,-204.289 330.552,-183.943 330.552,-183.943"/>
<ellipse fill="none" stroke="black" cx="331.681" cy="-211.92" rx="8" ry="8"/>
</a>
<a xlink:href="28.html" xlink:title=" +/&#45;">
<text text-anchor="middle" x="360.5" y="-185.6" font-family="Times,serif" font-size="18.00"> +/&#45;</text>
</a>
</g>
<!-- n_mcast_done -->
<g id="node12" class="node"><title>n_mcast_done</title>
<a xlink:href="mcast_done.html" xlink:title="mcast_done M">
<ellipse fill="none" stroke="black" cx="280" cy="-114" rx="86.4614" ry="19.6"/>
<text text-anchor="middle" x="280" y="-109.6" font-family="Times,serif" font-size="18.00">mcast_done M</text>
</a>
</g>
<!-- n_unacked_count&#45;&gt;n_mcast_done -->
<g id="edge12" class="edge"><title>n_unacked_count&#45;&gt;n_mcast_done</title>
<a xlink:href="27.html">
<path fill="none" stroke="black" stroke-width="5" d="M262.334,-171.837C264.099,-166.158 266.139,-159.595 268.193,-152.989"/>
<polygon fill="black" stroke="black" points="276.549,-155.585 274.129,-133.889 259.837,-150.39 276.549,-155.585"/>
</a>
</g>
<!-- n_acked_count -->
<g id="node6" class="node"><title>n_acked_count</title>
<a xlink:href="acked_count.html" xlink:title="acked_count ">
<ellipse fill="none" stroke="green" cx="288" cy="-284" rx="79.3553" ry="19.6"/>
<text text-anchor="middle" x="288" y="-279.6" font-family="Times,serif" font-size="18.00">acked_count </text>
</a>
</g>
<!-- n_acked_count&#45;&gt;n_unacked_count -->
<g id="edge8" class="edge"><title>n_acked_count&#45;&gt;n_unacked_count</title>
<a xlink:href="26.html" xlink:title=" +/&#45;">
<path fill="none" stroke="green" stroke-width="5" d="M281.577,-263.938C279.415,-257.523 276.89,-250.03 274.297,-242.334"/>
<polygon fill="green" stroke="green" points="262.788,-208.176 277.703,-224.255 267.876,-217.014 271.069,-226.491 269.174,-227.129 267.279,-227.768 264.086,-218.291 260.645,-230.003 262.788,-208.176 262.788,-208.176"/>
<ellipse fill="none" stroke="green" cx="271.729" cy="-234.711" rx="8.00001" ry="8.00001"/>
</a>
<a xlink:href="26.html" xlink:title=" +/&#45;">
<text text-anchor="middle" x="288.5" y="-231.6" font-family="Times,serif" font-size="18.00"> +/&#45;</text>
</a>
</g>
<!-- n_pipe_sent -->
<g id="node7" class="node"><title>n_pipe_sent</title>
<ellipse fill="none" stroke="green" cx="280" cy="-400" rx="63.459" ry="19.6"/>
<text text-anchor="middle" x="280" y="-395.6" font-family="Times,serif" font-size="18.00">pipe_sent </text>
</g>
<!-- n_pipe_sent&#45;&gt;n_acked_count -->
<g id="edge6" class="edge"><title>n_pipe_sent&#45;&gt;n_acked_count</title>
<a xlink:href="25.html">
<path fill="none" stroke="green" stroke-width="5" d="M281.321,-380.175C282.097,-369.119 283.122,-354.516 284.135,-340.078"/>
<polygon fill="green" stroke="green" points="286.677,-303.853 294.255,-324.434 287.972,-313.968 287.272,-323.944 285.277,-323.804 283.282,-323.664 283.982,-313.688 276.299,-323.174 286.677,-303.853 286.677,-303.853"/>
<ellipse fill="none" stroke="green" cx="284.717" cy="-331.784" rx="8" ry="8"/>
</a>
</g>
<!-- n_mcast_send -->
<g id="node10" class="node"><title>n_mcast_send</title>
<ellipse fill="none" stroke="green" cx="182" cy="-726" rx="74.3697" ry="19.6"/>
<text text-anchor="middle" x="182" y="-721.6" font-family="Times,serif" font-size="18.00">mcast_send </text>
</g>
<!-- n_mcast_send&#45;&gt;n_pipe_in -->
<g id="edge10" class="edge"><title>n_mcast_send&#45;&gt;n_pipe_in</title>
<a xlink:href="29.html">
<path fill="none" stroke="green" stroke-width="5" d="M187.607,-706.057C193.76,-688.506 205.326,-662.928 224,-648 238.874,-636.11 257.381,-628.04 275.722,-622.563"/>
<polygon fill="green" stroke="green" points="278.144,-630.976 295.381,-617.58 273.844,-614.013 278.144,-630.976"/>
</a>
</g>
<!-- n_mcast_send&#45;&gt;n_unacked_count -->
<g id="edge14" class="edge"><title>n_mcast_send&#45;&gt;n_unacked_count</title>
<a xlink:href="31.html">
<path fill="none" stroke="green" stroke-width="5" d="M181.464,-706.041C180.872,-683.42 180,-644.453 180,-611 180,-611 180,-611 180,-283 180,-258.477 196.287,-237.051 213.88,-221.061"/>
<polygon fill="green" stroke="green" points="219.661,-227.637 229.636,-208.219 208.605,-214.072 219.661,-227.637"/>
</a>
</g>
<!-- n_T -->
<g id="node19" class="node"><title>n_T</title>
<a xlink:href="javascript:advanceTo(0)" xlink:title="T ">
<polygon fill="none" stroke="blue" stroke-width="3" points="365,-56 333,-28 365,-1.42109e-14 397,-28 365,-56"/>
<text text-anchor="middle" x="365" y="-23.6" font-family="Times,serif" font-size="18.00">T </text>
</a>
</g>
<!-- n_mcast_done&#45;&gt;n_T -->
<g id="edge26" class="edge"><title>n_mcast_done&#45;&gt;n_T</title>
<path fill="none" stroke="black" stroke-width="5" d="M298.864,-94.3577C309.8,-83.5505 323.797,-69.7179 336.097,-57.5634"/>
<polygon fill="black" stroke="black" points="342.334,-63.7012 350.409,-43.4192 330.033,-51.2538 342.334,-63.7012"/>
</g>
<!-- n_num_members&#45;&gt;n_unacked_count -->
<g id="edge18" class="edge"><title>n_num_members&#45;&gt;n_unacked_count</title>
<a xlink:href="31.html">
<path fill="none" stroke="green" stroke-width="5" d="M446,-532.145C446,-510.062 446,-472.375 446,-440 446,-440 446,-440 446,-283 446,-235.876 397.911,-212.884 350.247,-201.669"/>
<polygon fill="green" stroke="green" points="351.688,-193.033 330.343,-197.61 348.191,-210.18 351.688,-193.033"/>
</a>
</g>
<!-- n_S -->
<g id="node18" class="node"><title>n_S</title>
<a xlink:href="javascript:advanceTo(-2)" xlink:title="S ">
<polygon fill="none" stroke="blue" stroke-width="3" points="182,-840 151,-812 182,-784 213,-812 182,-840"/>
<text text-anchor="middle" x="182" y="-807.6" font-family="Times,serif" font-size="18.00">S </text>
</a>
</g>
<!-- n_S&#45;&gt;n_mcast_send -->
<g id="edge22" class="edge"><title>n_S&#45;&gt;n_mcast_send</title>
<path fill="none" stroke="blue" stroke-width="5" d="M182,-783.959C182,-778.256 182,-772.129 182,-766.083"/>
<polygon fill="blue" stroke="blue" points="190.75,-766.01 182,-746.01 173.25,-766.01 190.75,-766.01"/>
</g>
<!-- n_add_member -->
<g id="node20" class="node"><title>n_add_member</title>
<ellipse fill="none" stroke="green" cx="81" cy="-668" rx="80.9767" ry="19.6"/>
<text text-anchor="middle" x="81" y="-663.6" font-family="Times,serif" font-size="18.00">add_member </text>
</g>
<!-- n_S&#45;&gt;n_add_member -->
<g id="edge20" class="edge"><title>n_S&#45;&gt;n_add_member</title>
<path fill="none" stroke="blue" stroke-width="5" d="M162.742,-801.052C143.594,-790.145 114.853,-770.84 99,-746 91.8083,-734.731 87.4833,-720.895 84.8848,-708.074"/>
<polygon fill="blue" stroke="blue" points="93.5122,-706.6 81.9402,-688.09 76.1992,-709.151 93.5122,-706.6"/>
</g>
<!-- n_my_id -->
<g id="node21" class="node"><title>n_my_id</title>
<ellipse fill="none" stroke="green" cx="280" cy="-668" rx="46.503" ry="19.6"/>
<text text-anchor="middle" x="280" y="-663.6" font-family="Times,serif" font-size="18.00">my_id </text>
</g>
<!-- n_S&#45;&gt;n_my_id -->
<g id="edge24" class="edge"><title>n_S&#45;&gt;n_my_id</title>
<path fill="none" stroke="blue" stroke-width="5" d="M199.533,-799.445C221.329,-784.728 256.685,-759.58 265,-746 271.925,-734.69 275.752,-720.843 277.836,-708.026"/>
<polygon fill="blue" stroke="blue" points="286.546,-708.863 279.937,-688.058 269.142,-707.032 286.546,-708.863"/>
</g>
<!-- n_add_member&#45;&gt;n_?? -->
<g id="edge38" class="edge"><title>n_add_member&#45;&gt;n_??</title>
<path fill="none" stroke="green" stroke-width="5" d="M101.176,-648.75C135.992,-617.259 207.577,-552.509 248.836,-515.189"/>
<polygon fill="green" stroke="green" points="254.784,-521.607 263.747,-501.702 243.044,-508.629 254.784,-521.607"/>
</g>
<!-- n_my_id&#45;&gt;n_?? -->
<g id="edge30" class="edge"><title>n_my_id&#45;&gt;n_??</title>
<path fill="none" stroke="green" stroke-width="5" d="M280,-648.077C280,-621.291 280,-571.443 280,-534.265"/>
<polygon fill="green" stroke="green" points="288.75,-534.11 280,-514.11 271.25,-534.11 288.75,-534.11"/>
</g>
<!-- n_pipe_out -->
<g id="node22" class="node"><title>n_pipe_out</title>
<ellipse fill="none" stroke="green" cx="372" cy="-342" rx="59.096" ry="19.6"/>
<text text-anchor="middle" x="372" y="-337.6" font-family="Times,serif" font-size="18.00">pipe_out </text>
</g>
<!-- n_pipe_out&#45;&gt;n_T -->
<g id="edge28" class="edge"><title>n_pipe_out&#45;&gt;n_T</title>
<path fill="none" stroke="green" stroke-width="5" d="M380.839,-322.3C389.688,-301.832 402,-267.818 402,-237 402,-237 402,-237 402,-113 402,-95.4935 395.186,-77.543 387.406,-62.7536"/>
<polygon fill="green" stroke="green" points="394.855,-58.1588 377.115,-45.4356 379.81,-67.099 394.855,-58.1588"/>
</g>
<!-- n_local_id -->
<g id="node23" class="node"><title>n_local_id</title>
<polygon fill="none" stroke="green" points="309,-830 231,-830 231,-794 309,-794 309,-830"/>
<text text-anchor="middle" x="270" y="-807.6" font-family="Times,serif" font-size="18.00">local_id </text>
</g>
<!-- n_??&#45;&gt;n_pipe_sent -->
<g id="edge36" class="edge"><title>n_??&#45;&gt;n_pipe_sent</title>
<path fill="none" stroke="red" stroke-width="5" d="M280,-457.959C280,-452.256 280,-446.129 280,-440.083"/>
<polygon fill="red" stroke="red" points="288.75,-440.01 280,-420.01 271.25,-440.01 288.75,-440.01"/>
</g>
<!-- n_??&#45;&gt;n_pipe_out -->
<g id="edge34" class="edge"><title>n_??&#45;&gt;n_pipe_out</title>
<path fill="none" stroke="red" stroke-width="5" d="M299.097,-472.599C315.529,-460.944 338.636,-442.029 352,-420 358.976,-408.501 363.538,-394.61 366.514,-381.809"/>
<polygon fill="red" stroke="red" points="375.162,-383.164 370.171,-361.912 357.95,-380.001 375.162,-383.164"/>
</g>
</g>
</svg>
