<?xml version="1.0" encoding="UTF-8" standalone="no"?>
<!DOCTYPE svg PUBLIC "-//W3C//DTD SVG 1.1//EN"
 "http://www.w3.org/Graphics/SVG/1.1/DTD/svg11.dtd">
<!-- Generated by graphviz version 2.28.0 (20110517.1826)
 -->
<!-- Title: G Pages: 1 -->
<svg width="846pt" height="356pt"
 viewBox="0.00 0.00 846.00 356.00" xmlns="http://www.w3.org/2000/svg" xmlns:xlink="http://www.w3.org/1999/xlink">
<g id="graph1" class="graph" transform="scale(1 1) rotate(0) translate(4 352)">
<script type='text/javascript'>
  <![CDATA[

var windows = new Array()
var info = new Array()

function openWin(target, time) {
  win = window.open(target + "_" + time + ".html", target, "location=no,width=400,height=180,left=0,status=no");
  // hm, an associative array, how strange.
  info[target] = 1
}

function advanceTo(time) {
  arr = gup("wins").split(",");
  for (i=0; i < arr.length; i++) {
    if (arr[i] != "") {
      openWin(arr[i], time);
    }
  }
  str = '';
  // getting 'key_cols'
  for (var i in info) {
    str = str + ',' + i;
  }
  self.window.location.href = 'tm_' + time + '.svg?wins=' + str;
}

// off the netz
function gup(name) {
  name = name.replace(/[[]/,"\[").replace(/[]]/,"\]");
  var regexS = "[\?&]"+name+"=([^&#]*)";
  var regex = new RegExp(regexS);
  var results = regex.exec(window.location.href);
  if (results == null)
    return "";
  else
    return results[1];
}

  ]]>
</script>

<polygon fill="white" stroke="white" points="-4,5 -4,-352 843,-352 843,5 -4,5"/>
<!-- n_ballot_summary, completed_ballots, grouped_vote_counts, num_required, ongoing_ballots, pre_ballots, required, result, votes, winning_vote -->
<g id="node1" class="node"><title>n_ballot_summary, completed_ballots, grouped_vote_counts, num_required, ongoing_ballots, pre_ballots, required, result, votes, winning_vote</title>
<a xlink:href="UnanimousVoteCounter_viz_expanded.svg" xlink:title="ballot_summary, completed_ballots, grouped_vote_counts, num_required,\nongoing_ballots, pre_ballots, required, result,\nvotes, winning_vote">
<polygon fill="none" stroke="red" stroke-width="3" points="838.132,-30.4236 838.132,-73.5764 592.61,-104.09 245.39,-104.09 -0.131617,-73.5764 -0.131617,-30.4236 245.39,0.0899325 592.61,0.0899325 838.132,-30.4236"/>
<text text-anchor="middle" x="419" y="-67.6" font-family="Times,serif" font-size="18.00">ballot_summary, completed_ballots, grouped_vote_counts, num_required,</text>
<text text-anchor="middle" x="419" y="-47.6" font-family="Times,serif" font-size="18.00">ongoing_ballots, pre_ballots, required, result,</text>
<text text-anchor="middle" x="419" y="-27.6" font-family="Times,serif" font-size="18.00">votes, winning_vote</text>
</a>
</g>
<!-- n_cast_vote -->
<g id="node2" class="node"><title>n_cast_vote</title>
<ellipse fill="none" stroke="green" cx="327" cy="-160" rx="63.459" ry="19.6"/>
<text text-anchor="middle" x="327" y="-155.6" font-family="Times,serif" font-size="18.00">cast_vote </text>
</g>
<!-- n_cast_vote&#45;&gt;n_ballot_summary, completed_ballots, grouped_vote_counts, num_required, ongoing_ballots, pre_ballots, required, result, votes, winning_vote -->
<g id="edge2" class="edge"><title>n_cast_vote&#45;&gt;n_ballot_summary, completed_ballots, grouped_vote_counts, num_required, ongoing_ballots, pre_ballots, required, result, votes, winning_vote</title>
<a xlink:href="25.html">
<path fill="none" stroke="green" stroke-width="5" d="M343.025,-140.536C348.29,-134.47 354.483,-127.335 361.022,-119.8"/>
<polygon fill="green" stroke="green" points="367.804,-125.336 374.305,-104.496 354.588,-113.865 367.804,-125.336"/>
</a>
</g>
<!-- n_ratio -->
<g id="node4" class="node"><title>n_ratio</title>
<a xlink:href="ratio.html" xlink:title="ratio M">
<ellipse fill="none" stroke="black" cx="496" cy="-160" rx="49.2462" ry="19.6"/>
<text text-anchor="middle" x="496" y="-155.6" font-family="Times,serif" font-size="18.00">ratio M</text>
</a>
</g>
<!-- n_ratio&#45;&gt;n_ballot_summary, completed_ballots, grouped_vote_counts, num_required, ongoing_ballots, pre_ballots, required, result, votes, winning_vote -->
<g id="edge8" class="edge"><title>n_ratio&#45;&gt;n_ballot_summary, completed_ballots, grouped_vote_counts, num_required, ongoing_ballots, pre_ballots, required, result, votes, winning_vote</title>
<a xlink:href="39.html">
<path fill="none" stroke="black" stroke-width="5" d="M482.588,-140.536C478.353,-134.707 473.401,-127.89 468.163,-120.679"/>
<polygon fill="black" stroke="black" points="475.241,-115.535 456.407,-104.496 461.083,-125.82 475.241,-115.535"/>
</a>
</g>
<!-- n_begin_vote -->
<g id="node5" class="node"><title>n_begin_vote</title>
<ellipse fill="none" stroke="green" cx="426" cy="-236" rx="71.127" ry="19.6"/>
<text text-anchor="middle" x="426" y="-231.6" font-family="Times,serif" font-size="18.00">begin_vote </text>
</g>
<!-- n_begin_vote&#45;&gt;n_ballot_summary, completed_ballots, grouped_vote_counts, num_required, ongoing_ballots, pre_ballots, required, result, votes, winning_vote -->
<g id="edge6" class="edge"><title>n_begin_vote&#45;&gt;n_ballot_summary, completed_ballots, grouped_vote_counts, num_required, ongoing_ballots, pre_ballots, required, result, votes, winning_vote</title>
<a xlink:href="35.html">
<path fill="none" stroke="green" stroke-width="5" d="M425.264,-215.867C424.427,-194.1 423.01,-157.272 421.736,-124.137"/>
<polygon fill="green" stroke="green" points="430.48,-123.8 420.967,-104.151 412.993,-124.473 430.48,-123.8"/>
</a>
</g>
<!-- n_begin_vote&#45;&gt;n_ratio -->
<g id="edge4" class="edge"><title>n_begin_vote&#45;&gt;n_ratio</title>
<a xlink:href="40.html">
<path fill="none" stroke="green" stroke-width="5" d="M443.303,-216.708C449.965,-209.666 457.786,-201.397 465.335,-193.417"/>
<polygon fill="green" stroke="green" points="471.75,-199.369 479.137,-178.826 459.037,-187.343 471.75,-199.369"/>
</a>
</g>
<!-- n_S -->
<g id="node9" class="node"><title>n_S</title>
<a xlink:href="javascript:advanceTo(-2)" xlink:title="S ">
<polygon fill="none" stroke="blue" stroke-width="3" points="376,-348 345,-320 376,-292 407,-320 376,-348"/>
<text text-anchor="middle" x="376" y="-315.6" font-family="Times,serif" font-size="18.00">S </text>
</a>
</g>
<!-- n_S&#45;&gt;n_cast_vote -->
<g id="edge12" class="edge"><title>n_S&#45;&gt;n_cast_vote</title>
<path fill="none" stroke="blue" stroke-width="5" d="M365.973,-301.026C359.459,-288.685 351.235,-271.749 346,-256 339.994,-237.932 335.585,-217.267 332.534,-199.834"/>
<polygon fill="blue" stroke="blue" points="341.151,-198.306 329.379,-179.921 323.867,-201.044 341.151,-198.306"/>
</g>
<!-- n_S&#45;&gt;n_begin_vote -->
<g id="edge10" class="edge"><title>n_S&#45;&gt;n_begin_vote</title>
<path fill="none" stroke="blue" stroke-width="5" d="M386.849,-301.207C391.919,-292.893 398.147,-282.68 404.131,-272.865"/>
<polygon fill="blue" stroke="blue" points="411.71,-277.243 414.651,-255.612 396.768,-268.132 411.71,-277.243"/>
</g>
<!-- n_T -->
<g id="node10" class="node"><title>n_T</title>
<a xlink:href="javascript:advanceTo(0)" xlink:title="T ">
<polygon fill="none" stroke="blue" stroke-width="3" points="457,-348 425,-320 457,-292 489,-320 457,-348"/>
<text text-anchor="middle" x="457" y="-315.6" font-family="Times,serif" font-size="18.00">T </text>
</a>
</g>
</g>
</svg>
