<?xml version="1.0" encoding="UTF-8" standalone="no"?>
<!DOCTYPE svg PUBLIC "-//W3C//DTD SVG 1.1//EN"
 "http://www.w3.org/Graphics/SVG/1.1/DTD/svg11.dtd">
<!-- Generated by graphviz version 2.28.0 (20110517.1826)
 -->
<!-- Title: G Pages: 1 -->
<svg width="815pt" height="674pt"
 viewBox="0.00 0.00 815.00 674.00" xmlns="http://www.w3.org/2000/svg" xmlns:xlink="http://www.w3.org/1999/xlink">
<g id="graph1" class="graph" transform="scale(1 1) rotate(0) translate(4 670)">
<script type='text/javascript'>
  <![CDATA[

var windows = new Array()
var info = new Array()

function openWin(target, time) {
  win = window.open(target + "_" + time + ".html", target, "location=no,width=400,height=180,left=0,status=no");
  // hm, an associative array, how strange.
  info[target] = 1
}

function advanceTo(time) {
  arr = gup("wins").split(",");
  for (i=0; i < arr.length; i++) {
    if (arr[i] != "") {
      openWin(arr[i], time);
    }
  }
  str = '';
  // getting 'key_cols'
  for (var i in info) {
    str = str + ',' + i;
  }
  self.window.location.href = 'tm_' + time + '.svg?wins=' + str;
}

// off the netz
function gup(name) {
  name = name.replace(/[[]/,"\[").replace(/[]]/,"\]");
  var regexS = "[\?&]"+name+"=([^&#]*)";
  var regex = new RegExp(regexS);
  var results = regex.exec(window.location.href);
  if (results == null)
    return "";
  else
    return results[1];
}

  ]]>
</script>

<polygon fill="white" stroke="white" points="-4,5 -4,-670 812,-670 812,5 -4,5"/>
<!-- n_votes -->
<g id="node1" class="node"><title>n_votes</title>
<a xlink:href="votes.html" xlink:title="votes N">
<polygon fill="none" stroke="yellow" points="454,-456 382,-456 382,-420 454,-420 454,-456"/>
<text text-anchor="middle" x="418" y="-433.6" font-family="Times,serif" font-size="18.00">votes N</text>
</a>
</g>
<!-- n_votes&#45;&gt;n_votes -->
<g id="edge2" class="edge"><title>n_votes&#45;&gt;n_votes</title>
<a xlink:href="33.html" xlink:title=" +/&#45;">
<path fill="none" stroke="yellow" stroke-width="5" d="M454.087,-448.448C454.246,-448.441 454.403,-448.433 454.561,-448.424"/>
<polygon fill="yellow" stroke="yellow" points="454.087,-427.552 463.538,-447.343 456.314,-437.504 456.54,-447.501 454.541,-447.547 452.541,-447.592 452.315,-437.595 445.543,-447.751 454.087,-427.552 454.087,-427.552"/>
<ellipse fill="none" stroke="yellow" cx="454.722" cy="-455.545" rx="8" ry="8"/>
</a>
<a xlink:href="33.html" xlink:title=" +/&#45;">
<text text-anchor="middle" x="484.5" y="-433.6" font-family="Times,serif" font-size="18.00"> +/&#45;</text>
</a>
</g>
<!-- n_ballot_summary -->
<g id="node4" class="node"><title>n_ballot_summary</title>
<a xlink:href="ballot_summary.html" xlink:title="ballot_summary N">
<ellipse fill="none" stroke="yellow" cx="666" cy="-324" rx="105.039" ry="19.6"/>
<text text-anchor="middle" x="666" y="-319.6" font-family="Times,serif" font-size="18.00">ballot_summary N</text>
</a>
</g>
<!-- n_votes&#45;&gt;n_ballot_summary -->
<g id="edge42" class="edge"><title>n_votes&#45;&gt;n_ballot_summary</title>
<a xlink:href="26.html">
<path fill="none" stroke="yellow" stroke-width="5" d="M454.061,-420.714C490.6,-404.213 548.128,-378.233 594.033,-357.501"/>
<polygon fill="yellow" stroke="yellow" points="627.032,-342.599 612.508,-359.033 618.741,-348.537 609.627,-352.653 608.804,-350.83 607.981,-349.008 617.095,-344.892 605.1,-342.628 627.032,-342.599 627.032,-342.599"/>
<ellipse fill="none" stroke="yellow" cx="601.513" cy="-354.123" rx="8.00001" ry="8.00001"/>
</a>
</g>
<!-- n_grouped_vote_counts -->
<g id="node19" class="node"><title>n_grouped_vote_counts</title>
<a xlink:href="grouped_vote_counts.html" xlink:title="grouped_vote_counts N">
<ellipse fill="none" stroke="yellow" cx="517" cy="-266" rx="134.026" ry="19.6"/>
<text text-anchor="middle" x="517" y="-261.6" font-family="Times,serif" font-size="18.00">grouped_vote_counts N</text>
</a>
</g>
<!-- n_votes&#45;&gt;n_grouped_vote_counts -->
<g id="edge26" class="edge"><title>n_votes&#45;&gt;n_grouped_vote_counts</title>
<a xlink:href="27.html">
<path fill="none" stroke="yellow" stroke-width="5" d="M428.037,-419.764C441.938,-395.894 467.62,-351.794 487.83,-317.09"/>
<polygon fill="yellow" stroke="yellow" points="506.034,-285.83 503.747,-307.642 502.73,-295.478 497.698,-304.119 495.97,-303.113 494.241,-302.106 499.274,-293.465 488.192,-298.584 506.034,-285.83 506.034,-285.83"/>
<ellipse fill="none" stroke="yellow" cx="491.944" cy="-310.026" rx="8.00001" ry="8.00001"/>
</a>
</g>
<!-- n_result -->
<g id="node3" class="node"><title>n_result</title>
<a xlink:href="result.html" xlink:title="result N">
<ellipse fill="none" stroke="yellow" cx="436" cy="-208" rx="51.99" ry="19.6"/>
<text text-anchor="middle" x="436" y="-203.6" font-family="Times,serif" font-size="18.00">result N</text>
</a>
</g>
<!-- n_result&#45;&gt;n_votes -->
<g id="edge30" class="edge"><title>n_result&#45;&gt;n_votes</title>
<a xlink:href="33.html" xlink:title=" +/&#45;">
<path fill="none" stroke="yellow" stroke-width="5" d="M403.912,-223.711C395.22,-229.371 386.875,-236.751 382,-246 358.692,-290.226 374.418,-347.232 391.806,-387.414"/>
<polygon fill="yellow" stroke="yellow" points="407.765,-419.818 390.854,-405.852 401.552,-411.73 397.134,-402.759 398.928,-401.876 400.722,-400.992 405.141,-409.963 407.002,-397.899 407.765,-419.818 407.765,-419.818"/>
<ellipse fill="none" stroke="yellow" cx="395.394" cy="-394.699" rx="8.00001" ry="8.00001"/>
</a>
<a xlink:href="33.html" xlink:title=" +/&#45;">
<text text-anchor="middle" x="389.5" y="-319.6" font-family="Times,serif" font-size="18.00"> +/&#45;</text>
</a>
</g>
<!-- n_ongoing_ballots -->
<g id="node7" class="node"><title>n_ongoing_ballots</title>
<a xlink:href="ongoing_ballots.html" xlink:title="ongoing_ballots N">
<polygon fill="none" stroke="yellow" points="364.25,-132 215.75,-132 215.75,-96 364.25,-96 364.25,-132"/>
<text text-anchor="middle" x="290" y="-109.6" font-family="Times,serif" font-size="18.00">ongoing_ballots N</text>
</a>
</g>
<!-- n_result&#45;&gt;n_ongoing_ballots -->
<g id="edge32" class="edge"><title>n_result&#45;&gt;n_ongoing_ballots</title>
<a xlink:href="32.html" xlink:title=" +/&#45;">
<path fill="none" stroke="yellow" stroke-width="5" d="M410.234,-190.764C392.941,-179.867 369.449,-165.064 347.819,-151.434"/>
<polygon fill="yellow" stroke="yellow" points="316.991,-132.008 338.71,-135.056 326.518,-135.647 334.978,-140.979 333.912,-142.671 332.846,-144.363 324.386,-139.032 329.114,-150.285 316.991,-132.008 316.991,-132.008"/>
<ellipse fill="none" stroke="yellow" cx="340.681" cy="-146.936" rx="8.00001" ry="8.00001"/>
</a>
<a xlink:href="32.html" xlink:title=" +/&#45;">
<text text-anchor="middle" x="389.5" y="-155.6" font-family="Times,serif" font-size="18.00"> +/&#45;</text>
</a>
</g>
<!-- n_ballot_summary&#45;&gt;n_result -->
<g id="edge4" class="edge"><title>n_ballot_summary&#45;&gt;n_result</title>
<a xlink:href="31.html">
<path fill="none" stroke="yellow" stroke-width="5" d="M668.14,-304.093C668.991,-286.568 667.161,-261.007 652,-246 631.95,-226.153 562.64,-216.884 507.873,-212.598"/>
<polygon fill="yellow" stroke="yellow" points="508.291,-203.856 487.728,-211.187 507.068,-221.313 508.291,-203.856"/>
</a>
</g>
<!-- n_completed_ballots -->
<g id="node14" class="node"><title>n_completed_ballots</title>
<a xlink:href="completed_ballots.html" xlink:title="completed_ballots N">
<ellipse fill="none" stroke="yellow" cx="691" cy="-20" rx="116.509" ry="19.6"/>
<text text-anchor="middle" x="691" y="-15.6" font-family="Times,serif" font-size="18.00">completed_ballots N</text>
</a>
</g>
<!-- n_ballot_summary&#45;&gt;n_completed_ballots -->
<g id="edge22" class="edge"><title>n_ballot_summary&#45;&gt;n_completed_ballots</title>
<a xlink:href="28.html">
<path fill="none" stroke="yellow" stroke-width="5" d="M670.07,-303.866C671.165,-298.142 672.252,-291.836 673,-286 683.233,-206.114 687.881,-111.886 689.802,-60.0683"/>
<polygon fill="yellow" stroke="yellow" points="698.549,-60.3207 690.485,-40.0342 681.059,-59.7245 698.549,-60.3207"/>
</a>
</g>
<!-- n_required -->
<g id="node6" class="node"><title>n_required</title>
<a xlink:href="required.html" xlink:title="required N">
<polygon fill="none" stroke="yellow" points="132,-38 38,-38 38,-2 132,-2 132,-38"/>
<text text-anchor="middle" x="85" y="-15.6" font-family="Times,serif" font-size="18.00">required N</text>
</a>
</g>
<!-- n_required&#45;&gt;n_required -->
<g id="edge36" class="edge"><title>n_required&#45;&gt;n_required</title>
<a xlink:href="38.html" xlink:title=" +/&#45;">
<path fill="none" stroke="yellow" stroke-width="5" d="M132.035,-28.7578C132.198,-28.7449 132.36,-28.7315 132.521,-28.7176"/>
<polygon fill="yellow" stroke="yellow" points="132.035,-11.2422 141.587,-30.9848 134.312,-21.1829 134.59,-31.179 132.591,-31.2345 130.591,-31.2901 130.314,-21.2939 123.594,-31.4843 132.035,-11.2422 132.035,-11.2422"/>
<ellipse fill="none" stroke="yellow" cx="132.813" cy="-39.2315" rx="8" ry="8"/>
</a>
<a xlink:href="38.html" xlink:title=" +/&#45;">
<text text-anchor="middle" x="162.5" y="-15.6" font-family="Times,serif" font-size="18.00"> +/&#45;</text>
</a>
</g>
<!-- n_required&#45;&gt;n_ongoing_ballots -->
<g id="edge18" class="edge"><title>n_required&#45;&gt;n_ongoing_ballots</title>
<a xlink:href="36.html">
<path fill="none" stroke="yellow" stroke-width="5" d="M132.115,-33.4075C153.305,-39.6815 178.362,-48.0784 200,-58 216.567,-65.5964 233.857,-75.5998 248.802,-84.9902"/>
<polygon fill="yellow" stroke="yellow" points="244.124,-92.3856 265.664,-95.9375 253.654,-77.7077 244.124,-92.3856"/>
</a>
</g>
<!-- n_ongoing_ballots&#45;&gt;n_required -->
<g id="edge6" class="edge"><title>n_ongoing_ballots&#45;&gt;n_required</title>
<a xlink:href="38.html" xlink:title=" +/&#45;">
<path fill="none" stroke="yellow" stroke-width="5" d="M223.191,-95.9867C207.097,-90.9879 190.176,-84.96 175,-78 162.698,-72.358 150.076,-65.2843 138.321,-58.0582"/>
<polygon fill="yellow" stroke="yellow" points="108.074,-38.0686 129.722,-41.5873 117.519,-41.9136 125.862,-47.4272 124.759,-49.0957 123.657,-50.7643 115.314,-45.2507 119.797,-56.6042 108.074,-38.0686 108.074,-38.0686"/>
<ellipse fill="none" stroke="yellow" cx="131.434" cy="-53.5066" rx="8.00001" ry="8.00001"/>
</a>
<a xlink:href="38.html" xlink:title=" +/&#45;">
<text text-anchor="middle" x="187.5" y="-63.6" font-family="Times,serif" font-size="18.00"> +/&#45;</text>
</a>
</g>
<!-- n_ongoing_ballots&#45;&gt;n_ongoing_ballots -->
<g id="edge44" class="edge"><title>n_ongoing_ballots&#45;&gt;n_ongoing_ballots</title>
<a xlink:href="32.html" xlink:title=" +/&#45;">
<path fill="none" stroke="yellow" stroke-width="5" d="M364.36,-121.74C364.525,-121.721 364.689,-121.701 364.852,-121.68"/>
<polygon fill="yellow" stroke="yellow" points="364.36,-106.26 373.994,-125.963 366.678,-116.191 366.997,-126.186 364.998,-126.25 362.999,-126.314 362.68,-116.319 356.003,-126.537 364.36,-106.26 364.36,-106.26"/>
<ellipse fill="none" stroke="yellow" cx="365.254" cy="-134.246" rx="8" ry="8"/>
</a>
<a xlink:href="32.html" xlink:title=" +/&#45;">
<text text-anchor="middle" x="394.5" y="-109.6" font-family="Times,serif" font-size="18.00"> +/&#45;</text>
</a>
</g>
<!-- n_winning_vote -->
<g id="node11" class="node"><title>n_winning_vote</title>
<a xlink:href="winning_vote.html" xlink:title="winning_vote N">
<ellipse fill="none" stroke="yellow" cx="462" cy="-20" rx="94.1301" ry="19.6"/>
<text text-anchor="middle" x="462" y="-15.6" font-family="Times,serif" font-size="18.00">winning_vote N</text>
</a>
</g>
<!-- n_ongoing_ballots&#45;&gt;n_winning_vote -->
<g id="edge12" class="edge"><title>n_ongoing_ballots&#45;&gt;n_winning_vote</title>
<a xlink:href="29.html">
<path fill="none" stroke="yellow" stroke-width="5" d="M321.949,-95.9111C346.973,-82.5263 382.264,-63.6494 411.159,-48.194"/>
<polygon fill="yellow" stroke="yellow" points="415.543,-55.7724 429.051,-38.6237 407.289,-40.3412 415.543,-55.7724"/>
</a>
</g>
<!-- n_ongoing_ballots&#45;&gt;n_completed_ballots -->
<g id="edge14" class="edge"><title>n_ongoing_ballots&#45;&gt;n_completed_ballots</title>
<a xlink:href="28.html">
<path fill="none" stroke="yellow" stroke-width="5" d="M341.391,-95.924C378.272,-84.1124 429.318,-68.6631 475,-58 496.777,-52.917 544.098,-44.7006 588.913,-37.3001"/>
<polygon fill="yellow" stroke="yellow" points="590.567,-45.8958 608.889,-34.0264 587.737,-28.6262 590.567,-45.8958"/>
</a>
</g>
<!-- n_pre_ballots -->
<g id="node22" class="node"><title>n_pre_ballots</title>
<a xlink:href="pre_ballots.html" xlink:title="pre_ballots N">
<polygon fill="none" stroke="yellow" points="306.25,-38 193.75,-38 193.75,-2 306.25,-2 306.25,-38"/>
<text text-anchor="middle" x="250" y="-15.6" font-family="Times,serif" font-size="18.00">pre_ballots N</text>
</a>
</g>
<!-- n_ongoing_ballots&#45;&gt;n_pre_ballots -->
<g id="edge40" class="edge"><title>n_ongoing_ballots&#45;&gt;n_pre_ballots</title>
<a xlink:href="37.html" xlink:title=" +/&#45;">
<path fill="none" stroke="yellow" stroke-width="5" d="M261.662,-95.979C255.746,-90.9804 250.306,-84.9545 247,-78 246.399,-76.7366 245.874,-75.4392 245.418,-74.1153"/>
<polygon fill="yellow" stroke="yellow" points="244.987,-38.04 254.225,-57.9311 247.106,-48.0154 247.226,-58.0147 245.226,-58.0386 243.226,-58.0624 243.106,-48.0632 236.226,-58.1461 244.987,-38.04 244.987,-38.04"/>
<ellipse fill="none" stroke="yellow" cx="245.321" cy="-66.038" rx="8" ry="8"/>
</a>
<a xlink:href="37.html" xlink:title=" +/&#45;">
<text text-anchor="middle" x="259.5" y="-63.6" font-family="Times,serif" font-size="18.00"> +/&#45;</text>
</a>
</g>
<!-- n_num_required -->
<g id="node9" class="node"><title>n_num_required</title>
<ellipse fill="none" stroke="green" cx="86" cy="-494" rx="85.9015" ry="19.6"/>
<text text-anchor="middle" x="86" y="-489.6" font-family="Times,serif" font-size="18.00">num_required </text>
</g>
<!-- n_num_required&#45;&gt;n_required -->
<g id="edge8" class="edge"><title>n_num_required&#45;&gt;n_required</title>
<a xlink:href="34.html">
<path fill="none" stroke="green" stroke-width="5" d="M86,-473.923C86,-451.986 86,-414.892 86,-383 86,-383 86,-383 86,-113 86,-95.1001 85.8084,-75.2423 85.5929,-58.5707"/>
<polygon fill="green" stroke="green" points="94.3381,-58.1663 85.3,-38.2948 76.8399,-58.4191 94.3381,-58.1663"/>
</a>
</g>
<!-- n_winning_vote&#45;&gt;n_result -->
<g id="edge10" class="edge"><title>n_winning_vote&#45;&gt;n_result</title>
<a xlink:href="30.html">
<path fill="none" stroke="yellow" stroke-width="5" d="M459.357,-39.9082C455.703,-66.0469 448.959,-114.291 443.654,-152.245"/>
<polygon fill="yellow" stroke="yellow" points="438.636,-188.142 432.492,-167.088 438.04,-177.961 439.424,-168.057 441.405,-168.334 443.386,-168.611 442.001,-178.515 450.318,-169.58 438.636,-188.142 438.636,-188.142"/>
<ellipse fill="none" stroke="yellow" cx="442.512" cy="-160.411" rx="8" ry="8"/>
</a>
</g>
<!-- n_completed_ballots&#45;&gt;n_result -->
<g id="edge34" class="edge"><title>n_completed_ballots&#45;&gt;n_result</title>
<a xlink:href="30.html">
<path fill="none" stroke="yellow" stroke-width="5" d="M664.4,-39.4954C628.914,-64.2746 564.254,-109.793 510,-150 502.386,-155.642 494.393,-161.679 486.589,-167.636"/>
<polygon fill="yellow" stroke="yellow" points="457.856,-189.824 468.184,-170.477 464.548,-182.129 472.463,-176.018 473.685,-177.6 474.908,-179.183 466.993,-185.295 479.186,-184.724 457.856,-189.824 457.856,-189.824"/>
<ellipse fill="none" stroke="yellow" cx="480.017" cy="-172.711" rx="8.00001" ry="8.00001"/>
</a>
</g>
<!-- n_cast_vote -->
<g id="node16" class="node"><title>n_cast_vote</title>
<ellipse fill="none" stroke="green" cx="314" cy="-552" rx="63.459" ry="19.6"/>
<text text-anchor="middle" x="314" y="-547.6" font-family="Times,serif" font-size="18.00">cast_vote </text>
</g>
<!-- n_cast_vote&#45;&gt;n_votes -->
<g id="edge16" class="edge"><title>n_cast_vote&#45;&gt;n_votes</title>
<a xlink:href="25.html">
<path fill="none" stroke="green" stroke-width="5" d="M331.173,-532.505C346.743,-515.739 370.02,-490.671 388.555,-470.71"/>
<polygon fill="green" stroke="green" points="394.969,-476.662 402.166,-456.052 382.145,-464.754 394.969,-476.662"/>
</a>
</g>
<!-- n_grouped_vote_counts&#45;&gt;n_winning_vote -->
<g id="edge20" class="edge"><title>n_grouped_vote_counts&#45;&gt;n_winning_vote</title>
<a xlink:href="29.html">
<path fill="none" stroke="yellow" stroke-width="5" d="M517.544,-246.048C517.816,-223.064 517.039,-183.267 510,-150 503.281,-118.245 490.179,-83.8703 479.359,-58.5963"/>
<polygon fill="yellow" stroke="yellow" points="487.276,-54.8658 471.167,-40.1333 471.28,-61.9633 487.276,-54.8658"/>
</a>
</g>
<!-- n_pre_ballots&#45;&gt;n_ongoing_ballots -->
<g id="edge24" class="edge"><title>n_pre_ballots&#45;&gt;n_ongoing_ballots</title>
<a xlink:href="36.html">
<path fill="none" stroke="yellow" stroke-width="5" d="M264.084,-38.268C268.409,-44.2369 272.852,-51.152 276,-58 278.585,-63.6233 280.744,-69.7982 282.531,-75.9155"/>
<polygon fill="yellow" stroke="yellow" points="274.08,-78.1951 287.249,-95.6057 291.098,-74.1173 274.08,-78.1951"/>
</a>
</g>
<!-- n_pre_ballots&#45;&gt;n_pre_ballots -->
<g id="edge38" class="edge"><title>n_pre_ballots&#45;&gt;n_pre_ballots</title>
<a xlink:href="37.html" xlink:title=" +/&#45;">
<path fill="none" stroke="yellow" stroke-width="5" d="M306.463,-28.5056C306.624,-28.4888 306.784,-28.4715 306.943,-28.4538"/>
<polygon fill="yellow" stroke="yellow" points="306.463,-11.4944 316.026,-31.2312 308.745,-21.4337 309.029,-31.4297 307.03,-31.4864 305.03,-31.543 304.747,-21.5471 298.033,-31.7415 306.463,-11.4944 306.463,-11.4944"/>
<ellipse fill="none" stroke="yellow" cx="307.256" cy="-39.4831" rx="8" ry="8"/>
</a>
<a xlink:href="37.html" xlink:title=" +/&#45;">
<text text-anchor="middle" x="336.5" y="-15.6" font-family="Times,serif" font-size="18.00"> +/&#45;</text>
</a>
</g>
<!-- n_begin_vote -->
<g id="node25" class="node"><title>n_begin_vote</title>
<ellipse fill="none" stroke="green" cx="187" cy="-382" rx="71.127" ry="19.6"/>
<text text-anchor="middle" x="187" y="-377.6" font-family="Times,serif" font-size="18.00">begin_vote </text>
</g>
<!-- n_begin_vote&#45;&gt;n_pre_ballots -->
<g id="edge28" class="edge"><title>n_begin_vote&#45;&gt;n_pre_ballots</title>
<a xlink:href="35.html">
<path fill="none" stroke="green" stroke-width="5" d="M187,-362.039C187,-339.416 187,-300.448 187,-267 187,-267 187,-267 187,-113 187,-90.2329 200.297,-68.9673 214.673,-52.6288"/>
<polygon fill="green" stroke="green" points="220.937,-58.7377 228.671,-38.3231 208.429,-46.4984 220.937,-58.7377"/>
</a>
</g>
<!-- n_S -->
<g id="node35" class="node"><title>n_S</title>
<a xlink:href="javascript:advanceTo(-2)" xlink:title="S ">
<polygon fill="none" stroke="blue" stroke-width="3" points="187,-666 156,-638 187,-610 218,-638 187,-666"/>
<text text-anchor="middle" x="187" y="-633.6" font-family="Times,serif" font-size="18.00">S </text>
</a>
</g>
<!-- n_S&#45;&gt;n_num_required -->
<g id="edge48" class="edge"><title>n_S&#45;&gt;n_num_required</title>
<path fill="none" stroke="blue" stroke-width="5" d="M175.216,-620.433C159.605,-598.484 131.656,-559.189 111.188,-530.413"/>
<polygon fill="blue" stroke="blue" points="118.029,-524.934 99.3062,-513.708 103.768,-535.077 118.029,-524.934"/>
</g>
<!-- n_S&#45;&gt;n_cast_vote -->
<g id="edge50" class="edge"><title>n_S&#45;&gt;n_cast_vote</title>
<path fill="none" stroke="blue" stroke-width="5" d="M204.094,-625.386C211.169,-620.599 219.465,-615.011 227,-610 241.114,-600.614 256.574,-590.447 270.496,-581.335"/>
<polygon fill="blue" stroke="blue" points="275.71,-588.38 287.669,-570.117 266.14,-573.729 275.71,-588.38"/>
</g>
<!-- n_S&#45;&gt;n_begin_vote -->
<g id="edge46" class="edge"><title>n_S&#45;&gt;n_begin_vote</title>
<path fill="none" stroke="blue" stroke-width="5" d="M187,-609.818C187,-564.779 187,-474.496 187,-422.443"/>
<polygon fill="blue" stroke="blue" points="195.75,-422.117 187,-402.117 178.25,-422.117 195.75,-422.117"/>
</g>
<!-- n_T -->
<g id="node36" class="node"><title>n_T</title>
<a xlink:href="javascript:advanceTo(0)" xlink:title="T ">
<polygon fill="none" stroke="blue" stroke-width="3" points="268,-666 236,-638 268,-610 300,-638 268,-666"/>
<text text-anchor="middle" x="268" y="-633.6" font-family="Times,serif" font-size="18.00">T </text>
</a>
</g>
</g>
</svg>
