<?xml version="1.0" encoding="UTF-8" standalone="no"?>
<!DOCTYPE svg PUBLIC "-//W3C//DTD SVG 1.1//EN"
 "http://www.w3.org/Graphics/SVG/1.1/DTD/svg11.dtd">
<!-- Generated by graphviz version 2.28.0 (20110517.1826)
 -->
<!-- Title: G Pages: 1 -->
<svg width="520pt" height="406pt"
 viewBox="0.00 0.00 520.00 406.00" xmlns="http://www.w3.org/2000/svg" xmlns:xlink="http://www.w3.org/1999/xlink">
<g id="graph1" class="graph" transform="scale(1 1) rotate(0) translate(4 402)">
<script type='text/javascript'>
  <![CDATA[

var windows = new Array()
var info = new Array()

function openWin(target, time) {
  win = window.open(target + "_" + time + ".html", target, "location=no,width=400,height=180,left=0,status=no");
  // hm, an associative array, how strange.
  info[target] = 1
}

function advanceTo(time) {
  arr = gup("wins").split(",");
  for (i=0; i < arr.length; i++) {
    if (arr[i] != "") {
      openWin(arr[i], time);
    }
  }
  str = '';
  // getting 'key_cols'
  for (var i in info) {
    str = str + ',' + i;
  }
  self.window.location.href = 'tm_' + time + '.svg?wins=' + str;
}

// off the netz
function gup(name) {
  name = name.replace(/[[]/,"\[").replace(/[]]/,"\]");
  var regexS = "[\?&]"+name+"=([^&#]*)";
  var regex = new RegExp(regexS);
  var results = regex.exec(window.location.href);
  if (results == null)
    return "";
  else
    return results[1];
}

  ]]>
</script>

<polygon fill="white" stroke="white" points="-4,5 -4,-402 517,-402 517,5 -4,5"/>
<!-- n_total_counts -->
<g id="node1" class="node"><title>n_total_counts</title>
<a xlink:href="total_counts.html" xlink:title="total_counts N">
<polygon fill="none" stroke="yellow" points="239,-208 117,-208 117,-172 239,-172 239,-208"/>
<text text-anchor="middle" x="178" y="-185.6" font-family="Times,serif" font-size="18.00">total_counts N</text>
</a>
</g>
<!-- n_total_counts&#45;&gt;n_total_counts -->
<g id="edge4" class="edge"><title>n_total_counts&#45;&gt;n_total_counts</title>
<a xlink:href="28.html" xlink:title=" +/&#45;">
<path fill="none" stroke="yellow" stroke-width="5" d="M239.279,-196.301C239.442,-196.288 239.605,-196.274 239.767,-196.26"/>
<polygon fill="yellow" stroke="yellow" points="239.279,-183.699 249.049,-203.334 241.666,-193.613 242.054,-203.606 240.056,-203.684 238.057,-203.761 237.669,-193.769 231.063,-204.033 239.279,-183.699 239.279,-183.699"/>
<ellipse fill="none" stroke="yellow" cx="240.367" cy="-211.678" rx="8" ry="8"/>
</a>
<a xlink:href="28.html" xlink:title=" +/&#45;">
<text text-anchor="middle" x="269.5" y="-185.6" font-family="Times,serif" font-size="18.00"> +/&#45;</text>
</a>
</g>
<!-- n_return_count -->
<g id="node5" class="node"><title>n_return_count</title>
<a xlink:href="return_count.html" xlink:title="return_count N">
<ellipse fill="none" stroke="yellow" cx="105" cy="-114" rx="89.2052" ry="19.6"/>
<text text-anchor="middle" x="105" y="-109.6" font-family="Times,serif" font-size="18.00">return_count N</text>
</a>
</g>
<!-- n_total_counts&#45;&gt;n_return_count -->
<g id="edge10" class="edge"><title>n_total_counts&#45;&gt;n_return_count</title>
<a xlink:href="27.html">
<path fill="none" stroke="yellow" stroke-width="5" d="M161.069,-171.837C157.277,-167.993 153.085,-163.743 148.75,-159.35"/>
<polygon fill="yellow" stroke="yellow" points="123.374,-133.626 143.827,-141.543 131.82,-139.34 138.843,-146.459 137.419,-147.864 135.996,-149.268 128.973,-142.149 131.012,-154.184 123.374,-133.626 123.374,-133.626"/>
<ellipse fill="none" stroke="yellow" cx="143.038" cy="-153.559" rx="8.00001" ry="8.00001"/>
</a>
</g>
<!-- n_increment_count -->
<g id="node2" class="node"><title>n_increment_count</title>
<ellipse fill="none" stroke="green" cx="411" cy="-284" rx="101.174" ry="19.6"/>
<text text-anchor="middle" x="411" y="-279.6" font-family="Times,serif" font-size="18.00">increment_count </text>
</g>
<!-- n_increment_count&#45;&gt;n_total_counts -->
<g id="edge2" class="edge"><title>n_increment_count&#45;&gt;n_total_counts</title>
<a xlink:href="25.html" xlink:title=" +/&#45;">
<path fill="none" stroke="green" stroke-width="5" d="M367.993,-266.019C336.305,-253.507 292.357,-236.154 254.709,-221.289"/>
<polygon fill="green" stroke="green" points="221.151,-208.038 243.058,-207.012 231.186,-209.85 240.488,-213.523 239.753,-215.383 239.019,-217.243 229.717,-213.571 236.448,-223.754 221.151,-208.038 221.151,-208.038"/>
<ellipse fill="none" stroke="green" cx="247.194" cy="-218.321" rx="8.00001" ry="8.00001"/>
</a>
<a xlink:href="25.html" xlink:title=" +/&#45;">
<text text-anchor="middle" x="327.5" y="-231.6" font-family="Times,serif" font-size="18.00"> +/&#45;</text>
</a>
</g>
<!-- n_T -->
<g id="node13" class="node"><title>n_T</title>
<a xlink:href="javascript:advanceTo(0)" xlink:title="T ">
<polygon fill="none" stroke="blue" stroke-width="3" points="105,-56 73,-28 105,-1.42109e-14 137,-28 105,-56"/>
<text text-anchor="middle" x="105" y="-23.6" font-family="Times,serif" font-size="18.00">T </text>
</a>
</g>
<!-- n_return_count&#45;&gt;n_T -->
<g id="edge20" class="edge"><title>n_return_count&#45;&gt;n_T</title>
<path fill="none" stroke="yellow" stroke-width="5" d="M105,-93.9391C105,-88.6334 105,-82.6232 105,-76.4533"/>
<polygon fill="yellow" stroke="yellow" points="113.75,-76.2669 105,-56.267 96.2501,-76.267 113.75,-76.2669"/>
</g>
<!-- n_get_count -->
<g id="node6" class="node"><title>n_get_count</title>
<ellipse fill="none" stroke="green" cx="65" cy="-284" rx="65.1436" ry="19.6"/>
<text text-anchor="middle" x="65" y="-279.6" font-family="Times,serif" font-size="18.00">get_count </text>
</g>
<!-- n_get_count&#45;&gt;n_total_counts -->
<g id="edge12" class="edge"><title>n_get_count&#45;&gt;n_total_counts</title>
<a xlink:href="26.html" xlink:title=" +/&#45;">
<path fill="none" stroke="green" stroke-width="5" d="M86.7875,-265.261C102.225,-252.693 123.307,-235.529 141.314,-220.868"/>
<polygon fill="green" stroke="green" points="147.058,-227.475 157.043,-208.062 136.009,-213.904 147.058,-227.475"/>
</a>
<a xlink:href="26.html" xlink:title=" +/&#45;">
<text text-anchor="middle" x="147.5" y="-231.6" font-family="Times,serif" font-size="18.00"> +/&#45;</text>
</a>
</g>
<!-- n_get_count&#45;&gt;n_return_count -->
<g id="edge6" class="edge"><title>n_get_count&#45;&gt;n_return_count</title>
<a xlink:href="27.html">
<path fill="none" stroke="green" stroke-width="5" d="M69.5108,-264.055C75.8595,-237.39 87.5737,-188.191 95.8024,-153.63"/>
<polygon fill="green" stroke="green" points="104.385,-155.359 100.506,-133.876 87.3612,-151.305 104.385,-155.359"/>
</a>
</g>
<!-- n_clear_ident -->
<g id="node8" class="node"><title>n_clear_ident</title>
<ellipse fill="none" stroke="green" cx="220" cy="-284" rx="71.127" ry="19.6"/>
<text text-anchor="middle" x="220" y="-279.6" font-family="Times,serif" font-size="18.00">clear_ident </text>
</g>
<!-- n_clear_ident&#45;&gt;n_total_counts -->
<g id="edge8" class="edge"><title>n_clear_ident&#45;&gt;n_total_counts</title>
<a xlink:href="30.html" xlink:title=" +/&#45;">
<path fill="none" stroke="green" stroke-width="5" d="M211.298,-263.938C208.194,-257.138 204.536,-249.126 200.802,-240.947"/>
<polygon fill="green" stroke="green" points="185.841,-208.176 202.334,-222.632 191.814,-216.443 195.967,-225.54 194.147,-226.37 192.328,-227.201 188.175,-218.104 185.96,-230.108 185.841,-208.176 185.841,-208.176"/>
<ellipse fill="none" stroke="green" cx="197.47" cy="-233.648" rx="8.00001" ry="8.00001"/>
</a>
<a xlink:href="30.html" xlink:title=" +/&#45;">
<text text-anchor="middle" x="215.5" y="-231.6" font-family="Times,serif" font-size="18.00"> +/&#45;</text>
</a>
</g>
<!-- n_S -->
<g id="node12" class="node"><title>n_S</title>
<a xlink:href="javascript:advanceTo(-2)" xlink:title="S ">
<polygon fill="none" stroke="blue" stroke-width="3" points="220,-398 189,-370 220,-342 251,-370 220,-398"/>
<text text-anchor="middle" x="220" y="-365.6" font-family="Times,serif" font-size="18.00">S </text>
</a>
</g>
<!-- n_S&#45;&gt;n_increment_count -->
<g id="edge18" class="edge"><title>n_S&#45;&gt;n_increment_count</title>
<path fill="none" stroke="blue" stroke-width="5" d="M240.44,-360.011C267.114,-348.28 314.893,-327.267 353.109,-310.46"/>
<polygon fill="blue" stroke="blue" points="356.726,-318.428 371.512,-302.367 349.681,-302.409 356.726,-318.428"/>
</g>
<!-- n_S&#45;&gt;n_get_count -->
<g id="edge16" class="edge"><title>n_S&#45;&gt;n_get_count</title>
<path fill="none" stroke="blue" stroke-width="5" d="M201.303,-358.868C179.669,-347.143 143.202,-327.38 113.43,-311.246"/>
<polygon fill="blue" stroke="blue" points="117.256,-303.367 95.503,-301.531 108.918,-318.753 117.256,-303.367"/>
</g>
<!-- n_S&#45;&gt;n_clear_ident -->
<g id="edge14" class="edge"><title>n_S&#45;&gt;n_clear_ident</title>
<path fill="none" stroke="blue" stroke-width="5" d="M220,-341.959C220,-336.256 220,-330.129 220,-324.083"/>
<polygon fill="blue" stroke="blue" points="228.75,-324.01 220,-304.01 211.25,-324.01 228.75,-324.01"/>
</g>
</g>
</svg>
